<svg width="172" height="20" viewBox="0 0 172 20" fill="none" xmlns="http://www.w3.org/2000/svg">
<path d="M6.04656 3.47936C7.03248 3.47936 7.93104 3.69776 8.74224 4.13456C9.55344 4.57136 10.1962 5.19536 10.6704 6.00656C11.1446 6.80528 11.3818 7.73504 11.3818 8.79584C11.3818 9.85664 11.1446 10.7926 10.6704 11.6038C10.1962 12.415 9.5472 13.0453 8.72352 13.4946C7.91232 13.9314 7.00752 14.1498 6.00912 14.1498C5.0232 14.1498 4.12464 13.9314 3.31344 13.4946C2.50224 13.0453 1.85952 12.415 1.38528 11.6038C0.92352 10.7926 0.69264 9.85664 0.69264 8.79584C0.69264 7.73504 0.92976 6.80528 1.404 6.00656C1.87824 5.19536 2.52096 4.57136 3.33216 4.13456C4.14336 3.69776 5.04816 3.47936 6.04656 3.47936ZM6.02784 5.70704C5.27904 5.70704 4.6488 5.97536 4.13712 6.512C3.62544 7.04864 3.3696 7.81616 3.3696 8.81456C3.3696 9.48848 3.48816 10.0626 3.72528 10.5368C3.97488 10.9986 4.29936 11.348 4.69872 11.5851C5.09808 11.8098 5.53488 11.9221 6.00912 11.9221C6.47088 11.9221 6.90768 11.8035 7.31952 11.5664C7.73136 11.3293 8.06208 10.9798 8.31168 10.5181C8.57376 10.0438 8.7048 9.476 8.7048 8.81456C8.7048 8.14064 8.58 7.5728 8.3304 7.11104C8.0808 6.6368 7.75008 6.28736 7.33824 6.06272C6.93888 5.8256 6.50208 5.70704 6.02784 5.70704ZM19.4413 3.47936C20.3274 3.47936 21.1386 3.704 21.8749 4.15328C22.6112 4.60256 23.1915 5.2328 23.6159 6.044C24.0402 6.84272 24.2523 7.76 24.2523 8.79584C24.2523 9.83168 24.0402 10.7614 23.6159 11.5851C23.1915 12.3963 22.6112 13.0266 21.8749 13.4758C21.1386 13.9251 20.3274 14.1498 19.4413 14.1498C18.6925 14.1498 18.0373 13.9813 17.4757 13.6443C16.9266 13.3074 16.4711 12.8456 16.1091 12.259V18.9421H13.4696V3.62912H16.1091V5.23904C16.4461 4.68992 16.8954 4.25936 17.457 3.94736C18.0311 3.63536 18.6925 3.47936 19.4413 3.47936ZM18.8423 5.7632C18.368 5.7632 17.9187 5.88176 17.4944 6.11888C17.0826 6.356 16.7456 6.70544 16.4835 7.1672C16.2339 7.62896 16.1091 8.17808 16.1091 8.81456C16.1091 9.45104 16.2339 10.0002 16.4835 10.4619C16.7456 10.9237 17.0826 11.2731 17.4944 11.5102C17.9187 11.7474 18.368 11.8659 18.8423 11.8659C19.3165 11.8659 19.7595 11.7474 20.1714 11.5102C20.5957 11.2731 20.9327 10.9237 21.1823 10.4619C21.4443 9.98768 21.5754 9.43232 21.5754 8.79584C21.5754 8.15936 21.4443 7.61024 21.1823 7.14848C20.9327 6.68672 20.5957 6.34352 20.1714 6.11888C19.7595 5.88176 19.3165 5.7632 18.8423 5.7632ZM35.9247 8.6648C35.9247 9.02672 35.8997 9.36368 35.8498 9.67568H28.2869C28.3493 10.3496 28.5989 10.8925 29.0357 11.3043C29.4725 11.7162 30.0279 11.9221 30.7018 11.9221C31.226 11.9221 31.6441 11.8222 31.9561 11.6226C32.2681 11.4229 32.5239 11.1483 32.7236 10.7989H35.569C35.2695 11.7848 34.6892 12.5898 33.8281 13.2138C32.9669 13.8378 31.9249 14.1498 30.7018 14.1498C29.7159 14.1498 28.8361 13.9314 28.0623 13.4946C27.2885 13.0453 26.6833 12.4213 26.2465 11.6226C25.8097 10.8114 25.5913 9.86912 25.5913 8.79584C25.5913 7.72256 25.8097 6.78656 26.2465 5.98784C26.6833 5.18912 27.2885 4.57136 28.0623 4.13456C28.8485 3.69776 29.7409 3.47936 30.7393 3.47936C31.7377 3.47936 32.6237 3.69152 33.3975 4.11584C34.1837 4.54016 34.8015 5.14544 35.2508 5.93168C35.7001 6.70544 35.9247 7.61648 35.9247 8.6648ZM33.1916 7.97216C33.1541 7.28576 32.8983 6.73664 32.4241 6.3248C31.9623 5.91296 31.3882 5.70704 30.7018 5.70704C30.0653 5.70704 29.5225 5.91296 29.0732 6.3248C28.6364 6.73664 28.3743 7.28576 28.2869 7.97216H33.1916ZM43.8624 3.47936C44.6362 3.47936 45.3226 3.65408 45.9216 4.00352C46.5331 4.34048 47.0136 4.84592 47.3631 5.51984C47.7125 6.18128 47.8872 6.97376 47.8872 7.89728V14H45.2664V8.27168C45.2664 7.46048 45.0605 6.84272 44.6487 6.4184C44.2368 5.9816 43.6752 5.7632 42.9639 5.7632C42.2525 5.7632 41.6847 5.9816 41.2603 6.4184C40.8485 6.84272 40.6426 7.46048 40.6426 8.27168V14H38.0031V3.62912H40.6426V5.18288C40.9671 4.63376 41.4039 4.21568 41.953 3.92864C42.5146 3.62912 43.1511 3.47936 43.8624 3.47936ZM54.6798 3.47936C55.4161 3.47936 56.0713 3.63536 56.6454 3.94736C57.2195 4.25936 57.6812 4.68992 58.0307 5.23904V0.1472H60.6515V14H58.0307V12.259C57.6688 12.8456 57.2008 13.3074 56.6267 13.6443C56.0651 13.9813 55.4161 14.1498 54.6798 14.1498C53.7937 14.1498 52.9825 13.9251 52.2462 13.4758C51.5224 13.0141 50.942 12.3776 50.5052 11.5664C50.0809 10.7552 49.8688 9.83168 49.8688 8.79584C49.8688 7.76 50.0809 6.84272 50.5052 6.044C50.942 5.2328 51.5224 4.60256 52.2462 4.15328C52.9825 3.704 53.7937 3.47936 54.6798 3.47936ZM55.2788 5.7632C54.8171 5.7632 54.374 5.88176 53.9497 6.11888C53.5379 6.356 53.2009 6.70544 52.9388 7.1672C52.6768 7.61648 52.5457 8.15936 52.5457 8.79584C52.5457 9.43232 52.6768 9.98768 52.9388 10.4619C53.2009 10.9237 53.5379 11.2731 53.9497 11.5102C54.374 11.7474 54.8171 11.8659 55.2788 11.8659C55.7531 11.8659 56.1961 11.7474 56.608 11.5102C57.0323 11.2731 57.3755 10.9237 57.6376 10.4619C57.8996 10.0002 58.0307 9.45104 58.0307 8.81456C58.0307 8.17808 57.8996 7.62896 57.6376 7.1672C57.3755 6.70544 57.0323 6.356 56.608 6.11888C56.1961 5.88176 55.7531 5.7632 55.2788 5.7632ZM67.5315 3.47936C68.2678 3.47936 68.923 3.63536 69.4971 3.94736C70.0712 4.25936 70.533 4.68992 70.8824 5.23904V3.62912H73.5032V14H70.8824V12.259C70.5205 12.8456 70.0525 13.3074 69.4784 13.6443C68.9168 13.9813 68.2678 14.1498 67.5315 14.1498C66.6454 14.1498 65.8342 13.9251 65.0979 13.4758C64.3741 13.0141 63.7938 12.3776 63.357 11.5664C62.9326 10.7552 62.7205 9.83168 62.7205 8.79584C62.7205 7.76 62.9326 6.84272 63.357 6.044C63.7938 5.2328 64.3741 4.60256 65.0979 4.15328C65.8342 3.704 66.6454 3.47936 67.5315 3.47936ZM68.1306 5.7632C67.6688 5.7632 67.2258 5.88176 66.8014 6.11888C66.3896 6.356 66.0526 6.70544 65.7906 7.1672C65.5285 7.61648 65.3974 8.15936 65.3974 8.79584C65.3974 9.43232 65.5285 9.98768 65.7906 10.4619C66.0526 10.9237 66.3896 11.2731 66.8014 11.5102C67.2258 11.7474 67.6688 11.8659 68.1306 11.8659C68.6048 11.8659 69.0478 11.7474 69.4597 11.5102C69.884 11.2731 70.2272 10.9237 70.4893 10.4619C70.7514 10.0002 70.8824 9.45104 70.8824 8.81456C70.8824 8.17808 70.7514 7.62896 70.4893 7.1672C70.2272 6.70544 69.884 6.356 69.4597 6.11888C69.0478 5.88176 68.6048 5.7632 68.1306 5.7632ZM81.5813 11.791V14H79.9152C78.8544 14 78.037 13.7566 77.4629 13.2699C76.8888 12.7832 76.6018 11.9782 76.6018 10.855V5.78192H75.4973V3.62912H76.6018V1.06448H79.2413V3.62912H81.5626V5.78192H79.2413V10.855C79.2413 11.192 79.3224 11.4354 79.4847 11.5851C79.6469 11.7224 79.9277 11.791 80.3271 11.791H81.5813ZM87.714 3.47936C88.4503 3.47936 89.1055 3.63536 89.6796 3.94736C90.2537 4.25936 90.7155 4.68992 91.0649 5.23904V3.62912H93.6857V14H91.0649V12.259C90.703 12.8456 90.235 13.3074 89.6609 13.6443C89.0993 13.9813 88.4503 14.1498 87.714 14.1498C86.8279 14.1498 86.0167 13.9251 85.2804 13.4758C84.5566 13.0141 83.9763 12.3776 83.5395 11.5664C83.1151 10.7552 82.903 9.83168 82.903 8.79584C82.903 7.76 83.1151 6.84272 83.5395 6.044C83.9763 5.2328 84.5566 4.60256 85.2804 4.15328C86.0167 3.704 86.8279 3.47936 87.714 3.47936ZM88.3131 5.7632C87.8513 5.7632 87.4083 5.88176 86.9839 6.11888C86.5721 6.356 86.2351 6.70544 85.9731 7.1672C85.711 7.61648 85.5799 8.15936 85.5799 8.79584C85.5799 9.43232 85.711 9.98768 85.9731 10.4619C86.2351 10.9237 86.5721 11.2731 86.9839 11.5102C87.4083 11.7474 87.8513 11.8659 88.3131 11.8659C88.7873 11.8659 89.2303 11.7474 89.6422 11.5102C90.0665 11.2731 90.4097 10.9237 90.6718 10.4619C90.9339 10.0002 91.0649 9.45104 91.0649 8.81456C91.0649 8.17808 90.9339 7.62896 90.6718 7.1672C90.4097 6.70544 90.0665 6.356 89.6422 6.11888C89.2303 5.88176 88.7873 5.7632 88.3131 5.7632ZM95.8857 12.5024C95.8857 12.0781 96.0293 11.7224 96.3163 11.4354C96.6033 11.1483 96.9528 11.0048 97.3646 11.0048C97.7889 11.0048 98.1446 11.1483 98.4317 11.4354C98.7312 11.7224 98.8809 12.0781 98.8809 12.5024C98.8809 12.9267 98.7312 13.2824 98.4317 13.5694C98.1446 13.8565 97.7889 14 97.3646 14C96.9528 14 96.6033 13.8565 96.3163 13.5694C96.0293 13.2824 95.8857 12.9267 95.8857 12.5024ZM105.154 3.47936C105.891 3.47936 106.546 3.63536 107.12 3.94736C107.694 4.25936 108.156 4.68992 108.505 5.23904V3.62912H111.126V14.0749C111.126 15.0358 110.933 15.897 110.546 16.6582C110.171 17.4195 109.597 18.0186 108.823 18.4554C108.062 18.9046 107.12 19.1293 105.997 19.1293C104.512 19.1293 103.301 18.7986 102.365 18.1371C101.442 17.4882 100.917 16.5584 100.793 15.3478H103.376C103.538 15.8096 103.85 16.1715 104.312 16.4336C104.774 16.7082 105.335 16.8454 105.997 16.8454C106.733 16.8454 107.332 16.6146 107.794 16.1528C108.268 15.691 108.505 14.9984 108.505 14.0749V12.259C108.143 12.8456 107.675 13.3074 107.101 13.6443C106.54 13.9813 105.891 14.1498 105.154 14.1498C104.268 14.1498 103.457 13.9251 102.721 13.4758C101.997 13.0141 101.417 12.3776 100.98 11.5664C100.555 10.7552 100.343 9.83168 100.343 8.79584C100.343 7.76 100.555 6.84272 100.98 6.044C101.417 5.2328 101.997 4.60256 102.721 4.15328C103.457 3.704 104.268 3.47936 105.154 3.47936ZM105.753 5.7632C105.292 5.7632 104.849 5.88176 104.424 6.11888C104.012 6.356 103.675 6.70544 103.413 7.1672C103.151 7.61648 103.02 8.15936 103.02 8.79584C103.02 9.43232 103.151 9.98768 103.413 10.4619C103.675 10.9237 104.012 11.2731 104.424 11.5102C104.849 11.7474 105.292 11.8659 105.753 11.8659C106.228 11.8659 106.671 11.7474 107.082 11.5102C107.507 11.2731 107.85 10.9237 108.112 10.4619C108.374 10.0002 108.505 9.45104 108.505 8.81456C108.505 8.17808 108.374 7.62896 108.112 7.1672C107.85 6.70544 107.507 6.356 107.082 6.11888C106.671 5.88176 106.228 5.7632 105.753 5.7632ZM118.568 3.47936C119.554 3.47936 120.452 3.69776 121.263 4.13456C122.075 4.57136 122.717 5.19536 123.191 6.00656C123.666 6.80528 123.903 7.73504 123.903 8.79584C123.903 9.85664 123.666 10.7926 123.191 11.6038C122.717 12.415 122.068 13.0453 121.245 13.4946C120.433 13.9314 119.529 14.1498 118.53 14.1498C117.544 14.1498 116.646 13.9314 115.835 13.4946C115.023 13.0453 114.381 12.415 113.906 11.6038C113.445 10.7926 113.214 9.85664 113.214 8.79584C113.214 7.73504 113.451 6.80528 113.925 6.00656C114.399 5.19536 115.042 4.57136 115.853 4.13456C116.664 3.69776 117.569 3.47936 118.568 3.47936ZM118.549 5.70704C117.8 5.70704 117.17 5.97536 116.658 6.512C116.147 7.04864 115.891 7.81616 115.891 8.81456C115.891 9.48848 116.009 10.0626 116.246 10.5368C116.496 10.9986 116.82 11.348 117.22 11.5851C117.619 11.8098 118.056 11.9221 118.53 11.9221C118.992 11.9221 119.429 11.8035 119.841 11.5664C120.252 11.3293 120.583 10.9798 120.833 10.5181C121.095 10.0438 121.226 9.476 121.226 8.81456C121.226 8.14064 121.101 7.5728 120.851 7.11104C120.602 6.6368 120.271 6.28736 119.859 6.06272C119.46 5.8256 119.023 5.70704 118.549 5.70704ZM135.781 3.62912V14H133.142V12.4275C132.817 12.9766 132.374 13.401 131.813 13.7005C131.264 13.9875 130.627 14.131 129.903 14.131C129.142 14.131 128.456 13.9626 127.844 13.6256C127.245 13.2762 126.771 12.7707 126.421 12.1093C126.072 11.4354 125.897 10.6366 125.897 9.71312V3.62912H128.518V9.33872C128.518 10.1499 128.724 10.7739 129.136 11.2107C129.548 11.6475 130.109 11.8659 130.82 11.8659C131.532 11.8659 132.093 11.6475 132.505 11.2107C132.93 10.7739 133.142 10.1499 133.142 9.33872V3.62912H135.781ZM142.798 11.7349L145.457 3.62912H148.265L144.446 14H141.132L137.314 3.62912H140.122L142.798 11.7349ZM149.306 12.727C149.306 12.3651 149.425 12.0594 149.662 11.8098C149.911 11.5602 150.217 11.4354 150.579 11.4354C150.941 11.4354 151.247 11.5602 151.496 11.8098C151.746 12.0594 151.871 12.3651 151.871 12.727C151.871 13.089 151.746 13.3947 151.496 13.6443C151.247 13.8814 150.941 14 150.579 14C150.23 14 149.93 13.8752 149.681 13.6256C149.431 13.376 149.306 13.0765 149.306 12.727Z" fill="#3A3A3A"/>
<path d="M155.809 10.7802C155.771 11.0173 155.752 11.2294 155.752 11.4166C155.752 11.816 155.859 12.0968 156.071 12.259C156.295 12.4213 156.657 12.5024 157.156 12.5024H158.205L157.924 14H156.651C155.777 14 155.116 13.8253 154.667 13.4758C154.23 13.1264 154.011 12.5523 154.011 11.7536C154.011 11.3917 154.043 11.0547 154.105 10.7427L155.097 5.2016H153.562L153.806 3.72272H155.359L155.809 1.15808H157.512L157.063 3.72272H159.721L159.459 5.2016H156.801L155.809 10.7802ZM164.496 14.1498C163.297 14.1498 162.343 13.7878 161.631 13.064C160.92 12.3277 160.564 11.323 160.564 10.0501C160.564 9.7256 160.608 9.2888 160.695 8.73968C160.883 7.69136 161.245 6.78032 161.781 6.00656C162.318 5.22032 162.973 4.62128 163.747 4.20944C164.533 3.7976 165.382 3.59168 166.293 3.59168C167.304 3.59168 168.115 3.84128 168.726 4.34048C169.35 4.83968 169.725 5.50736 169.849 6.34352L170.317 3.72272H172.002L170.149 14.1685C169.987 15.117 169.644 15.9594 169.119 16.6957C168.595 17.432 167.94 18.0061 167.154 18.4179C166.368 18.8298 165.506 19.0357 164.57 19.0357C163.198 19.0357 162.124 18.6987 161.351 18.0248C160.589 17.3634 160.165 16.4648 160.078 15.3291H161.762C161.862 16.0155 162.156 16.5522 162.642 16.939C163.129 17.3384 163.803 17.5381 164.664 17.5381C165.6 17.5381 166.424 17.2448 167.135 16.6582C167.846 16.0717 168.289 15.2418 168.464 14.1685L168.97 11.3792C168.558 12.2154 167.953 12.8893 167.154 13.401C166.368 13.9002 165.481 14.1498 164.496 14.1498ZM166.573 5.08928C165.513 5.08928 164.608 5.42624 163.859 6.10016C163.11 6.77408 162.636 7.6976 162.436 8.87072C162.374 9.22016 162.343 9.52592 162.343 9.788C162.343 10.6741 162.599 11.3667 163.11 11.8659C163.634 12.3651 164.346 12.6147 165.244 12.6147C165.906 12.6147 166.53 12.465 167.116 12.1654C167.703 11.8534 168.196 11.4166 168.595 10.855C169.007 10.281 169.282 9.61952 169.419 8.87072C169.469 8.62112 169.494 8.34656 169.494 8.04704C169.494 7.14848 169.225 6.43088 168.689 5.89424C168.165 5.3576 167.46 5.08928 166.573 5.08928Z" fill="#6E6969"/>
</svg>
