<svg version="1.1" id="Layer_1" xmlns="http://www.w3.org/2000/svg" xmlns:xlink="http://www.w3.org/1999/xlink" x="0px" y="0px"
	 width="100%" viewBox="0 0 162 57" enable-background="new 0 0 162 57" xml:space="preserve">
<path fill="#FBFCFC" opacity="1.000000" stroke="none" 
	d="
M113.000000,58.000000 
	C75.333336,58.000000 38.166676,58.000000 1.000010,58.000000 
	C1.000007,39.000008 1.000007,20.000013 1.000003,1.000015 
	C54.999985,1.000010 108.999969,1.000010 162.999969,1.000005 
	C162.999969,19.999985 162.999969,38.999969 162.999985,57.999977 
	C146.500000,58.000000 130.000000,58.000000 113.000000,58.000000 
M132.502319,32.898525 
	C132.335983,32.928524 132.169662,32.958523 131.334381,33.170612 
	C131.549438,34.089310 131.764496,35.008007 132.651154,36.313770 
	C137.420227,37.540695 138.655884,36.881210 138.452713,33.482452 
	C136.865601,33.664932 135.241165,33.851707 133.728790,33.559288 
	C133.624802,33.192451 133.382233,33.002651 132.502319,32.898525 
M125.549881,36.757786 
	C126.080399,36.470795 126.610909,36.183800 127.743484,35.696415 
	C127.530235,34.821514 127.316986,33.946613 126.359833,33.134651 
	C125.911018,34.426540 125.462212,35.718430 124.738991,37.102528 
	C124.822708,37.064018 124.906418,37.025509 125.549881,36.757786 
M133.558838,24.017002 
	C133.558838,24.017002 133.160904,24.158901 132.503357,24.188351 
	C132.284241,24.176987 132.065125,24.165623 131.143143,23.952644 
	C130.054901,24.273520 128.966644,24.594393 127.244705,24.933352 
	C126.418587,24.509661 125.592468,24.085970 124.418610,23.483938 
	C123.655594,25.436850 122.935226,27.280617 122.115677,29.378208 
	C126.237808,29.378208 129.732895,29.378208 133.915710,29.663593 
	C135.635880,29.256819 137.341660,28.657166 139.082489,28.527338 
	C139.911667,28.465498 140.807526,29.297606 142.339050,29.816427 
	C143.942062,29.837946 145.548141,29.929802 147.147171,29.860018 
	C148.575790,29.797672 150.705231,30.055470 151.253082,29.276804 
	C152.053925,28.138580 152.185242,26.032791 151.695435,24.663704 
	C151.387146,23.801971 149.410248,23.058111 148.202606,23.088337 
	C144.776108,23.174099 141.360260,23.684872 137.147552,23.936012 
	C136.092026,23.968609 135.036484,24.001207 133.558838,24.017002 
M126.992737,41.886944 
	C129.817322,43.106270 132.641907,44.325592 135.686859,45.640049 
	C136.581848,43.616528 137.121994,42.395283 137.997604,40.415565 
	C138.897705,42.431019 139.447998,43.663197 139.998291,44.895374 
	C140.472565,45.219479 140.946854,45.543583 141.421127,45.867691 
	C141.773834,44.953823 141.920425,43.846073 142.542084,43.185215 
	C143.074249,42.619488 144.150803,42.565842 144.986588,42.285717 
	C144.143509,41.546291 143.394348,40.355949 142.438721,40.156914 
	C140.113663,39.672653 137.694794,39.509792 135.309967,39.475086 
	C132.490738,39.434059 129.667572,39.663757 126.238609,39.418655 
	C125.004654,39.713638 123.380058,39.646019 122.661880,40.419746 
	C122.099777,41.025322 122.661057,42.673618 122.723007,43.854908 
	C124.410187,42.729553 125.427803,42.050797 126.992737,41.886944 
M39.268780,15.311381 
	C34.742332,15.886211 30.215887,16.461040 25.066380,16.652609 
	C24.773481,16.498762 24.486473,16.332239 24.186800,16.192968 
	C19.641035,14.080370 15.161280,13.686105 11.300412,17.456404 
	C8.197171,20.486853 7.196593,24.230537 8.961323,28.388800 
	C11.038306,33.282833 14.895401,35.024094 20.080027,35.041985 
	C28.917519,35.072472 33.001625,38.974579 35.315479,47.588997 
	C35.966946,50.014385 38.493702,52.793316 40.807518,53.638691 
	C42.598831,54.293163 46.066498,52.812542 47.607864,51.171631 
	C50.539089,48.051098 49.265987,44.442421 46.928688,40.503181 
	C45.594654,33.083797 48.503235,27.742071 54.742081,23.763184 
	C59.399418,20.792919 60.961201,16.299469 59.359745,11.877503 
	C57.605000,7.032276 53.150154,4.344245 48.020813,5.035657 
	C43.474209,5.648519 40.551228,9.142742 39.268780,15.311381 
M99.416611,39.817589 
	C103.096642,45.090702 107.145676,46.169483 111.497169,43.214359 
	C113.416611,41.910862 115.552567,40.926193 118.016411,39.560547 
	C118.016411,33.115417 118.090141,26.151152 117.935104,19.191980 
	C117.912453,18.174822 116.799591,17.181952 116.191177,16.177845 
	C115.358955,17.205027 114.083702,18.121569 113.793373,19.284082 
	C113.298920,21.264000 113.423592,23.398533 113.278183,25.620144 
	C104.510521,22.326492 99.143845,24.765806 98.318222,32.251053 
	C98.073074,34.473545 98.824547,36.805958 99.416611,39.817589 
M63.058811,37.023144 
	C62.841812,43.999744 67.747574,46.880802 74.294937,43.522835 
	C76.745300,42.266109 79.044640,40.714935 81.628380,39.169048 
	C81.628380,36.492893 81.785042,33.334267 81.587029,30.198038 
	C81.361244,26.621868 79.457512,24.257256 75.715866,23.961924 
	C71.564796,23.634279 67.215698,23.171705 64.436974,27.250753 
	C63.896381,28.044317 64.498970,29.616634 64.574257,30.829744 
	C65.704453,30.520626 66.910431,30.366478 67.944511,29.860807 
	C69.083084,29.304039 70.106644,27.766790 71.103485,27.831955 
	C72.797104,27.942671 74.430542,28.974121 76.089272,29.618637 
	C74.931969,30.469837 73.867027,31.507811 72.598900,32.134941 
	C69.579773,33.628006 66.464607,34.926872 63.058811,37.023144 
M88.663818,43.887421 
	C90.903549,44.024605 93.160149,44.365841 95.373390,44.182766 
	C96.099060,44.122734 96.712158,42.701805 97.376732,41.903217 
	C96.486053,41.431187 95.629662,40.867699 94.693573,40.516792 
	C93.977249,40.248260 93.160194,40.248436 92.078064,40.081200 
	C92.549904,34.972160 89.307610,29.225840 97.017097,25.871099 
	C93.237587,23.931677 90.357841,22.453966 87.690025,21.084999 
	C86.161430,23.101414 84.957855,24.689083 84.515671,25.272379 
	C85.393745,28.587749 86.155739,30.877439 86.585480,33.227875 
	C87.199478,36.586143 87.570297,39.988876 88.663818,43.887421 
z"/>
<path fill="#2E4350" opacity="1.000000" stroke="none" 
	d="
M46.840973,41.300018 
	C49.265987,44.442421 50.539089,48.051098 47.607864,51.171631 
	C46.066498,52.812542 42.598831,54.293163 40.807518,53.638691 
	C38.493702,52.793316 35.966946,50.014385 35.315479,47.588997 
	C33.001625,38.974579 28.917519,35.072472 20.080027,35.041985 
	C14.895401,35.024094 11.038306,33.282833 8.961323,28.388800 
	C7.196593,24.230537 8.197171,20.486853 11.300412,17.456404 
	C15.161280,13.686105 19.641035,14.080370 24.186800,16.192968 
	C24.486473,16.332239 24.773481,16.498762 25.517958,17.200981 
	C27.057129,20.639454 28.144724,23.529554 29.230328,26.747059 
	C31.050608,32.627861 33.962502,37.264610 40.032112,39.697060 
	C42.522427,40.347153 44.681702,40.823586 46.840973,41.300018 
z"/>
<path fill="#334753" opacity="1.000000" stroke="none" 
	d="
M99.267990,39.452797 
	C98.824547,36.805958 98.073074,34.473545 98.318222,32.251053 
	C99.143845,24.765806 104.510521,22.326492 113.278183,25.620144 
	C113.423592,23.398533 113.298920,21.264000 113.793373,19.284082 
	C114.083702,18.121569 115.358955,17.205027 116.191177,16.177845 
	C116.799591,17.181952 117.912453,18.174822 117.935104,19.191980 
	C118.090141,26.151152 118.016411,33.115417 118.016411,39.560547 
	C115.552567,40.926193 113.416611,41.910862 111.497169,43.214359 
	C107.145676,46.169483 103.096642,45.090702 99.267990,39.452797 
M113.047119,35.230968 
	C112.857140,29.492233 110.217697,26.224689 107.067856,28.211929 
	C105.173027,29.407379 103.734787,32.718906 103.734322,35.079803 
	C103.733955,36.936584 105.906952,39.807384 107.723801,40.419548 
	C110.638748,41.401707 112.497360,39.072914 113.047119,35.230968 
z"/>
<path fill="#229CBF" opacity="1.000000" stroke="none" 
	d="
M29.232319,26.419655 
	C28.144724,23.529554 27.057129,20.639454 25.829489,17.392612 
	C30.215887,16.461040 34.742332,15.886211 39.901764,15.013216 
	C41.674625,13.534319 42.931648,12.444412 43.931358,11.155005 
	C46.446602,7.910897 49.578197,7.028165 53.082966,9.067760 
	C56.199272,10.881289 57.937794,13.669147 56.334869,17.418592 
	C54.660172,21.335928 51.647911,22.771713 47.470322,21.738945 
	C45.583279,21.272438 43.671429,20.906263 41.412277,20.364624 
	C35.931431,20.037512 32.505470,23.082548 29.232319,26.419655 
z"/>
<path fill="#3A4E59" opacity="1.000000" stroke="none" 
	d="
M63.223526,36.663666 
	C66.464607,34.926872 69.579773,33.628006 72.598900,32.134941 
	C73.867027,31.507811 74.931969,30.469837 76.089272,29.618637 
	C74.430542,28.974121 72.797104,27.942671 71.103485,27.831955 
	C70.106644,27.766790 69.083084,29.304039 67.944511,29.860807 
	C66.910431,30.366478 65.704453,30.520626 64.574257,30.829746 
	C64.498970,29.616634 63.896381,28.044317 64.436974,27.250753 
	C67.215698,23.171705 71.564796,23.634279 75.715866,23.961924 
	C79.457512,24.257256 81.361244,26.621868 81.587029,30.198038 
	C81.785042,33.334267 81.628380,36.492893 81.628380,39.169048 
	C79.044640,40.714935 76.745300,42.266109 74.294937,43.522835 
	C67.747574,46.880802 62.841812,43.999744 63.223526,36.663666 
M75.557625,39.185234 
	C75.900002,37.884785 76.242386,36.584332 76.784546,34.525055 
	C74.132309,35.131920 72.277702,35.256786 70.730675,36.011833 
	C69.635246,36.546471 68.955803,37.933411 68.090675,38.939888 
	C69.215462,39.669228 70.281212,40.837872 71.482323,40.999275 
	C72.592201,41.148426 73.847145,40.218136 75.557625,39.185234 
z"/>
<path fill="#9ED5E1" opacity="1.000000" stroke="none" 
	d="
M41.770836,20.494568 
	C43.671429,20.906263 45.583279,21.272438 47.470322,21.738945 
	C51.647911,22.771713 54.660172,21.335928 56.334869,17.418592 
	C57.937794,13.669147 56.199272,10.881289 53.082966,9.067760 
	C49.578197,7.028165 46.446602,7.910897 43.931358,11.155005 
	C42.931648,12.444412 41.674625,13.534319 40.191994,14.759632 
	C40.551228,9.142742 43.474209,5.648519 48.020813,5.035657 
	C53.150154,4.344245 57.605000,7.032276 59.359745,11.877503 
	C60.961201,16.299469 59.399418,20.792919 54.742081,23.763184 
	C48.503235,27.742071 45.594654,33.083797 46.884830,40.901600 
	C44.681702,40.823586 42.522427,40.347153 40.310692,39.399223 
	C44.523453,33.091969 42.842804,26.768293 41.770836,20.494568 
z"/>
<path fill="#374B56" opacity="1.000000" stroke="none" 
	d="
M88.354393,43.630020 
	C87.570297,39.988876 87.199478,36.586143 86.585480,33.227875 
	C86.155739,30.877439 85.393745,28.587749 84.515671,25.272379 
	C84.957855,24.689083 86.161430,23.101414 87.690025,21.084999 
	C90.357841,22.453966 93.237587,23.931677 97.017097,25.871099 
	C89.307610,29.225840 92.549904,34.972160 92.078064,40.081200 
	C93.160194,40.248436 93.977249,40.248260 94.693573,40.516792 
	C95.629662,40.867699 96.486053,41.431187 97.376732,41.903217 
	C96.712158,42.701805 96.099060,44.122734 95.373390,44.182766 
	C93.160149,44.365841 90.903549,44.024605 88.354393,43.630020 
z"/>
<path fill="#ECEEEF" opacity="1.000000" stroke="none" 
	d="
M137.940216,24.028290 
	C141.360260,23.684872 144.776108,23.174099 148.202606,23.088337 
	C149.410248,23.058111 151.387146,23.801971 151.695435,24.663704 
	C152.185242,26.032791 152.053925,28.138580 151.253082,29.276804 
	C150.705231,30.055470 148.575790,29.797672 147.147171,29.860018 
	C145.548141,29.929802 143.942062,29.837946 142.049728,29.440552 
	C140.487015,27.385878 139.213623,25.707083 137.940216,24.028290 
z"/>
<path fill="#919CA2" opacity="1.000000" stroke="none" 
	d="
M126.846115,39.776100 
	C129.667572,39.663757 132.490738,39.434059 135.309967,39.475086 
	C137.694794,39.509792 140.113663,39.672653 142.438721,40.156914 
	C143.394348,40.355949 144.143509,41.546291 144.986588,42.285717 
	C144.150803,42.565842 143.074249,42.619488 142.542084,43.185215 
	C141.920425,43.846073 141.773834,44.953823 141.421127,45.867691 
	C140.946854,45.543583 140.472565,45.219479 139.998291,44.895374 
	C139.447998,43.663197 138.897705,42.431019 137.997604,40.415565 
	C137.121994,42.395283 136.581848,43.616528 135.686859,45.640049 
	C132.641907,44.325592 129.817322,43.106270 126.793289,41.222755 
	C126.677933,40.297741 126.762024,40.036922 126.846115,39.776100 
M140.577484,42.569347 
	C140.659363,42.218803 140.741257,41.868259 140.823135,41.517712 
	C140.604965,41.746067 140.386795,41.974422 140.577484,42.569347 
z"/>
<path fill="#B6BEC2" opacity="1.000000" stroke="none" 
	d="
M133.227982,29.378208 
	C129.732895,29.378208 126.237808,29.378208 122.115677,29.378208 
	C122.935226,27.280617 123.655594,25.436850 124.418610,23.483938 
	C125.592468,24.085970 126.418587,24.509661 127.726929,25.161648 
	C129.421448,24.978048 130.633728,24.566154 131.846024,24.154259 
	C132.065125,24.165623 132.284241,24.176987 132.802826,24.561363 
	C133.135818,26.211155 133.169342,27.487934 133.200836,28.918427 
	C133.198822,29.072142 133.227982,29.378208 133.227982,29.378208 
z"/>
<path fill="#909BA1" opacity="1.000000" stroke="none" 
	d="
M133.571838,29.520901 
	C133.227982,29.378208 133.198822,29.072142 133.421646,28.835037 
	C133.883636,28.384748 134.070023,28.132553 134.504730,27.883028 
	C135.357651,27.876726 135.909500,27.828741 137.450333,27.694763 
	C135.967133,27.207029 135.434021,27.031719 134.904785,26.677078 
	C134.908676,26.497747 134.895721,26.139233 135.175323,26.072056 
	C135.739258,25.872547 136.023590,25.740217 136.307938,25.607887 
	C135.623749,25.465075 134.939545,25.322262 134.187714,24.892811 
	C134.073685,24.415384 134.027328,24.224596 133.980957,24.033806 
	C135.036484,24.001207 136.092026,23.968609 137.543884,23.982151 
	C139.213623,25.707083 140.487015,27.385878 141.716797,29.394726 
	C140.807526,29.297606 139.911667,28.465498 139.082489,28.527338 
	C137.341660,28.657166 135.635880,29.256819 133.571838,29.520901 
z"/>
<path fill="#76C2D8" opacity="1.000000" stroke="none" 
	d="
M133.616714,34.038483 
	C135.241165,33.851707 136.865601,33.664932 138.452713,33.482452 
	C138.655884,36.881210 137.420227,37.540695 132.409637,35.886505 
	C132.411377,35.017673 132.654663,34.576103 133.076569,34.098759 
	C133.255188,34.062984 133.616714,34.038483 133.616714,34.038483 
z"/>
<path fill="#C7CCD0" opacity="1.000000" stroke="none" 
	d="
M126.542358,39.597378 
	C126.762024,40.036922 126.677933,40.297741 126.519623,40.965302 
	C125.427803,42.050797 124.410187,42.729553 122.723007,43.854908 
	C122.661057,42.673618 122.099777,41.025322 122.661880,40.419746 
	C123.380058,39.646019 125.004654,39.713638 126.542358,39.597378 
z"/>
<path fill="#CDE9F1" opacity="1.000000" stroke="none" 
	d="
M125.013397,37.010315 
	C125.462212,35.718430 125.911018,34.426540 126.691269,33.455437 
	C127.062271,34.483082 127.101845,35.189945 127.141426,35.896805 
	C126.610909,36.183800 126.080399,36.470795 125.275040,36.878925 
	C125.000206,37.000065 125.013405,37.010319 125.013397,37.010315 
z"/>
<path fill="#50616B" opacity="1.000000" stroke="none" 
	d="
M134.895721,26.139233 
	C134.895721,26.139233 134.908676,26.497747 134.708908,26.776848 
	C134.253326,27.257866 134.151489,27.519665 134.203659,27.841345 
	C134.070023,28.132553 133.883636,28.384748 133.423676,28.681322 
	C133.169342,27.487934 133.135818,26.211155 133.131592,24.546638 
	C133.160904,24.158901 133.558838,24.017002 133.769897,24.025404 
	C134.027328,24.224596 134.073685,24.415384 134.190002,25.105396 
	C134.390289,25.879824 134.602203,26.058027 134.895721,26.139233 
z"/>
<path fill="#75838A" opacity="1.000000" stroke="none" 
	d="
M131.494583,24.053452 
	C130.633728,24.566154 129.421448,24.978048 128.043777,25.152605 
	C128.966644,24.594393 130.054901,24.273520 131.494583,24.053452 
z"/>
<path fill="#41ABC9" opacity="1.000000" stroke="none" 
	d="
M132.897934,34.134533 
	C132.654663,34.576103 132.411377,35.017673 132.073822,35.692970 
	C131.764496,35.008007 131.549438,34.089310 131.762848,33.299362 
	C132.367233,33.706532 132.606705,33.910217 132.910828,34.063446 
	C132.911911,34.087723 132.897934,34.134533 132.897934,34.134533 
z"/>
<path fill="#38A7C6" opacity="1.000000" stroke="none" 
	d="
M127.442459,35.796608 
	C127.101845,35.189945 127.062271,34.483082 127.063217,33.423965 
	C127.316986,33.946613 127.530235,34.821514 127.442459,35.796608 
z"/>
<path fill="#7FC6DA" opacity="1.000000" stroke="none" 
	d="
M133.672760,33.798885 
	C133.616714,34.038483 133.255188,34.062984 133.076569,34.098759 
	C132.897934,34.134533 132.911911,34.087723 132.941589,33.801762 
	C132.981201,33.340500 132.991135,33.165195 133.001083,32.989887 
	C133.382233,33.002651 133.624802,33.192451 133.672760,33.798885 
z"/>
<path fill="#CDE9F1" opacity="1.000000" stroke="none" 
	d="
M124.995163,36.993530 
	C124.906418,37.025509 124.822708,37.064018 124.876198,37.056423 
	C125.013405,37.010319 125.000206,37.000065 124.995163,36.993530 
z"/>
<path fill="#76C2D8" opacity="1.000000" stroke="none" 
	d="
M132.751709,32.944206 
	C132.991135,33.165195 132.981201,33.340500 132.940506,33.777485 
	C132.606705,33.910217 132.367233,33.706532 132.097321,33.208317 
	C132.169662,32.958523 132.335983,32.928524 132.751709,32.944206 
z"/>
<path fill="#F8FAFB" opacity="1.000000" stroke="none" 
	d="
M41.412277,20.364624 
	C42.842804,26.768293 44.523453,33.091969 39.979649,39.225571 
	C33.962502,37.264610 31.050608,32.627861 29.230328,26.747059 
	C32.505470,23.082548 35.931431,20.037512 41.412277,20.364624 
z"/>
<path fill="#F4F5F5" opacity="1.000000" stroke="none" 
	d="
M113.025269,35.639984 
	C112.497360,39.072914 110.638748,41.401707 107.723801,40.419548 
	C105.906952,39.807384 103.733955,36.936584 103.734322,35.079803 
	C103.734787,32.718906 105.173027,29.407379 107.067856,28.211929 
	C110.217697,26.224689 112.857140,29.492233 113.025269,35.639984 
z"/>
<path fill="#ECEEEF" opacity="1.000000" stroke="none" 
	d="
M75.297913,39.474243 
	C73.847145,40.218136 72.592201,41.148426 71.482323,40.999275 
	C70.281212,40.837872 69.215462,39.669228 68.090675,38.939888 
	C68.955803,37.933411 69.635246,36.546471 70.730675,36.011833 
	C72.277702,35.256786 74.132309,35.131920 76.784546,34.525055 
	C76.242386,36.584332 75.900002,37.884785 75.297913,39.474243 
z"/>
<path fill="#FBFCFC" opacity="1.000000" stroke="none" 
	d="
M140.373062,42.386063 
	C140.386795,41.974422 140.604965,41.746067 140.823151,41.517715 
	C140.741257,41.868259 140.659363,42.218803 140.373062,42.386063 
z"/>
<path fill="#D9DCDE" opacity="1.000000" stroke="none" 
	d="
M134.504730,27.883028 
	C134.151489,27.519665 134.253326,27.257866 134.705017,26.956179 
	C135.434021,27.031719 135.967133,27.207029 137.450333,27.694763 
	C135.909500,27.828741 135.357651,27.876726 134.504730,27.883028 
z"/>
<path fill="#D1D6D8" opacity="1.000000" stroke="none" 
	d="
M135.175323,26.072056 
	C134.602203,26.058027 134.390289,25.879824 134.257660,25.392035 
	C134.939545,25.322262 135.623749,25.465075 136.307938,25.607887 
	C136.023590,25.740217 135.739258,25.872547 135.175323,26.072056 
z"/>
</svg>