<svg width="367" height="41" viewBox="0 0 367 41" fill="none" xmlns="http://www.w3.org/2000/svg">
<path d="M11.92 7.52C14.0267 7.52 15.9467 7.98667 17.68 8.92C19.4133 9.85333 20.7867 11.1867 21.8 12.92C22.8133 14.6267 23.32 16.6133 23.32 18.88C23.32 21.1467 22.8133 23.1467 21.8 24.88C20.7867 26.6133 19.4 27.96 17.64 28.92C15.9067 29.8533 13.9733 30.32 11.84 30.32C9.73333 30.32 7.81333 29.8533 6.08 28.92C4.34667 27.96 2.97333 26.6133 1.96 24.88C0.973333 23.1467 0.48 21.1467 0.48 18.88C0.48 16.6133 0.986667 14.6267 2 12.92C3.01333 11.1867 4.38667 9.85333 6.12 8.92C7.85333 7.98667 9.78667 7.52 11.92 7.52ZM11.88 12.28C10.28 12.28 8.93333 12.8533 7.84 14C6.74667 15.1467 6.2 16.7867 6.2 18.92C6.2 20.36 6.45333 21.5867 6.96 22.6C7.49333 23.5867 8.18667 24.3333 9.04 24.84C9.89333 25.32 10.8267 25.56 11.84 25.56C12.8267 25.56 13.76 25.3067 14.64 24.8C15.52 24.2933 16.2267 23.5467 16.76 22.56C17.32 21.5467 17.6 20.3333 17.6 18.92C17.6 17.48 17.3333 16.2667 16.8 15.28C16.2667 14.2667 15.56 13.52 14.68 13.04C13.8267 12.5333 12.8933 12.28 11.88 12.28ZM40.5413 7.52C42.4346 7.52 44.1679 8 45.7413 8.96C47.3146 9.92 48.5546 11.2667 49.4613 13C50.3679 14.7067 50.8213 16.6667 50.8213 18.88C50.8213 21.0933 50.3679 23.08 49.4613 24.84C48.5546 26.5733 47.3146 27.92 45.7413 28.88C44.1679 29.84 42.4346 30.32 40.5413 30.32C38.9413 30.32 37.5413 29.96 36.3413 29.24C35.1679 28.52 34.1946 27.5333 33.4213 26.28V40.56H27.7813V7.84H33.4213V11.28C34.1413 10.1067 35.1013 9.18667 36.3013 8.52C37.5279 7.85333 38.9413 7.52 40.5413 7.52ZM39.2613 12.4C38.2479 12.4 37.2879 12.6533 36.3813 13.16C35.5013 13.6667 34.7813 14.4133 34.2213 15.4C33.6879 16.3867 33.4213 17.56 33.4213 18.92C33.4213 20.28 33.6879 21.4533 34.2213 22.44C34.7813 23.4267 35.5013 24.1733 36.3813 24.68C37.2879 25.1867 38.2479 25.44 39.2613 25.44C40.2746 25.44 41.2213 25.1867 42.1013 24.68C43.0079 24.1733 43.7279 23.4267 44.2613 22.44C44.8213 21.4267 45.1013 20.24 45.1013 18.88C45.1013 17.52 44.8213 16.3467 44.2613 15.36C43.7279 14.3733 43.0079 13.64 42.1013 13.16C41.2213 12.6533 40.2746 12.4 39.2613 12.4ZM75.7622 18.6C75.7622 19.3733 75.7089 20.0933 75.6022 20.76H59.4422C59.5755 22.2 60.1089 23.36 61.0422 24.24C61.9755 25.12 63.1622 25.56 64.6022 25.56C65.7222 25.56 66.6155 25.3467 67.2822 24.92C67.9489 24.4933 68.4955 23.9067 68.9222 23.16H75.0022C74.3622 25.2667 73.1222 26.9867 71.2822 28.32C69.4422 29.6533 67.2155 30.32 64.6022 30.32C62.4955 30.32 60.6155 29.8533 58.9622 28.92C57.3089 27.96 56.0155 26.6267 55.0822 24.92C54.1489 23.1867 53.6822 21.1733 53.6822 18.88C53.6822 16.5867 54.1489 14.5867 55.0822 12.88C56.0155 11.1733 57.3089 9.85333 58.9622 8.92C60.6422 7.98667 62.5489 7.52 64.6822 7.52C66.8155 7.52 68.7089 7.97333 70.3622 8.88C72.0422 9.78667 73.3622 11.08 74.3222 12.76C75.2822 14.4133 75.7622 16.36 75.7622 18.6ZM69.9222 17.12C69.8422 15.6533 69.2955 14.48 68.2822 13.6C67.2955 12.72 66.0689 12.28 64.6022 12.28C63.2422 12.28 62.0822 12.72 61.1222 13.6C60.1889 14.48 59.6289 15.6533 59.4422 17.12H69.9222ZM92.7231 7.52C94.3765 7.52 95.8431 7.89333 97.1231 8.64C98.4298 9.36 99.4565 10.44 100.203 11.88C100.95 13.2933 101.323 14.9867 101.323 16.96V30H95.7231V17.76C95.7231 16.0267 95.2831 14.7067 94.4031 13.8C93.5231 12.8667 92.3231 12.4 90.8031 12.4C89.2831 12.4 88.0698 12.8667 87.1631 13.8C86.2831 14.7067 85.8431 16.0267 85.8431 17.76V30H80.2031V7.84H85.8431V11.16C86.5365 9.98667 87.4698 9.09333 88.6431 8.48C89.8431 7.84 91.2031 7.52 92.7231 7.52ZM115.837 7.52C117.411 7.52 118.811 7.85333 120.037 8.52C121.264 9.18667 122.251 10.1067 122.997 11.28V0.4H128.597V30H122.997V26.28C122.224 27.5333 121.224 28.52 119.997 29.24C118.797 29.96 117.411 30.32 115.837 30.32C113.944 30.32 112.211 29.84 110.637 28.88C109.091 27.8933 107.851 26.5333 106.917 24.8C106.011 23.0667 105.557 21.0933 105.557 18.88C105.557 16.6667 106.011 14.7067 106.917 13C107.851 11.2667 109.091 9.92 110.637 8.96C112.211 8 113.944 7.52 115.837 7.52ZM117.117 12.4C116.131 12.4 115.184 12.6533 114.277 13.16C113.397 13.6667 112.677 14.4133 112.117 15.4C111.557 16.36 111.277 17.52 111.277 18.88C111.277 20.24 111.557 21.4267 112.117 22.44C112.677 23.4267 113.397 24.1733 114.277 24.68C115.184 25.1867 116.131 25.44 117.117 25.44C118.131 25.44 119.077 25.1867 119.957 24.68C120.864 24.1733 121.597 23.4267 122.157 22.44C122.717 21.4533 122.997 20.28 122.997 18.92C122.997 17.56 122.717 16.3867 122.157 15.4C121.597 14.4133 120.864 13.6667 119.957 13.16C119.077 12.6533 118.131 12.4 117.117 12.4ZM143.298 7.52C144.871 7.52 146.271 7.85333 147.498 8.52C148.725 9.18667 149.711 10.1067 150.458 11.28V7.84H156.058V30H150.458V26.28C149.685 27.5333 148.685 28.52 147.458 29.24C146.258 29.96 144.871 30.32 143.298 30.32C141.405 30.32 139.671 29.84 138.098 28.88C136.551 27.8933 135.311 26.5333 134.378 24.8C133.471 23.0667 133.018 21.0933 133.018 18.88C133.018 16.6667 133.471 14.7067 134.378 13C135.311 11.2667 136.551 9.92 138.098 8.96C139.671 8 141.405 7.52 143.298 7.52ZM144.578 12.4C143.591 12.4 142.645 12.6533 141.738 13.16C140.858 13.6667 140.138 14.4133 139.578 15.4C139.018 16.36 138.738 17.52 138.738 18.88C138.738 20.24 139.018 21.4267 139.578 22.44C140.138 23.4267 140.858 24.1733 141.738 24.68C142.645 25.1867 143.591 25.44 144.578 25.44C145.591 25.44 146.538 25.1867 147.418 24.68C148.325 24.1733 149.058 23.4267 149.618 22.44C150.178 21.4533 150.458 20.28 150.458 18.92C150.458 17.56 150.178 16.3867 149.618 15.4C149.058 14.4133 148.325 13.6667 147.418 13.16C146.538 12.6533 145.591 12.4 144.578 12.4ZM173.319 25.28V30H169.759C167.492 30 165.746 29.48 164.519 28.44C163.292 27.4 162.679 25.68 162.679 23.28V12.44H160.319V7.84H162.679V2.36H168.319V7.84H173.279V12.44H168.319V23.28C168.319 24 168.492 24.52 168.839 24.84C169.186 25.1333 169.786 25.28 170.639 25.28H173.319ZM186.423 7.52C187.996 7.52 189.396 7.85333 190.623 8.52C191.85 9.18667 192.836 10.1067 193.583 11.28V7.84H199.183V30H193.583V26.28C192.81 27.5333 191.81 28.52 190.583 29.24C189.383 29.96 187.996 30.32 186.423 30.32C184.53 30.32 182.796 29.84 181.223 28.88C179.676 27.8933 178.436 26.5333 177.503 24.8C176.596 23.0667 176.143 21.0933 176.143 18.88C176.143 16.6667 176.596 14.7067 177.503 13C178.436 11.2667 179.676 9.92 181.223 8.96C182.796 8 184.53 7.52 186.423 7.52ZM187.703 12.4C186.716 12.4 185.77 12.6533 184.863 13.16C183.983 13.6667 183.263 14.4133 182.703 15.4C182.143 16.36 181.863 17.52 181.863 18.88C181.863 20.24 182.143 21.4267 182.703 22.44C183.263 23.4267 183.983 24.1733 184.863 24.68C185.77 25.1867 186.716 25.44 187.703 25.44C188.716 25.44 189.663 25.1867 190.543 24.68C191.45 24.1733 192.183 23.4267 192.743 22.44C193.303 21.4533 193.583 20.28 193.583 18.92C193.583 17.56 193.303 16.3867 192.743 15.4C192.183 14.4133 191.45 13.6667 190.543 13.16C189.663 12.6533 188.716 12.4 187.703 12.4ZM203.884 26.8C203.884 25.8933 204.191 25.1333 204.804 24.52C205.417 23.9067 206.164 23.6 207.044 23.6C207.951 23.6 208.711 23.9067 209.324 24.52C209.964 25.1333 210.284 25.8933 210.284 26.8C210.284 27.7067 209.964 28.4667 209.324 29.08C208.711 29.6933 207.951 30 207.044 30C206.164 30 205.417 29.6933 204.804 29.08C204.191 28.4667 203.884 27.7067 203.884 26.8ZM223.689 7.52C225.262 7.52 226.662 7.85333 227.889 8.52C229.115 9.18667 230.102 10.1067 230.849 11.28V7.84H236.449V30.16C236.449 32.2133 236.035 34.0533 235.209 35.68C234.409 37.3067 233.182 38.5867 231.529 39.52C229.902 40.48 227.889 40.96 225.489 40.96C222.315 40.96 219.729 40.2533 217.729 38.84C215.755 37.4533 214.635 35.4667 214.369 32.88H219.889C220.235 33.8667 220.902 34.64 221.889 35.2C222.875 35.7867 224.075 36.08 225.489 36.08C227.062 36.08 228.342 35.5867 229.329 34.6C230.342 33.6133 230.849 32.1333 230.849 30.16V26.28C230.075 27.5333 229.075 28.52 227.849 29.24C226.649 29.96 225.262 30.32 223.689 30.32C221.795 30.32 220.062 29.84 218.489 28.88C216.942 27.8933 215.702 26.5333 214.769 24.8C213.862 23.0667 213.409 21.0933 213.409 18.88C213.409 16.6667 213.862 14.7067 214.769 13C215.702 11.2667 216.942 9.92 218.489 8.96C220.062 8 221.795 7.52 223.689 7.52ZM224.969 12.4C223.982 12.4 223.035 12.6533 222.129 13.16C221.249 13.6667 220.529 14.4133 219.969 15.4C219.409 16.36 219.129 17.52 219.129 18.88C219.129 20.24 219.409 21.4267 219.969 22.44C220.529 23.4267 221.249 24.1733 222.129 24.68C223.035 25.1867 223.982 25.44 224.969 25.44C225.982 25.44 226.929 25.1867 227.809 24.68C228.715 24.1733 229.449 23.4267 230.009 22.44C230.569 21.4533 230.849 20.28 230.849 18.92C230.849 17.56 230.569 16.3867 230.009 15.4C229.449 14.4133 228.715 13.6667 227.809 13.16C226.929 12.6533 225.982 12.4 224.969 12.4ZM252.35 7.52C254.456 7.52 256.376 7.98667 258.11 8.92C259.843 9.85333 261.216 11.1867 262.23 12.92C263.243 14.6267 263.75 16.6133 263.75 18.88C263.75 21.1467 263.243 23.1467 262.23 24.88C261.216 26.6133 259.83 27.96 258.07 28.92C256.336 29.8533 254.403 30.32 252.27 30.32C250.163 30.32 248.243 29.8533 246.51 28.92C244.776 27.96 243.403 26.6133 242.39 24.88C241.403 23.1467 240.91 21.1467 240.91 18.88C240.91 16.6133 241.416 14.6267 242.43 12.92C243.443 11.1867 244.816 9.85333 246.55 8.92C248.283 7.98667 250.216 7.52 252.35 7.52ZM252.31 12.28C250.71 12.28 249.363 12.8533 248.27 14C247.176 15.1467 246.63 16.7867 246.63 18.92C246.63 20.36 246.883 21.5867 247.39 22.6C247.923 23.5867 248.616 24.3333 249.47 24.84C250.323 25.32 251.256 25.56 252.27 25.56C253.256 25.56 254.19 25.3067 255.07 24.8C255.95 24.2933 256.656 23.5467 257.19 22.56C257.75 21.5467 258.03 20.3333 258.03 18.92C258.03 17.48 257.763 16.2667 257.23 15.28C256.696 14.2667 255.99 13.52 255.11 13.04C254.256 12.5333 253.323 12.28 252.31 12.28ZM289.131 7.84V30H283.491V26.64C282.798 27.8133 281.851 28.72 280.651 29.36C279.478 29.9733 278.118 30.28 276.571 30.28C274.944 30.28 273.478 29.92 272.171 29.2C270.891 28.4533 269.878 27.3733 269.131 25.96C268.384 24.52 268.011 22.8133 268.011 20.84V7.84H273.611V20.04C273.611 21.7733 274.051 23.1067 274.931 24.04C275.811 24.9733 277.011 25.44 278.531 25.44C280.051 25.44 281.251 24.9733 282.131 24.04C283.038 23.1067 283.491 21.7733 283.491 20.04V7.84H289.131ZM304.125 25.16L309.805 7.84H315.805L307.645 30H300.565L292.405 7.84H298.405L304.125 25.16ZM318.03 27.28C318.03 26.5067 318.284 25.8533 318.79 25.32C319.324 24.7867 319.977 24.52 320.75 24.52C321.524 24.52 322.177 24.7867 322.71 25.32C323.244 25.8533 323.51 26.5067 323.51 27.28C323.51 28.0533 323.244 28.7067 322.71 29.24C322.177 29.7467 321.524 30 320.75 30C320.004 30 319.364 29.7333 318.83 29.2C318.297 28.6667 318.03 28.0267 318.03 27.28Z" fill="#3A3A3A"/>
<path d="M331.924 23.12C331.844 23.6267 331.804 24.08 331.804 24.48C331.804 25.3333 332.031 25.9333 332.484 26.28C332.964 26.6267 333.738 26.8 334.804 26.8H337.044L336.444 30H333.724C331.858 30 330.444 29.6267 329.484 28.88C328.551 28.1333 328.084 26.9067 328.084 25.2C328.084 24.4267 328.151 23.7067 328.284 23.04L330.404 11.2H327.124L327.644 8.04H330.964L331.924 2.56H335.564L334.604 8.04H340.284L339.724 11.2H334.044L331.924 23.12ZM350.486 30.32C347.926 30.32 345.886 29.5467 344.366 28C342.846 26.4267 342.086 24.28 342.086 21.56C342.086 20.8667 342.18 19.9333 342.366 18.76C342.766 16.52 343.54 14.5733 344.686 12.92C345.833 11.24 347.233 9.96 348.886 9.08C350.566 8.2 352.38 7.76 354.326 7.76C356.486 7.76 358.22 8.29333 359.526 9.36C360.86 10.4267 361.66 11.8533 361.926 13.64L362.926 8.04H366.526L362.566 30.36C362.22 32.3867 361.486 34.1867 360.366 35.76C359.246 37.3333 357.846 38.56 356.166 39.44C354.486 40.32 352.646 40.76 350.646 40.76C347.713 40.76 345.42 40.04 343.766 38.6C342.14 37.1867 341.233 35.2667 341.046 32.84H344.646C344.86 34.3067 345.486 35.4533 346.526 36.28C347.566 37.1333 349.006 37.56 350.846 37.56C352.846 37.56 354.606 36.9333 356.126 35.68C357.646 34.4267 358.593 32.6533 358.966 30.36L360.046 24.4C359.166 26.1867 357.873 27.6267 356.166 28.72C354.486 29.7867 352.593 30.32 350.486 30.32ZM354.926 10.96C352.66 10.96 350.726 11.68 349.126 13.12C347.526 14.56 346.513 16.5333 346.086 19.04C345.953 19.7867 345.886 20.44 345.886 21C345.886 22.8933 346.433 24.3733 347.526 25.44C348.646 26.5067 350.166 27.04 352.086 27.04C353.5 27.04 354.833 26.72 356.086 26.08C357.34 25.4133 358.393 24.48 359.246 23.28C360.126 22.0533 360.713 20.64 361.006 19.04C361.113 18.5067 361.166 17.92 361.166 17.28C361.166 15.36 360.593 13.8267 359.446 12.68C358.326 11.5333 356.82 10.96 354.926 10.96Z" fill="#6E6969"/>
</svg>
