<svg width="101" height="42" viewBox="0 0 101 42" fill="none" xmlns="http://www.w3.org/2000/svg">
<path d="M0.945 3.59V5H0.375V1.525H1.575C1.84167 1.525 2.06667 1.57167 2.25 1.665C2.43667 1.755 2.575 1.87833 2.665 2.035C2.75833 2.19167 2.805 2.36667 2.805 2.56C2.805 2.73667 2.76333 2.90333 2.68 3.06C2.59667 3.21667 2.46333 3.345 2.28 3.445C2.09667 3.54167 1.86167 3.59 1.575 3.59H0.945ZM1.575 3.145C1.79167 3.145 1.95333 3.09333 2.06 2.99C2.16667 2.88667 2.22 2.74333 2.22 2.56C2.22 2.37333 2.16667 2.22833 2.06 2.125C1.95333 2.02167 1.79167 1.97 1.575 1.97H0.945V3.145H1.575ZM5.13863 5L4.26863 3.59H3.91863V5H3.34863V1.525H4.54863C4.8153 1.525 5.0403 1.57167 5.22363 1.665C5.4103 1.755 5.54863 1.87833 5.63863 2.035C5.73197 2.19167 5.77863 2.36667 5.77863 2.56C5.77863 2.79333 5.70697 3.00333 5.56363 3.19C5.42363 3.37667 5.20697 3.49833 4.91363 3.555L5.83363 5H5.13863ZM3.91863 3.145H4.54863C4.7653 3.145 4.92697 3.09333 5.03363 2.99C5.1403 2.88667 5.19363 2.74333 5.19363 2.56C5.19363 2.37333 5.1403 2.22833 5.03363 2.125C4.92697 2.02167 4.7653 1.97 4.54863 1.97H3.91863V3.145ZM8.09281 1.48C8.41948 1.48 8.71781 1.55667 8.98781 1.71C9.26115 1.86 9.47615 2.07 9.63281 2.34C9.78948 2.61 9.86781 2.915 9.86781 3.255C9.86781 3.595 9.78948 3.90167 9.63281 4.175C9.47615 4.445 9.26115 4.65667 8.98781 4.81C8.71781 4.96 8.41948 5.035 8.09281 5.035C7.76948 5.035 7.47115 4.96 7.19781 4.81C6.92781 4.65667 6.71281 4.445 6.55281 4.175C6.39615 3.90167 6.31781 3.595 6.31781 3.255C6.31781 2.915 6.39615 2.61 6.55281 2.34C6.71281 2.07 6.92781 1.86 7.19781 1.71C7.47115 1.55667 7.76948 1.48 8.09281 1.48ZM8.09281 2C7.86281 2 7.65781 2.05167 7.47781 2.155C7.29781 2.25833 7.15615 2.405 7.05281 2.595C6.95281 2.785 6.90281 3.005 6.90281 3.255C6.90281 3.505 6.95281 3.72667 7.05281 3.92C7.15615 4.11 7.29781 4.25833 7.47781 4.365C7.65781 4.46833 7.86281 4.52 8.09281 4.52C8.32281 4.52 8.52781 4.46833 8.70781 4.365C8.88781 4.25833 9.02781 4.11 9.12781 3.92C9.23115 3.72667 9.28281 3.505 9.28281 3.255C9.28281 3.005 9.23115 2.785 9.12781 2.595C9.02781 2.405 8.88781 2.25833 8.70781 2.155C8.52781 2.05167 8.32281 2 8.09281 2ZM10.9987 3.59V5H10.4287V1.525H11.6287C11.8954 1.525 12.1204 1.57167 12.3037 1.665C12.4904 1.755 12.6287 1.87833 12.7187 2.035C12.812 2.19167 12.8587 2.36667 12.8587 2.56C12.8587 2.73667 12.817 2.90333 12.7337 3.06C12.6504 3.21667 12.517 3.345 12.3337 3.445C12.1504 3.54167 11.9154 3.59 11.6287 3.59H10.9987ZM11.6287 3.145C11.8454 3.145 12.007 3.09333 12.1137 2.99C12.2204 2.88667 12.2737 2.74333 12.2737 2.56C12.2737 2.37333 12.2204 2.22833 12.1137 2.125C12.007 2.02167 11.8454 1.97 11.6287 1.97H10.9987V3.145H11.6287ZM13.9673 1.525V3.73C13.9673 3.99333 14.0357 4.19167 14.1723 4.325C14.3123 4.45833 14.5057 4.525 14.7523 4.525C15.0023 4.525 15.1957 4.45833 15.3323 4.325C15.4723 4.19167 15.5423 3.99333 15.5423 3.73V1.525H16.1123V3.73C16.1123 4.01333 16.0507 4.25333 15.9273 4.45C15.804 4.64667 15.639 4.79333 15.4323 4.89C15.2257 4.98667 14.9973 5.035 14.7473 5.035C14.4973 5.035 14.269 4.98667 14.0623 4.89C13.859 4.79333 13.6973 4.64667 13.5773 4.45C13.4573 4.25333 13.3973 4.01333 13.3973 3.73V1.525H13.9673ZM17.4245 4.565H18.5995V5H16.8545V1.525H17.4245V4.565ZM21.4212 4.01C21.4212 4.18667 21.3728 4.35333 21.2762 4.51C21.1828 4.66667 21.0445 4.79333 20.8612 4.89C20.6778 4.98667 20.4628 5.035 20.2162 5.035C19.8595 5.035 19.5678 4.95 19.3412 4.78C19.1145 4.61 19.0012 4.375 19.0012 4.075H19.6112C19.6245 4.22833 19.6812 4.35 19.7812 4.44C19.8812 4.53 20.0262 4.575 20.2162 4.575C20.4128 4.575 20.5662 4.525 20.6762 4.425C20.7895 4.325 20.8462 4.19667 20.8462 4.04C20.8462 3.91667 20.8112 3.82 20.7412 3.75C20.6745 3.67667 20.5895 3.62167 20.4862 3.585C20.3828 3.545 20.2412 3.50333 20.0612 3.46C19.8345 3.40667 19.6512 3.35167 19.5112 3.295C19.3712 3.235 19.2512 3.14167 19.1512 3.015C19.0512 2.885 19.0012 2.71 19.0012 2.49C19.0012 2.29 19.0512 2.11333 19.1512 1.96C19.2512 1.80667 19.3912 1.68833 19.5712 1.605C19.7512 1.52167 19.9578 1.48 20.1912 1.48C20.5312 1.48 20.8045 1.56 21.0112 1.72C21.2212 1.88 21.3378 2.11167 21.3612 2.415H20.7312C20.7178 2.28167 20.6612 2.17 20.5612 2.08C20.4612 1.99 20.3278 1.945 20.1612 1.945C19.9878 1.945 19.8478 1.98833 19.7412 2.075C19.6345 2.16167 19.5812 2.29 19.5812 2.46C19.5812 2.58333 19.6145 2.68333 19.6812 2.76C19.7512 2.83333 19.8378 2.89 19.9412 2.93C20.0445 2.96667 20.1878 3.00667 20.3712 3.05C20.5945 3.10333 20.7762 3.16 20.9162 3.22C21.0562 3.27667 21.1745 3.36833 21.2712 3.495C21.3712 3.61833 21.4212 3.79 21.4212 4.01ZM22.6638 1.965V3.02H23.8638V3.46H22.6638V4.555H24.0138V5H22.0938V1.52H24.0138V1.965H22.6638ZM23.5438 0.78L22.4388 1.325V0.905L23.5438 0.295V0.78ZM26.7848 3.59V5H26.2148V1.525H27.4148C27.6815 1.525 27.9065 1.57167 28.0898 1.665C28.2765 1.755 28.4148 1.87833 28.5048 2.035C28.5982 2.19167 28.6448 2.36667 28.6448 2.56C28.6448 2.73667 28.6032 2.90333 28.5198 3.06C28.4365 3.21667 28.3032 3.345 28.1198 3.445C27.9365 3.54167 27.7015 3.59 27.4148 3.59H26.7848ZM27.4148 3.145C27.6315 3.145 27.7932 3.09333 27.8998 2.99C28.0065 2.88667 28.0598 2.74333 28.0598 2.56C28.0598 2.37333 28.0065 2.22833 27.8998 2.125C27.7932 2.02167 27.6315 1.97 27.4148 1.97H26.7848V3.145H27.4148ZM31.2835 4.29H29.8285L29.5785 5H28.9835L30.2285 1.52H30.8885L32.1335 5H31.5335L31.2835 4.29ZM31.1285 3.845L30.5585 2.21L29.9835 3.845H31.1285ZM34.4648 5L33.5948 3.59H33.2448V5H32.6748V1.525H33.8748C34.1415 1.525 34.3665 1.57167 34.5498 1.665C34.7365 1.755 34.8748 1.87833 34.9648 2.035C35.0581 2.19167 35.1048 2.36667 35.1048 2.56C35.1048 2.79333 35.0331 3.00333 34.8898 3.19C34.7498 3.37667 34.5331 3.49833 34.2398 3.555L35.1598 5H34.4648ZM33.2448 3.145H33.8748C34.0915 3.145 34.2531 3.09333 34.3598 2.99C34.4665 2.88667 34.5198 2.74333 34.5198 2.56C34.5198 2.37333 34.4665 2.22833 34.3598 2.125C34.2531 2.02167 34.0915 1.97 33.8748 1.97H33.2448V3.145Z" fill="#454948"/>
<path d="M35.3305 10.3593C37.3272 13.9643 36.2775 18.3204 32.955 20.2754C30.6084 21.6557 28.7433 23.4759 27.7064 26.0247C26.7177 28.4548 26.7081 30.8945 27.8734 33.2988C28.3132 34.2105 28.8236 35.0933 28.8878 36.1558C29.0001 38.1076 27.8573 40.1685 26.1945 40.9197C24.1496 41.8442 22.0438 41.4461 20.4837 40.0112C18.5095 38.1943 18.3811 34.2811 21.2188 32.4096C22.5863 31.5076 23.4017 30.2813 23.8383 28.7565C24.7628 25.5207 24.7114 22.2946 23.6713 19.0973C23.4787 18.5066 23.1609 17.9577 22.8849 17.3959C21.6811 14.9627 21.8159 12.5679 23.2444 10.3016C25.1737 7.23912 29.0322 6.09311 32.4799 7.77842C33.7607 8.40439 34.7302 9.39952 35.3305 10.3593Z" fill="#9ED5E1"/>
<path d="M4.02913 27.4435C7.76891 29.177 12.0384 27.8191 13.7526 24.365C14.9628 21.9254 16.6449 19.9351 19.1135 18.7185C21.4665 17.5596 23.903 17.3766 26.3812 18.3653C27.3217 18.7409 28.2398 19.1871 29.3024 19.1711C31.2573 19.1454 33.2316 17.8581 33.864 16.1407C34.6376 14.0317 34.0919 11.9644 32.5478 10.5102C30.5928 8.67079 26.6829 8.82166 25.0169 11.7878C24.2143 13.2163 23.0523 14.1184 21.5596 14.6641C18.3976 15.8197 15.1779 15.9995 11.9132 15.1905C11.3097 15.0429 10.7383 14.7636 10.1604 14.526C7.64693 13.4988 5.26823 13.807 3.10782 15.3928C0.189826 17.5339 -0.676905 21.4663 1.24916 24.7856C1.96502 26.0183 3.02436 26.9139 4.02913 27.4435Z" fill="#1399BE"/>
<path d="M0.00316469 21.2224C0.340227 25.341 3.63381 28.397 7.47953 28.1787C10.1985 28.0279 12.7602 28.5094 15.0329 30.0599C17.203 31.5397 18.5641 33.5717 18.93 36.2265C19.0681 37.2345 19.1355 38.2553 19.6716 39.1766C20.6603 40.8683 22.7565 41.9533 24.5574 41.6548C26.7723 41.2888 28.3003 39.7865 28.8043 37.7192C29.4399 35.1029 27.3758 31.7676 23.9763 31.7837C22.3359 31.7901 20.9813 31.2219 19.7679 30.1915C17.203 28.0054 15.4567 25.2832 14.5482 22.0346C14.3813 21.4343 14.3395 20.7987 14.2593 20.1759C13.9126 17.473 12.4681 15.5501 10.0252 14.4523C6.72194 12.9692 2.87622 14.1569 0.943729 17.4794C0.224663 18.7153 -0.0321466 20.086 0.00316469 21.2224Z" fill="#273D4A"/>
<path d="M51.9941 32.1658C51.7694 31.4307 51.6538 30.718 51.6538 30.0375C51.6635 29.312 51.6699 28.6539 51.6731 28.0665C51.6763 27.4726 51.6827 26.7535 51.6827 25.906C51.6827 24.5642 51.4933 23.4888 51.1177 22.6735C50.7421 21.8645 50.1001 21.2674 49.1917 20.8951C48.2832 20.5195 47.0313 20.3301 45.4455 20.3301C44.0234 20.3301 42.8356 20.5259 41.8822 20.9143C40.9288 21.3027 40.2258 21.7939 39.7764 22.3942C39.327 22.9945 39.1023 23.614 39.1023 24.2464C39.1023 24.6541 39.2499 24.988 39.5485 25.248C39.8438 25.5112 40.1937 25.6364 40.6014 25.6364C41.0508 25.6364 41.3461 25.5561 41.481 25.3924C41.619 25.2319 41.8533 24.8949 42.184 24.3812C42.5146 23.8676 42.9127 23.4856 43.3749 23.2288C43.8404 22.9752 44.5274 22.8436 45.4487 22.8436C46.5176 22.8436 47.2207 23.0683 47.5609 23.5145C47.9012 23.9607 48.0938 24.6605 48.1387 25.6139C47.3779 25.8354 46.6749 26.0216 46.0265 26.1757C45.3748 26.3298 44.598 26.5031 43.6863 26.6861C42.7778 26.8691 42.2097 26.9943 41.9817 27.0456C40.8839 27.2832 40.0268 27.7487 39.3976 28.4485C38.7716 29.1451 38.457 29.9861 38.457 30.978C38.457 31.7099 38.6496 32.3905 39.0284 33.0197C39.404 33.6456 39.9497 34.14 40.6495 34.5092C41.3526 34.8719 42.1679 35.0581 43.0956 35.0581C44.11 35.0581 45.0281 34.8912 45.8403 34.5477C46.5465 34.2524 47.2816 33.8318 48.0296 33.2829C48.7615 32.689 49.503 31.8351 50.5913 31.8351C51.1081 31.8351 51.5896 31.9635 52.0101 32.1947C52.0005 32.1882 52.0005 32.1754 51.9941 32.1658ZM48.1323 28.304C48.1323 29.5592 47.9686 30.4612 47.6412 31.0037C47.3587 31.4981 46.9157 31.9025 46.3122 32.2171C45.7055 32.5285 45.0474 32.689 44.3315 32.689C43.6606 32.689 43.1181 32.4964 42.704 32.1112C42.2867 31.726 42.0813 31.2605 42.0813 30.7116C42.0813 30.1851 42.2578 29.771 42.6077 29.4757C42.9608 29.1772 43.3332 28.9813 43.7216 28.8786C44.11 28.7759 44.8099 28.6154 45.821 28.4003C46.8322 28.1884 47.6059 27.9798 48.1323 27.7872V28.304Z" fill="#273D49"/>
<path d="M62.6035 32.3905C62.3691 32.1561 62.1091 32.0373 61.8138 32.0373C61.6148 32.0373 61.3323 32.0727 60.9663 32.1529C60.6068 32.2267 60.3211 32.2621 60.106 32.2621C59.7176 32.2621 59.4351 32.169 59.2617 31.9764C59.0884 31.787 58.9825 31.543 58.9471 31.2348C58.9054 30.9331 58.8862 30.4933 58.8862 29.9283V23.2802H59.5603C60.2761 23.2802 60.8251 23.1806 61.2103 22.9912C61.5955 22.7954 61.7881 22.4552 61.7881 21.9736C61.7881 21.5916 61.6533 21.2835 61.3836 21.0363C61.114 20.7955 60.7256 20.6735 60.2151 20.6735H58.8894V19.0235C58.5491 19.1616 58.1767 19.2354 57.7883 19.2354C56.7418 19.2354 55.8173 18.6961 55.2812 17.8807C55.278 18.0701 55.2716 18.2788 55.2716 18.5035V20.6767H54.8735C54.3246 20.6767 53.9073 20.7987 53.6216 21.0395C53.3359 21.2835 53.1914 21.5948 53.1914 21.9768C53.1914 22.3524 53.3262 22.667 53.5991 22.9142C53.872 23.1646 54.27 23.2866 54.7933 23.2866H55.2684V30.2236C55.2684 31.3472 55.3582 32.246 55.538 32.9169C55.721 33.5878 56.103 34.1111 56.6872 34.4931C57.2683 34.8751 58.1221 35.0613 59.2553 35.0613C60.4463 35.0613 61.3579 34.9072 61.9968 34.599C62.6324 34.2876 62.9502 33.8414 62.9502 33.2604C62.9534 32.9137 62.8346 32.6248 62.6035 32.3905Z" fill="#273D49"/>
<path d="M77.158 15.5052C76.8626 15.1585 76.4421 14.9819 75.8932 14.9819C75.3442 14.9819 74.9237 15.1745 74.6284 15.5501C74.3298 15.9321 74.1822 16.4907 74.1822 17.2354V22.5706C73.5016 21.8291 72.805 21.2834 72.0924 20.9206C71.3765 20.5643 70.497 20.3846 69.4537 20.3846C67.6528 20.3846 66.2018 21.0137 65.0975 22.2785C63.9933 23.5433 63.4443 25.3025 63.4443 27.5656C63.4443 28.6346 63.5824 29.6265 63.8617 30.5446C64.1409 31.4659 64.5454 32.262 65.0847 32.9425C65.624 33.6231 66.2628 34.1463 66.9979 34.5123C67.733 34.875 68.5356 35.0612 69.3991 35.0612C70.054 35.0612 70.6543 34.9713 71.2064 34.7916C71.7585 34.6118 72.269 34.3454 72.7441 33.9987C72.8949 33.8895 73.0458 33.7643 73.1967 33.6295C73.8708 32.9297 74.7054 32.0148 75.8707 32.0148C76.5127 32.0148 77.1066 32.2106 77.5945 32.5541V17.0492C77.601 16.3687 77.4533 15.8519 77.158 15.5052ZM73.5177 30.2428C73.2031 30.9298 72.7826 31.437 72.2561 31.7676C71.7329 32.0983 71.1518 32.262 70.513 32.262C69.887 32.262 69.3092 32.0886 68.7796 31.7387C68.2531 31.392 67.8358 30.872 67.5276 30.185C67.2259 29.4949 67.075 28.6634 67.075 27.6812C67.075 26.7534 67.2194 25.9381 67.5051 25.2383C67.7908 24.5352 68.1953 23.9959 68.7153 23.6236C69.2354 23.248 69.8293 23.0586 70.4905 23.0586C71.1261 23.0586 71.7104 23.2416 72.2465 23.6075C72.7794 23.9767 73.2031 24.5064 73.5177 25.1997C73.8291 25.8899 73.9896 26.7213 73.9896 27.6844C73.9864 28.7052 73.8291 29.5591 73.5177 30.2428Z" fill="#273D49"/>
<path d="M51.9943 34.8365C51.9943 35.6133 51.3652 36.2425 50.5819 36.2425C49.8018 36.2425 49.1694 35.6133 49.1694 34.8365C49.1694 34.6406 49.2112 34.4512 49.2786 34.2843C49.4969 33.7771 49.9944 33.424 50.5787 33.424C51.2335 33.424 51.7825 33.867 51.9398 34.4673C51.9783 34.5893 51.9943 34.7113 51.9943 34.8365Z" fill="#A1D6E4"/>
<path d="M77.2897 34.7915C77.2897 35.5716 76.6541 36.204 75.8773 36.204C75.0972 36.204 74.4648 35.5748 74.4648 34.7915C74.4648 34.6406 74.4905 34.4898 74.5387 34.3549C74.7184 33.7899 75.2513 33.3823 75.8773 33.3823C76.5193 33.3823 77.0682 33.8156 77.232 34.4095C77.2673 34.5315 77.2897 34.6567 77.2897 34.7915Z" fill="#273D49"/>
<path d="M59.1975 16.3848C59.1975 17.1648 58.5619 17.7972 57.785 17.7972C57.0049 17.7972 56.3726 17.168 56.3726 16.3848C56.3726 16.2339 56.3982 16.083 56.4464 15.9482C56.6262 15.3832 57.159 14.9755 57.785 14.9755C58.427 14.9755 58.976 15.4089 59.1397 16.0028C59.1782 16.1215 59.1975 16.2499 59.1975 16.3848Z" fill="#1399BE"/>
<path d="M83.1451 23.768L82.9685 23.3025H81.4598L81.2832 23.7776C81.2158 23.9638 81.1548 24.089 81.1066 24.1532C81.0585 24.2174 80.9782 24.2495 80.8659 24.2495C80.7728 24.2495 80.6893 24.2142 80.6155 24.1468C80.5417 24.0762 80.5063 23.9991 80.5063 23.9124C80.5063 23.8611 80.516 23.8097 80.532 23.7552C80.5481 23.7006 80.577 23.6267 80.6155 23.5304L81.5625 21.1229C81.5881 21.0522 81.6235 20.972 81.6588 20.8725C81.6973 20.7762 81.7358 20.6959 81.7808 20.6317C81.8225 20.5675 81.8803 20.5161 81.9509 20.4776C82.0215 20.4391 82.1082 20.4166 82.2109 20.4166C82.3169 20.4166 82.4035 20.4359 82.4742 20.4776C82.5448 20.5161 82.6026 20.5675 82.6443 20.6317C82.686 20.6927 82.7245 20.7601 82.7534 20.8339C82.7823 20.9046 82.8208 21.0009 82.8658 21.1196L83.8352 23.5112C83.9123 23.6942 83.9476 23.8258 83.9476 23.9092C83.9476 23.9959 83.9123 24.073 83.8417 24.1468C83.771 24.2174 83.6844 24.2527 83.5816 24.2527C83.5239 24.2527 83.4725 24.2431 83.4308 24.2206C83.389 24.1981 83.3537 24.1725 83.3248 24.1339C83.2959 24.0986 83.267 24.0408 83.2317 23.967C83.1964 23.89 83.1675 23.8258 83.1451 23.768ZM81.6556 22.7375H82.7631L82.2045 21.2063L81.6556 22.7375Z" fill="#273D49"/>
<path d="M87.4436 22.6798V23.3892C87.4436 23.4823 87.434 23.5594 87.4147 23.6171C87.3954 23.6749 87.3633 23.7263 87.312 23.7712C87.2638 23.8162 87.1996 23.8611 87.1226 23.9028C86.8979 24.0248 86.6828 24.1115 86.4741 24.1693C86.2655 24.2238 86.0408 24.2527 85.7968 24.2527C85.5111 24.2527 85.2511 24.2078 85.0167 24.1211C84.7824 24.0345 84.5834 23.906 84.4165 23.7391C84.2495 23.5722 84.1243 23.37 84.0344 23.1324C83.9446 22.8949 83.9028 22.6284 83.9028 22.3363C83.9028 22.0474 83.9446 21.7842 84.0312 21.5434C84.1179 21.3026 84.2431 21.1004 84.41 20.9335C84.577 20.7666 84.7792 20.6381 85.02 20.5515C85.2607 20.4616 85.5304 20.4199 85.8353 20.4199C86.0857 20.4199 86.3072 20.452 86.4966 20.5194C86.6892 20.5868 86.8433 20.6702 86.9653 20.7698C87.0873 20.8693 87.1739 20.9784 87.2349 21.0908C87.2959 21.2031 87.3248 21.3059 87.3248 21.3925C87.3248 21.4856 87.2895 21.5691 87.2189 21.6333C87.1483 21.7007 87.0648 21.7328 86.9685 21.7328C86.9139 21.7328 86.8626 21.72 86.8144 21.6943C86.763 21.6686 86.7213 21.6333 86.6892 21.5883C86.5961 21.4439 86.5191 21.3347 86.4549 21.2609C86.3907 21.1871 86.304 21.1229 86.1949 21.0747C86.0857 21.0234 85.9477 20.9977 85.7775 20.9977C85.6042 20.9977 85.4501 21.0266 85.3121 21.0876C85.174 21.1486 85.0585 21.2352 84.9622 21.3476C84.8659 21.4599 84.792 21.6012 84.7407 21.7649C84.6893 21.9318 84.6636 22.1116 84.6636 22.3138C84.6636 22.7504 84.7631 23.0843 84.9654 23.3186C85.1644 23.5529 85.4437 23.6717 85.8 23.6717C85.9734 23.6717 86.1371 23.6492 86.2879 23.6043C86.442 23.5594 86.5961 23.4952 86.7534 23.4085V22.805H86.1724C86.0311 22.805 85.9252 22.7825 85.8546 22.7408C85.784 22.699 85.7454 22.6284 85.7454 22.5257C85.7454 22.4422 85.7743 22.3748 85.8353 22.3202C85.8963 22.2657 85.9766 22.24 86.0793 22.24H86.9332C87.0391 22.24 87.1258 22.2496 87.1996 22.2689C87.2735 22.2881 87.3312 22.3299 87.3762 22.3941C87.4211 22.4551 87.4436 22.5514 87.4436 22.6798Z" fill="#273D49"/>
<path d="M90.2945 21.0587H88.6027V21.9704H90.1596C90.2752 21.9704 90.3587 21.9961 90.4164 22.0475C90.4742 22.0988 90.4999 22.1662 90.4999 22.2497C90.4999 22.3332 90.471 22.4038 90.4164 22.4551C90.3619 22.5097 90.2752 22.5354 90.1596 22.5354H88.6027V23.5915H90.3522C90.471 23.5915 90.5609 23.6204 90.6187 23.675C90.6797 23.7296 90.7086 23.8034 90.7086 23.8933C90.7086 23.9799 90.6797 24.0538 90.6187 24.1084C90.5577 24.1629 90.471 24.1918 90.3522 24.1918H88.3106C88.1469 24.1918 88.0281 24.1565 87.9575 24.0827C87.8869 24.0088 87.8516 23.8933 87.8516 23.7296V20.9432C87.8516 20.834 87.8676 20.7474 87.8997 20.6799C87.9318 20.6125 87.9832 20.5612 88.0506 20.5323C88.118 20.5002 88.2047 20.4841 88.3138 20.4841H90.2977C90.4164 20.4841 90.5063 20.5098 90.5641 20.5644C90.6219 20.619 90.6508 20.6864 90.6508 20.773C90.6508 20.8597 90.6219 20.9303 90.5641 20.9849C90.5031 21.0331 90.4132 21.0587 90.2945 21.0587Z" fill="#273D49"/>
<path d="M91.9727 20.866L93.4172 23.0521V20.8468C93.4172 20.7023 93.4493 20.5964 93.5103 20.5258C93.5713 20.4551 93.6548 20.4166 93.7607 20.4166C93.8698 20.4166 93.9533 20.4519 94.0143 20.5258C94.0785 20.5964 94.1074 20.7055 94.1074 20.8468V23.7648C94.1074 24.089 93.9726 24.2527 93.7029 24.2527C93.6355 24.2527 93.5745 24.2431 93.5199 24.2238C93.4654 24.2046 93.414 24.1725 93.3691 24.1307C93.3209 24.089 93.2792 24.0376 93.2375 23.9831C93.1957 23.9253 93.1572 23.8675 93.1155 23.8097L91.7062 21.6493V23.8226C91.7062 23.9638 91.6741 24.0697 91.6067 24.1436C91.5393 24.2174 91.4558 24.2527 91.3531 24.2527C91.2472 24.2527 91.1605 24.2174 91.0963 24.1436C91.0321 24.0697 91 23.9638 91 23.8226V20.9623C91 20.8404 91.0128 20.7473 91.0417 20.6766C91.0738 20.5996 91.1284 20.5386 91.2022 20.4905C91.2761 20.4423 91.3563 20.4166 91.443 20.4166C91.5104 20.4166 91.5682 20.4263 91.6163 20.4487C91.6645 20.4712 91.7062 20.5001 91.7415 20.5386C91.7768 20.5771 91.8154 20.6253 91.8539 20.6831C91.8924 20.7408 91.9309 20.8018 91.9727 20.866Z" fill="#273D49"/>
<path d="M97.7773 23.0168C97.7773 23.1356 97.7484 23.264 97.6907 23.3988C97.6329 23.5369 97.5398 23.6717 97.4146 23.8033C97.2894 23.9349 97.1289 24.0441 96.9363 24.1243C96.7437 24.2078 96.5158 24.2495 96.259 24.2495C96.0631 24.2495 95.8866 24.2302 95.7261 24.1949C95.5656 24.1596 95.4211 24.0986 95.2895 24.0216C95.1579 23.9445 95.0391 23.8386 94.93 23.7134C94.8337 23.5979 94.7502 23.4662 94.6796 23.3218C94.609 23.1773 94.5576 23.0232 94.5255 22.8595C94.4902 22.6958 94.4741 22.5225 94.4741 22.3395C94.4741 22.0409 94.5159 21.7745 94.6025 21.537C94.6892 21.2994 94.8144 21.1004 94.9749 20.9302C95.1354 20.7633 95.328 20.6349 95.5431 20.5482C95.7614 20.4616 95.9925 20.4166 96.2397 20.4166C96.5414 20.4166 96.8079 20.4776 97.0422 20.5964C97.2766 20.7152 97.4563 20.8628 97.5815 21.0394C97.7067 21.2159 97.7677 21.3829 97.7677 21.5402C97.7677 21.6268 97.7388 21.7007 97.6778 21.7681C97.6168 21.8355 97.543 21.8676 97.4563 21.8676C97.36 21.8676 97.2894 21.8451 97.2413 21.8002C97.1931 21.7552 97.1385 21.675 97.0807 21.5658C96.9844 21.3829 96.8689 21.2448 96.734 21.155C96.6024 21.0651 96.4387 21.0169 96.2461 21.0169C95.9379 21.0169 95.6908 21.1325 95.5078 21.37C95.3248 21.6044 95.2317 21.9382 95.2317 22.3684C95.2317 22.6573 95.2734 22.898 95.3537 23.0874C95.434 23.2801 95.5495 23.4213 95.6972 23.5176C95.8449 23.6107 96.0182 23.6588 96.2172 23.6588C96.4323 23.6588 96.6153 23.6043 96.7661 23.4983C96.917 23.3924 97.0294 23.2351 97.1032 23.0265C97.1353 22.9301 97.1738 22.8499 97.222 22.7889C97.2701 22.7279 97.344 22.6958 97.4499 22.6958C97.5398 22.6958 97.6168 22.7279 97.681 22.7889C97.7452 22.8467 97.7773 22.9237 97.7773 23.0168Z" fill="#273D49"/>
<path d="M100.586 21.0587H98.8942V21.9704H100.451C100.567 21.9704 100.65 21.9961 100.708 22.0475C100.766 22.0988 100.791 22.1662 100.791 22.2497C100.791 22.3332 100.763 22.4038 100.708 22.4551C100.653 22.5097 100.567 22.5354 100.451 22.5354H98.8942V23.5915H100.644C100.763 23.5915 100.852 23.6204 100.91 23.675C100.971 23.7296 101 23.8034 101 23.8933C101 23.9799 100.971 24.0538 100.91 24.1084C100.849 24.1629 100.763 24.1918 100.644 24.1918H98.6021C98.4384 24.1918 98.3196 24.1565 98.249 24.0827C98.1784 24.0088 98.1431 23.8933 98.1431 23.7296V20.9432C98.1431 20.834 98.1591 20.7474 98.1912 20.6799C98.2233 20.6125 98.2747 20.5612 98.3421 20.5323C98.4095 20.5002 98.4962 20.4841 98.6053 20.4841H100.589C100.708 20.4841 100.798 20.5098 100.856 20.5644C100.913 20.619 100.942 20.6864 100.942 20.773C100.942 20.8597 100.913 20.9303 100.856 20.9849C100.795 21.0331 100.708 21.0587 100.586 21.0587Z" fill="#273D49"/>
<path d="M83.1799 26.5609H82.3613V29.2541C82.3613 29.4082 82.326 29.5238 82.2586 29.6008C82.1912 29.6747 82.1013 29.7132 81.9922 29.7132C81.8798 29.7132 81.7899 29.6747 81.7193 29.6008C81.6487 29.5238 81.6134 29.4114 81.6134 29.2574V26.5641H80.7948C80.6664 26.5641 80.5701 26.5352 80.5091 26.4806C80.4481 26.426 80.416 26.349 80.416 26.2559C80.416 26.1596 80.4481 26.0826 80.5123 26.028C80.5765 25.9734 80.6728 25.9445 80.7948 25.9445H83.1831C83.3115 25.9445 83.4111 25.9734 83.472 26.0312C83.5362 26.089 83.5651 26.1628 83.5651 26.2559C83.5651 26.349 83.533 26.4228 83.4688 26.4806C83.4046 26.5384 83.3083 26.5609 83.1799 26.5609Z" fill="#0B99BD"/>
<path d="M85.2599 25.877C85.6451 25.877 85.9758 25.9541 86.2486 26.1114C86.5247 26.2686 86.7334 26.4901 86.8746 26.7758C87.0159 27.0648 87.0865 27.4018 87.0865 27.7902C87.0865 28.0759 87.048 28.336 86.9709 28.5703C86.8939 28.8046 86.7783 29.0069 86.621 29.1802C86.4669 29.3536 86.2743 29.4852 86.0496 29.5751C85.8249 29.6649 85.5649 29.7131 85.2728 29.7131C84.9839 29.7131 84.7238 29.665 84.4927 29.5719C84.2648 29.4788 84.0722 29.3471 83.9181 29.177C83.764 29.0069 83.6485 28.8014 83.5714 28.5639C83.4944 28.3231 83.4526 28.0663 83.4526 27.787C83.4526 27.5013 83.4944 27.2413 83.5746 27.0038C83.6549 26.7662 83.7736 26.564 83.9309 26.3971C84.085 26.2301 84.2744 26.1017 84.4991 26.015C84.7238 25.922 84.9774 25.877 85.2599 25.877ZM86.3289 27.7838C86.3289 27.511 86.284 27.2766 86.1973 27.0776C86.1106 26.8786 85.9854 26.7277 85.8217 26.625C85.658 26.5222 85.4718 26.4709 85.2599 26.4709C85.1091 26.4709 84.971 26.4998 84.8426 26.5543C84.7142 26.6121 84.6051 26.6924 84.5152 26.8015C84.4221 26.9107 84.3515 27.0487 84.2969 27.2156C84.2423 27.3826 84.2166 27.572 84.2166 27.7806C84.2166 27.9925 84.2423 28.1819 84.2969 28.352C84.3515 28.5221 84.4253 28.6634 84.5216 28.7757C84.6179 28.8881 84.7303 28.9716 84.8555 29.0261C84.9807 29.0807 85.1187 29.1096 85.2696 29.1096C85.4622 29.1096 85.6387 29.0614 85.7992 28.9651C85.9597 28.8688 86.0881 28.7212 86.1844 28.5189C86.2808 28.3263 86.3289 28.0792 86.3289 27.7838Z" fill="#0B99BD"/>
<path d="M90.8074 28.1402V28.8496C90.8074 28.9427 90.7977 29.0197 90.7785 29.0775C90.7592 29.1353 90.7271 29.1835 90.6757 29.2316C90.6276 29.2766 90.5634 29.3215 90.4863 29.3632C90.2616 29.4852 90.0466 29.5719 89.8379 29.6297C89.6293 29.6842 89.4045 29.7131 89.1606 29.7131C88.8749 29.7131 88.6149 29.6682 88.3805 29.5815C88.1462 29.4948 87.9471 29.3664 87.7802 29.1995C87.6133 29.0326 87.4881 28.8303 87.3982 28.5928C87.3083 28.3552 87.2666 28.0888 87.2666 27.7967C87.2666 27.5078 87.3083 27.2445 87.395 27.0038C87.4817 26.763 87.6069 26.5608 87.7738 26.3939C87.9407 26.2269 88.143 26.0985 88.3837 26.0119C88.6245 25.922 88.8941 25.8802 89.1991 25.8802C89.4495 25.8802 89.671 25.9123 89.8604 25.9798C90.053 26.0472 90.2071 26.1306 90.3291 26.2302C90.451 26.3297 90.5377 26.4388 90.5987 26.5512C90.6597 26.6635 90.6886 26.763 90.6886 26.8529C90.6886 26.946 90.6533 27.0263 90.5826 27.0937C90.512 27.1611 90.4286 27.1932 90.3323 27.1932C90.2777 27.1932 90.2263 27.1803 90.1782 27.1547C90.1268 27.129 90.0851 27.0937 90.053 27.0487C89.9599 26.9043 89.8828 26.7951 89.8186 26.7213C89.7544 26.6475 89.6678 26.5833 89.5586 26.5351C89.4495 26.4837 89.3114 26.4581 89.1413 26.4581C88.968 26.4581 88.8139 26.487 88.6758 26.548C88.5378 26.6089 88.4222 26.6956 88.3259 26.808C88.2296 26.9235 88.1558 27.0616 88.1044 27.2253C88.0531 27.3922 88.0274 27.5752 88.0274 27.7742C88.0274 28.2108 88.1269 28.5446 88.3291 28.779C88.5282 29.0133 88.8075 29.1289 89.1638 29.1289C89.3371 29.1289 89.5008 29.1064 89.6517 29.0615C89.8058 29.0165 89.9599 28.9523 90.1172 28.8657V28.2622H89.5362C89.3949 28.2622 89.289 28.2397 89.2183 28.198C89.1477 28.1562 89.1092 28.0856 89.1092 27.9829C89.1092 27.8994 89.1381 27.832 89.1991 27.7774C89.2601 27.7229 89.3403 27.6972 89.4431 27.6972H90.297C90.4029 27.6972 90.4896 27.7068 90.5634 27.7261C90.6372 27.7453 90.695 27.7871 90.74 27.8513C90.7849 27.9187 90.8074 28.015 90.8074 28.1402Z" fill="#0B99BD"/>
<path d="M92.8459 25.877C93.2311 25.877 93.5617 25.9541 93.8346 26.1114C94.1107 26.2686 94.3193 26.4901 94.4606 26.7758C94.6018 27.0648 94.6724 27.4018 94.6724 27.7902C94.6724 28.0759 94.6339 28.336 94.5569 28.5703C94.4798 28.8046 94.3643 29.0069 94.207 29.1802C94.0529 29.3536 93.8603 29.4852 93.6356 29.5751C93.4108 29.6649 93.1508 29.7131 92.8587 29.7131C92.5698 29.7131 92.3098 29.665 92.0786 29.5719C91.8507 29.4788 91.6581 29.3471 91.504 29.177C91.3499 29.0069 91.2344 28.8014 91.1573 28.5639C91.0803 28.3231 91.0386 28.0663 91.0386 27.787C91.0386 27.5013 91.0803 27.2413 91.1606 27.0038C91.2408 26.7662 91.3596 26.564 91.5169 26.3971C91.671 26.2301 91.8604 26.1017 92.0851 26.015C92.3098 25.922 92.5602 25.877 92.8459 25.877ZM93.9116 27.7838C93.9116 27.511 93.8667 27.2766 93.78 27.0776C93.6933 26.8786 93.5681 26.7277 93.4044 26.625C93.2407 26.5222 93.0545 26.4709 92.8427 26.4709C92.6918 26.4709 92.5538 26.4998 92.4253 26.5543C92.2969 26.6121 92.1878 26.6924 92.0979 26.8015C92.0048 26.9107 91.9342 27.0487 91.8796 27.2156C91.8251 27.3826 91.7994 27.572 91.7994 27.7806C91.7994 27.9925 91.8251 28.1819 91.8796 28.352C91.9342 28.5221 92.008 28.6634 92.1043 28.7757C92.2006 28.8881 92.313 28.9716 92.4382 29.0261C92.5634 29.0807 92.7014 29.1096 92.8523 29.1096C93.0449 29.1096 93.2214 29.0614 93.382 28.9651C93.5425 28.8688 93.6709 28.7212 93.7672 28.5189C93.8635 28.3263 93.9116 28.0792 93.9116 27.7838Z" fill="#0B99BD"/>
<path d="M81.235 31.4016H82.2141C82.4677 31.4016 82.686 31.4241 82.8689 31.4722C83.0519 31.5204 83.2156 31.6071 83.3633 31.7387C83.7485 32.0693 83.9411 32.5701 83.9411 33.2474C83.9411 33.4689 83.9219 33.6744 83.8833 33.8574C83.8448 34.0403 83.7838 34.2073 83.7036 34.3549C83.6233 34.5026 83.5174 34.6342 83.3922 34.7498C83.2927 34.8396 83.1835 34.9103 83.0648 34.9648C82.946 35.0194 82.8208 35.0579 82.6828 35.0804C82.5479 35.1029 82.3939 35.1125 82.2237 35.1125H81.2446C81.1066 35.1125 81.0039 35.0932 80.9365 35.0515C80.8658 35.0098 80.8209 34.952 80.8016 34.8782C80.7824 34.8043 80.7695 34.7048 80.7695 34.586V31.8639C80.7695 31.7034 80.8048 31.5846 80.8787 31.514C80.9557 31.4401 81.0745 31.4016 81.235 31.4016ZM81.5271 31.9955V34.5122H82.0953C82.2205 34.5122 82.3168 34.509 82.3874 34.5026C82.458 34.4962 82.5319 34.4801 82.6057 34.4512C82.6828 34.4255 82.747 34.387 82.8047 34.3389C83.0551 34.127 83.1803 33.761 83.1803 33.241C83.1803 32.8751 83.1258 32.6022 83.0134 32.4192C82.9043 32.2362 82.7662 32.1207 82.6057 32.0725C82.4452 32.0244 82.2494 31.9987 82.0183 31.9987H81.5271V31.9955Z" fill="#273D49"/>
<path d="M84.3267 34.7177V31.7965C84.3267 31.6456 84.362 31.5301 84.4294 31.4562C84.4968 31.3792 84.5867 31.3439 84.6958 31.3439C84.8082 31.3439 84.9013 31.3824 84.9719 31.4562C85.0425 31.5301 85.0778 31.6456 85.0778 31.7997V34.7209C85.0778 34.875 85.0425 34.9906 84.9719 35.0644C84.9013 35.1414 84.8114 35.1768 84.6958 35.1768C84.5867 35.1768 84.5 35.1382 84.4294 35.0612C84.3588 34.9809 84.3267 34.8686 84.3267 34.7177Z" fill="#273D49"/>
<path d="M88.9939 33.6038V34.3132C88.9939 34.4063 88.9843 34.4834 88.965 34.5411C88.9457 34.5989 88.9136 34.6471 88.8623 34.6952C88.8141 34.7402 88.7499 34.7851 88.6729 34.8268C88.4482 34.9488 88.2331 35.0355 88.0244 35.0933C87.8158 35.1479 87.5911 35.1768 87.3471 35.1768C87.0614 35.1768 86.8014 35.1318 86.567 35.0451C86.3327 34.9585 86.1337 34.8301 85.9667 34.6631C85.7998 34.4962 85.6746 34.294 85.5847 34.0564C85.4949 33.8189 85.4531 33.5524 85.4531 33.2603C85.4531 32.9714 85.4949 32.7082 85.5815 32.4674C85.6682 32.2267 85.7934 32.0244 85.9603 31.8575C86.1272 31.6906 86.3295 31.5622 86.5702 31.4755C86.811 31.3856 87.0807 31.3439 87.3856 31.3439C87.636 31.3439 87.8575 31.376 88.0469 31.4434C88.2395 31.5108 88.3936 31.5943 88.5156 31.6938C88.6376 31.7933 88.7242 31.9024 88.7852 32.0148C88.8462 32.1271 88.8751 32.2267 88.8751 32.3165C88.8751 32.4096 88.8398 32.4899 88.7692 32.5573C88.6985 32.6247 88.6151 32.6568 88.5188 32.6568C88.4642 32.6568 88.4128 32.644 88.3647 32.6183C88.3133 32.5926 88.2716 32.5573 88.2395 32.5124C88.1464 32.3679 88.0694 32.2588 88.0052 32.1849C87.941 32.1111 87.8543 32.0469 87.7451 31.9987C87.636 31.9474 87.498 31.9217 87.3278 31.9217C87.1545 31.9217 87.0004 31.9506 86.8624 32.0116C86.7243 32.0726 86.6088 32.1592 86.5125 32.2716C86.4162 32.3872 86.3423 32.5252 86.291 32.6889C86.2396 32.8558 86.2139 33.0388 86.2139 33.2378C86.2139 33.6744 86.3134 34.0083 86.5157 34.2426C86.7147 34.4769 86.994 34.5925 87.3503 34.5925C87.5237 34.5925 87.6874 34.57 87.8382 34.5251C87.9891 34.4802 88.1464 34.4159 88.3037 34.3293V33.7258H87.7227C87.5814 33.7258 87.4755 33.7033 87.4049 33.6616C87.3342 33.6198 87.2957 33.5492 87.2957 33.4465C87.2957 33.363 87.3246 33.2956 87.3856 33.241C87.4466 33.1865 87.5269 33.1608 87.6296 33.1608H88.4835C88.5894 33.1608 88.6761 33.1704 88.7499 33.1897C88.8237 33.2089 88.8815 33.2507 88.9265 33.3149C88.9714 33.3791 88.9939 33.4754 88.9939 33.6038Z" fill="#273D49"/>
<path d="M89.4277 34.7177V31.7965C89.4277 31.6456 89.463 31.5301 89.5305 31.4562C89.5979 31.3792 89.6878 31.3439 89.7969 31.3439C89.9093 31.3439 90.0023 31.3824 90.073 31.4562C90.1436 31.5301 90.1789 31.6456 90.1789 31.7997V34.7209C90.1789 34.875 90.1436 34.9906 90.073 35.0644C90.0023 35.1414 89.9125 35.1768 89.7969 35.1768C89.6878 35.1768 89.6011 35.1382 89.5305 35.0612C89.463 34.9809 89.4277 34.8686 89.4277 34.7177Z" fill="#273D49"/>
<path d="M93.1155 32.0212H92.2969V34.7145C92.2969 34.8686 92.2616 34.9842 92.1942 35.0612C92.1268 35.1351 92.0369 35.1736 91.9277 35.1736C91.8154 35.1736 91.7255 35.1351 91.6549 35.0612C91.5842 34.9842 91.5489 34.8718 91.5489 34.7177V32.0245H90.7304C90.602 32.0245 90.5057 31.9956 90.4447 31.941C90.3837 31.8864 90.3516 31.8094 90.3516 31.7163C90.3516 31.62 90.3837 31.5429 90.4479 31.4884C90.5121 31.4338 90.6084 31.4049 90.7304 31.4049H93.1187C93.2471 31.4049 93.3466 31.4338 93.4076 31.4916C93.4718 31.5494 93.5007 31.6232 93.5007 31.7163C93.5007 31.8094 93.4686 31.8832 93.4044 31.941C93.3402 31.9988 93.2439 32.0212 93.1155 32.0212Z" fill="#273D49"/>
<path d="M95.6807 34.692L95.5042 34.2266H93.9954L93.8188 34.7017C93.7514 34.8878 93.6904 35.013 93.6423 35.0772C93.5941 35.1414 93.5139 35.1735 93.4015 35.1735C93.3084 35.1735 93.225 35.1382 93.1511 35.0708C93.0773 35.0034 93.042 34.9231 93.042 34.8365C93.042 34.7851 93.0516 34.7338 93.0677 34.6792C93.0837 34.6246 93.1126 34.5508 93.1511 34.4545L94.0981 32.0469C94.1238 31.9795 94.1591 31.896 94.1944 31.7965C94.2329 31.7002 94.2715 31.6199 94.3164 31.5557C94.3581 31.4915 94.4159 31.4402 94.4865 31.4017C94.5572 31.3631 94.6438 31.3439 94.7466 31.3439C94.8525 31.3439 94.9392 31.3631 95.0098 31.4017C95.0804 31.4402 95.1382 31.4915 95.1799 31.5557C95.2217 31.6167 95.2602 31.6841 95.2891 31.758C95.318 31.8286 95.3565 31.9249 95.4014 32.0469L96.3709 34.4384C96.4479 34.6214 96.4832 34.753 96.4832 34.8365C96.4832 34.9231 96.4479 35.0002 96.3773 35.074C96.3067 35.1446 96.22 35.18 96.1173 35.18C96.0595 35.18 96.0081 35.1703 95.9664 35.1479C95.9247 35.1254 95.8894 35.0965 95.8605 35.0612C95.8316 35.0259 95.8027 34.9681 95.7674 34.8943C95.7321 34.814 95.7064 34.7498 95.6807 34.692ZM94.1944 33.6616H95.3019L94.7434 32.1303L94.1944 33.6616Z" fill="#273D49"/>
<path d="M97.4587 31.7965V34.4962H98.9803C99.1023 34.4962 99.1954 34.5251 99.2596 34.5861C99.3238 34.6439 99.3559 34.7209 99.3559 34.8076C99.3559 34.8975 99.3238 34.9713 99.2596 35.0291C99.1954 35.0869 99.1023 35.1125 98.9803 35.1125H97.1666C97.0028 35.1125 96.8841 35.0772 96.8134 35.0034C96.7428 34.9296 96.7075 34.814 96.7075 34.6535V31.7965C96.7075 31.6456 96.7428 31.5301 96.8102 31.4562C96.8776 31.3792 96.9675 31.3439 97.0799 31.3439C97.1922 31.3439 97.2853 31.3824 97.356 31.4562C97.4234 31.5268 97.4587 31.6424 97.4587 31.7965Z" fill="#273D49"/>
</svg>
