<svg width="314" height="96" viewBox="0 0 314 96" fill="none" xmlns="http://www.w3.org/2000/svg">
<path d="M135.46 43.76C136.513 43.76 137.473 43.9933 138.34 44.46C139.207 44.9267 139.893 45.5933 140.4 46.46C140.907 47.3133 141.16 48.3067 141.16 49.44C141.16 50.5733 140.907 51.5733 140.4 52.44C139.893 53.3067 139.2 53.98 138.32 54.46C137.453 54.9267 136.487 55.16 135.42 55.16C134.367 55.16 133.407 54.9267 132.54 54.46C131.673 53.98 130.987 53.3067 130.48 52.44C129.987 51.5733 129.74 50.5733 129.74 49.44C129.74 48.3067 129.993 47.3133 130.5 46.46C131.007 45.5933 131.693 44.9267 132.56 44.46C133.427 43.9933 134.393 43.76 135.46 43.76ZM135.44 46.14C134.64 46.14 133.967 46.4267 133.42 47C132.873 47.5733 132.6 48.3933 132.6 49.46C132.6 50.18 132.727 50.7933 132.98 51.3C133.247 51.7933 133.593 52.1667 134.02 52.42C134.447 52.66 134.913 52.78 135.42 52.78C135.913 52.78 136.38 52.6533 136.82 52.4C137.26 52.1467 137.613 51.7733 137.88 51.28C138.16 50.7733 138.3 50.1667 138.3 49.46C138.3 48.74 138.167 48.1333 137.9 47.64C137.633 47.1333 137.28 46.76 136.84 46.52C136.413 46.2667 135.947 46.14 135.44 46.14ZM149.771 43.76C150.717 43.76 151.584 44 152.371 44.48C153.157 44.96 153.777 45.6333 154.231 46.5C154.684 47.3533 154.911 48.3333 154.911 49.44C154.911 50.5467 154.684 51.54 154.231 52.42C153.777 53.2867 153.157 53.96 152.371 54.44C151.584 54.92 150.717 55.16 149.771 55.16C148.971 55.16 148.271 54.98 147.671 54.62C147.084 54.26 146.597 53.7667 146.211 53.14V60.28H143.391V43.92H146.211V45.64C146.571 45.0533 147.051 44.5933 147.651 44.26C148.264 43.9267 148.971 43.76 149.771 43.76ZM149.131 46.2C148.624 46.2 148.144 46.3267 147.691 46.58C147.251 46.8333 146.891 47.2067 146.611 47.7C146.344 48.1933 146.211 48.78 146.211 49.46C146.211 50.14 146.344 50.7267 146.611 51.22C146.891 51.7133 147.251 52.0867 147.691 52.34C148.144 52.5933 148.624 52.72 149.131 52.72C149.637 52.72 150.111 52.5933 150.551 52.34C151.004 52.0867 151.364 51.7133 151.631 51.22C151.911 50.7133 152.051 50.12 152.051 49.44C152.051 48.76 151.911 48.1733 151.631 47.68C151.364 47.1867 151.004 46.82 150.551 46.58C150.111 46.3267 149.637 46.2 149.131 46.2ZM167.381 49.3C167.381 49.6867 167.354 50.0467 167.301 50.38H159.221C159.288 51.1 159.554 51.68 160.021 52.12C160.488 52.56 161.081 52.78 161.801 52.78C162.361 52.78 162.808 52.6733 163.141 52.46C163.474 52.2467 163.748 51.9533 163.961 51.58H167.001C166.681 52.6333 166.061 53.4933 165.141 54.16C164.221 54.8267 163.108 55.16 161.801 55.16C160.748 55.16 159.808 54.9267 158.981 54.46C158.154 53.98 157.508 53.3133 157.041 52.46C156.574 51.5933 156.341 50.5867 156.341 49.44C156.341 48.2933 156.574 47.2933 157.041 46.44C157.508 45.5867 158.154 44.9267 158.981 44.46C159.821 43.9933 160.774 43.76 161.841 43.76C162.908 43.76 163.854 43.9867 164.681 44.44C165.521 44.8933 166.181 45.54 166.661 46.38C167.141 47.2067 167.381 48.18 167.381 49.3ZM164.461 48.56C164.421 47.8267 164.148 47.24 163.641 46.8C163.148 46.36 162.534 46.14 161.801 46.14C161.121 46.14 160.541 46.36 160.061 46.8C159.594 47.24 159.314 47.8267 159.221 48.56H164.461ZM175.862 43.76C176.688 43.76 177.422 43.9467 178.062 44.32C178.715 44.68 179.228 45.22 179.602 45.94C179.975 46.6467 180.162 47.4933 180.162 48.48V55H177.362V48.88C177.362 48.0133 177.142 47.3533 176.702 46.9C176.262 46.4333 175.662 46.2 174.902 46.2C174.142 46.2 173.535 46.4333 173.082 46.9C172.642 47.3533 172.422 48.0133 172.422 48.88V55H169.602V43.92H172.422V45.58C172.768 44.9933 173.235 44.5467 173.822 44.24C174.422 43.92 175.102 43.76 175.862 43.76ZM187.419 43.76C188.205 43.76 188.905 43.9267 189.519 44.26C190.132 44.5933 190.625 45.0533 190.999 45.64V40.2H193.799V55H190.999V53.14C190.612 53.7667 190.112 54.26 189.499 54.62C188.899 54.98 188.205 55.16 187.419 55.16C186.472 55.16 185.605 54.92 184.819 54.44C184.045 53.9467 183.425 53.2667 182.959 52.4C182.505 51.5333 182.279 50.5467 182.279 49.44C182.279 48.3333 182.505 47.3533 182.959 46.5C183.425 45.6333 184.045 44.96 184.819 44.48C185.605 44 186.472 43.76 187.419 43.76ZM188.059 46.2C187.565 46.2 187.092 46.3267 186.639 46.58C186.199 46.8333 185.839 47.2067 185.559 47.7C185.279 48.18 185.139 48.76 185.139 49.44C185.139 50.12 185.279 50.7133 185.559 51.22C185.839 51.7133 186.199 52.0867 186.639 52.34C187.092 52.5933 187.565 52.72 188.059 52.72C188.565 52.72 189.039 52.5933 189.479 52.34C189.932 52.0867 190.299 51.7133 190.579 51.22C190.859 50.7267 190.999 50.14 190.999 49.46C190.999 48.78 190.859 48.1933 190.579 47.7C190.299 47.2067 189.932 46.8333 189.479 46.58C189.039 46.3267 188.565 46.2 188.059 46.2ZM201.149 43.76C201.936 43.76 202.636 43.9267 203.249 44.26C203.862 44.5933 204.356 45.0533 204.729 45.64V43.92H207.529V55H204.729V53.14C204.342 53.7667 203.842 54.26 203.229 54.62C202.629 54.98 201.936 55.16 201.149 55.16C200.202 55.16 199.336 54.92 198.549 54.44C197.776 53.9467 197.156 53.2667 196.689 52.4C196.236 51.5333 196.009 50.5467 196.009 49.44C196.009 48.3333 196.236 47.3533 196.689 46.5C197.156 45.6333 197.776 44.96 198.549 44.48C199.336 44 200.202 43.76 201.149 43.76ZM201.789 46.2C201.296 46.2 200.822 46.3267 200.369 46.58C199.929 46.8333 199.569 47.2067 199.289 47.7C199.009 48.18 198.869 48.76 198.869 49.44C198.869 50.12 199.009 50.7133 199.289 51.22C199.569 51.7133 199.929 52.0867 200.369 52.34C200.822 52.5933 201.296 52.72 201.789 52.72C202.296 52.72 202.769 52.5933 203.209 52.34C203.662 52.0867 204.029 51.7133 204.309 51.22C204.589 50.7267 204.729 50.14 204.729 49.46C204.729 48.78 204.589 48.1933 204.309 47.7C204.029 47.2067 203.662 46.8333 203.209 46.58C202.769 46.3267 202.296 46.2 201.789 46.2ZM216.16 52.64V55H214.38C213.246 55 212.373 54.74 211.76 54.22C211.146 53.7 210.84 52.84 210.84 51.64V46.22H209.66V43.92H210.84V41.18H213.66V43.92H216.14V46.22H213.66V51.64C213.66 52 213.746 52.26 213.92 52.42C214.093 52.5667 214.393 52.64 214.82 52.64H216.16ZM222.712 43.76C223.498 43.76 224.198 43.9267 224.812 44.26C225.425 44.5933 225.918 45.0533 226.292 45.64V43.92H229.092V55H226.292V53.14C225.905 53.7667 225.405 54.26 224.792 54.62C224.192 54.98 223.498 55.16 222.712 55.16C221.765 55.16 220.898 54.92 220.112 54.44C219.338 53.9467 218.718 53.2667 218.252 52.4C217.798 51.5333 217.572 50.5467 217.572 49.44C217.572 48.3333 217.798 47.3533 218.252 46.5C218.718 45.6333 219.338 44.96 220.112 44.48C220.898 44 221.765 43.76 222.712 43.76ZM223.352 46.2C222.858 46.2 222.385 46.3267 221.932 46.58C221.492 46.8333 221.132 47.2067 220.852 47.7C220.572 48.18 220.432 48.76 220.432 49.44C220.432 50.12 220.572 50.7133 220.852 51.22C221.132 51.7133 221.492 52.0867 221.932 52.34C222.385 52.5933 222.858 52.72 223.352 52.72C223.858 52.72 224.332 52.5933 224.772 52.34C225.225 52.0867 225.592 51.7133 225.872 51.22C226.152 50.7267 226.292 50.14 226.292 49.46C226.292 48.78 226.152 48.1933 225.872 47.7C225.592 47.2067 225.225 46.8333 224.772 46.58C224.332 46.3267 223.858 46.2 223.352 46.2ZM231.442 53.4C231.442 52.9467 231.595 52.5667 231.902 52.26C232.209 51.9533 232.582 51.8 233.022 51.8C233.475 51.8 233.855 51.9533 234.162 52.26C234.482 52.5667 234.642 52.9467 234.642 53.4C234.642 53.8533 234.482 54.2333 234.162 54.54C233.855 54.8467 233.475 55 233.022 55C232.582 55 232.209 54.8467 231.902 54.54C231.595 54.2333 231.442 53.8533 231.442 53.4ZM241.344 43.76C242.131 43.76 242.831 43.9267 243.444 44.26C244.058 44.5933 244.551 45.0533 244.924 45.64V43.92H247.724V55.08C247.724 56.1067 247.518 57.0267 247.104 57.84C246.704 58.6533 246.091 59.2933 245.264 59.76C244.451 60.24 243.444 60.48 242.244 60.48C240.658 60.48 239.364 60.1267 238.364 59.42C237.378 58.7267 236.818 57.7333 236.684 56.44H239.444C239.618 56.9333 239.951 57.32 240.444 57.6C240.938 57.8933 241.538 58.04 242.244 58.04C243.031 58.04 243.671 57.7933 244.164 57.3C244.671 56.8067 244.924 56.0667 244.924 55.08V53.14C244.538 53.7667 244.038 54.26 243.424 54.62C242.824 54.98 242.131 55.16 241.344 55.16C240.398 55.16 239.531 54.92 238.744 54.44C237.971 53.9467 237.351 53.2667 236.884 52.4C236.431 51.5333 236.204 50.5467 236.204 49.44C236.204 48.3333 236.431 47.3533 236.884 46.5C237.351 45.6333 237.971 44.96 238.744 44.48C239.531 44 240.398 43.76 241.344 43.76ZM241.984 46.2C241.491 46.2 241.018 46.3267 240.564 46.58C240.124 46.8333 239.764 47.2067 239.484 47.7C239.204 48.18 239.064 48.76 239.064 49.44C239.064 50.12 239.204 50.7133 239.484 51.22C239.764 51.7133 240.124 52.0867 240.564 52.34C241.018 52.5933 241.491 52.72 241.984 52.72C242.491 52.72 242.964 52.5933 243.404 52.34C243.858 52.0867 244.224 51.7133 244.504 51.22C244.784 50.7267 244.924 50.14 244.924 49.46C244.924 48.78 244.784 48.1933 244.504 47.7C244.224 47.2067 243.858 46.8333 243.404 46.58C242.964 46.3267 242.491 46.2 241.984 46.2ZM255.675 43.76C256.728 43.76 257.688 43.9933 258.555 44.46C259.422 44.9267 260.108 45.5933 260.615 46.46C261.122 47.3133 261.375 48.3067 261.375 49.44C261.375 50.5733 261.122 51.5733 260.615 52.44C260.108 53.3067 259.415 53.98 258.535 54.46C257.668 54.9267 256.702 55.16 255.635 55.16C254.582 55.16 253.622 54.9267 252.755 54.46C251.888 53.98 251.202 53.3067 250.695 52.44C250.202 51.5733 249.955 50.5733 249.955 49.44C249.955 48.3067 250.208 47.3133 250.715 46.46C251.222 45.5933 251.908 44.9267 252.775 44.46C253.642 43.9933 254.608 43.76 255.675 43.76ZM255.655 46.14C254.855 46.14 254.182 46.4267 253.635 47C253.088 47.5733 252.815 48.3933 252.815 49.46C252.815 50.18 252.942 50.7933 253.195 51.3C253.462 51.7933 253.808 52.1667 254.235 52.42C254.662 52.66 255.128 52.78 255.635 52.78C256.128 52.78 256.595 52.6533 257.035 52.4C257.475 52.1467 257.828 51.7733 258.095 51.28C258.375 50.7733 258.515 50.1667 258.515 49.46C258.515 48.74 258.382 48.1333 258.115 47.64C257.848 47.1333 257.495 46.76 257.055 46.52C256.628 46.2667 256.162 46.14 255.655 46.14ZM274.065 43.92V55H271.245V53.32C270.899 53.9067 270.425 54.36 269.825 54.68C269.239 54.9867 268.559 55.14 267.785 55.14C266.972 55.14 266.239 54.96 265.585 54.6C264.945 54.2267 264.439 53.6867 264.065 52.98C263.692 52.26 263.505 51.4067 263.505 50.42V43.92H266.305V50.02C266.305 50.8867 266.525 51.5533 266.965 52.02C267.405 52.4867 268.005 52.72 268.765 52.72C269.525 52.72 270.125 52.4867 270.565 52.02C271.019 51.5533 271.245 50.8867 271.245 50.02V43.92H274.065ZM281.563 52.58L284.403 43.92H287.403L283.323 55H279.783L275.703 43.92H278.703L281.563 52.58ZM288.515 53.64C288.515 53.2533 288.642 52.9267 288.895 52.66C289.162 52.3933 289.488 52.26 289.875 52.26C290.262 52.26 290.588 52.3933 290.855 52.66C291.122 52.9267 291.255 53.2533 291.255 53.64C291.255 54.0267 291.122 54.3533 290.855 54.62C290.588 54.8733 290.262 55 289.875 55C289.502 55 289.182 54.8667 288.915 54.6C288.648 54.3333 288.515 54.0133 288.515 53.64Z" fill="#3A3A3A"/>
<path d="M295.462 51.56C295.422 51.8133 295.402 52.04 295.402 52.24C295.402 52.6667 295.516 52.9667 295.742 53.14C295.982 53.3133 296.369 53.4 296.902 53.4H298.022L297.722 55H296.362C295.429 55 294.722 54.8133 294.242 54.44C293.776 54.0667 293.542 53.4533 293.542 52.6C293.542 52.2133 293.576 51.8533 293.642 51.52L294.702 45.6H293.062L293.322 44.02H294.982L295.462 41.28H297.282L296.802 44.02H299.642L299.362 45.6H296.522L295.462 51.56ZM304.743 55.16C303.463 55.16 302.443 54.7733 301.683 54C300.923 53.2133 300.543 52.14 300.543 50.78C300.543 50.4333 300.59 49.9667 300.683 49.38C300.883 48.26 301.27 47.2867 301.843 46.46C302.416 45.62 303.116 44.98 303.943 44.54C304.783 44.1 305.69 43.88 306.663 43.88C307.743 43.88 308.61 44.1467 309.263 44.68C309.93 45.2133 310.33 45.9267 310.463 46.82L310.963 44.02H312.763L310.783 55.18C310.61 56.1933 310.243 57.0933 309.683 57.88C309.123 58.6667 308.423 59.28 307.583 59.72C306.743 60.16 305.823 60.38 304.823 60.38C303.356 60.38 302.21 60.02 301.383 59.3C300.57 58.5933 300.116 57.6333 300.023 56.42H301.823C301.93 57.1533 302.243 57.7267 302.763 58.14C303.283 58.5667 304.003 58.78 304.923 58.78C305.923 58.78 306.803 58.4667 307.563 57.84C308.323 57.2133 308.796 56.3267 308.983 55.18L309.523 52.2C309.083 53.0933 308.436 53.8133 307.583 54.36C306.743 54.8933 305.796 55.16 304.743 55.16ZM306.963 45.48C305.83 45.48 304.863 45.84 304.063 46.56C303.263 47.28 302.756 48.2667 302.543 49.52C302.476 49.8933 302.443 50.22 302.443 50.5C302.443 51.4467 302.716 52.1867 303.263 52.72C303.823 53.2533 304.583 53.52 305.543 53.52C306.25 53.52 306.916 53.36 307.543 53.04C308.17 52.7067 308.696 52.24 309.123 51.64C309.563 51.0267 309.856 50.32 310.003 49.52C310.056 49.2533 310.083 48.96 310.083 48.64C310.083 47.68 309.796 46.9133 309.223 46.34C308.663 45.7667 307.91 45.48 306.963 45.48Z" fill="#6E6969"/>
<path d="M60.4197 94.21H34.6758V95.9322H60.4197V94.21Z" fill="#156C52"/>
<path d="M0.877587 84.4758C0.877587 83.9517 0.877587 83.5024 0.877587 83.3526C0.877587 83.128 0.802313 82.9782 0.651764 82.9782H0.350664C0.350664 82.9782 0.275391 82.9782 0.275391 82.9034V82.7536C0.275391 82.7536 0.27539 82.6787 0.350664 82.6787C0.425939 82.6787 0.651764 82.6787 1.40451 82.6787C1.78088 82.6787 2.38307 82.6787 2.68417 82.6787C3.21109 82.6787 3.58747 82.9034 3.88857 83.128C4.11439 83.3526 4.26494 83.6521 4.26494 83.8768C4.26494 84.7753 3.58747 85.1497 2.98527 85.1497V85.2246C3.21109 85.2995 3.28637 85.4492 3.43692 85.599C3.51219 85.6739 3.88857 86.3478 3.96384 86.4227C4.03912 86.4976 4.34021 87.0217 4.49076 87.1715C4.56604 87.2464 4.86714 87.3212 5.01769 87.3212C5.09296 87.3212 5.09296 87.3212 5.09296 87.3961V87.5459C5.09296 87.6208 5.09296 87.6208 5.01769 87.6208C4.94241 87.6208 4.79186 87.6208 4.26494 87.6208C4.03912 87.6208 3.81329 87.6208 3.58747 87.6208C3.36164 87.471 2.98527 86.6473 2.83472 86.4227C2.6089 85.9734 2.3078 85.4492 2.0067 85.4492H1.78088V85.8236C1.78088 86.198 1.78088 87.0217 1.78088 87.0966C1.78088 87.2464 1.85615 87.3961 1.93143 87.3961H2.23252C2.3078 87.3961 2.3078 87.3961 2.3078 87.471V87.6208C2.3078 87.6956 2.3078 87.6956 2.23252 87.6956C2.23252 87.6956 2.08198 87.6956 1.32923 87.6956C0.576489 87.6956 0.425939 87.6956 0.350664 87.6956C0.27539 87.6956 0.275391 87.6956 0.275391 87.6208V87.471V87.3961H0.501214C0.651763 87.3961 0.802312 87.3212 0.802312 87.1715C0.802312 86.4976 0.802312 85.8236 0.802312 85.2246V84.4758H0.877587ZM1.78088 85.2246C1.93143 85.2246 2.0067 85.2246 2.08198 85.2246C2.98527 85.2246 3.2111 84.4009 3.2111 84.0265C3.2111 83.727 3.13582 83.4275 2.98527 83.2777C2.75945 83.0531 2.45835 82.9782 2.23252 82.9782C2.08198 82.9782 2.0067 82.9782 2.0067 83.0531C1.93143 83.0531 1.93143 83.128 1.93143 83.2029L1.78088 85.2246Z" fill="black"/>
<path d="M7.05057 85.0001C7.35167 85.0001 7.65277 85.0001 7.72804 84.9253C7.87859 84.9253 7.95387 84.8504 8.02914 84.7006C8.10442 84.6257 8.17969 84.4011 8.17969 84.2514C8.17969 84.1765 8.17969 84.1765 8.25496 84.1765H8.40551C8.40551 84.1765 8.48079 84.1765 8.48079 84.2514C8.48079 84.4011 8.48079 84.7006 8.48079 84.9253C8.48079 85.2248 8.48079 85.5243 8.55606 85.6741C8.55606 85.7489 8.55606 85.7489 8.48079 85.7489H8.33024C8.33024 85.7489 8.25496 85.7489 8.25496 85.6741C8.25496 85.5992 8.17969 85.3745 8.10442 85.2997C8.02914 85.1499 7.87859 85.075 7.72804 85.075C7.57749 85.075 7.35167 85.0001 7.05057 85.0001V85.3745C7.05057 85.7489 7.05057 86.4229 7.05057 86.4977C7.05057 86.8721 7.12585 86.947 7.20112 87.0219C7.2764 87.0968 7.42695 87.0968 7.80332 87.0968C7.95387 87.0968 8.17969 87.0968 8.33024 87.0968C8.48079 87.0968 8.70661 87.0219 8.85716 86.8721C9.00771 86.7224 9.38408 86.2731 9.53463 86.1233H9.60991L9.76046 86.1982C9.76046 86.1982 9.76046 86.1982 9.76046 86.2731L9.45936 87.3214C9.45936 87.3963 9.38408 87.3963 9.30881 87.3963C9.30881 87.3963 9.15826 87.3963 8.70661 87.3963C8.25496 87.3963 7.50222 87.3963 6.3731 87.3963C6.14728 87.3963 5.92145 87.3963 5.7709 87.3963C5.62036 87.3963 5.54508 87.3963 5.46981 87.3963C5.39453 87.3963 5.39453 87.3963 5.39453 87.3214V87.1716C5.39453 87.0968 5.39453 87.0968 5.46981 87.0968H5.69563C5.99673 87.0968 6.072 87.0219 6.072 86.7973V84.5509C6.072 83.9518 6.072 83.1282 6.072 83.0533C6.072 82.8286 5.99673 82.7538 5.7709 82.7538H5.46981C5.46981 82.7538 5.46981 82.7538 5.46981 82.6789V82.5291C5.46981 82.5291 5.46981 82.4542 5.54508 82.4542C5.69563 82.4542 5.92145 82.4542 6.52365 82.4542H8.93244C9.00771 82.4542 9.15826 82.4542 9.23353 82.4542H9.30881C9.30881 82.5291 9.53463 83.5025 9.60991 83.5774V83.6523L9.53463 83.7272H9.45936C9.45936 83.6523 8.78189 83.0533 8.63134 82.9784C8.48079 82.9035 8.33024 82.8286 8.10442 82.8286H7.20112L7.05057 85.0001ZM7.35167 82.2296L8.25496 81.2562C8.33024 81.1813 8.40551 81.1064 8.55606 81.1064C8.78189 81.1064 8.85716 81.2562 8.85716 81.4808C8.85716 81.6306 8.70661 81.7054 8.63134 81.7803L7.50222 82.3045C7.50222 82.3045 7.50222 82.3045 7.42695 82.3045L7.35167 82.2296Z" fill="black"/>
<path d="M11.7927 85.8235C11.7927 86.123 11.7927 87.0964 11.7927 87.1713C11.7927 87.3211 11.868 87.3959 12.0185 87.3959H12.3949C12.4702 87.3959 12.4702 87.3959 12.4702 87.4708V87.6206C12.4702 87.6206 12.4702 87.6955 12.3949 87.6955C12.3196 87.6955 12.0938 87.6955 11.2658 87.6955C10.6636 87.6955 10.3625 87.6955 10.2872 87.6955C10.212 87.6955 10.212 87.6955 10.212 87.6206V87.4708C10.212 87.4708 10.212 87.3959 10.2872 87.3959H10.4378C10.6636 87.3959 10.7389 87.3959 10.7389 87.1713C10.7389 87.0964 10.7389 86.0481 10.7389 85.2244V84.4756C10.7389 84.0264 10.7389 83.2776 10.7389 83.2027C10.7389 83.0529 10.6636 83.0529 10.5131 83.0529H10.212C10.212 83.0529 10.1367 83.0529 10.1367 82.978V82.8283C10.1367 82.8283 10.1367 82.7534 10.212 82.7534C10.2872 82.7534 10.5131 82.7534 11.2658 82.7534C11.4163 82.7534 11.7927 82.7534 12.0185 82.7534C12.8466 82.7534 13.2982 82.8283 13.6746 83.1278C13.9757 83.3525 14.2015 83.7268 14.2015 84.1761C14.2015 84.9998 13.524 85.524 12.3949 85.524C12.1691 85.524 12.0185 85.524 11.868 85.524V85.8235H11.7927ZM11.7927 85.2993C11.9433 85.2993 12.0938 85.3742 12.2444 85.3742C12.4702 85.3742 12.7713 85.1496 12.9218 84.9249C13.0724 84.7003 13.0724 84.4756 13.0724 84.1761C13.0724 83.2027 12.3949 83.0529 12.0938 83.0529C11.9433 83.0529 11.868 83.0529 11.7927 83.0529V85.2993Z" fill="black"/>
<path d="M15.1042 83.3526C15.1042 83.128 15.0289 82.9782 14.8784 82.9782H14.5773C14.502 82.9782 14.502 82.9782 14.502 82.9034V82.7536C14.502 82.6787 14.502 82.6787 14.5773 82.6787C14.6526 82.6787 14.9537 82.6787 15.7064 82.6787C16.3086 82.6787 16.6097 82.6787 16.685 82.6787C16.7602 82.6787 16.7602 82.6787 16.7602 82.7536V82.9034C16.7602 82.9034 16.7602 82.9782 16.685 82.9782H16.4591C16.2333 82.9782 16.0828 83.128 16.0828 83.2777C16.0828 83.3526 16.0828 83.8019 16.0828 84.1763V84.6256C16.0828 85 16.0828 85.8237 16.0828 86.0483C16.0828 86.3478 16.158 86.6473 16.3086 86.872C16.5344 87.1715 16.8355 87.2464 17.1366 87.2464C17.3624 87.2464 17.7388 87.0966 17.9646 86.9468C18.2657 86.7222 18.4163 86.3478 18.4163 85.8237V84.7753C18.4163 84.1763 18.341 83.4275 18.341 83.2777C18.341 83.128 18.1905 82.9782 18.1152 82.9782H17.8894C17.8141 82.9782 17.8141 82.9782 17.8141 82.9034V82.7536C17.8141 82.7536 17.8141 82.6787 17.8894 82.6787C17.9646 82.6787 18.2657 82.6787 18.7174 82.6787C19.0937 82.6787 19.3196 82.6787 19.3948 82.6787C19.4701 82.6787 19.4701 82.6787 19.4701 82.7536V82.9034C19.4701 82.9782 19.4701 82.9782 19.3948 82.9782H19.169C18.9432 82.9782 18.8679 83.2029 18.8679 83.2029C18.8679 83.2777 18.8679 84.2512 18.8679 84.3261C18.8679 84.4009 18.8679 85.599 18.8679 85.8985C18.7927 86.4227 18.6421 86.872 18.2657 87.1715C17.9646 87.471 17.513 87.6208 17.0613 87.6208C16.7602 87.6208 16.3086 87.5459 16.0075 87.471C15.7064 87.3212 15.4053 87.0217 15.1795 86.5724C15.0289 86.2729 15.0289 85.8237 15.0289 84.9251V83.3526H15.1042Z" fill="black"/>
<path d="M20.5252 84.6254C20.5252 84.4008 20.5252 83.5771 20.5252 83.4273C20.5252 83.0529 20.3747 83.0529 20.1488 83.0529H19.923C19.8477 83.0529 19.8477 83.0529 19.8477 82.978V82.8283C19.8477 82.7534 19.8477 82.7534 19.923 82.7534C19.9983 82.7534 20.3747 82.7534 20.9769 82.7534C21.2027 82.7534 21.5791 82.7534 22.106 82.7534C22.6329 82.7534 23.0093 82.8283 23.3104 82.9032C23.6867 83.1278 23.8373 83.4273 23.8373 83.8017C23.8373 84.251 23.5362 84.7003 22.8587 84.9249C23.6867 85.1496 24.1384 85.524 24.1384 86.2727C24.1384 86.6471 23.9126 87.1713 23.6115 87.3211C23.3104 87.4708 22.8587 87.5457 22.0307 87.5457C21.9554 87.5457 21.8049 87.5457 21.5791 87.5457C21.3532 87.5457 21.2027 87.5457 21.0521 87.5457C20.6758 87.5457 20.4499 87.5457 20.2994 87.5457C20.1488 87.5457 20.0736 87.5457 19.9983 87.5457C19.923 87.5457 19.923 87.5457 19.923 87.4708V87.3211C19.923 87.2462 19.923 87.2462 19.9983 87.2462H20.2241C20.4499 87.2462 20.4499 87.1713 20.5252 86.9467C20.5252 86.7969 20.5252 85.8983 20.5252 85.2993V84.6254ZM21.5791 84.9249C21.8802 84.9249 22.3318 84.9249 22.4824 84.7003C22.7082 84.4756 22.7834 84.1761 22.7834 83.8766C22.7834 83.652 22.7082 83.3524 22.4824 83.2027C22.2565 83.0529 21.8802 82.978 21.8049 82.978C21.6543 82.978 21.5038 82.9781 21.5038 83.1278C21.5038 83.2776 21.5038 83.8766 21.5038 84.4008V84.9249H21.5791ZM21.5791 86.4974C21.5791 87.1713 21.7296 87.3959 22.106 87.3959C22.5576 87.3959 23.0845 87.1713 23.0845 86.2727C23.0845 85.7486 22.8587 85.3742 22.4824 85.2244C22.106 85.0747 21.8049 85.0747 21.6543 85.0747V86.4974H21.5791Z" fill="black"/>
<path d="M26.4706 85.4491C26.4706 85.5988 26.4706 87.0215 26.4706 87.3211H26.847C27.1481 87.3211 27.4491 87.3211 27.8255 87.3211C28.2019 87.3211 28.6535 86.4974 28.7288 86.1979C28.7288 86.123 28.8041 86.123 28.8041 86.123L28.9546 86.1979C28.9546 86.1979 28.9546 86.1979 28.9546 86.2728C28.9546 86.3476 28.6535 87.4708 28.6535 87.6206C28.503 87.6206 26.4706 87.6206 25.8684 87.6206C25.1909 87.6206 24.9651 87.6206 24.8898 87.6206C24.8145 87.6206 24.8145 87.6206 24.8145 87.5457V87.3959C24.8145 87.3959 24.8145 87.3211 24.8898 87.3211H25.1156C25.3415 87.3211 25.4167 87.2462 25.4167 87.1713C25.4167 87.0215 25.4167 85.3742 25.4167 84.9249V84.5505C25.4167 84.1012 25.4167 83.4273 25.4167 83.2776C25.4167 83.1278 25.3415 83.0529 25.1909 83.0529H24.9651C24.8898 83.0529 24.8898 83.0529 24.8898 82.978V82.8283C24.8898 82.8283 24.8898 82.7534 24.9651 82.7534C25.0404 82.7534 25.2662 82.7534 25.9437 82.7534C26.7717 82.7534 26.9975 82.7534 27.0728 82.7534C27.1481 82.7534 27.1481 82.7534 27.1481 82.8283V82.978C27.1481 82.978 27.1481 83.0529 27.0728 83.0529H26.7717C26.5459 83.0529 26.5459 83.1278 26.5459 83.2776C26.5459 83.3525 26.5459 84.4008 26.5459 84.85V85.4491H26.4706Z" fill="black"/>
<path d="M30.0084 84.7006C30.0084 84.5508 30.0084 83.2779 30.0084 83.203C30.0084 83.0532 29.9331 82.9784 29.7826 82.9784H29.4816C29.4816 82.9784 29.4062 82.9784 29.4062 82.9035V82.6788C29.4062 82.6788 29.4063 82.604 29.4816 82.604C29.5569 82.604 29.9331 82.604 30.6106 82.604C31.2881 82.604 31.514 82.604 31.5893 82.604C31.5893 82.604 31.6644 82.604 31.6644 82.6788V82.8286C31.6644 82.8286 31.6645 82.9035 31.5893 82.9035H31.3633C31.2128 82.9035 31.0623 82.9784 31.0623 83.0532C31.0623 83.1281 31.0623 84.6257 31.0623 84.7006V85.2247C31.0623 85.2996 31.0623 86.8721 31.0623 86.947C31.0623 87.1716 31.1376 87.1716 31.2882 87.1716H31.5893C31.5893 87.1716 31.6644 87.1716 31.6644 87.2465V87.4711C31.6644 87.4711 31.6645 87.546 31.5893 87.546C31.514 87.546 31.2128 87.546 30.6106 87.546C29.8579 87.546 29.6321 87.546 29.5569 87.546C29.5569 87.546 29.4816 87.546 29.4816 87.4711V87.3214C29.4816 87.3214 29.4816 87.2465 29.5569 87.2465H29.7826C29.9331 87.2465 30.0837 87.2465 30.0837 87.0967C30.0837 87.0219 30.0837 85.5243 30.0837 85.1499V84.7006H30.0084Z" fill="black"/>
<path d="M37.0839 83.4275C37.5356 83.8768 37.7614 84.5507 37.7614 85.1497C37.7614 85.8985 37.4603 86.5724 37.0839 86.9468C36.7075 87.3212 36.3312 87.5459 35.8795 87.6956C36.4817 87.9203 37.0086 88.07 37.4603 88.2198C38.8905 88.5942 39.2669 88.5193 39.4927 88.5193C39.7185 88.5193 39.8691 88.4444 40.0196 88.2947H40.0949L40.1702 88.3696V88.4444C40.0196 88.6691 39.4927 89.2681 39.1163 89.2681C38.74 89.2681 38.3636 89.2681 37.385 88.8937C36.6323 88.5942 35.8795 88.2947 34.7504 87.7705C34.5999 87.6956 33.8471 87.6208 33.1696 86.9468C32.7933 86.5724 32.4922 85.9734 32.4922 85.2246C32.4922 84.4758 32.7933 83.8019 33.3202 83.3526C33.8471 82.9033 34.5999 82.6787 35.1268 82.6787C36.0301 82.6787 36.6323 82.9782 37.0839 83.4275ZM36.6323 85.2995C36.6323 84.4758 36.3312 83.8768 36.0301 83.5024C35.729 83.128 35.3526 82.9782 34.9762 82.9782C34.5999 82.9782 34.2988 83.2029 34.1482 83.3526C33.6966 83.8019 33.546 84.4009 33.546 84.9251C33.546 85.8985 33.9224 86.5724 34.2235 86.872C34.4493 87.1715 34.901 87.3212 35.1268 87.3212C36.3312 87.3961 36.6323 85.8985 36.6323 85.2995Z" fill="black"/>
<path d="M38.8913 83.3526C38.8913 83.128 38.816 82.9782 38.6654 82.9782H38.3643C38.2891 82.9782 38.2891 82.9782 38.2891 82.9034V82.7536C38.2891 82.6787 38.2891 82.6787 38.3643 82.6787C38.4396 82.6787 38.7407 82.6787 39.4935 82.6787C40.0957 82.6787 40.3967 82.6787 40.472 82.6787C40.5473 82.6787 40.5473 82.6787 40.5473 82.7536V82.9034C40.5473 82.9034 40.5473 82.9782 40.472 82.9782H40.2462C40.0204 82.9782 39.8698 83.128 39.8698 83.2777C39.8698 83.3526 39.8698 83.8019 39.8698 84.1763V84.6256C39.8698 85 39.8698 85.8237 39.8698 86.0483C39.8698 86.3478 39.9451 86.6473 40.0956 86.872C40.3215 87.1715 40.6226 87.2464 40.9237 87.2464C41.1495 87.2464 41.5259 87.0966 41.7517 86.9468C42.0528 86.7222 42.2033 86.3478 42.2033 85.8237V84.7753C42.2033 84.1763 42.1281 83.4275 42.1281 83.2777C42.1281 83.128 41.9775 82.9782 41.9022 82.9782H41.6764C41.6011 82.9782 41.6011 82.9782 41.6011 82.9034V82.7536C41.6011 82.7536 41.6011 82.6787 41.6764 82.6787C41.7517 82.6787 42.0528 82.6787 42.5044 82.6787C42.8808 82.6787 43.1066 82.6787 43.1819 82.6787C43.2572 82.6787 43.2572 82.6787 43.2572 82.7536V82.9034C43.2572 82.9782 43.2572 82.9782 43.1819 82.9782H43.0314C42.8055 82.9782 42.7303 83.2029 42.7303 83.2029C42.7303 83.2777 42.7303 84.2512 42.7303 84.3261C42.7303 84.4009 42.7303 85.599 42.7303 85.8985C42.655 86.4227 42.5044 86.872 42.1281 87.1715C41.827 87.471 41.3753 87.6208 40.9237 87.6208C40.6226 87.6208 40.1709 87.5459 39.8698 87.471C39.5687 87.3212 39.2676 87.0217 39.0418 86.5724C38.8913 86.2729 38.8913 85.8237 38.8913 84.9251V83.3526Z" fill="black"/>
<path d="M45.3651 85C45.6662 85 45.9673 85 46.0426 84.9251C46.1931 84.9251 46.2684 84.8502 46.3437 84.7004C46.4189 84.6256 46.4942 84.4009 46.4942 84.2512C46.4942 84.1763 46.4942 84.1763 46.5695 84.1763H46.72C46.72 84.1763 46.7953 84.1763 46.7953 84.2512C46.7953 84.4009 46.7953 84.7004 46.7953 84.9251C46.7953 85.2246 46.7953 85.5241 46.8706 85.6739C46.8706 85.7488 46.8706 85.7488 46.7953 85.7488H46.6448C46.6448 85.7488 46.5695 85.7488 46.5695 85.6739C46.5695 85.599 46.4942 85.3744 46.4189 85.2995C46.3437 85.1497 46.1931 85.0748 46.0426 85.0748C45.892 85.0748 45.6662 85 45.3651 85V85.3744C45.3651 85.7488 45.3651 86.4227 45.3651 86.4976C45.3651 86.872 45.4404 86.9468 45.5156 87.0217C45.5909 87.0966 45.7415 87.0966 46.1178 87.0966C46.2684 87.0966 46.4942 87.0966 46.6448 87.0966C46.7953 87.0966 47.0211 87.0217 47.1717 86.872C47.3222 86.7222 47.6986 86.2729 47.8491 86.1232H47.9244L48.075 86.198C48.075 86.198 48.075 86.198 48.075 86.2729L47.7739 87.3212C47.7739 87.3961 47.6986 87.3961 47.6233 87.3961C47.6233 87.3961 47.4728 87.3961 47.0211 87.3961C46.5695 87.3961 45.8167 87.3961 44.6876 87.3961C44.4618 87.3961 44.236 87.3961 44.0854 87.3961C43.9349 87.3961 43.8596 87.3961 43.7843 87.3961C43.709 87.3961 43.709 87.3961 43.709 87.3212V87.1715C43.709 87.0966 43.709 87.0966 43.7843 87.0966H44.0101C44.3112 87.0966 44.3865 87.0217 44.3865 86.7971V84.5507C44.3865 83.9517 44.3865 83.128 44.3865 83.0531C44.3865 82.8285 44.3112 82.7536 44.0854 82.7536H43.7843C43.7843 82.7536 43.7843 82.7536 43.7843 82.6787V82.5289C43.7843 82.5289 43.7843 82.4541 43.8596 82.4541C44.0101 82.4541 44.236 82.4541 44.8382 82.4541H47.2469C47.3222 82.4541 47.4728 82.4541 47.548 82.4541H47.6233C47.6233 82.5289 47.8491 83.5024 47.9244 83.5773V83.6521L47.8491 83.727H47.7739C47.7739 83.6521 47.0964 83.0531 46.9458 82.9782C46.7953 82.9033 46.6448 82.8285 46.4189 82.8285H45.5156L45.3651 85Z" fill="black"/>
<path d="M52.3654 83.0535H52.1396C51.9137 83.0535 51.5374 83.0535 51.2363 83.1284C51.0857 83.2033 50.7846 83.6525 50.6341 83.8772L50.5588 83.952L50.4082 83.8772V83.8023C50.4835 83.5028 50.7093 82.6042 50.7093 82.4545C50.7093 82.3796 50.7846 82.3047 50.7846 82.3047C50.8599 82.3047 50.8599 82.3047 50.9352 82.3796C51.0104 82.4545 51.161 82.5293 51.3868 82.5293C51.7632 82.5293 52.0643 82.6042 52.7418 82.6042H53.1181C53.8709 82.6042 54.172 82.6042 54.4731 82.5293C54.6236 82.5293 54.9247 82.4545 55 82.3796C55.0753 82.3047 55.0753 82.3047 55.1505 82.3047C55.2258 82.3047 55.2258 82.3047 55.2258 82.3796C55.2258 82.5293 55.3764 83.353 55.4516 83.7274V83.8023L55.3011 83.8772C55.3011 83.8772 55.2258 83.8772 55.2258 83.8023C55.0753 83.5777 54.7742 83.2033 54.6236 83.0535C54.4731 82.9786 53.8709 82.9037 53.7203 82.9037H53.4945V84.7757C53.4945 84.8506 53.4945 86.7975 53.4945 86.8724C53.4945 87.0221 53.5698 87.1719 53.7203 87.1719H54.0214C54.0967 87.1719 54.0967 87.1719 54.0967 87.2468V87.3965C54.0967 87.3965 54.0967 87.4714 54.0214 87.4714C53.9461 87.4714 53.7203 87.4714 52.9676 87.4714C52.2148 87.4714 51.989 87.4714 51.8385 87.4714C51.7632 87.4714 51.7632 87.4714 51.7632 87.3965V87.2468C51.7632 87.1719 51.7632 87.1719 51.8385 87.1719H52.2148C52.3654 87.1719 52.4407 87.097 52.4407 86.9472C52.4407 86.7975 52.4407 84.7008 52.4407 84.5511V83.0535H52.3654Z" fill="black"/>
<path d="M56.7306 87.2465C56.279 86.947 55.752 86.1982 55.752 85.2247C55.752 84.7755 55.8273 84.1764 56.3542 83.5025C56.9564 82.7537 57.7092 82.604 58.3114 82.604C58.9136 82.604 59.4405 82.6788 59.9674 83.1281C60.4943 83.5025 60.8707 84.2513 60.8707 85.1499C60.8707 85.674 60.7202 86.1982 60.3438 86.6475C59.8921 87.1716 59.29 87.6209 58.2361 87.6209C57.935 87.6958 57.3328 87.6209 56.7306 87.2465ZM59.8922 85.2996C59.8922 83.802 58.9136 82.9784 58.3114 82.9784C58.1608 82.9784 57.8597 82.9784 57.4081 83.3528C57.0317 83.7272 56.8059 84.476 56.8059 85.0001C56.8059 86.7223 57.7845 87.3963 58.3867 87.3963C59.6663 87.3963 59.8922 85.8238 59.8922 85.2996Z" fill="black"/>
<path d="M66.4424 86.9468C66.4424 87.0217 66.4424 87.0966 66.4424 87.1715C66.4424 87.2464 66.3671 87.2464 66.3671 87.2464C65.8402 87.5459 65.238 87.6956 64.3347 87.6956C63.6572 87.6956 62.8292 87.471 62.3776 86.9468C61.9259 86.4976 61.7754 85.8985 61.7754 85.0749C61.7754 84.4758 62.0765 83.8019 62.6034 83.3526C63.1303 82.9033 63.7325 82.6787 64.5605 82.6787C65.238 82.6787 65.7649 82.9033 65.9908 82.9782C66.066 83.0531 66.1413 82.9782 66.1413 82.9782L66.2166 82.9034C66.2166 82.8285 66.2919 82.8285 66.2919 82.8285C66.3671 82.8285 66.3671 82.9033 66.3671 82.9782L66.4424 84.4009C66.4424 84.4758 66.4424 84.5507 66.4424 84.5507L66.2166 84.6256C66.1413 84.6256 66.1413 84.6256 66.1413 84.5507C66.066 84.2512 65.8402 83.8019 65.5391 83.5024C65.238 83.2778 64.9369 83.0531 64.4853 83.0531C64.1089 83.0531 63.8078 83.2029 63.4314 83.5773C63.1303 83.9517 62.9045 84.5507 62.9045 85.1497C62.9045 85.9734 63.1303 86.6473 63.5067 87.0217C63.8078 87.3212 64.1089 87.471 64.5605 87.471C64.9369 87.471 65.0875 87.471 65.3133 87.3212C65.4638 87.2464 65.4638 87.0217 65.4638 86.6473V86.1232C65.4638 85.8985 65.3886 85.8236 65.238 85.8236H64.9369C64.8616 85.8236 64.8616 85.8237 64.8616 85.7488V85.599C64.8616 85.599 64.8616 85.5241 64.9369 85.5241C65.0122 85.5241 65.3133 85.5241 65.9155 85.5241C66.5177 85.5241 66.8188 85.5241 66.8188 85.5241C66.8941 85.5241 66.8941 85.5241 66.8941 85.599V85.7488C66.8941 85.8237 66.8941 85.8236 66.8188 85.8236H66.593C66.4424 85.8236 66.3671 85.8985 66.3671 86.0483V86.9468H66.4424Z" fill="black"/>
<path d="M68.6251 87.2465C68.1734 86.947 67.6465 86.1982 67.6465 85.2247C67.6465 84.7755 67.7218 84.1764 68.2487 83.5025C68.8509 82.7537 69.6037 82.604 70.2059 82.604C70.8081 82.604 71.335 82.6788 71.8619 83.1281C72.3888 83.5025 72.7652 84.2513 72.7652 85.1499C72.7652 85.674 72.6146 86.1982 72.2383 86.6475C71.7866 87.1716 71.1844 87.6209 70.1306 87.6209C69.8295 87.6958 69.2273 87.6209 68.6251 87.2465ZM71.7866 85.2996C71.7866 83.802 70.8081 82.9784 70.2059 82.9784C70.0553 82.9784 69.7542 82.9784 69.3026 83.3528C68.9262 83.7272 68.7004 84.476 68.7004 85.0001C68.7004 86.7223 69.6789 87.3963 70.2811 87.3963C71.5608 87.3963 71.7866 85.8238 71.7866 85.2996Z" fill="black"/>
<path d="M75.0974 85.4491C75.0974 85.5988 75.0974 87.0215 75.0974 87.3211H75.4738C75.7749 87.3211 76.076 87.3211 76.4524 87.3211C76.8287 87.3211 77.2804 86.4974 77.3557 86.1979C77.3557 86.123 77.4309 86.123 77.4309 86.123L77.5815 86.1979C77.5815 86.1979 77.5815 86.1979 77.5815 86.2728C77.5815 86.3476 77.2804 87.4708 77.2804 87.6206C77.1298 87.6206 75.0974 87.6206 74.4952 87.6206C73.8178 87.6206 73.5919 87.6206 73.5167 87.6206C73.4414 87.6206 73.4414 87.6206 73.4414 87.5457V87.3959C73.4414 87.3959 73.4414 87.3211 73.5167 87.3211H73.7425C73.9683 87.3211 74.0436 87.2462 74.0436 87.1713C74.0436 87.0215 74.0436 85.3742 74.0436 84.9249V84.5505C74.0436 84.1012 74.0436 83.4273 74.0436 83.2776C74.0436 83.1278 73.9683 83.0529 73.8178 83.0529H73.5919C73.5167 83.0529 73.5167 83.0529 73.5167 82.978V82.8283C73.5167 82.8283 73.5167 82.7534 73.5919 82.7534C73.6672 82.7534 73.893 82.7534 74.5705 82.7534C75.3985 82.7534 75.6244 82.7534 75.6996 82.7534C75.7749 82.7534 75.7749 82.7534 75.7749 82.8283V82.978C75.7749 82.978 75.7749 83.0529 75.6996 83.0529H75.3985C75.1727 83.0529 75.1727 83.1278 75.1727 83.2776C75.1727 83.3525 75.1727 84.4008 75.1727 84.85V85.4491H75.0974Z" fill="black"/>
<path d="M79.239 85.7488C79.1637 85.8985 78.8626 86.7971 78.8626 87.0217C78.8626 87.1715 78.9379 87.3212 79.1637 87.3212H79.3895C79.4648 87.3212 79.4648 87.3212 79.4648 87.3961V87.5459C79.4648 87.6207 79.4648 87.6208 79.3895 87.6208C79.3143 87.6208 79.0132 87.6208 78.4862 87.6208C77.9593 87.6208 77.8088 87.6208 77.7335 87.6208C77.6582 87.6208 77.6582 87.5459 77.6582 87.5459V87.3961C77.6582 87.3212 77.6582 87.3212 77.7335 87.3212H77.884C78.0346 87.3212 78.1851 87.2464 78.3357 87.0217C78.411 86.872 78.9379 85.6739 79.1637 85.0748C79.239 84.9251 79.7659 83.5024 79.8412 83.2777C79.8412 83.2029 79.9165 83.128 79.8412 83.0531L79.7659 82.9782C79.7659 82.9782 79.7659 82.9033 79.8412 82.9033C80.067 82.8285 80.5186 82.6787 80.5939 82.5289L80.6692 82.4541C80.7445 82.4541 80.7445 82.5289 80.7445 82.6038C80.895 83.0531 81.4219 84.5507 81.5725 85C81.723 85.5241 82.1747 86.7971 82.25 86.9468C82.4005 87.1715 82.5511 87.2464 82.6263 87.2464H82.8522C82.9274 87.2464 82.9274 87.2463 82.9274 87.3212V87.471C82.9274 87.5459 82.9274 87.5459 82.8522 87.5459C82.7016 87.5459 82.5511 87.5459 81.723 87.5459C81.1208 87.5459 80.895 87.5459 80.7445 87.5459C80.6692 87.5459 80.6692 87.471 80.6692 87.471V87.3212C80.6692 87.3212 80.6692 87.2464 80.7445 87.2464H80.9703C81.1208 87.2464 81.1961 87.1715 81.1961 87.0217C81.1208 86.7971 80.895 85.8985 80.8197 85.6739H79.239V85.7488ZM80.6692 85.4492C80.5939 85.2246 80.2176 83.8019 80.1423 83.6521C80.1423 83.5773 80.067 83.5024 80.067 83.5024C79.9917 83.5024 79.9917 83.5024 79.9917 83.5773C79.9917 83.6521 79.3895 85.2995 79.3143 85.4492H80.6692Z" fill="black"/>
<path d="M83.9049 84.7006C83.9049 84.5508 83.9049 83.2779 83.9049 83.203C83.9049 83.0532 83.8297 82.9784 83.6791 82.9784H83.378C83.378 82.9784 83.3027 82.9784 83.3027 82.9035V82.6788C83.3027 82.6788 83.3027 82.604 83.378 82.604C83.4533 82.604 83.8297 82.604 84.5071 82.604C85.1846 82.604 85.4104 82.604 85.4857 82.604C85.4857 82.604 85.561 82.604 85.561 82.6788V82.8286C85.561 82.8286 85.561 82.9035 85.4857 82.9035H85.2599C85.1093 82.9035 84.9588 82.9784 84.9588 83.0532C84.9588 83.1281 84.9588 84.6257 84.9588 84.7006V85.2247C84.9588 85.2996 84.9588 86.8721 84.9588 86.947C84.9588 87.1716 85.0341 87.1716 85.1846 87.1716H85.4857C85.4857 87.1716 85.561 87.1716 85.561 87.2465V87.4711C85.561 87.4711 85.561 87.546 85.4857 87.546C85.4104 87.546 85.1093 87.546 84.5071 87.546C83.7544 87.546 83.5286 87.546 83.4533 87.546C83.4533 87.546 83.378 87.546 83.378 87.4711V87.3214C83.378 87.3214 83.378 87.2465 83.4533 87.2465H83.6791C83.8297 87.2465 83.9802 87.2465 83.9802 87.0967C83.9802 87.0219 83.9802 85.5243 83.9802 85.1499V84.7006H83.9049Z" fill="black"/>
<path d="M86.7662 86.123C86.8414 86.4225 86.9167 86.6471 87.0672 86.9467C87.2931 87.2462 87.5942 87.3959 87.8953 87.3959C88.1964 87.3959 88.7233 87.1713 88.7233 86.6472C88.7233 86.0481 88.648 85.8984 87.7447 85.5988C87.5189 85.524 87.0672 85.2993 86.7662 84.9998C86.5403 84.7752 86.3898 84.4008 86.3898 84.0264C86.3898 83.5771 86.4651 83.3524 86.9167 83.0529C87.2178 82.8283 87.5189 82.7534 87.8953 82.7534C88.4222 82.7534 88.648 82.8283 88.7986 82.9032C88.8738 82.9032 88.9491 82.9032 88.9491 82.9032L89.0244 82.8283L89.0997 82.7534C89.1749 82.7534 89.1749 82.8283 89.1749 82.9032L89.2502 84.1012C89.2502 84.1012 89.2502 84.1012 89.2502 84.1761L89.0997 84.251C89.0997 84.251 89.0244 84.251 89.0244 84.1761C88.9491 83.9515 88.7986 83.7269 88.5727 83.5022C88.4222 83.2776 88.1964 83.2027 87.8953 83.2027C87.3683 83.2027 87.1425 83.652 87.1425 83.8017C87.1425 84.0264 87.1425 84.251 87.2931 84.4008C87.4436 84.5505 87.8953 84.7752 88.1964 84.85C88.4975 84.9249 88.7986 85.1496 89.0997 85.3742C89.4008 85.5988 89.476 85.8984 89.476 86.4225C89.476 87.2462 88.8738 87.9201 87.9705 87.9201C87.3683 87.9201 87.0672 87.8452 86.7662 87.6206C86.6909 87.5457 86.6156 87.5457 86.6156 87.5457C86.5403 87.5457 86.5403 87.6206 86.5403 87.6955C86.4651 87.7703 86.4651 87.7703 86.3898 87.7703C86.3145 87.7703 86.3145 87.7703 86.3145 87.6955L86.3898 86.4225C86.3898 86.3476 86.3898 86.3476 86.465 86.3476L86.7662 86.123Z" fill="black"/>
<path d="M92.035 85C92.3361 85 92.6372 85 92.7125 84.9251C92.863 84.9251 92.9383 84.8502 93.0136 84.7004C93.0888 84.6256 93.1641 84.4009 93.1641 84.2512C93.1641 84.1763 93.1641 84.1763 93.2394 84.1763H93.3899C93.3899 84.1763 93.4652 84.1763 93.4652 84.2512C93.4652 84.4009 93.4652 84.7004 93.4652 84.9251C93.4652 85.2246 93.4652 85.5241 93.5405 85.6739C93.5405 85.7488 93.5405 85.7488 93.4652 85.7488H93.3147C93.3147 85.7488 93.2394 85.7488 93.2394 85.6739C93.2394 85.599 93.1641 85.3744 93.0888 85.2995C93.0136 85.1497 92.863 85.0748 92.7125 85.0748C92.5619 85.0748 92.3361 85 92.035 85V85.3744C92.035 85.7488 92.035 86.4227 92.035 86.4976C92.035 86.872 92.1103 86.9468 92.1855 87.0217C92.2608 87.0966 92.4114 87.0966 92.7877 87.0966C92.9383 87.0966 93.1641 87.0966 93.3147 87.0966C93.4652 87.0966 93.691 87.0217 93.8416 86.872C93.9921 86.7222 94.3685 86.2729 94.519 86.1232H94.5943L94.7449 86.198C94.7449 86.198 94.7449 86.198 94.7449 86.2729L94.4438 87.3212C94.4438 87.3961 94.3685 87.3961 94.2932 87.3961C94.2932 87.3961 94.1427 87.3961 93.691 87.3961C93.2394 87.3961 92.4866 87.3961 91.3575 87.3961C91.1317 87.3961 90.9059 87.3961 90.7553 87.3961C90.6048 87.3961 90.5295 87.3961 90.4542 87.3961C90.379 87.3961 90.3789 87.3961 90.3789 87.3212V87.1715C90.3789 87.0966 90.379 87.0966 90.4542 87.0966H90.6801C90.9812 87.0966 91.0564 87.0217 91.0564 86.7971V84.5507C91.0564 83.9517 91.0564 83.128 91.0564 83.0531C91.0564 82.8285 90.9811 82.7536 90.7553 82.7536H90.4542C90.4542 82.7536 90.4542 82.7536 90.4542 82.6787V82.5289C90.4542 82.5289 90.4542 82.4541 90.5295 82.4541C90.6801 82.4541 90.9059 82.4541 91.5081 82.4541H93.9169C93.9921 82.4541 94.1427 82.4541 94.218 82.4541H94.2932C94.2932 82.5289 94.5191 83.5024 94.5943 83.5773V83.6521L94.519 83.727H94.4438C94.4438 83.6521 93.7663 83.0531 93.6158 82.9782C93.4652 82.9033 93.3147 82.8285 93.0888 82.8285H92.1855L92.035 85Z" fill="black"/>
<path d="M72.0868 38.2753C72.0868 58.1932 61.0967 74.3672 47.5473 74.3672C33.9978 74.3672 23.0078 58.1932 23.0078 38.2753C23.0078 18.4322 33.9978 2.2583 47.5473 2.2583C61.0967 2.2583 72.0868 18.4322 72.0868 38.2753Z" fill="white"/>
<path d="M65.0878 16.4102C64.2597 15.3619 63.4317 14.5382 62.5284 13.7145C59.9691 11.3184 57.1086 9.52126 54.0977 8.47295L54.3235 7.34976H54.2482C53.4202 7.05024 52.5169 6.8256 51.6889 6.67584C50.3339 6.37632 48.9037 6.22656 47.5488 6.22656C46.1938 6.22656 44.7636 6.37632 43.4087 6.67584C42.5807 6.8256 41.6774 7.12512 40.8493 7.34976H40.7741L40.9999 8.47295C37.9889 9.52126 35.1285 11.2435 32.5691 13.7145C31.7411 14.5382 30.9131 15.4367 30.0851 16.3353L30.0098 16.4102L33.0208 20.0044L33.0961 20.0793L36.2576 19.63C36.3329 19.63 36.3329 19.5551 36.3329 19.4802C36.3329 19.4802 36.3329 19.4802 36.3329 19.4054L35.2037 17.6831C37.3114 15.7363 39.7202 14.3136 42.2043 13.4899C42.8817 13.2652 43.5592 13.1155 44.2367 12.9657H44.312L44.0861 11.3932C45.2153 11.1686 46.3444 11.0189 47.4735 11.0189C48.6026 11.0189 49.7317 11.1686 50.8609 11.3932L50.635 12.9657H50.7103C51.3878 13.1155 52.0653 13.2652 52.7427 13.4899C55.2268 14.3136 57.5603 15.7363 59.7433 17.6831L58.6894 19.4054C58.6894 19.4054 58.6894 19.4054 58.6894 19.4802C58.6894 19.5551 58.6894 19.63 58.7647 19.63L61.9262 20.0793C62.0015 20.0793 62.0015 20.0793 62.0015 20.0044L65.0878 16.4102ZM60.2702 18.0575C60.3455 18.1324 60.4207 18.2073 60.496 18.2822C60.5713 18.357 60.7218 18.5068 60.7971 18.5817C60.8724 18.6566 60.9477 18.7314 61.0229 18.8063C61.1735 18.9561 61.2488 19.031 61.324 19.1807C61.3993 19.2556 61.3993 19.3305 61.4746 19.3305C61.6251 19.4802 61.7757 19.63 61.8509 19.7798L58.9905 19.4054L59.9691 17.8329C60.0444 17.9078 60.1196 17.9827 60.2702 18.0575ZM33.7735 19.1807C33.8488 19.031 33.9993 18.9561 34.0746 18.8063C34.1499 18.7314 34.2252 18.6566 34.3004 18.5817C34.3757 18.5068 34.5263 18.357 34.6015 18.2822C34.6768 18.2073 34.7521 18.1324 34.8274 18.0575C34.9026 17.9827 34.9779 17.9078 35.0532 17.8329L36.0318 19.4054L33.0961 19.7798C33.2466 19.63 33.3971 19.4802 33.4724 19.3305C33.623 19.3305 33.6982 19.2556 33.7735 19.1807ZM42.2043 13.3401C39.7202 14.1638 37.3114 15.5865 35.2037 17.5334L35.1285 17.6083C34.9779 17.758 34.7521 17.9826 34.6015 18.1324C34.5263 18.2073 34.451 18.2822 34.451 18.2822C34.3004 18.4319 34.2252 18.5068 34.0746 18.6566C33.9993 18.7314 33.9241 18.8063 33.8488 18.8812C33.7735 18.9561 33.623 19.1058 33.5477 19.1807C33.4724 19.2556 33.3971 19.3305 33.3219 19.4054C33.2466 19.4802 33.1713 19.5551 33.0961 19.63L30.3109 16.4102C31.0636 15.5116 31.8917 14.6131 32.7197 13.8643C35.279 11.4681 38.0642 9.7459 41.0752 8.69759L41.8279 11.9923C41.8279 12.0672 41.8279 12.0672 41.9032 12.0672L43.9356 12.816C43.2581 12.9657 42.7312 13.1155 42.2043 13.3401ZM43.9356 11.3932L44.0861 12.6662L41.9785 11.9174C42.6559 11.7676 43.2581 11.543 43.9356 11.3932ZM44.0109 11.1686C43.3334 11.3184 42.5807 11.4681 41.9032 11.6928L40.9246 7.42463C41.7526 7.12512 42.5807 6.90048 43.4087 6.75072C44.7636 6.4512 46.1186 6.30144 47.5488 6.30144C48.9037 6.30144 50.3339 6.4512 51.6889 6.75072C52.5169 6.90048 53.3449 7.12512 54.1729 7.42463L53.1944 11.6928C52.5169 11.4681 51.8394 11.3184 51.0867 11.1686C49.9576 10.944 48.7532 10.7942 47.5488 10.7942C46.3444 10.7942 45.2153 10.944 44.0109 11.1686ZM53.1191 11.9174L51.0114 12.6662L51.162 11.3932C51.8394 11.543 52.4416 11.7676 53.1191 11.9174ZM52.8933 13.3401C52.3663 13.1904 51.7642 12.9657 51.2372 12.8908L53.2696 12.142C53.3449 12.142 53.3449 12.0672 53.3449 12.0672L54.0977 8.77247C57.1086 9.82078 59.8938 11.543 62.4531 13.9392C63.2812 14.688 64.1092 15.5865 64.8619 16.4851L62.152 19.7049C62.0768 19.63 62.0015 19.5551 61.9262 19.4802C61.8509 19.4054 61.7757 19.3305 61.7004 19.2556C61.6251 19.1807 61.4746 19.031 61.3993 18.9561C61.324 18.8812 61.2487 18.8063 61.1735 18.7314C61.0982 18.5817 60.9477 18.5068 60.7971 18.357C60.7218 18.2822 60.6466 18.2073 60.6466 18.2073C60.496 18.0575 60.2702 17.8329 60.1196 17.6831L60.0444 17.6083C57.7861 15.5865 55.4526 14.1638 52.8933 13.3401Z" fill="black"/>
<path d="M47.5482 0.460938C33.0954 0.460938 21.2773 17.3837 21.2773 38.2751C21.2773 59.1665 33.0202 76.0893 47.5482 76.0893C62.0762 76.0893 73.819 59.1665 73.819 38.2751C73.819 17.3837 62.0009 0.460938 47.5482 0.460938ZM47.5482 74.3671C33.9987 74.3671 23.0087 58.1931 23.0087 38.2751C23.0087 18.432 33.9987 2.25805 47.5482 2.25805C61.0976 2.25805 72.0877 18.432 72.0877 38.35C72.0877 58.1931 61.0976 74.3671 47.5482 74.3671Z" fill="#156C52"/>
<path d="M44.5373 33.333L41.978 19.031L41.6016 18.5068L41.9027 17.6831L42.4296 18.4319L42.2038 19.031L44.5373 33.333Z" fill="#FFCE15"/>
<path d="M53.4954 18.5068L53.0437 19.031L50.4844 33.4827L52.8179 19.031L52.6674 18.4319L53.1943 17.6831L53.4954 18.5068Z" fill="#FFCE15"/>
<path d="M53.8719 44.7148C53.7966 44.7148 53.1192 44.4152 52.2911 45.0892C51.3878 45.7631 51.9148 47.1858 51.9148 47.1858C51.9148 47.1858 51.162 46.5119 50.1834 46.8114C49.2049 47.036 49.1296 48.6085 49.1296 48.6085C49.1296 48.6085 48.3769 47.4853 47.5488 47.4853C46.7208 47.4853 45.9681 48.6085 45.9681 48.6085C45.9681 48.6085 45.8928 47.1109 44.9142 46.8114C43.9357 46.5119 43.1829 47.1858 43.1829 47.1858C43.1829 47.1858 43.7098 45.7631 42.8065 45.0892C41.9032 44.4152 41.301 44.7148 41.2258 44.7148C41.301 44.6399 41.9785 43.7413 41.7527 42.7679C41.5269 41.7196 40.1719 41.5698 40.1719 41.5698C40.1719 41.5698 41.5269 41.1205 41.5269 39.9973C41.5269 38.949 40.5483 38.2751 40.473 38.2002C40.5483 38.2002 41.7527 38.4998 42.2043 37.3766C42.656 36.3282 42.0538 35.3548 41.9785 35.2799C42.0538 35.3548 43.0324 36.0287 43.8604 35.2799C44.4626 34.6809 44.6131 33.8572 44.5379 33.4828C44.7637 33.7075 45.2906 34.2316 45.8928 34.1567C47.0972 34.2316 47.5488 32.8838 47.5488 32.8838C47.5488 32.8838 47.9252 34.1567 49.1296 34.2316C49.7318 34.2316 50.2587 33.7075 50.4845 33.4828C50.4845 33.8572 50.6351 34.7558 51.2373 35.2799C52.0653 36.1036 53.0439 35.3548 53.1192 35.2799C53.0439 35.3548 52.4417 36.3282 52.8933 37.3766C53.345 38.4249 54.6246 38.2002 54.6246 38.2002C54.5494 38.2751 53.5708 38.949 53.5708 39.9973C53.5708 41.0457 54.9257 41.5698 54.9257 41.5698C54.9257 41.5698 53.6461 41.7196 53.345 42.7679C53.1191 43.7413 53.7966 44.6399 53.8719 44.7148Z" fill="#FFCE15"/>
<path d="M47.6235 39.7728C47.6235 38.7245 46.9461 38.1255 45.8169 38.1255H43.4082V43.2922H44.5373V41.4951H45.4406L46.3439 43.2922H47.6235L46.645 41.2704C47.3224 40.9709 47.6235 40.5216 47.6235 39.7728ZM44.5373 39.1738H45.8169C46.2686 39.1738 46.4944 39.3984 46.4944 39.7728C46.4944 40.1472 46.2686 40.3719 45.8169 40.3719H44.5373V39.1738Z" fill="black"/>
<path d="M48 38.0503V39.1735H49.5055V43.2919H50.6346V39.1735H52.0648V38.0503H48Z" fill="black"/>
<path d="M32.6433 15.7362L34.1488 17.2338L33.923 17.4585L32.4175 15.9609L32.1164 16.2604L31.8906 16.0358L32.7939 15.1372L33.0197 15.3618L32.6433 15.7362Z" fill="black"/>
<path d="M35.353 16.036L34.3744 15.5118L34.1486 15.6616L34.8261 16.4104L34.6002 16.635L33.0195 14.9128L33.5464 14.4635C33.8475 14.2389 34.1486 14.164 34.525 14.5384C34.7508 14.763 34.7508 15.0626 34.6755 15.2872L35.7294 15.8862L35.353 16.036ZM33.6969 14.763L33.4711 14.9128L33.9228 15.437L34.1486 15.2123C34.2991 15.0626 34.3744 14.9128 34.1486 14.6882C34.0733 14.5384 33.8475 14.6133 33.6969 14.763Z" fill="black"/>
<path d="M36.633 15.0627L36.106 14.6134L35.6544 14.9129L35.9555 15.512L35.6544 15.7366L34.6758 13.4902L34.9769 13.2656L36.9341 14.8381L36.633 15.0627ZM35.5038 14.1641C35.3533 14.0893 35.2027 13.8646 35.1275 13.7897C35.2027 13.8646 35.278 14.0893 35.3533 14.239L35.5038 14.6134L35.8049 14.3888L35.5038 14.1641Z" fill="black"/>
<path d="M37.4612 14.4634L37.2354 14.6131L35.3535 12.9658L35.6546 12.7411L36.5579 13.5648C36.6332 13.6397 36.859 13.8643 36.9343 13.9392C36.9343 13.8643 36.7837 13.5648 36.7084 13.4899L36.2568 12.3667L36.5579 12.1421L37.4612 14.4634Z" fill="black"/>
<path d="M38.8153 13.64L38.3637 13.1907L37.912 13.4153L38.1378 14.0144L37.8367 14.1641L37.084 11.768L37.3851 11.6182L39.1164 13.4153L38.8153 13.64ZM37.8367 12.5917C37.7615 12.4419 37.5356 12.2921 37.4604 12.2173C37.4604 12.2921 37.6109 12.5917 37.6109 12.7414L37.7615 13.1158L38.0626 12.8912L37.8367 12.5917Z" fill="black"/>
<path d="M39.342 13.3403L38.2129 11.1688L38.514 11.019L39.6431 13.1905L39.342 13.3403Z" fill="black"/>
<path d="M40.0196 12.9658L39.041 10.7943L39.3421 10.6445L40.1702 12.5165L40.8476 12.217L40.9982 12.5165L40.0196 12.9658Z" fill="black"/>
<path d="M55.377 12.0675L55.0759 11.9178L54.6995 12.8163L54.3984 12.6666L55.377 10.4951L55.9792 10.7946C56.2803 10.9444 56.5061 11.2439 56.2803 11.6931C56.0545 12.1424 55.6781 12.2173 55.377 12.0675ZM55.8287 11.0192L55.6028 10.8695L55.3017 11.5434L55.5276 11.6931C55.6781 11.768 55.9039 11.6931 55.9792 11.4685C56.0545 11.3187 55.9792 11.0941 55.8287 11.0192Z" fill="black"/>
<path d="M56.5069 13.715L56.6575 13.116L56.2058 12.8914L55.7542 13.4156L55.4531 13.2659L57.1091 11.4688L57.4102 11.6185L56.808 14.0147L56.5069 13.715ZM56.8833 12.3673C56.9586 12.2176 57.0339 11.918 57.0339 11.8432C56.9586 11.918 56.808 12.1426 56.6575 12.2923L56.3564 12.592L56.7328 12.7417L56.8833 12.3673Z" fill="black"/>
<path d="M58.4634 12.442L57.3343 14.2391L57.0332 14.0894L58.1623 12.2923L57.7859 12.0676L57.9365 11.7681L58.9903 12.442L58.8397 12.7416L58.4634 12.442Z" fill="black"/>
<path d="M58.6893 15.1377L58.9904 14.0893L58.7646 13.9396L58.1624 14.7633L57.8613 14.5386L59.2915 12.5918L59.8184 12.9662C60.1195 13.1908 60.2701 13.4903 59.969 13.8647C59.7432 14.1642 59.5173 14.2391 59.2915 14.1642L58.9151 15.2874L58.6893 15.1377ZM59.6679 13.2657L59.4421 13.1159L58.9904 13.7149L59.2162 13.8647C59.3668 14.0145 59.5926 14.0145 59.7432 13.7898C59.8937 13.5652 59.8184 13.4154 59.6679 13.2657Z" fill="black"/>
<path d="M59.2168 15.5868L60.7223 13.7148L60.9481 13.9394L59.4426 15.8114L59.2168 15.5868Z" fill="black"/>
<path d="M59.8184 16.1111L61.4745 14.314L62.3025 15.0628L62.0767 15.2875L61.4745 14.7633L61.0228 15.2126L61.3992 15.587L61.1734 15.8116L60.797 15.4372L60.2701 16.0362L60.8723 16.6353L60.6464 16.8599L59.8184 16.1111Z" fill="black"/>
<path d="M42.9566 10.4196L42.4297 8.09832L42.7308 8.02344L43.1824 10.0452L43.9352 9.89543L44.0105 10.195L42.9566 10.4196Z" fill="black"/>
<path d="M44.3118 10.1199L43.9355 7.72382L44.2366 7.64893L44.6129 10.0451L44.3118 10.1199Z" fill="black"/>
<path d="M45.6659 9.9704L45.0637 10.0453L44.8379 7.64913L45.4401 7.57425C45.8164 7.49937 46.1175 7.72401 46.1928 8.17329C46.1928 8.39793 46.1175 8.62256 45.967 8.69744C46.1928 8.77232 46.3434 8.92208 46.3434 9.2216C46.2681 9.67088 46.0423 9.89552 45.6659 9.9704ZM45.4401 7.87377H45.139L45.2143 8.54768H45.5154C45.6659 8.54768 45.8164 8.39793 45.8164 8.17329C45.7412 7.94865 45.5906 7.87377 45.4401 7.87377ZM45.5154 8.8472H45.2143L45.2895 9.596H45.5906C45.8164 9.596 45.8917 9.44624 45.8917 9.14672C45.8917 8.92208 45.7412 8.8472 45.5154 8.8472Z" fill="black"/>
<path d="M46.6456 9.89565L46.5703 7.49951H47.6994V7.79903H46.8714V8.47295H47.3983V8.77246H46.8714V9.59614H47.6994V9.89565H46.6456Z" fill="black"/>
<path d="M49.0548 9.89566L48.7537 8.84735H48.4526L48.3773 9.89566H48.0762L48.2267 7.49951L48.9042 7.57439C49.2806 7.57439 49.5817 7.79903 49.5064 8.24831C49.5064 8.62271 49.3559 8.77247 49.0548 8.84735L49.3559 9.97054L49.0548 9.89566ZM48.8289 7.79903H48.5278L48.4526 8.47295H48.7537C48.9795 8.47295 49.13 8.39807 49.13 8.17343C49.2053 7.94879 49.0548 7.79903 48.8289 7.79903Z" fill="black"/>
<path d="M50.6346 8.0235L50.3335 10.0453L50.0324 9.97037L50.3335 7.94862L49.8066 7.87374L49.8819 7.57422L51.0863 7.72398L51.011 8.0235H50.6346Z" fill="black"/>
<path d="M51.0117 10.1951L51.5386 7.87377L52.6677 8.09841L52.5925 8.39792L51.8397 8.24816L51.6892 8.8472L52.2161 8.99696L52.1408 9.29648L51.6139 9.14672L51.4633 9.89551L52.2914 10.0453L52.1408 10.4197L51.0117 10.1951ZM52.2914 7.72401L52.0655 7.64913L52.3666 7.34961L52.8183 7.42449L52.2914 7.72401Z" fill="black"/>
<path d="M38.3651 25.6205C38.9673 25.3959 39.5695 25.2461 40.0964 25.1713H40.1717C40.4728 25.0964 40.6986 25.0964 40.9997 25.0215C41.075 25.0215 41.075 25.0215 41.1502 25.0215C41.3008 25.0215 41.3761 25.0215 41.5266 25.0215C41.6019 25.0215 41.6019 25.0215 41.6772 25.0215C41.7524 25.0215 41.8277 25.0215 41.903 25.0215C41.9783 25.0215 42.0535 25.0215 42.1288 25.0215C42.2041 25.0215 42.2794 25.0215 42.4299 25.0215C42.5052 25.0215 42.5805 25.0215 42.6557 25.0215C42.731 25.0215 42.8063 25.0215 42.8063 25.0215C42.8816 25.0215 43.0321 25.0215 43.1074 25.0964L42.2794 20.0795C40.6986 20.0046 39.1178 20.4539 37.5371 21.0529C37.7629 22.5505 38.064 24.0481 38.3651 25.6205Z" fill="#D21B33"/>
<path d="M40.4726 23.4487C40.8489 23.6733 41.2253 23.898 41.6017 24.1226C41.3758 23.7482 41.2253 23.2989 40.9995 22.9245C41.3006 22.625 41.6017 22.3255 41.8275 22.026C41.4511 22.026 40.9995 22.026 40.6231 22.1008C40.3973 21.7264 40.1715 21.2772 40.0209 20.9028C39.9456 21.3521 39.8704 21.8013 39.8704 22.2506C39.494 22.3255 39.0423 22.4752 38.666 22.5501C39.0423 22.6999 39.4187 22.8496 39.7951 23.0743C39.7198 23.5236 39.6445 23.898 39.6445 24.3472C39.8704 24.1226 40.1715 23.7482 40.4726 23.4487Z" fill="white"/>
<path d="M37.7629 22.5503C37.6876 22.0261 37.537 21.502 37.4618 21.0527C34.0744 22.3256 30.7623 24.2725 27.375 23.2991C27.4503 23.8981 27.6008 24.4223 27.6761 25.0213C28.1277 25.0962 28.5794 25.171 29.1063 25.171C31.9667 25.2459 34.8272 23.5986 37.7629 22.5503Z" fill="#156C52"/>
<path d="M33.0955 25.9948C34.7516 25.3958 36.4076 24.647 38.0637 24.0479C37.9884 23.5238 37.8378 22.9996 37.7626 22.5503C34.9021 23.5986 31.9664 25.246 29.106 25.1711C28.6544 25.1711 28.2027 25.0962 27.6758 25.0214C27.7511 25.6204 27.9016 26.1446 27.9769 26.7436C29.7082 26.9682 31.3642 26.5938 33.0955 25.9948Z" fill="#FFCE15"/>
<path d="M33.02 27.6422C34.8266 27.0432 36.5579 26.1446 38.3645 25.5456C38.2892 25.0215 38.1386 24.4973 38.0634 23.9731C36.4073 24.6471 34.7513 25.3959 33.0953 25.9949C31.3639 26.5939 29.7079 26.9683 27.9766 26.6688C28.0519 27.193 28.2024 27.792 28.2777 28.3162C29.8584 28.5408 31.4392 28.2413 33.02 27.6422Z" fill="#156C52"/>
<path d="M30.0103 30.0383C29.7845 30.0383 29.6339 30.0383 29.4834 30.0383C29.1823 30.0383 28.8812 30.0383 28.5801 30.0383C28.6553 30.5625 28.8059 31.1615 28.8812 31.6857C33.774 31.9852 38.7422 27.118 43.635 28.4659L43.3339 26.7436C38.8927 25.7702 34.4515 29.5891 30.0103 30.0383Z" fill="#156C52"/>
<path d="M29.4828 30.0381C29.6333 30.0381 29.7839 30.0381 29.9344 30.0381H30.0097C34.4509 29.5889 38.8921 25.77 43.3333 26.7434L43.0322 25.0212C42.9569 25.0212 42.8064 25.0212 42.7311 24.9463C42.6558 24.9463 42.5805 24.9463 42.5805 24.9463C42.5053 24.9463 42.43 24.9463 42.3547 24.9463C42.2794 24.9463 42.2042 24.9463 42.0536 24.9463C41.9783 24.9463 41.9031 24.9463 41.8278 24.9463C41.7525 24.9463 41.6772 24.9463 41.602 24.9463C41.5267 24.9463 41.5267 24.9463 41.4514 24.9463C41.3009 24.9463 41.2256 24.9463 41.075 24.9463C40.9998 24.9463 40.9998 24.9463 40.9245 24.9463C40.6234 24.9463 40.3976 25.0212 40.0965 25.0961H40.0212C39.419 25.2458 38.8168 25.3956 38.2899 25.5454C36.4833 26.1444 34.752 27.043 32.9454 27.642C31.3646 28.1662 29.7839 28.5405 28.2031 28.3159C28.2784 28.9149 28.4289 29.4391 28.5042 29.9633C28.8806 30.0381 29.1817 30.0381 29.4828 30.0381Z" fill="#FFCE15"/>
<path d="M56.8069 25.6205C56.2047 25.3959 55.6025 25.2461 55.0755 25.1713H55.0003C54.6992 25.0964 54.4733 25.0964 54.1722 25.0215C54.097 25.0215 54.097 25.0215 54.0217 25.0215C53.8711 25.0215 53.7959 25.0215 53.6453 25.0215C53.57 25.0215 53.57 25.0215 53.4948 25.0215C53.4195 25.0215 53.3442 25.0215 53.2689 25.0215C53.1937 25.0215 53.1184 25.0215 53.0431 25.0215C52.9678 25.0215 52.8926 25.0215 52.742 25.0215C52.6667 25.0215 52.5915 25.0215 52.5162 25.0215C52.4409 25.0215 52.3656 25.0215 52.3656 25.0215C52.2904 25.0215 52.1398 25.0215 52.0645 25.0964L52.8926 20.0795C54.4733 20.0046 56.0541 20.4539 57.6349 21.0529C57.3338 22.5505 57.0327 24.0481 56.8069 25.6205Z" fill="#D21B33"/>
<path d="M54.6245 23.4487C54.2481 23.6733 53.8717 23.898 53.4954 24.1226C53.7212 23.7482 53.8717 23.2989 54.0976 22.9245C53.7965 22.625 53.4954 22.3255 53.2695 22.026C53.6459 22.026 54.0976 22.026 54.4739 22.1008C54.6998 21.7264 54.9256 21.2772 55.0761 20.9028C55.1514 21.3521 55.2267 21.8013 55.2267 22.2506C55.603 22.3255 56.0547 22.4752 56.4311 22.5501C56.0547 22.6999 55.6783 22.8496 55.302 23.0743C55.3772 23.5236 55.4525 23.898 55.4525 24.3472C55.2267 24.1226 54.9256 23.7482 54.6245 23.4487Z" fill="white"/>
<path d="M57.334 22.5503C57.4092 22.0261 57.5598 21.502 57.6351 21.0527C61.0224 22.3256 64.3345 24.2725 67.7218 23.2991C67.6466 23.8981 67.496 24.4223 67.4207 25.0213C66.9691 25.0962 66.5174 25.171 65.9905 25.171C63.1301 25.2459 60.2697 23.5986 57.334 22.5503Z" fill="#156C52"/>
<path d="M62.0013 25.9948C60.3452 25.3958 58.6892 24.647 57.0332 24.0479C57.1084 23.5238 57.259 22.9996 57.3343 22.5503C60.1947 23.5986 63.1304 25.246 65.9908 25.1711C66.4425 25.1711 66.8941 25.0962 67.4211 25.0214C67.3458 25.6204 67.1952 26.1446 67.12 26.7436C65.4639 26.9682 63.7326 26.5938 62.0013 25.9948Z" fill="#FFCE15"/>
<path d="M62.0769 27.6422C60.2703 27.0432 58.539 26.1447 56.7324 25.5456C56.8076 25.0215 56.9582 24.4973 57.0335 23.9731C58.6895 24.5722 60.3455 25.321 62.0016 25.92C63.7329 26.519 65.3889 26.8934 67.1203 26.5939C67.045 27.1181 66.8944 27.7171 66.8192 28.2413C65.2384 28.5408 63.6576 28.2413 62.0769 27.6422Z" fill="#156C52"/>
<path d="M65.0877 30.0383C65.3135 30.0383 65.464 30.0383 65.6146 30.0383C65.9157 30.0383 66.2168 30.0383 66.5179 30.0383C66.4426 30.5625 66.292 31.1615 66.2168 31.6857C61.3239 31.9852 56.3558 27.118 51.4629 28.4659L51.764 26.7436C56.2052 25.7702 60.6464 29.5891 65.0877 30.0383Z" fill="#156C52"/>
<path d="M65.6143 30.0381C65.4637 30.0381 65.3132 30.0381 65.1626 30.0381H65.0873C60.6461 29.5889 56.2049 25.77 51.7637 26.7434L52.0648 25.0212C52.1401 25.0212 52.2907 25.0212 52.3659 24.9463C52.4412 24.9463 52.5165 24.9463 52.5165 24.9463C52.5918 24.9463 52.667 24.9463 52.7423 24.9463C52.8176 24.9463 52.8929 24.9463 53.0434 24.9463C53.1187 24.9463 53.194 24.9463 53.2692 24.9463C53.3445 24.9463 53.4198 24.9463 53.4951 24.9463C53.5703 24.9463 53.5703 24.9463 53.6456 24.9463C53.7962 24.9463 53.8714 24.9463 54.022 24.9463C54.0973 24.9463 54.0973 24.9463 54.1725 24.9463C54.4736 24.9463 54.6995 25.0212 55.0005 25.0961H55.0758C55.678 25.2458 56.2802 25.3956 56.8071 25.5454C58.6137 26.1444 60.345 27.043 62.1516 27.642C63.7324 28.1662 65.3132 28.5405 66.8939 28.3159C66.8186 28.9149 66.6681 29.4391 66.5928 29.9633C66.2165 30.0381 65.9154 30.0381 65.6143 30.0381Z" fill="#FFCE15"/>
<path d="M46.6453 66.5047C46.4947 66.2052 46.57 66.2052 46.57 65.9057C46.57 65.9057 46.4947 65.4564 46.57 65.3067C46.7205 65.0072 46.4194 64.5579 46.1936 64.4081C46.1936 64.4081 45.3656 63.884 44.9892 63.6593C44.5376 63.4347 44.2365 63.1352 44.2365 62.8356C44.2365 62.5361 44.5376 62.1617 44.5376 61.7124C44.5376 61.2632 44.3117 61.1134 44.387 60.8888C44.387 60.6641 44.7634 60.2149 44.9892 59.9902C45.215 59.7656 45.2903 58.867 44.7634 57.9685C44.5376 57.669 43.4084 56.396 43.4084 56.396C43.4084 56.396 42.4299 55.123 42.2041 54.6738C41.9782 54.2245 41.903 53.925 41.903 53.6255C41.9782 53.1762 42.1288 52.8767 42.4299 52.9515C42.6557 52.9515 42.8815 53.1762 42.9568 53.4757C43.0321 53.6255 43.1074 53.7003 42.8815 54.0747C42.6557 54.4491 43.0321 55.0482 43.0321 55.0482C43.0321 55.0482 43.0321 54.8235 43.2579 54.7487C43.2579 54.7487 43.1826 55.0482 43.6343 55.6472C43.6343 55.6472 43.4837 55.1979 43.7095 55.123C43.8601 55.0482 44.0859 55.8718 44.4623 56.3211C44.8387 56.7704 45.742 56.6955 45.742 56.6955C45.742 56.6955 45.1398 56.396 44.9139 54.5989C44.7634 53.4757 44.0859 53.5506 43.6343 53.5506C43.4085 53.4757 43.2579 53.1013 43.1073 52.8767C42.9568 52.5771 42.6557 52.2776 42.3546 52.2776C42.0535 52.2776 41.8277 52.3525 41.6019 52.7269C41.376 53.1013 41.376 53.3259 41.376 53.925C41.376 54.524 41.6019 55.0482 41.8277 55.4974C42.2041 56.0965 43.0321 57.0699 43.0321 57.0699C43.0321 57.0699 44.0106 58.1931 44.2365 58.6424C44.4623 59.0917 44.387 59.4661 44.2365 59.6158C44.0106 59.7656 43.3332 59.6907 43.1826 59.6158C43.0321 59.4661 42.5052 58.7921 42.5052 58.7921C42.5052 58.7921 41.1502 57.2946 40.9997 56.9202C40.8491 56.5458 40.8491 55.4974 40.9997 54.7487C41.2255 53.1762 40.9244 52.1279 40.9244 52.1279C41.2255 52.2027 41.3008 52.7269 41.3008 52.7269C41.6019 52.2027 41.3008 51.7535 41.3008 51.7535C41.7524 52.1279 42.0535 51.9032 42.0535 51.9032C41.376 51.2293 41.6019 49.5071 41.6019 49.5071C41.6019 49.5071 41.903 49.8815 42.0535 50.8549C42.731 48.0095 41.3008 47.6351 41.3008 47.6351C41.903 47.71 42.5052 48.3839 42.5052 48.3839C41.9782 45.9877 40.7738 45.838 39.6447 46.0626C40.0211 45.6134 41.2255 45.6134 41.2255 45.6134C41.2255 45.6134 39.7953 45.1641 38.9672 45.3887C39.1178 45.0143 39.72 44.7148 39.72 44.7148C38.7414 44.8646 38.3651 45.0143 37.8381 45.5385C37.9134 45.0892 38.064 44.9394 38.064 44.9394C38.064 44.9394 37.2359 45.1641 36.9348 45.6882C36.6337 46.2124 36.8596 46.5868 37.2359 46.7365C37.2359 46.7365 37.0101 46.6617 36.9348 46.6617C36.6337 46.6617 36.1821 46.8863 36.0315 47.0361C35.881 47.1858 35.2035 47.4853 34.9777 47.5602C34.8271 47.71 34.9024 48.0844 34.9777 48.1593C35.053 48.2341 35.053 48.2341 35.053 48.3839C35.053 48.4588 35.1282 49.0578 35.4293 49.1327L35.7304 49.2824C35.7304 49.2824 35.5799 48.9829 36.1068 48.9081C36.6337 48.8332 37.3112 49.2076 36.5585 49.6568C36.3326 49.8066 35.9563 49.9564 35.7304 49.7317C35.6552 49.6568 35.6552 49.582 35.6552 49.582C35.6552 49.582 35.5046 49.582 35.4293 49.8066C35.3541 50.0312 35.3541 50.4805 35.6552 50.5554C35.9563 50.6303 36.709 50.4056 37.0101 50.2559C37.3865 50.1061 37.7629 49.8066 37.7629 49.3573C37.7629 49.3573 38.1392 49.7317 37.3865 50.3308C36.4079 50.8549 34.7519 50.8549 34.7519 52.2776C34.7519 52.2776 34.9777 51.6786 35.6552 51.454C35.6552 51.454 34.6766 52.053 34.8271 53.0264C34.9777 52.5771 35.5799 52.053 36.1068 51.9781C36.1068 51.9781 34.8271 52.8018 34.9777 55.1979V55.2728C34.6766 54.5989 34.8271 53.6255 34.8271 53.6255C34.4508 53.6255 34.225 53.1762 34.0744 52.8767C33.8486 51.9032 33.7733 51.8284 33.3969 51.6037C33.0206 51.454 32.7947 51.3791 32.5689 51.3791C32.3431 51.3791 32.1925 51.6037 32.1925 51.6786C32.1925 51.7535 32.4936 51.6037 32.7195 51.8284C32.7195 51.8284 32.3431 51.7535 32.1173 51.9032C32.042 51.9781 32.1173 52.3525 32.1173 52.3525C32.1925 52.4274 32.4936 52.2776 32.6442 52.3525C32.6442 52.3525 32.1925 52.4274 32.1173 52.5023C32.042 52.652 32.1173 52.8767 32.1173 52.9515C32.2678 53.1013 32.87 52.8767 32.9453 53.8501C32.9453 53.925 33.0206 54.0747 33.0206 54.1496C33.2464 54.4491 33.5475 54.3743 33.5475 54.3743C33.6228 54.524 34.0744 55.123 34.3002 55.4974C33.9991 55.5723 33.3969 55.7221 33.1711 55.7221C32.9453 55.7221 32.5689 55.4226 32.5689 55.4226L31.7409 54.9733C31.7409 54.9733 31.7409 55.3477 31.5151 55.2728C31.3645 55.2728 31.3645 54.8235 31.3645 54.8235C31.3645 54.8235 30.9129 54.9733 30.9129 55.2728C30.6871 55.2728 30.6118 55.797 30.7623 56.0216C30.2354 56.6955 31.4398 56.9202 31.4398 56.9202C31.4398 56.9202 32.2678 57.2197 32.4936 57.2946C32.7195 57.3694 33.1711 57.5941 33.4722 57.5941C33.7733 57.5941 34.3002 57.4443 34.3002 57.4443C34.3002 57.4443 34.8271 57.3694 35.1282 57.2946C35.1282 57.2946 35.8057 57.2946 36.6337 55.6472C36.6337 55.6472 36.4832 57.0699 35.4293 57.5192C35.4293 57.5192 35.7304 57.8936 36.0315 58.1182C36.2574 58.4177 36.7843 58.867 37.0101 59.0168C37.3865 59.3163 38.3651 59.6907 38.5909 59.9902C38.8167 60.2897 38.892 60.8139 38.892 60.8139C38.892 60.8139 38.892 60.6641 39.0425 60.6641C39.1931 60.6641 39.3436 61.1883 39.3436 61.1883C39.3436 61.1883 39.4942 60.6641 39.5694 60.8139C39.72 60.9637 39.8705 61.2632 39.8705 61.5627C39.8705 61.8622 39.72 62.0868 39.72 62.0868L38.8167 63.1352C38.2145 63.7342 38.064 63.8091 37.9134 64.1086C37.7629 64.3332 37.6123 64.483 37.537 64.7076C37.4618 65.0071 37.4618 65.3067 37.6876 65.9806C37.8381 66.5047 37.6123 67.4782 37.2359 67.4782C36.2574 67.4782 36.2574 67.2535 35.9563 67.5531C35.6552 67.8526 35.3541 68.3767 35.3541 68.4516C35.4293 68.6762 35.6552 68.7511 35.7304 68.7511C35.8057 68.7511 35.7304 68.227 36.0315 68.0772C36.0315 68.0772 35.8057 68.4516 35.881 68.7511C35.9563 69.0506 36.2574 68.9758 36.2574 68.9758C36.2574 68.9009 36.2574 68.5265 36.4079 68.4516C36.4079 68.4516 36.4079 68.9009 36.4079 68.9758C36.4832 69.0506 36.6337 69.2004 36.8596 69.0506C37.0854 68.9009 37.2359 68.4516 38.064 68.6014C38.5156 68.6762 38.5909 68.6014 38.5909 68.3767C38.5909 68.0772 38.8167 67.6279 38.9672 67.1787C39.0425 67.0289 39.1931 66.954 39.2683 66.954C39.3436 67.0289 39.3436 67.1038 39.3436 67.1038C39.3436 67.1038 39.4189 66.8791 39.3436 66.7294C39.3436 66.7294 39.4189 66.7294 39.4942 66.8043C39.4942 66.8043 39.4942 66.5796 39.3436 66.5047C39.2683 66.355 39.1178 65.9806 39.1931 65.7559C39.3436 65.3815 40.0964 64.7076 41.3008 64.7076C40.7738 64.1835 40.6986 63.884 40.6233 63.2849C40.548 62.6859 40.6986 62.012 40.6986 62.012C40.6986 62.012 40.7738 63.21 40.9997 63.5844C41.903 65.6062 44.6128 66.1303 44.6128 66.1303C44.6128 66.1303 44.6881 66.5796 44.6128 66.954C44.387 67.7028 44.3117 68.0023 44.3117 68.0023C44.3117 68.0023 43.4837 67.9274 43.0321 67.7777C42.6557 67.7028 42.2793 68.7511 42.2793 68.826C42.2793 68.9009 42.5052 69.1255 42.5804 69.1255C42.6557 69.1255 42.6557 68.6762 42.9568 68.5265C42.9568 68.5265 42.6557 68.9009 42.731 69.1255C42.8063 69.2753 42.9568 69.2753 43.0321 69.2753C43.1073 69.2753 43.0321 68.9009 43.1826 68.7511C43.1826 68.7511 43.1074 69.2004 43.2579 69.2753C43.4837 69.425 43.4837 69.3502 43.6343 69.2753C43.7848 69.2004 44.4623 69.1255 44.7634 69.1255C45.0645 69.1255 45.1398 68.4516 45.5161 67.8526C45.8925 67.2535 45.9678 66.8043 46.1183 66.8043C46.2689 66.8043 46.3442 67.1787 46.1183 67.3284C46.4194 67.1038 46.7958 66.8043 46.6453 66.5047ZM36.9348 47.71C36.7843 47.8597 36.1068 47.7849 36.1821 47.4853C36.2574 47.1858 36.709 47.1109 36.9348 47.2607C37.1607 47.5602 36.9348 47.71 36.9348 47.71Z" fill="#D21B33"/>
<path d="M32.5688 53.0264L32.1172 54.9733L32.1924 55.0482L32.6441 53.0264H32.5688Z" fill="black"/>
<path d="M33.4719 54.2244C33.3966 54.2244 33.3214 54.1495 33.2461 54.0747L33.3214 55.5723H33.3966C33.4719 55.5723 33.4719 55.5723 33.5472 55.5723L33.4719 54.2244Z" fill="black"/>
<path d="M31.5899 54.599C31.5899 54.6739 31.5899 54.6739 31.5899 54.7488C31.5899 54.8236 31.6651 55.198 31.7404 55.198C31.9662 55.2729 31.9662 54.9734 31.9662 54.8985C31.9662 54.7488 31.9662 54.599 31.9662 54.4492C31.7404 50.5555 33.0201 47.4854 33.0201 47.4854L33.1706 50.6304L33.0201 51.4541H33.0953L33.1706 51.0797V51.4541C33.2459 51.4541 33.3212 51.5289 33.3964 51.5289L33.2459 50.3309L34.1492 46.1376L34.5256 45.7632L34.375 44.8647L33.8481 45.6135L34.0739 46.0627L33.2459 49.8067L33.0953 46.8864C33.0953 46.8864 32.9448 46.5869 32.9448 46.512C32.8695 46.4371 32.6437 46.3622 32.5684 46.4371C32.4931 46.512 32.5684 46.7366 32.6437 46.8115C32.719 46.9613 33.0201 47.111 33.0201 47.111C33.0201 47.111 31.2888 49.9565 31.5899 54.599Z" fill="black"/>
<path d="M33.3961 57.3693L33.5466 60.9635C33.5466 60.9635 32.7939 59.466 32.2669 56.9949C32.1164 56.92 31.9658 56.9201 31.8906 56.8452C32.4175 59.8404 33.5466 61.1882 33.5466 61.1882C33.5466 61.1882 33.3961 61.4128 33.2455 61.6375C33.095 61.8621 33.095 61.937 33.1702 62.0119C33.2455 62.0867 33.3961 62.0119 33.5466 61.7872C33.6972 61.5626 33.6971 61.3379 33.6971 61.3379L33.5466 57.4442C33.4713 57.4442 33.4713 57.4442 33.3961 57.3693Z" fill="black"/>
<path d="M48.6774 67.1038C48.4516 66.954 48.5269 66.5796 48.6774 66.5796C48.828 66.5796 48.9032 67.0289 49.2796 67.628C49.656 68.227 49.7313 68.9009 50.0323 68.9009C50.3334 68.9009 51.0109 68.9758 51.1615 69.0507C51.312 69.1256 51.312 69.2004 51.5378 69.0507C51.7637 68.9009 51.6131 68.5265 51.6131 68.5265C51.7637 68.6763 51.6884 69.0507 51.7637 69.0507C51.8389 69.0507 51.9895 69.0507 52.0648 68.9009C52.14 68.6763 51.8389 68.3019 51.8389 68.3019C52.14 68.4516 52.14 68.9009 52.2153 68.9009C52.2906 68.9009 52.5164 68.7512 52.5164 68.6014C52.5164 68.5265 52.14 67.4782 51.7637 67.5531C51.312 67.7028 50.484 67.7777 50.484 67.7777C50.484 67.7777 50.3334 67.4782 50.1829 66.7294C50.1076 66.355 50.1829 65.9057 50.1829 65.9057C50.1829 65.9057 52.8928 65.3816 53.7961 63.3598C53.9466 62.9854 54.0972 61.7874 54.0972 61.7874C54.0972 61.7874 54.2477 62.5362 54.1725 63.0603C54.0972 63.6593 54.0219 63.9589 53.495 64.483C54.6994 64.483 55.4521 65.2318 55.6027 65.5313C55.6779 65.6811 55.6027 66.1304 55.4521 66.2801C55.3016 66.355 55.3016 66.5796 55.3016 66.5796C55.3768 66.5048 55.4521 66.5048 55.4521 66.5048C55.3768 66.6545 55.4521 66.8792 55.4521 66.8792C55.4521 66.8792 55.4521 66.7294 55.5274 66.7294C55.6027 66.6545 55.6779 66.7294 55.8285 66.954C56.0543 67.4782 56.2049 67.8526 56.2049 68.1521C56.2049 68.3768 56.3554 68.4516 56.7318 68.3768C57.5598 68.3019 57.7104 68.6763 57.9362 68.826C58.162 68.9758 58.3126 68.9009 58.3878 68.7512C58.4631 68.6014 58.3878 68.227 58.3878 68.227C58.5384 68.3019 58.4631 68.7512 58.5384 68.7512C58.5384 68.826 58.8395 68.826 58.9148 68.5265C58.99 68.227 58.7642 67.8526 58.7642 67.8526C59.0653 68.0024 58.99 68.5265 59.0653 68.5265C59.1406 68.5265 59.3664 68.4516 59.4417 68.227C59.4417 68.0772 59.1406 67.628 58.8395 67.3284C58.5384 67.0289 58.5384 67.2536 57.5598 67.2536C57.1834 67.2536 56.9576 66.355 57.1082 65.756C57.2587 65.0821 57.334 64.7825 57.2587 64.483C57.1834 64.1835 57.0329 64.0337 56.8823 63.884C56.7318 63.6593 56.5812 63.5845 55.979 62.9105L55.0757 61.8622C55.0757 61.8622 54.9252 61.6376 54.9252 61.3381C54.9252 61.0386 55.0757 60.739 55.2263 60.5893C55.3768 60.4395 55.4521 60.9637 55.4521 60.9637C55.4521 60.9637 55.6027 60.4395 55.7532 60.4395C55.9038 60.4395 55.9038 60.5893 55.9038 60.5893C55.9038 60.5893 56.0543 60.14 56.2049 59.7656C56.3554 59.4661 57.4093 59.0917 57.7856 58.7922C58.0115 58.6424 58.5384 58.1183 58.7642 57.8936C58.99 57.5941 59.3664 57.2946 59.3664 57.2946C58.2373 56.8453 58.162 55.4226 58.162 55.4226C58.99 57.0699 59.6675 57.07 59.6675 57.07C60.0439 57.07 60.4955 57.2197 60.4955 57.2197C60.4955 57.2197 61.0224 57.3695 61.3235 57.3695C61.6246 57.3695 62.0763 57.1448 62.3021 57.07C62.5279 56.9951 63.356 56.6956 63.356 56.6956C63.356 56.6956 64.5604 56.4709 64.0334 55.797C64.184 55.5724 64.1087 55.0482 63.8829 55.0482C63.8829 54.7487 63.4312 54.5989 63.4312 54.5989C63.4312 54.5989 63.4312 55.0482 63.2807 55.0482C63.0549 55.1231 63.0549 54.7487 63.0549 54.7487L62.2268 55.198C62.2268 55.198 61.8505 55.4975 61.6246 55.4975C61.3988 55.4975 60.7966 55.3477 60.4955 55.2728C60.7213 54.8984 61.2483 54.2245 61.2483 54.1496C61.2483 54.0748 61.5494 54.1496 61.7752 53.925C61.8505 53.8501 61.8505 53.7752 61.8505 53.6255C61.9257 52.7269 62.5279 52.9516 62.6785 52.7269C62.7538 52.6521 62.7538 52.4274 62.6785 52.2777C62.6032 52.2028 62.1516 52.1279 62.1516 52.1279C62.3774 52.053 62.6785 52.1279 62.6785 52.1279C62.6785 52.1279 62.7538 51.8284 62.6785 51.6786C62.3774 51.6037 62.0763 51.6037 62.0763 51.6037C62.3021 51.3791 62.6032 51.5289 62.6785 51.454C62.6785 51.3791 62.5279 51.1545 62.3021 51.1545C62.0763 51.1545 61.8505 51.1545 61.4741 51.3791C61.0977 51.5289 61.0977 51.6786 60.7966 52.6521C60.6461 53.0265 60.4202 53.4009 60.0439 53.4009C60.0439 53.4009 60.1944 54.3743 59.8933 55.0482V54.9733C60.1191 52.6521 58.7642 51.7535 58.7642 51.7535C59.3664 51.8284 59.8933 52.2777 60.0439 52.8018C60.1191 51.7535 59.2159 51.2293 59.2159 51.2293C59.9686 51.454 60.1191 52.053 60.1191 52.053C60.1191 50.6303 58.4631 50.6303 57.7104 50.1062C56.9576 49.582 57.334 49.1327 57.334 49.1327C57.334 49.582 57.7856 49.8066 58.0867 50.0313C58.3878 50.181 59.1406 50.4057 59.4417 50.3308C59.7428 50.2559 59.7428 49.8066 59.6675 49.582C59.5922 49.3574 59.4417 49.3574 59.4417 49.3574C59.4417 49.3574 59.4417 49.4322 59.3664 49.5071C59.1406 49.8066 58.7642 49.582 58.5384 49.4322C57.8609 48.983 58.5384 48.6086 58.99 48.6834C59.5169 48.7583 59.3664 49.0578 59.3664 49.0578L59.6675 48.9081C59.9686 48.7583 60.0439 48.2342 60.0439 48.1593C60.0439 48.0844 60.0439 48.0844 60.1191 47.9346C60.1944 47.8598 60.2697 47.4854 60.1191 47.3356C59.9686 47.1859 59.2911 46.9612 59.0653 46.8115C58.9148 46.6617 58.4631 46.4371 58.162 46.4371C58.0867 46.4371 57.8609 46.5119 57.8609 46.5119C58.162 46.3622 58.3878 45.9878 58.162 45.4636C57.8609 44.9395 57.0329 44.7148 57.0329 44.7148C57.0329 44.7148 57.1834 44.9395 57.2587 45.3139C56.7318 44.8646 56.3554 44.6399 55.3768 44.4902C55.3768 44.4902 55.979 44.7897 56.1296 45.1641C55.2263 44.9395 53.8714 45.3887 53.8714 45.3887C53.8714 45.3887 55.0757 45.3139 55.4521 45.838C54.3983 45.5385 53.1186 45.6883 52.5917 48.1593C52.5917 48.1593 53.1939 47.4854 53.7961 47.4105C53.7961 47.4105 52.2906 47.7849 53.0433 50.6303C53.1939 49.582 53.495 49.2825 53.495 49.2825C53.495 49.2825 53.7208 51.0047 53.0433 51.6786C53.0433 51.6786 53.3444 51.9033 53.7961 51.5289C53.7961 51.5289 53.495 51.9781 53.7961 52.5023C53.7961 52.5023 53.8714 51.9781 54.1725 51.9033C54.1725 51.9033 53.8714 52.9516 54.0972 54.524C54.2477 55.2728 54.2477 56.2463 54.0972 56.6956C53.9466 57.07 52.5917 58.5675 52.5917 58.5675C52.5917 58.5675 52.14 59.2415 51.9142 59.3912C51.7637 59.541 51.0109 59.6159 50.8604 59.3912C50.6345 59.2415 50.5593 58.8671 50.8604 58.4178C51.0862 57.9685 52.0648 56.8453 52.0648 56.8453C52.0648 56.8453 52.8928 55.8719 53.2692 55.2728C53.495 54.8984 53.7208 54.2994 53.7208 53.7004C53.7208 53.1013 53.7208 52.8767 53.495 52.5023C53.2692 52.1279 53.0433 52.053 52.7422 52.053C52.4411 52.053 52.14 52.3525 51.9895 52.6521C51.8389 52.9516 51.6884 53.326 51.4626 53.326C51.0109 53.326 50.3334 53.2511 50.1829 54.3743C49.9571 56.1714 49.3549 56.4709 49.3549 56.4709C49.3549 56.4709 50.2582 56.5458 50.6345 56.0965C51.0109 55.6472 51.2367 54.8236 51.3873 54.8984C51.6131 54.9733 51.4626 55.4226 51.4626 55.4226C51.9142 54.8236 51.8389 54.524 51.8389 54.524C52.0648 54.5989 52.0648 54.8236 52.0648 54.8236C52.0648 54.8236 52.4411 54.2245 52.2153 53.8501C52.0648 53.4757 52.14 53.4009 52.14 53.2511C52.2153 52.9516 52.4411 52.8018 52.667 52.7269C52.9681 52.7269 53.1186 52.9516 53.1939 53.4009C53.2692 53.7004 53.1186 54.0748 52.8928 54.4492C52.667 54.8984 51.6884 56.1714 51.6884 56.1714C51.6884 56.1714 50.5593 57.4443 50.3334 57.7439C49.7312 58.6424 49.8818 59.541 50.1076 59.7656C50.3334 59.9903 50.6345 60.4395 50.7098 60.6642C50.7098 60.8888 50.5593 61.0386 50.5593 61.4878C50.5593 61.9371 50.8604 62.3115 50.8604 62.611C50.8604 62.9105 50.5593 63.1352 50.1076 63.4347C49.656 63.7342 48.9032 64.1835 48.9032 64.1835C48.6774 64.3333 48.3763 64.7825 48.5269 65.0821C48.6021 65.2318 48.5269 65.6811 48.5269 65.6811C48.5269 65.9806 48.6021 65.9806 48.4516 66.2801C48.301 66.8043 48.6774 67.1038 48.6774 67.1038ZM58.162 47.3356C58.3878 47.1859 58.8395 47.1859 58.9148 47.5602C58.99 47.8598 58.3126 47.9346 58.162 47.7849C58.162 47.71 57.9362 47.5603 58.162 47.3356Z" fill="#D21B33"/>
<path d="M62.5284 53.0269L62.98 54.9737L62.9048 55.0486L62.4531 53.0269H62.5284Z" fill="black"/>
<path d="M61.6261 54.225C61.7014 54.225 61.7767 54.1501 61.8519 54.0752L61.7767 55.5728H61.7014C61.6261 55.5728 61.6261 55.5728 61.5508 55.5728L61.6261 54.225Z" fill="black"/>
<path d="M63.507 54.5992C63.507 54.674 63.507 54.674 63.507 54.7489C63.507 54.8238 63.4318 55.1982 63.3565 55.1982C63.1307 55.2731 63.1307 54.9736 63.1307 54.8987C63.1307 54.7489 63.1307 54.5992 63.1307 54.4494C63.3565 50.5557 62.0768 47.4856 62.0768 47.4856L61.9263 50.6305L62.0768 51.4542H62.0016L61.9263 51.0798V51.4542C61.851 51.4542 61.7757 51.5291 61.7005 51.5291L61.7757 50.2561L60.8724 46.0629L60.4961 45.6885L60.6466 44.79L61.1735 45.5387L60.9477 45.988L61.7757 49.8069L61.9263 46.8866C61.9263 46.8866 62.0768 46.5871 62.0768 46.5122C62.1521 46.4373 62.3779 46.3624 62.4532 46.4373C62.5285 46.5122 62.4532 46.7368 62.3779 46.8117C62.3027 46.9615 62.0016 47.1112 62.0016 47.1112C62.0016 47.1112 63.8081 49.9566 63.507 54.5992Z" fill="black"/>
<path d="M61.6995 57.3699L61.5489 60.9641C61.5489 60.9641 62.3017 59.4665 62.8286 56.9955C62.9791 56.9206 63.1297 56.9206 63.205 56.8457C62.678 59.8409 61.5489 61.1887 61.5489 61.1887C61.5489 61.1887 61.6995 61.4134 61.85 61.638C62.0006 61.8626 62.0006 61.9375 61.9253 62.0124C61.85 62.0873 61.6995 62.0124 61.5489 61.7878C61.3984 61.5631 61.3984 61.3385 61.3984 61.3385L61.5489 57.4448C61.6242 57.4448 61.6242 57.4447 61.6995 57.3699Z" fill="black"/>
</svg>
