<svg width="96" height="96" viewBox="0 0 96 96" fill="none" xmlns="http://www.w3.org/2000/svg">
<g id="RT">
<g id="Group">
<g id="Group_2">
<g id="Group_3">
<path id="Vector" d="M60.4191 94.2102H34.6752V95.9324H60.4191V94.2102Z" fill="#156C52"/>
<g id="Group_4">
<path id="Vector_2" d="M0.876923 84.4758C0.876923 83.9517 0.876923 83.5024 0.876923 83.3526C0.876923 83.128 0.801649 82.9782 0.6511 82.9782H0.35C0.35 82.9782 0.274727 82.9782 0.274727 82.9034V82.7536C0.274727 82.7536 0.274726 82.6787 0.35 82.6787C0.425275 82.6787 0.6511 82.6787 1.40385 82.6787C1.78022 82.6787 2.38241 82.6787 2.68351 82.6787C3.21043 82.6787 3.58681 82.9034 3.88791 83.128C4.11373 83.3526 4.26428 83.6521 4.26428 83.8768C4.26428 84.7753 3.58681 85.1497 2.98461 85.1497V85.2246C3.21043 85.2995 3.28571 85.4492 3.43626 85.599C3.51153 85.6739 3.88791 86.3478 3.96318 86.4227C4.03846 86.4976 4.33955 87.0217 4.4901 87.1715C4.56538 87.2464 4.86648 87.3212 5.01703 87.3212C5.0923 87.3212 5.0923 87.3212 5.0923 87.3961V87.5459C5.0923 87.6208 5.0923 87.6208 5.01703 87.6208C4.94175 87.6208 4.7912 87.6208 4.26428 87.6208C4.03846 87.6208 3.81263 87.6208 3.58681 87.6208C3.36098 87.471 2.98461 86.6473 2.83406 86.4227C2.60824 85.9734 2.30714 85.4492 2.00604 85.4492H1.78022V85.8236C1.78022 86.198 1.78022 87.0217 1.78022 87.0966C1.78022 87.2464 1.85549 87.3961 1.93077 87.3961H2.23186C2.30714 87.3961 2.30714 87.3961 2.30714 87.471V87.6208C2.30714 87.6956 2.30714 87.6956 2.23186 87.6956C2.23186 87.6956 2.08132 87.6956 1.32857 87.6956C0.575825 87.6956 0.425275 87.6956 0.35 87.6956C0.274726 87.6956 0.274727 87.6956 0.274727 87.6208V87.471V87.3961H0.50055C0.651099 87.3961 0.801648 87.3212 0.801648 87.1715C0.801648 86.4976 0.801648 85.8236 0.801648 85.2246V84.4758H0.876923ZM1.78022 85.2246C1.93077 85.2246 2.00604 85.2246 2.08132 85.2246C2.98461 85.2246 3.21044 84.4009 3.21044 84.0265C3.21044 83.727 3.13516 83.4275 2.98461 83.2777C2.75879 83.0531 2.45769 82.9782 2.23186 82.9782C2.08132 82.9782 2.00604 82.9782 2.00604 83.0531C1.93077 83.0531 1.93077 83.128 1.93077 83.2029L1.78022 85.2246Z" fill="black"/>
<path id="Vector_3" d="M7.04944 84.9999C7.35054 84.9999 7.65164 84.9999 7.72691 84.9251C7.87746 84.9251 7.95274 84.8502 8.02801 84.7004C8.10329 84.6255 8.17856 84.4009 8.17856 84.2512C8.17856 84.1763 8.17856 84.1763 8.25383 84.1763H8.40438C8.40438 84.1763 8.47966 84.1763 8.47966 84.2512C8.47966 84.4009 8.47966 84.7004 8.47966 84.9251C8.47966 85.2246 8.47966 85.5241 8.55493 85.6739C8.55493 85.7487 8.55493 85.7487 8.47966 85.7487H8.32911C8.32911 85.7487 8.25383 85.7487 8.25383 85.6739C8.25383 85.599 8.17856 85.3743 8.10329 85.2995C8.02801 85.1497 7.87746 85.0748 7.72691 85.0748C7.57636 85.0748 7.35054 84.9999 7.04944 84.9999V85.3743C7.04944 85.7487 7.04944 86.4227 7.04944 86.4975C7.04944 86.8719 7.12472 86.9468 7.19999 87.0217C7.27527 87.0966 7.42582 87.0966 7.80219 87.0966C7.95274 87.0966 8.17856 87.0966 8.32911 87.0966C8.47966 87.0966 8.70548 87.0217 8.85603 86.8719C9.00658 86.7222 9.38295 86.2729 9.5335 86.1231H9.60878L9.75933 86.198C9.75933 86.198 9.75933 86.198 9.75933 86.2729L9.45823 87.3212C9.45823 87.3961 9.38295 87.3961 9.30768 87.3961C9.30768 87.3961 9.15713 87.3961 8.70548 87.3961C8.25383 87.3961 7.50109 87.3961 6.37197 87.3961C6.14615 87.3961 5.92032 87.3961 5.76977 87.3961C5.61923 87.3961 5.54395 87.3961 5.46868 87.3961C5.3934 87.3961 5.3934 87.3961 5.3934 87.3212V87.1714C5.3934 87.0966 5.3934 87.0966 5.46868 87.0966H5.6945C5.9956 87.0966 6.07087 87.0217 6.07087 86.7971V84.5507C6.07087 83.9516 6.07087 83.128 6.07087 83.0531C6.07087 82.8284 5.9956 82.7536 5.76977 82.7536H5.46868C5.46868 82.7536 5.46868 82.7536 5.46868 82.6787V82.5289C5.46868 82.5289 5.46868 82.454 5.54395 82.454C5.6945 82.454 5.92032 82.454 6.52252 82.454H8.93131C9.00658 82.454 9.15713 82.454 9.2324 82.454H9.30768C9.30768 82.5289 9.5335 83.5023 9.60878 83.5772V83.6521L9.5335 83.727H9.45823C9.45823 83.6521 8.78076 83.0531 8.63021 82.9782C8.47966 82.9033 8.32911 82.8284 8.10329 82.8284H7.19999L7.04944 84.9999ZM7.35054 82.2294L8.25383 81.256C8.32911 81.1811 8.40438 81.1062 8.55493 81.1062C8.78076 81.1062 8.85603 81.256 8.85603 81.4806C8.85603 81.6304 8.70548 81.7052 8.63021 81.7801L7.50109 82.3043C7.50109 82.3043 7.50109 82.3043 7.42582 82.3043L7.35054 82.2294Z" fill="black"/>
<path id="Vector_4" d="M11.7917 85.8235C11.7917 86.123 11.7917 87.0964 11.7917 87.1713C11.7917 87.3211 11.867 87.3959 12.0175 87.3959H12.3939C12.4692 87.3959 12.4692 87.3959 12.4692 87.4708V87.6206C12.4692 87.6206 12.4692 87.6955 12.3939 87.6955C12.3186 87.6955 12.0928 87.6955 11.2648 87.6955C10.6626 87.6955 10.3615 87.6955 10.2862 87.6955C10.211 87.6955 10.211 87.6955 10.211 87.6206V87.4708C10.211 87.4708 10.211 87.3959 10.2862 87.3959H10.4368C10.6626 87.3959 10.7379 87.3959 10.7379 87.1713C10.7379 87.0964 10.7379 86.0481 10.7379 85.2244V84.4756C10.7379 84.0264 10.7379 83.2776 10.7379 83.2027C10.7379 83.0529 10.6626 83.0529 10.5121 83.0529H10.211C10.211 83.0529 10.1357 83.0529 10.1357 82.978V82.8283C10.1357 82.8283 10.1357 82.7534 10.211 82.7534C10.2862 82.7534 10.5121 82.7534 11.2648 82.7534C11.4153 82.7534 11.7917 82.7534 12.0175 82.7534C12.8456 82.7534 13.2972 82.8283 13.6736 83.1278C13.9747 83.3525 14.2005 83.7268 14.2005 84.1761C14.2005 84.9998 13.523 85.524 12.3939 85.524C12.1681 85.524 12.0175 85.524 11.867 85.524V85.8235H11.7917ZM11.7917 85.2993C11.9423 85.2993 12.0928 85.3742 12.2434 85.3742C12.4692 85.3742 12.7703 85.1496 12.9208 84.9249C13.0714 84.7003 13.0714 84.4756 13.0714 84.1761C13.0714 83.2027 12.3939 83.0529 12.0928 83.0529C11.9423 83.0529 11.867 83.0529 11.7917 83.0529V85.2993Z" fill="black"/>
<path id="Vector_5" d="M15.1038 83.3526C15.1038 83.128 15.0285 82.9782 14.878 82.9782H14.5769C14.5016 82.9782 14.5016 82.9782 14.5016 82.9034V82.7536C14.5016 82.6787 14.5016 82.6787 14.5769 82.6787C14.6522 82.6787 14.9533 82.6787 15.706 82.6787C16.3082 82.6787 16.6093 82.6787 16.6846 82.6787C16.7598 82.6787 16.7598 82.6787 16.7598 82.7536V82.9034C16.7598 82.9034 16.7598 82.9782 16.6846 82.9782H16.4587C16.2329 82.9782 16.0824 83.128 16.0824 83.2777C16.0824 83.3526 16.0824 83.8019 16.0824 84.1763V84.6256C16.0824 85 16.0824 85.8237 16.0824 86.0483C16.0824 86.3478 16.1576 86.6473 16.3082 86.872C16.534 87.1715 16.8351 87.2464 17.1362 87.2464C17.362 87.2464 17.7384 87.0966 17.9642 86.9468C18.2653 86.7222 18.4159 86.3478 18.4159 85.8237V84.7753C18.4159 84.1763 18.3406 83.4275 18.3406 83.2777C18.3406 83.128 18.1901 82.9782 18.1148 82.9782H17.889C17.8137 82.9782 17.8137 82.9782 17.8137 82.9034V82.7536C17.8137 82.7536 17.8137 82.6787 17.889 82.6787C17.9642 82.6787 18.2653 82.6787 18.717 82.6787C19.0933 82.6787 19.3192 82.6787 19.3944 82.6787C19.4697 82.6787 19.4697 82.6787 19.4697 82.7536V82.9034C19.4697 82.9782 19.4697 82.9782 19.3944 82.9782H19.1686C18.9428 82.9782 18.8675 83.2029 18.8675 83.2029C18.8675 83.2777 18.8675 84.2512 18.8675 84.3261C18.8675 84.4009 18.8675 85.599 18.8675 85.8985C18.7923 86.4227 18.6417 86.872 18.2653 87.1715C17.9642 87.471 17.5126 87.6208 17.0609 87.6208C16.7598 87.6208 16.3082 87.5459 16.0071 87.471C15.706 87.3212 15.4049 87.0217 15.1791 86.5724C15.0285 86.2729 15.0285 85.8237 15.0285 84.9251V83.3526H15.1038Z" fill="black"/>
<path id="Vector_6" d="M20.5236 84.6254C20.5236 84.4008 20.5236 83.5771 20.5236 83.4273C20.5236 83.0529 20.3731 83.0529 20.1472 83.0529H19.9214C19.8461 83.0529 19.8461 83.0529 19.8461 82.978V82.8283C19.8461 82.7534 19.8461 82.7534 19.9214 82.7534C19.9967 82.7534 20.3731 82.7534 20.9753 82.7534C21.2011 82.7534 21.5775 82.7534 22.1044 82.7534C22.6313 82.7534 23.0077 82.8283 23.3088 82.9032C23.6851 83.1278 23.8357 83.4273 23.8357 83.8017C23.8357 84.251 23.5346 84.7003 22.8571 84.9249C23.6851 85.1496 24.1368 85.524 24.1368 86.2727C24.1368 86.6471 23.911 87.1713 23.6099 87.3211C23.3088 87.4708 22.8571 87.5457 22.0291 87.5457C21.9538 87.5457 21.8033 87.5457 21.5775 87.5457C21.3516 87.5457 21.2011 87.5457 21.0505 87.5457C20.6742 87.5457 20.4483 87.5457 20.2978 87.5457C20.1472 87.5457 20.072 87.5457 19.9967 87.5457C19.9214 87.5457 19.9214 87.5457 19.9214 87.4708V87.3211C19.9214 87.2462 19.9214 87.2462 19.9967 87.2462H20.2225C20.4483 87.2462 20.4483 87.1713 20.5236 86.9467C20.5236 86.7969 20.5236 85.8983 20.5236 85.2993V84.6254ZM21.5775 84.9249C21.8786 84.9249 22.3302 84.9249 22.4808 84.7003C22.7066 84.4756 22.7818 84.1761 22.7818 83.8766C22.7818 83.652 22.7066 83.3524 22.4808 83.2027C22.2549 83.0529 21.8786 82.978 21.8033 82.978C21.6527 82.978 21.5022 82.9781 21.5022 83.1278C21.5022 83.2776 21.5022 83.8766 21.5022 84.4008V84.9249H21.5775ZM21.5775 86.4974C21.5775 87.1713 21.728 87.3959 22.1044 87.3959C22.556 87.3959 23.0829 87.1713 23.0829 86.2727C23.0829 85.7486 22.8571 85.3742 22.4808 85.2244C22.1044 85.0747 21.8033 85.0747 21.6527 85.0747V86.4974H21.5775Z" fill="black"/>
<path id="Vector_7" d="M26.4703 85.4491C26.4703 85.5988 26.4703 87.0215 26.4703 87.3211H26.8467C27.1478 87.3211 27.4488 87.3211 27.8252 87.3211C28.2016 87.3211 28.6532 86.4974 28.7285 86.1979C28.7285 86.123 28.8038 86.123 28.8038 86.123L28.9543 86.1979C28.9543 86.1979 28.9543 86.1979 28.9543 86.2728C28.9543 86.3476 28.6532 87.4708 28.6532 87.6206C28.5027 87.6206 26.4703 87.6206 25.8681 87.6206C25.1906 87.6206 24.9648 87.6206 24.8895 87.6206C24.8142 87.6206 24.8142 87.6206 24.8142 87.5457V87.3959C24.8142 87.3959 24.8142 87.3211 24.8895 87.3211H25.1153C25.3412 87.3211 25.4164 87.2462 25.4164 87.1713C25.4164 87.0215 25.4164 85.3742 25.4164 84.9249V84.5505C25.4164 84.1012 25.4164 83.4273 25.4164 83.2776C25.4164 83.1278 25.3412 83.0529 25.1906 83.0529H24.9648C24.8895 83.0529 24.8895 83.0529 24.8895 82.978V82.8283C24.8895 82.8283 24.8895 82.7534 24.9648 82.7534C25.0401 82.7534 25.2659 82.7534 25.9434 82.7534C26.7714 82.7534 26.9972 82.7534 27.0725 82.7534C27.1478 82.7534 27.1478 82.7534 27.1478 82.8283V82.978C27.1478 82.978 27.1478 83.0529 27.0725 83.0529H26.7714C26.5456 83.0529 26.5456 83.1278 26.5456 83.2776C26.5456 83.3525 26.5456 84.4008 26.5456 84.85V85.4491H26.4703Z" fill="black"/>
<path id="Vector_8" d="M30.0082 84.7004C30.0082 84.5506 30.0082 83.2777 30.0082 83.2028C30.0082 83.053 29.9329 82.9782 29.7824 82.9782H29.4813C29.4813 82.9782 29.406 82.9782 29.406 82.9033V82.6786C29.406 82.6786 29.406 82.6038 29.4813 82.6038C29.5566 82.6038 29.9329 82.6038 30.6104 82.6038C31.2879 82.6038 31.5137 82.6038 31.589 82.6038C31.589 82.6038 31.6642 82.6038 31.6642 82.6786V82.8284C31.6642 82.8284 31.6642 82.9033 31.589 82.9033H31.3631C31.2126 82.9033 31.062 82.9782 31.062 83.053C31.062 83.1279 31.062 84.6255 31.062 84.7004V85.2245C31.062 85.2994 31.062 86.8719 31.062 86.9468C31.062 87.1714 31.1373 87.1714 31.2879 87.1714H31.589C31.589 87.1714 31.6642 87.1714 31.6642 87.2463V87.4709C31.6642 87.4709 31.6642 87.5458 31.589 87.5458C31.5137 87.5458 31.2126 87.5458 30.6104 87.5458C29.8577 87.5458 29.6318 87.5458 29.5566 87.5458C29.5566 87.5458 29.4813 87.5458 29.4813 87.4709V87.3212C29.4813 87.3212 29.4813 87.2463 29.5566 87.2463H29.7824C29.9329 87.2463 30.0835 87.2463 30.0835 87.0965C30.0835 87.0217 30.0835 85.5241 30.0835 85.1497V84.7004H30.0082Z" fill="black"/>
<path id="Vector_9" d="M37.084 83.4275C37.5357 83.8768 37.7615 84.5507 37.7615 85.1497C37.7615 85.8985 37.4604 86.5724 37.084 86.9468C36.7076 87.3212 36.3313 87.5459 35.8796 87.6956C36.4818 87.9203 37.0087 88.07 37.4604 88.2198C38.8906 88.5942 39.267 88.5193 39.4928 88.5193C39.7186 88.5193 39.8692 88.4444 40.0197 88.2947H40.095L40.1703 88.3696V88.4444C40.0197 88.6691 39.4928 89.2681 39.1164 89.2681C38.7401 89.2681 38.3637 89.2681 37.3851 88.8937C36.6324 88.5942 35.8796 88.2947 34.7505 87.7705C34.6 87.6956 33.8472 87.6208 33.1697 86.9468C32.7934 86.5724 32.4923 85.9734 32.4923 85.2246C32.4923 84.4758 32.7934 83.8019 33.3203 83.3526C33.8472 82.9033 34.6 82.6787 35.1269 82.6787C36.0302 82.6787 36.6324 82.9782 37.084 83.4275ZM36.6324 85.2995C36.6324 84.4758 36.3313 83.8768 36.0302 83.5024C35.7291 83.128 35.3527 82.9782 34.9763 82.9782C34.6 82.9782 34.2989 83.2029 34.1483 83.3526C33.6967 83.8019 33.5461 84.4009 33.5461 84.9251C33.5461 85.8985 33.9225 86.5724 34.2236 86.872C34.4494 87.1715 34.9011 87.3212 35.1269 87.3212C36.3313 87.3961 36.6324 85.8985 36.6324 85.2995Z" fill="black"/>
<path id="Vector_10" d="M38.8906 83.3526C38.8906 83.128 38.8153 82.9782 38.6647 82.9782H38.3636C38.2884 82.9782 38.2884 82.9782 38.2884 82.9034V82.7536C38.2884 82.6787 38.2884 82.6787 38.3636 82.6787C38.4389 82.6787 38.74 82.6787 39.4928 82.6787C40.095 82.6787 40.396 82.6787 40.4713 82.6787C40.5466 82.6787 40.5466 82.6787 40.5466 82.7536V82.9034C40.5466 82.9034 40.5466 82.9782 40.4713 82.9782H40.2455C40.0197 82.9782 39.8691 83.128 39.8691 83.2777C39.8691 83.3526 39.8691 83.8019 39.8691 84.1763V84.6256C39.8691 85 39.8691 85.8237 39.8691 86.0483C39.8691 86.3478 39.9444 86.6473 40.0949 86.872C40.3208 87.1715 40.6219 87.2464 40.923 87.2464C41.1488 87.2464 41.5252 87.0966 41.751 86.9468C42.0521 86.7222 42.2026 86.3478 42.2026 85.8237V84.7753C42.2026 84.1763 42.1274 83.4275 42.1274 83.2777C42.1274 83.128 41.9768 82.9782 41.9015 82.9782H41.6757C41.6004 82.9782 41.6004 82.9782 41.6004 82.9034V82.7536C41.6004 82.7536 41.6004 82.6787 41.6757 82.6787C41.751 82.6787 42.0521 82.6787 42.5037 82.6787C42.8801 82.6787 43.1059 82.6787 43.1812 82.6787C43.2565 82.6787 43.2565 82.6787 43.2565 82.7536V82.9034C43.2565 82.9782 43.2565 82.9782 43.1812 82.9782H43.0307C42.8048 82.9782 42.7296 83.2029 42.7296 83.2029C42.7296 83.2777 42.7296 84.2512 42.7296 84.3261C42.7296 84.4009 42.7296 85.599 42.7296 85.8985C42.6543 86.4227 42.5037 86.872 42.1274 87.1715C41.8263 87.471 41.3746 87.6208 40.923 87.6208C40.6219 87.6208 40.1702 87.5459 39.8691 87.471C39.568 87.3212 39.2669 87.0217 39.0411 86.5724C38.8906 86.2729 38.8906 85.8237 38.8906 84.9251V83.3526Z" fill="black"/>
<path id="Vector_11" d="M45.3642 84.9998C45.6653 84.9998 45.9664 84.9998 46.0417 84.9249C46.1922 84.9249 46.2675 84.85 46.3428 84.7002C46.418 84.6254 46.4933 84.4007 46.4933 84.251C46.4933 84.1761 46.4933 84.1761 46.5686 84.1761H46.7191C46.7191 84.1761 46.7944 84.1761 46.7944 84.251C46.7944 84.4007 46.7944 84.7002 46.7944 84.9249C46.7944 85.2244 46.7944 85.5239 46.8697 85.6737C46.8697 85.7486 46.8697 85.7486 46.7944 85.7486H46.6439C46.6439 85.7486 46.5686 85.7486 46.5686 85.6737C46.5686 85.5988 46.4933 85.3742 46.418 85.2993C46.3428 85.1495 46.1922 85.0746 46.0417 85.0746C45.8911 85.0746 45.6653 84.9998 45.3642 84.9998V85.3742C45.3642 85.7486 45.3642 86.4225 45.3642 86.4974C45.3642 86.8718 45.4395 86.9466 45.5147 87.0215C45.59 87.0964 45.7406 87.0964 46.1169 87.0964C46.2675 87.0964 46.4933 87.0964 46.6439 87.0964C46.7944 87.0964 47.0202 87.0215 47.1708 86.8718C47.3213 86.722 47.6977 86.2727 47.8482 86.123H47.9235L48.0741 86.1978C48.0741 86.1978 48.0741 86.1978 48.0741 86.2727L47.773 87.321C47.773 87.3959 47.6977 87.3959 47.6224 87.3959C47.6224 87.3959 47.4719 87.3959 47.0202 87.3959C46.5686 87.3959 45.8158 87.3959 44.6867 87.3959C44.4609 87.3959 44.2351 87.3959 44.0845 87.3959C43.934 87.3959 43.8587 87.3959 43.7834 87.3959C43.7081 87.3959 43.7081 87.3959 43.7081 87.321V87.1713C43.7081 87.0964 43.7081 87.0964 43.7834 87.0964H44.0092C44.3103 87.0964 44.3856 87.0215 44.3856 86.7969V84.5505C44.3856 83.9515 44.3856 83.1278 44.3856 83.0529C44.3856 82.8283 44.3103 82.7534 44.0845 82.7534H43.7834C43.7834 82.7534 43.7834 82.7534 43.7834 82.6785V82.5287C43.7834 82.5287 43.7834 82.4539 43.8587 82.4539C44.0092 82.4539 44.2351 82.4539 44.8373 82.4539H47.246C47.3213 82.4539 47.4719 82.4539 47.5471 82.4539H47.6224C47.6224 82.5287 47.8482 83.5022 47.9235 83.5771V83.6519L47.8482 83.7268H47.773C47.773 83.6519 47.0955 83.0529 46.9449 82.978C46.7944 82.9031 46.6439 82.8283 46.418 82.8283H45.5147L45.3642 84.9998Z" fill="black"/>
<path id="Vector_12" d="M52.3647 83.053H52.1389C51.913 83.053 51.5367 83.053 51.2356 83.1279C51.085 83.2028 50.7839 83.652 50.6334 83.8767L50.5581 83.9515L50.4075 83.8767V83.8018C50.4828 83.5023 50.7086 82.6037 50.7086 82.454C50.7086 82.3791 50.7839 82.3042 50.7839 82.3042C50.8592 82.3042 50.8592 82.3042 50.9345 82.3791C51.0097 82.454 51.1603 82.5288 51.3861 82.5288C51.7625 82.5288 52.0636 82.6037 52.7411 82.6037H53.1174C53.8702 82.6037 54.1713 82.6037 54.4724 82.5288C54.6229 82.5288 54.924 82.454 54.9993 82.3791C55.0746 82.3042 55.0746 82.3042 55.1498 82.3042C55.2251 82.3042 55.2251 82.3042 55.2251 82.3791C55.2251 82.5288 55.3757 83.3525 55.4509 83.7269V83.8018L55.3004 83.8767C55.3004 83.8767 55.2251 83.8767 55.2251 83.8018C55.0746 83.5772 54.7735 83.2028 54.6229 83.053C54.4724 82.9781 53.8702 82.9032 53.7196 82.9032H53.4938V84.7752C53.4938 84.8501 53.4938 86.797 53.4938 86.8719C53.4938 87.0216 53.5691 87.1714 53.7196 87.1714H54.0207C54.096 87.1714 54.096 87.1714 54.096 87.2463V87.396C54.096 87.396 54.096 87.4709 54.0207 87.4709C53.9454 87.4709 53.7196 87.4709 52.9669 87.4709C52.2141 87.4709 51.9883 87.4709 51.8378 87.4709C51.7625 87.4709 51.7625 87.4709 51.7625 87.396V87.2463C51.7625 87.1714 51.7625 87.1714 51.8378 87.1714H52.2141C52.3647 87.1714 52.44 87.0965 52.44 86.9467C52.44 86.797 52.44 84.7003 52.44 84.5506V83.053H52.3647Z" fill="black"/>
<path id="Vector_13" d="M56.7306 87.2463C56.279 86.9468 55.752 86.198 55.752 85.2245C55.752 84.7753 55.8273 84.1762 56.3542 83.5023C56.9564 82.7535 57.7092 82.6038 58.3114 82.6038C58.9136 82.6038 59.4405 82.6786 59.9674 83.1279C60.4943 83.5023 60.8707 84.2511 60.8707 85.1497C60.8707 85.6738 60.7202 86.198 60.3438 86.6473C59.8921 87.1714 59.29 87.6207 58.2361 87.6207C57.935 87.6956 57.3328 87.6207 56.7306 87.2463ZM59.8922 85.2994C59.8922 83.8018 58.9136 82.9782 58.3114 82.9782C58.1608 82.9782 57.8597 82.9782 57.4081 83.3526C57.0317 83.727 56.8059 84.4758 56.8059 84.9999C56.8059 86.7221 57.7845 87.3961 58.3867 87.3961C59.6663 87.3961 59.8922 85.8236 59.8922 85.2994Z" fill="black"/>
<path id="Vector_14" d="M66.4411 86.9468C66.4411 87.0217 66.4411 87.0966 66.4411 87.1715C66.4411 87.2464 66.3658 87.2464 66.3658 87.2464C65.8389 87.5459 65.2367 87.6956 64.3334 87.6956C63.6559 87.6956 62.8279 87.471 62.3763 86.9468C61.9246 86.4976 61.7741 85.8985 61.7741 85.0749C61.7741 84.4758 62.0752 83.8019 62.6021 83.3526C63.129 82.9033 63.7312 82.6787 64.5592 82.6787C65.2367 82.6787 65.7636 82.9033 65.9895 82.9782C66.0647 83.0531 66.14 82.9782 66.14 82.9782L66.2153 82.9034C66.2153 82.8285 66.2906 82.8285 66.2906 82.8285C66.3658 82.8285 66.3658 82.9033 66.3658 82.9782L66.4411 84.4009C66.4411 84.4758 66.4411 84.5507 66.4411 84.5507L66.2153 84.6256C66.14 84.6256 66.14 84.6256 66.14 84.5507C66.0647 84.2512 65.8389 83.8019 65.5378 83.5024C65.2367 83.2778 64.9356 83.0531 64.484 83.0531C64.1076 83.0531 63.8065 83.2029 63.4301 83.5773C63.129 83.9517 62.9032 84.5507 62.9032 85.1497C62.9032 85.9734 63.129 86.6473 63.5054 87.0217C63.8065 87.3212 64.1076 87.471 64.5592 87.471C64.9356 87.471 65.0862 87.471 65.312 87.3212C65.4625 87.2464 65.4625 87.0217 65.4625 86.6473V86.1232C65.4625 85.8985 65.3873 85.8236 65.2367 85.8236H64.9356C64.8603 85.8236 64.8603 85.8237 64.8603 85.7488V85.599C64.8603 85.599 64.8603 85.5241 64.9356 85.5241C65.0109 85.5241 65.312 85.5241 65.9142 85.5241C66.5164 85.5241 66.8175 85.5241 66.8175 85.5241C66.8928 85.5241 66.8928 85.5241 66.8928 85.599V85.7488C66.8928 85.8237 66.8928 85.8236 66.8175 85.8236H66.5917C66.4411 85.8236 66.3658 85.8985 66.3658 86.0483V86.9468H66.4411Z" fill="black"/>
<path id="Vector_15" d="M68.624 87.2463C68.1723 86.9468 67.6454 86.198 67.6454 85.2245C67.6454 84.7753 67.7207 84.1762 68.2476 83.5023C68.8498 82.7535 69.6026 82.6038 70.2048 82.6038C70.807 82.6038 71.3339 82.6786 71.8608 83.1279C72.3877 83.5023 72.7641 84.2511 72.7641 85.1497C72.7641 85.6738 72.6135 86.198 72.2372 86.6473C71.7855 87.1714 71.1833 87.6207 70.1295 87.6207C69.8284 87.6956 69.2262 87.6207 68.624 87.2463ZM71.7855 85.2994C71.7855 83.8018 70.807 82.9782 70.2048 82.9782C70.0542 82.9782 69.7531 82.9782 69.3015 83.3526C68.9251 83.727 68.6993 84.4758 68.6993 84.9999C68.6993 86.7221 69.6778 87.3961 70.28 87.3961C71.5597 87.3961 71.7855 85.8236 71.7855 85.2994Z" fill="black"/>
<path id="Vector_16" d="M75.0976 85.4491C75.0976 85.5988 75.0976 87.0215 75.0976 87.3211H75.474C75.7751 87.3211 76.0762 87.3211 76.4526 87.3211C76.8289 87.3211 77.2806 86.4974 77.3559 86.1979C77.3559 86.123 77.4311 86.123 77.4311 86.123L77.5817 86.1979C77.5817 86.1979 77.5817 86.1979 77.5817 86.2728C77.5817 86.3476 77.2806 87.4708 77.2806 87.6206C77.13 87.6206 75.0976 87.6206 74.4954 87.6206C73.818 87.6206 73.5921 87.6206 73.5169 87.6206C73.4416 87.6206 73.4416 87.6206 73.4416 87.5457V87.3959C73.4416 87.3959 73.4416 87.3211 73.5169 87.3211H73.7427C73.9685 87.3211 74.0438 87.2462 74.0438 87.1713C74.0438 87.0215 74.0438 85.3742 74.0438 84.9249V84.5505C74.0438 84.1012 74.0438 83.4273 74.0438 83.2776C74.0438 83.1278 73.9685 83.0529 73.818 83.0529H73.5921C73.5169 83.0529 73.5169 83.0529 73.5169 82.978V82.8283C73.5169 82.8283 73.5169 82.7534 73.5921 82.7534C73.6674 82.7534 73.8932 82.7534 74.5707 82.7534C75.3987 82.7534 75.6246 82.7534 75.6998 82.7534C75.7751 82.7534 75.7751 82.7534 75.7751 82.8283V82.978C75.7751 82.978 75.7751 83.0529 75.6998 83.0529H75.3987C75.1729 83.0529 75.1729 83.1278 75.1729 83.2776C75.1729 83.3525 75.1729 84.4008 75.1729 84.85V85.4491H75.0976Z" fill="black"/>
<path id="Vector_17" d="M79.2378 85.7486C79.1625 85.8983 78.8614 86.7969 78.8614 87.0215C78.8614 87.1713 78.9367 87.321 79.1625 87.321H79.3883C79.4636 87.321 79.4636 87.321 79.4636 87.3959V87.5457C79.4636 87.6205 79.4636 87.6206 79.3883 87.6206C79.3131 87.6206 79.012 87.6206 78.485 87.6206C77.9581 87.6206 77.8076 87.6206 77.7323 87.6206C77.657 87.6206 77.657 87.5457 77.657 87.5457V87.3959C77.657 87.321 77.657 87.321 77.7323 87.321H77.8828C78.0334 87.321 78.1839 87.2462 78.3345 87.0215C78.4098 86.8718 78.9367 85.6737 79.1625 85.0746C79.2378 84.9249 79.7647 83.5022 79.84 83.2775C79.84 83.2027 79.9153 83.1278 79.84 83.0529L79.7647 82.978C79.7647 82.978 79.7647 82.9031 79.84 82.9031C80.0658 82.8283 80.5174 82.6785 80.5927 82.5287L80.668 82.4539C80.7433 82.4539 80.7433 82.5287 80.7433 82.6036C80.8938 83.0529 81.4207 84.5505 81.5713 84.9998C81.7218 85.5239 82.1735 86.7969 82.2488 86.9466C82.3993 87.1713 82.5499 87.2462 82.6251 87.2462H82.851C82.9262 87.2462 82.9262 87.2461 82.9262 87.321V87.4708C82.9262 87.5457 82.9262 87.5457 82.851 87.5457C82.7004 87.5457 82.5499 87.5457 81.7218 87.5457C81.1196 87.5457 80.8938 87.5457 80.7433 87.5457C80.668 87.5457 80.668 87.4708 80.668 87.4708V87.321C80.668 87.321 80.668 87.2462 80.7433 87.2462H80.9691C81.1196 87.2462 81.1949 87.1713 81.1949 87.0215C81.1196 86.7969 80.8938 85.8983 80.8185 85.6737H79.2378V85.7486ZM80.668 85.449C80.5927 85.2244 80.2164 83.8017 80.1411 83.6519C80.1411 83.5771 80.0658 83.5022 80.0658 83.5022C79.9905 83.5022 79.9905 83.5022 79.9905 83.5771C79.9905 83.6519 79.3883 85.2993 79.3131 85.449H80.668Z" fill="black"/>
<path id="Vector_18" d="M83.9048 84.7004C83.9048 84.5506 83.9048 83.2777 83.9048 83.2028C83.9048 83.053 83.8296 82.9782 83.679 82.9782H83.3779C83.3779 82.9782 83.3026 82.9782 83.3026 82.9033V82.6786C83.3026 82.6786 83.3026 82.6038 83.3779 82.6038C83.4532 82.6038 83.8296 82.6038 84.507 82.6038C85.1845 82.6038 85.4103 82.6038 85.4856 82.6038C85.4856 82.6038 85.5609 82.6038 85.5609 82.6786V82.8284C85.5609 82.8284 85.5609 82.9033 85.4856 82.9033H85.2598C85.1092 82.9033 84.9587 82.9782 84.9587 83.053C84.9587 83.1279 84.9587 84.6255 84.9587 84.7004V85.2245C84.9587 85.2994 84.9587 86.8719 84.9587 86.9468C84.9587 87.1714 85.034 87.1714 85.1845 87.1714H85.4856C85.4856 87.1714 85.5609 87.1714 85.5609 87.2463V87.4709C85.5609 87.4709 85.5609 87.5458 85.4856 87.5458C85.4103 87.5458 85.1092 87.5458 84.507 87.5458C83.7543 87.5458 83.5285 87.5458 83.4532 87.5458C83.4532 87.5458 83.3779 87.5458 83.3779 87.4709V87.3212C83.3779 87.3212 83.3779 87.2463 83.4532 87.2463H83.679C83.8296 87.2463 83.9801 87.2463 83.9801 87.0965C83.9801 87.0217 83.9801 85.5241 83.9801 85.1497V84.7004H83.9048Z" fill="black"/>
<path id="Vector_19" d="M86.7653 86.123C86.8405 86.4225 86.9158 86.6471 87.0663 86.9467C87.2922 87.2462 87.5933 87.3959 87.8944 87.3959C88.1955 87.3959 88.7224 87.1713 88.7224 86.6472C88.7224 86.0481 88.6471 85.8984 87.7438 85.5988C87.518 85.524 87.0663 85.2993 86.7653 84.9998C86.5394 84.7752 86.3889 84.4008 86.3889 84.0264C86.3889 83.5771 86.4642 83.3524 86.9158 83.0529C87.2169 82.8283 87.518 82.7534 87.8944 82.7534C88.4213 82.7534 88.6471 82.8283 88.7977 82.9032C88.8729 82.9032 88.9482 82.9032 88.9482 82.9032L89.0235 82.8283L89.0988 82.7534C89.174 82.7534 89.174 82.8283 89.174 82.9032L89.2493 84.1012C89.2493 84.1012 89.2493 84.1012 89.2493 84.1761L89.0988 84.251C89.0988 84.251 89.0235 84.251 89.0235 84.1761C88.9482 83.9515 88.7977 83.7269 88.5718 83.5022C88.4213 83.2776 88.1955 83.2027 87.8944 83.2027C87.3674 83.2027 87.1416 83.652 87.1416 83.8017C87.1416 84.0264 87.1416 84.251 87.2922 84.4008C87.4427 84.5505 87.8944 84.7752 88.1955 84.85C88.4966 84.9249 88.7977 85.1496 89.0988 85.3742C89.3999 85.5988 89.4751 85.8984 89.4751 86.4225C89.4751 87.2462 88.8729 87.9201 87.9696 87.9201C87.3674 87.9201 87.0663 87.8452 86.7653 87.6206C86.69 87.5457 86.6147 87.5457 86.6147 87.5457C86.5394 87.5457 86.5394 87.6206 86.5394 87.6955C86.4642 87.7703 86.4642 87.7703 86.3889 87.7703C86.3136 87.7703 86.3136 87.7703 86.3136 87.6955L86.3889 86.4225C86.3889 86.3476 86.3889 86.3476 86.4641 86.3476L86.7653 86.123Z" fill="black"/>
<path id="Vector_20" d="M92.0345 84.9998C92.3356 84.9998 92.6367 84.9998 92.712 84.9249C92.8625 84.9249 92.9378 84.85 93.0131 84.7002C93.0883 84.6254 93.1636 84.4007 93.1636 84.251C93.1636 84.1761 93.1636 84.1761 93.2389 84.1761H93.3894C93.3894 84.1761 93.4647 84.1761 93.4647 84.251C93.4647 84.4007 93.4647 84.7002 93.4647 84.9249C93.4647 85.2244 93.4647 85.5239 93.54 85.6737C93.54 85.7486 93.54 85.7486 93.4647 85.7486H93.3142C93.3142 85.7486 93.2389 85.7486 93.2389 85.6737C93.2389 85.5988 93.1636 85.3742 93.0883 85.2993C93.0131 85.1495 92.8625 85.0746 92.712 85.0746C92.5614 85.0746 92.3356 84.9998 92.0345 84.9998V85.3742C92.0345 85.7486 92.0345 86.4225 92.0345 86.4974C92.0345 86.8718 92.1098 86.9466 92.185 87.0215C92.2603 87.0964 92.4109 87.0964 92.7872 87.0964C92.9378 87.0964 93.1636 87.0964 93.3142 87.0964C93.4647 87.0964 93.6905 87.0215 93.8411 86.8718C93.9916 86.722 94.368 86.2727 94.5185 86.123H94.5938L94.7444 86.1978C94.7444 86.1978 94.7444 86.1978 94.7444 86.2727L94.4433 87.321C94.4433 87.3959 94.368 87.3959 94.2927 87.3959C94.2927 87.3959 94.1422 87.3959 93.6905 87.3959C93.2389 87.3959 92.4861 87.3959 91.357 87.3959C91.1312 87.3959 90.9054 87.3959 90.7548 87.3959C90.6043 87.3959 90.529 87.3959 90.4537 87.3959C90.3785 87.3959 90.3784 87.3959 90.3784 87.321V87.1713C90.3784 87.0964 90.3785 87.0964 90.4537 87.0964H90.6796C90.9807 87.0964 91.0559 87.0215 91.0559 86.7969V84.5505C91.0559 83.9515 91.0559 83.1278 91.0559 83.0529C91.0559 82.8283 90.9806 82.7534 90.7548 82.7534H90.4537C90.4537 82.7534 90.4537 82.7534 90.4537 82.6785V82.5287C90.4537 82.5287 90.4537 82.4539 90.529 82.4539C90.6796 82.4539 90.9054 82.4539 91.5076 82.4539H93.9164C93.9916 82.4539 94.1422 82.4539 94.2175 82.4539H94.2927C94.2927 82.5287 94.5186 83.5022 94.5938 83.5771V83.6519L94.5185 83.7268H94.4433C94.4433 83.6519 93.7658 83.0529 93.6153 82.978C93.4647 82.9031 93.3142 82.8283 93.0883 82.8283H92.185L92.0345 84.9998Z" fill="black"/>
</g>
<g id="Group_5">
<path id="Vector_21" d="M72.0867 38.2751C72.0867 58.193 61.0966 74.367 47.5472 74.367C33.9977 74.367 23.0077 58.193 23.0077 38.2751C23.0077 18.432 33.9977 2.25806 47.5472 2.25806C61.0966 2.25806 72.0867 18.432 72.0867 38.2751Z" fill="white"/>
<path id="Vector_22" d="M65.0862 16.4102C64.2581 15.3619 63.4301 14.5382 62.5268 13.7145C59.9675 11.3184 57.107 9.52126 54.0961 8.47295L54.3219 7.34976H54.2466C53.4186 7.05024 52.5153 6.8256 51.6873 6.67584C50.3323 6.37632 48.9021 6.22656 47.5472 6.22656C46.1922 6.22656 44.762 6.37632 43.4071 6.67584C42.5791 6.8256 41.6758 7.12512 40.8477 7.34976H40.7725L40.9983 8.47295C37.9873 9.52126 35.1269 11.2435 32.5675 13.7145C31.7395 14.5382 30.9115 15.4367 30.0835 16.3353L30.0082 16.4102L33.0192 20.0044L33.0945 20.0793L36.256 19.63C36.3313 19.63 36.3313 19.5551 36.3313 19.4802C36.3313 19.4802 36.3313 19.4802 36.3313 19.4054L35.2021 17.6831C37.3098 15.7363 39.7186 14.3136 42.2027 13.4899C42.8801 13.2652 43.5576 13.1155 44.2351 12.9657H44.3104L44.0845 11.3932C45.2137 11.1686 46.3428 11.0189 47.4719 11.0189C48.601 11.0189 49.7301 11.1686 50.8593 11.3932L50.6334 12.9657H50.7087C51.3862 13.1155 52.0637 13.2652 52.7411 13.4899C55.2252 14.3136 57.5587 15.7363 59.7417 17.6831L58.6878 19.4054C58.6878 19.4054 58.6878 19.4054 58.6878 19.4802C58.6878 19.5551 58.6878 19.63 58.7631 19.63L61.9246 20.0793C61.9999 20.0793 61.9999 20.0793 61.9999 20.0044L65.0862 16.4102ZM60.2686 18.0575C60.3439 18.1324 60.4191 18.2073 60.4944 18.2822C60.5697 18.357 60.7202 18.5068 60.7955 18.5817C60.8708 18.6566 60.9461 18.7314 61.0213 18.8063C61.1719 18.9561 61.2472 19.031 61.3224 19.1807C61.3977 19.2556 61.3977 19.3305 61.473 19.3305C61.6235 19.4802 61.7741 19.63 61.8493 19.7798L58.9889 19.4054L59.9675 17.8329C60.0428 17.9078 60.118 17.9827 60.2686 18.0575ZM33.7719 19.1807C33.8472 19.031 33.9977 18.9561 34.073 18.8063C34.1483 18.7314 34.2236 18.6566 34.2988 18.5817C34.3741 18.5068 34.5247 18.357 34.5999 18.2822C34.6752 18.2073 34.7505 18.1324 34.8258 18.0575C34.901 17.9827 34.9763 17.9078 35.0516 17.8329L36.0302 19.4054L33.0945 19.7798C33.245 19.63 33.3955 19.4802 33.4708 19.3305C33.6214 19.3305 33.6966 19.2556 33.7719 19.1807ZM42.2027 13.3401C39.7186 14.1638 37.3098 15.5865 35.2021 17.5334L35.1269 17.6083C34.9763 17.758 34.7505 17.9826 34.5999 18.1324C34.5247 18.2073 34.4494 18.2822 34.4494 18.2822C34.2988 18.4319 34.2236 18.5068 34.073 18.6566C33.9977 18.7314 33.9225 18.8063 33.8472 18.8812C33.7719 18.9561 33.6214 19.1058 33.5461 19.1807C33.4708 19.2556 33.3955 19.3305 33.3203 19.4054C33.245 19.4802 33.1697 19.5551 33.0945 19.63L30.3093 16.4102C31.062 15.5116 31.8901 14.6131 32.7181 13.8643C35.2774 11.4681 38.0626 9.7459 41.0736 8.69759L41.8263 11.9923C41.8263 12.0672 41.8263 12.0672 41.9016 12.0672L43.934 12.816C43.2565 12.9657 42.7296 13.1155 42.2027 13.3401ZM43.934 11.3932L44.0845 12.6662L41.9769 11.9174C42.6543 11.7676 43.2565 11.543 43.934 11.3932ZM44.0093 11.1686C43.3318 11.3184 42.5791 11.4681 41.9016 11.6928L40.923 7.42463C41.751 7.12512 42.5791 6.90048 43.4071 6.75072C44.762 6.4512 46.117 6.30144 47.5472 6.30144C48.9021 6.30144 50.3323 6.4512 51.6873 6.75072C52.5153 6.90048 53.3433 7.12512 54.1713 7.42463L53.1928 11.6928C52.5153 11.4681 51.8378 11.3184 51.0851 11.1686C49.956 10.944 48.7516 10.7942 47.5472 10.7942C46.3428 10.7942 45.2137 10.944 44.0093 11.1686ZM53.1175 11.9174L51.0098 12.6662L51.1604 11.3932C51.8378 11.543 52.44 11.7676 53.1175 11.9174ZM52.8917 13.3401C52.3647 13.1904 51.7626 12.9657 51.2356 12.8908L53.268 12.142C53.3433 12.142 53.3433 12.0672 53.3433 12.0672L54.0961 8.77247C57.107 9.82078 59.8922 11.543 62.4515 13.9392C63.2796 14.688 64.1076 15.5865 64.8603 16.4851L62.1504 19.7049C62.0752 19.63 61.9999 19.5551 61.9246 19.4802C61.8493 19.4054 61.7741 19.3305 61.6988 19.2556C61.6235 19.1807 61.473 19.031 61.3977 18.9561C61.3224 18.8812 61.2471 18.8063 61.1719 18.7314C61.0966 18.5817 60.9461 18.5068 60.7955 18.357C60.7202 18.2822 60.645 18.2073 60.645 18.2073C60.4944 18.0575 60.2686 17.8329 60.118 17.6831L60.0428 17.6083C57.7845 15.5865 55.451 14.1638 52.8917 13.3401Z" fill="black"/>
<g id="Group_6">
<path id="Vector_23" d="M47.5472 0.460938C33.0944 0.460938 21.2763 17.3837 21.2763 38.2751C21.2763 59.1665 33.0192 76.0893 47.5472 76.0893C62.0752 76.0893 73.818 59.1665 73.818 38.2751C73.818 17.3837 61.9999 0.460938 47.5472 0.460938ZM47.5472 74.3671C33.9977 74.3671 23.0077 58.1931 23.0077 38.2751C23.0077 18.432 33.9977 2.25805 47.5472 2.25805C61.0966 2.25805 72.0867 18.432 72.0867 38.35C72.0867 58.1931 61.0966 74.3671 47.5472 74.3671Z" fill="#156C52"/>
</g>
<path id="Vector_24" d="M44.5362 33.3332L41.9769 19.0312L41.6005 18.507L41.9016 17.6833L42.4285 18.4321L42.2027 19.0312L44.5362 33.3332Z" fill="#FFCE15"/>
<path id="Vector_25" d="M53.4939 18.507L53.0422 19.0312L50.4829 33.4829L52.8164 19.0312L52.6659 18.4321L53.1928 17.6833L53.4939 18.507Z" fill="#FFCE15"/>
<path id="Vector_26" d="M53.8702 44.7148C53.7949 44.7148 53.1175 44.4152 52.2894 45.0892C51.3861 45.7631 51.9131 47.1858 51.9131 47.1858C51.9131 47.1858 51.1603 46.5119 50.1817 46.8114C49.2032 47.036 49.1279 48.6085 49.1279 48.6085C49.1279 48.6085 48.3752 47.4853 47.5471 47.4853C46.7191 47.4853 45.9664 48.6085 45.9664 48.6085C45.9664 48.6085 45.8911 47.1109 44.9125 46.8114C43.934 46.5119 43.1812 47.1858 43.1812 47.1858C43.1812 47.1858 43.7081 45.7631 42.8048 45.0892C41.9015 44.4152 41.2993 44.7148 41.2241 44.7148C41.2993 44.6399 41.9768 43.7413 41.751 42.7679C41.5252 41.7196 40.1702 41.5698 40.1702 41.5698C40.1702 41.5698 41.5252 41.1205 41.5252 39.9973C41.5252 38.949 40.5466 38.2751 40.4713 38.2002C40.5466 38.2002 41.751 38.4998 42.2026 37.3766C42.6543 36.3282 42.0521 35.3548 41.9768 35.2799C42.0521 35.3548 43.0307 36.0287 43.8587 35.2799C44.4609 34.6809 44.6114 33.8572 44.5362 33.4828C44.762 33.7075 45.2889 34.2316 45.8911 34.1567C47.0955 34.2316 47.5471 32.8838 47.5471 32.8838C47.5471 32.8838 47.9235 34.1567 49.1279 34.2316C49.7301 34.2316 50.257 33.7075 50.4828 33.4828C50.4828 33.8572 50.6334 34.7558 51.2356 35.2799C52.0636 36.1036 53.0422 35.3548 53.1175 35.2799C53.0422 35.3548 52.44 36.3282 52.8916 37.3766C53.3433 38.4249 54.6229 38.2002 54.6229 38.2002C54.5477 38.2751 53.5691 38.949 53.5691 39.9973C53.5691 41.0457 54.924 41.5698 54.924 41.5698C54.924 41.5698 53.6444 41.7196 53.3433 42.7679C53.1174 43.7413 53.7949 44.6399 53.8702 44.7148Z" fill="#FFCE15"/>
<g id="Group_7">
<path id="Vector_27" d="M47.6224 39.7728C47.6224 38.7245 46.945 38.1255 45.8158 38.1255H43.4071V43.2922H44.5362V41.4951H45.4395L46.3428 43.2922H47.6224L46.6439 41.2704C47.3213 40.9709 47.6224 40.5216 47.6224 39.7728ZM44.5362 39.1738H45.8158C46.2675 39.1738 46.4933 39.3984 46.4933 39.7728C46.4933 40.1472 46.2675 40.3719 45.8158 40.3719H44.5362V39.1738Z" fill="black"/>
<path id="Vector_28" d="M47.9988 38.0505V39.1737H49.5043V43.2921H50.6334V39.1737H52.0636V38.0505H47.9988Z" fill="black"/>
</g>
<g id="Group_8">
<path id="Vector_29" d="M32.6428 15.7362L34.1483 17.2338L33.9225 17.4585L32.417 15.9609L32.1159 16.2604L31.8901 16.0358L32.7934 15.1372L33.0192 15.3618L32.6428 15.7362Z" fill="black"/>
<path id="Vector_30" d="M35.3527 16.0358L34.3741 15.5116L34.1483 15.6614L34.8258 16.4102L34.5999 16.6348L33.0192 14.9126L33.5461 14.4633C33.8472 14.2387 34.1483 14.1638 34.5247 14.5382C34.7505 14.7628 34.7505 15.0624 34.6752 15.287L35.7291 15.886L35.3527 16.0358ZM33.6966 14.7628L33.4708 14.9126L33.9225 15.4368L34.1483 15.2121C34.2988 15.0624 34.3741 14.9126 34.1483 14.688C34.073 14.5382 33.8472 14.6131 33.6966 14.7628Z" fill="black"/>
<path id="Vector_31" d="M36.6324 15.0625L36.1054 14.6132L35.6538 14.9127L35.9549 15.5118L35.6538 15.7364L34.6752 13.49L34.9763 13.2654L36.9335 14.8379L36.6324 15.0625ZM35.5032 14.1639C35.3527 14.0891 35.2021 13.8644 35.1269 13.7895C35.2021 13.8644 35.2774 14.0891 35.3527 14.2388L35.5032 14.6132L35.8043 14.3886L35.5032 14.1639Z" fill="black"/>
<path id="Vector_32" d="M37.4604 14.4634L37.2346 14.6131L35.3527 12.9658L35.6538 12.7411L36.5571 13.5648C36.6324 13.6397 36.8582 13.8643 36.9335 13.9392C36.9335 13.8643 36.7829 13.5648 36.7076 13.4899L36.256 12.3667L36.5571 12.1421L37.4604 14.4634Z" fill="black"/>
<path id="Vector_33" d="M38.8153 13.6397L38.3637 13.1904L37.912 13.415L38.1378 14.0141L37.8367 14.1638L37.084 11.7677L37.3851 11.6179L39.1164 13.415L38.8153 13.6397ZM37.8367 12.5914C37.7615 12.4416 37.5356 12.2918 37.4604 12.217C37.4604 12.2918 37.6109 12.5914 37.6109 12.7411L37.7615 13.1155L38.0626 12.8909L37.8367 12.5914Z" fill="black"/>
<path id="Vector_34" d="M39.3422 13.3403L38.2131 11.1688L38.5142 11.019L39.6433 13.1905L39.3422 13.3403Z" fill="black"/>
<path id="Vector_35" d="M40.0197 12.9658L39.0411 10.7943L39.3422 10.6445L40.1703 12.5165L40.8477 12.217L40.9983 12.5165L40.0197 12.9658Z" fill="black"/>
</g>
<g id="Group_9">
<path id="Vector_36" d="M55.3757 12.0673L55.0746 11.9176L54.6982 12.8161L54.3971 12.6664L55.3757 10.4949L55.9779 10.7944C56.279 10.9442 56.5048 11.2437 56.279 11.6929C56.0532 12.1422 55.6768 12.2171 55.3757 12.0673ZM55.8274 11.019L55.6015 10.8693L55.3004 11.5432L55.5263 11.6929C55.6768 11.7678 55.9026 11.6929 55.9779 11.4683C56.0532 11.3185 55.9779 11.0939 55.8274 11.019Z" fill="black"/>
<path id="Vector_37" d="M56.5048 13.7146L56.6554 13.1156L56.2037 12.891L55.7521 13.4151L55.451 13.2654L57.107 11.4683L57.4081 11.618L56.8059 14.0142L56.5048 13.7146ZM56.8812 12.3668C56.9565 12.2171 57.0318 11.9175 57.0318 11.8427C56.9565 11.9175 56.8059 12.1422 56.6554 12.2919L56.3543 12.5915L56.7307 12.7412L56.8812 12.3668Z" fill="black"/>
<path id="Vector_38" d="M58.462 12.4417L57.3329 14.2388L57.0318 14.0891L58.1609 12.292L57.7845 12.0673L57.9351 11.7678L58.9889 12.4417L58.8383 12.7413L58.462 12.4417Z" fill="black"/>
<path id="Vector_39" d="M58.6878 15.1375L58.9889 14.0891L58.7631 13.9394L58.1609 14.7631L57.8598 14.5384L59.29 12.5916L59.8169 12.966C60.118 13.1906 60.2686 13.4901 59.9675 13.8645C59.7417 14.164 59.5158 14.2389 59.29 14.164L58.9136 15.2872L58.6878 15.1375ZM59.6664 13.2655L59.4406 13.1157L58.9889 13.7147L59.2147 13.8645C59.3653 14.0143 59.5911 14.0143 59.7417 13.7896C59.8922 13.565 59.8169 13.4152 59.6664 13.2655Z" fill="black"/>
<path id="Vector_40" d="M59.2147 15.5866L60.7202 13.7146L60.946 13.9392L59.4405 15.8112L59.2147 15.5866Z" fill="black"/>
<path id="Vector_41" d="M59.8169 16.1108L61.473 14.3137L62.301 15.0625L62.0752 15.2872L61.473 14.763L61.0213 15.2123L61.3977 15.5867L61.1719 15.8113L60.7955 15.4369L60.2686 16.0359L60.8708 16.635L60.6449 16.8596L59.8169 16.1108Z" fill="black"/>
</g>
<g id="Group_10">
<path id="Vector_42" d="M42.9554 10.4198L42.4285 8.09856L42.7296 8.02368L43.1812 10.0454L43.934 9.89567L44.0093 10.1952L42.9554 10.4198Z" fill="black"/>
<path id="Vector_43" d="M44.3103 10.1204L43.934 7.7243L44.2351 7.64941L44.6114 10.0456L44.3103 10.1204Z" fill="black"/>
<path id="Vector_44" d="M45.6653 9.97064L45.0631 10.0455L44.8373 7.64937L45.4395 7.57449C45.8158 7.49961 46.1169 7.72425 46.1922 8.17353C46.1922 8.39817 46.1169 8.6228 45.9664 8.69768C46.1922 8.77256 46.3428 8.92232 46.3428 9.22184C46.2675 9.67112 46.0417 9.89576 45.6653 9.97064ZM45.4395 7.87401H45.1384L45.2137 8.54792H45.5148C45.6653 8.54792 45.8158 8.39817 45.8158 8.17353C45.7406 7.94889 45.59 7.87401 45.4395 7.87401ZM45.5148 8.84744H45.2137L45.2889 9.59624H45.59C45.8158 9.59624 45.8911 9.44648 45.8911 9.14696C45.8911 8.92232 45.7406 8.84744 45.5148 8.84744Z" fill="black"/>
<path id="Vector_45" d="M46.6439 9.89565L46.5686 7.49951H47.6977V7.79903H46.8697V8.47295H47.3966V8.77246H46.8697V9.59614H47.6977V9.89565H46.6439Z" fill="black"/>
<path id="Vector_46" d="M49.0527 9.89566L48.7516 8.84735H48.4505L48.3752 9.89566H48.0741L48.2246 7.49951L48.9021 7.57439C49.2785 7.57439 49.5796 7.79903 49.5043 8.24831C49.5043 8.62271 49.3538 8.77247 49.0527 8.84735L49.3538 9.97054L49.0527 9.89566ZM48.8268 7.79903H48.5257L48.4505 8.47295H48.7516C48.9774 8.47295 49.1279 8.39807 49.1279 8.17343C49.2032 7.94879 49.0527 7.79903 48.8268 7.79903Z" fill="black"/>
<path id="Vector_47" d="M50.6334 8.02374L50.3323 10.0455L50.0312 9.97061L50.3323 7.94886L49.8054 7.87398L49.8807 7.57446L51.0851 7.72422L51.0098 8.02374H50.6334Z" fill="black"/>
<path id="Vector_48" d="M51.0098 10.1953L51.5367 7.87401L52.6658 8.09865L52.5906 8.39816L51.8378 8.2484L51.6873 8.84744L52.2142 8.9972L52.1389 9.29672L51.612 9.14696L51.4614 9.89575L52.2895 10.0455L52.1389 10.4199L51.0098 10.1953ZM52.2895 7.72425L52.0636 7.64937L52.3647 7.34985L52.8164 7.42473L52.2895 7.72425Z" fill="black"/>
</g>
<g id="Group_11">
<path id="Vector_49" d="M38.3637 25.6205C38.9659 25.3959 39.5681 25.2461 40.095 25.1713H40.1703C40.4714 25.0964 40.6972 25.0964 40.9983 25.0215C41.0736 25.0215 41.0736 25.0215 41.1488 25.0215C41.2994 25.0215 41.3747 25.0215 41.5252 25.0215C41.6005 25.0215 41.6005 25.0215 41.6758 25.0215C41.751 25.0215 41.8263 25.0215 41.9016 25.0215C41.9769 25.0215 42.0521 25.0215 42.1274 25.0215C42.2027 25.0215 42.278 25.0215 42.4285 25.0215C42.5038 25.0215 42.5791 25.0215 42.6543 25.0215C42.7296 25.0215 42.8049 25.0215 42.8049 25.0215C42.8802 25.0215 43.0307 25.0215 43.106 25.0964L42.278 20.0795C40.6972 20.0046 39.1164 20.4539 37.5357 21.0529C37.7615 22.5505 38.0626 24.0481 38.3637 25.6205Z" fill="#D21B33"/>
<path id="Vector_50" d="M40.4714 23.449C40.8477 23.6736 41.2241 23.8983 41.6005 24.1229C41.3746 23.7485 41.2241 23.2992 40.9983 22.9248C41.2994 22.6253 41.6005 22.3258 41.8263 22.0263C41.4499 22.0263 40.9983 22.0263 40.6219 22.1011C40.3961 21.7267 40.1703 21.2775 40.0197 20.9031C39.9444 21.3524 39.8692 21.8016 39.8692 22.2509C39.4928 22.3258 39.0411 22.4755 38.6648 22.5504C39.0411 22.7002 39.4175 22.8499 39.7939 23.0746C39.7186 23.5239 39.6433 23.8983 39.6433 24.3475C39.8692 24.1229 40.1703 23.7485 40.4714 23.449Z" fill="white"/>
<path id="Vector_51" d="M37.7615 22.5506C37.6862 22.0264 37.5356 21.5023 37.4604 21.053C34.073 22.3259 30.7609 24.2728 27.3736 23.2994C27.4489 23.8984 27.5994 24.4226 27.6747 25.0216C28.1263 25.0965 28.578 25.1713 29.1049 25.1713C31.9653 25.2462 34.8258 23.5989 37.7615 22.5506Z" fill="#156C52"/>
<path id="Vector_52" d="M33.0944 25.995C34.7505 25.396 36.4065 24.6472 38.0626 24.0481C37.9873 23.524 37.8367 22.9998 37.7615 22.5505C34.901 23.5988 31.9653 25.2462 29.1049 25.1713C28.6533 25.1713 28.2016 25.0964 27.6747 25.0216C27.75 25.6206 27.9005 26.1448 27.9758 26.7438C29.7071 26.9684 31.3631 26.594 33.0944 25.995Z" fill="#FFCE15"/>
<path id="Vector_53" d="M33.0192 27.6422C34.8258 27.0432 36.5571 26.1446 38.3637 25.5456C38.2884 25.0215 38.1378 24.4973 38.0626 23.9731C36.4065 24.6471 34.7505 25.3959 33.0945 25.9949C31.3631 26.5939 29.7071 26.9683 27.9758 26.6688C28.0511 27.193 28.2016 27.792 28.2769 28.3162C29.8576 28.5408 31.4384 28.2413 33.0192 27.6422Z" fill="#156C52"/>
<path id="Vector_54" d="M30.0082 30.0383C29.7824 30.0383 29.6318 30.0383 29.4813 30.0383C29.1802 30.0383 28.8791 30.0383 28.578 30.0383C28.6532 30.5625 28.8038 31.1615 28.8791 31.6857C33.7719 31.9852 38.7401 27.118 43.6329 28.4659L43.3318 26.7436C38.8906 25.7702 34.4494 29.5891 30.0082 30.0383Z" fill="#156C52"/>
<path id="Vector_55" d="M29.4813 30.0383C29.6318 30.0383 29.7824 30.0383 29.9329 30.0383H30.0082C34.4494 29.5891 38.8906 25.7702 43.3318 26.7436L43.0307 25.0214C42.9554 25.0214 42.8049 25.0214 42.7296 24.9465C42.6543 24.9465 42.579 24.9465 42.579 24.9465C42.5038 24.9465 42.4285 24.9465 42.3532 24.9465C42.2779 24.9465 42.2027 24.9465 42.0521 24.9465C41.9768 24.9465 41.9016 24.9465 41.8263 24.9465C41.751 24.9465 41.6757 24.9465 41.6005 24.9465C41.5252 24.9465 41.5252 24.9465 41.4499 24.9465C41.2994 24.9465 41.2241 24.9465 41.0735 24.9465C40.9983 24.9465 40.9983 24.9465 40.923 24.9465C40.6219 24.9465 40.3961 25.0214 40.095 25.0963H40.0197C39.4175 25.246 38.8153 25.3958 38.2884 25.5456C36.4818 26.1446 34.7505 27.0432 32.9439 27.6422C31.3631 28.1664 29.7824 28.5407 28.2016 28.3161C28.2769 28.9151 28.4274 29.4393 28.5027 29.9635C28.8791 30.0383 29.1802 30.0383 29.4813 30.0383Z" fill="#FFCE15"/>
</g>
<g id="Group_12">
<path id="Vector_56" d="M56.806 25.6205C56.2038 25.3959 55.6016 25.2461 55.0746 25.1713H54.9994C54.6983 25.0964 54.4724 25.0964 54.1713 25.0215C54.0961 25.0215 54.0961 25.0215 54.0208 25.0215C53.8702 25.0215 53.795 25.0215 53.6444 25.0215C53.5691 25.0215 53.5691 25.0215 53.4939 25.0215C53.4186 25.0215 53.3433 25.0215 53.268 25.0215C53.1928 25.0215 53.1175 25.0215 53.0422 25.0215C52.9669 25.0215 52.8917 25.0215 52.7411 25.0215C52.6658 25.0215 52.5906 25.0215 52.5153 25.0215C52.44 25.0215 52.3647 25.0215 52.3647 25.0215C52.2895 25.0215 52.1389 25.0215 52.0636 25.0964L52.8917 20.0795C54.4724 20.0046 56.0532 20.4539 57.634 21.0529C57.3329 22.5505 57.0318 24.0481 56.806 25.6205Z" fill="#D21B33"/>
<path id="Vector_57" d="M54.623 23.449C54.2466 23.6736 53.8702 23.8983 53.4939 24.1229C53.7197 23.7485 53.8702 23.2992 54.0961 22.9248C53.795 22.6253 53.4939 22.3258 53.268 22.0263C53.6444 22.0263 54.0961 22.0263 54.4724 22.1011C54.6983 21.7267 54.9241 21.2775 55.0746 20.9031C55.1499 21.3524 55.2252 21.8016 55.2252 22.2509C55.6015 22.3258 56.0532 22.4755 56.4296 22.5504C56.0532 22.7002 55.6768 22.8499 55.3005 23.0746C55.3757 23.5239 55.451 23.8983 55.451 24.3475C55.2252 24.1229 54.9241 23.7485 54.623 23.449Z" fill="white"/>
<path id="Vector_58" d="M57.3329 22.5506C57.4081 22.0264 57.5587 21.5023 57.634 21.053C61.0213 22.3259 64.3334 24.2728 67.7207 23.2994C67.6455 23.8984 67.4949 24.4226 67.4196 25.0216C66.968 25.0965 66.5163 25.1713 65.9894 25.1713C63.129 25.2462 60.2686 23.5989 57.3329 22.5506Z" fill="#156C52"/>
<path id="Vector_59" d="M61.9999 25.995C60.3438 25.396 58.6878 24.6472 57.0318 24.0481C57.107 23.524 57.2576 22.9998 57.3329 22.5505C60.1933 23.5988 63.129 25.2462 65.9894 25.1713C66.4411 25.1713 66.8927 25.0964 67.4197 25.0216C67.3444 25.6206 67.1938 26.1448 67.1186 26.7438C65.4625 26.9684 63.7312 26.594 61.9999 25.995Z" fill="#FFCE15"/>
<path id="Vector_60" d="M62.0752 27.6422C60.2686 27.0432 58.5373 26.1447 56.7307 25.5456C56.8059 25.0215 56.9565 24.4973 57.0318 23.9731C58.6878 24.5722 60.3438 25.321 61.9999 25.92C63.7312 26.519 65.3872 26.8934 67.1186 26.5939C67.0433 27.1181 66.8927 27.7171 66.8175 28.2413C65.2367 28.5408 63.6559 28.2413 62.0752 27.6422Z" fill="#156C52"/>
<path id="Vector_61" d="M65.0862 30.0383C65.312 30.0383 65.4625 30.0383 65.6131 30.0383C65.9142 30.0383 66.2153 30.0383 66.5164 30.0383C66.4411 30.5625 66.2905 31.1615 66.2153 31.6857C61.3224 31.9852 56.3543 27.118 51.4614 28.4659L51.7625 26.7436C56.2037 25.7702 60.6449 29.5891 65.0862 30.0383Z" fill="#156C52"/>
<path id="Vector_62" d="M65.6131 30.0383C65.4625 30.0383 65.312 30.0383 65.1614 30.0383H65.0861C60.6449 29.5891 56.2037 25.7702 51.7625 26.7436L52.0636 25.0214C52.1389 25.0214 52.2895 25.0214 52.3647 24.9465C52.44 24.9465 52.5153 24.9465 52.5153 24.9465C52.5906 24.9465 52.6658 24.9465 52.7411 24.9465C52.8164 24.9465 52.8917 24.9465 53.0422 24.9465C53.1175 24.9465 53.1928 24.9465 53.268 24.9465C53.3433 24.9465 53.4186 24.9465 53.4939 24.9465C53.5691 24.9465 53.5691 24.9465 53.6444 24.9465C53.795 24.9465 53.8702 24.9465 54.0208 24.9465C54.0961 24.9465 54.0961 24.9465 54.1713 24.9465C54.4724 24.9465 54.6983 25.0214 54.9993 25.0963H55.0746C55.6768 25.246 56.279 25.3958 56.8059 25.5456C58.6125 26.1446 60.3438 27.0432 62.1504 27.6422C63.7312 28.1664 65.312 28.5407 66.8927 28.3161C66.8174 28.9151 66.6669 29.4393 66.5916 29.9635C66.2153 30.0383 65.9142 30.0383 65.6131 30.0383Z" fill="#FFCE15"/>
</g>
<g id="Group_13">
<path id="Vector_63" d="M46.6439 66.5045C46.4933 66.205 46.5686 66.205 46.5686 65.9055C46.5686 65.9055 46.4933 65.4562 46.5686 65.3065C46.7191 65.007 46.418 64.5577 46.1922 64.4079C46.1922 64.4079 45.3642 63.8838 44.9878 63.6591C44.5362 63.4345 44.2351 63.135 44.2351 62.8354C44.2351 62.5359 44.5362 62.1615 44.5362 61.7122C44.5362 61.263 44.3103 61.1132 44.3856 60.8886C44.3856 60.6639 44.762 60.2147 44.9878 59.99C45.2136 59.7654 45.2889 58.8668 44.762 57.9683C44.5362 57.6688 43.407 56.3958 43.407 56.3958C43.407 56.3958 42.4285 55.1228 42.2027 54.6736C41.9768 54.2243 41.9016 53.9248 41.9016 53.6253C41.9768 53.176 42.1274 52.8765 42.4285 52.9513C42.6543 52.9513 42.8801 53.176 42.9554 53.4755C43.0307 53.6253 43.106 53.7001 42.8801 54.0745C42.6543 54.4489 43.0307 55.048 43.0307 55.048C43.0307 55.048 43.0307 54.8233 43.2565 54.7485C43.2565 54.7485 43.1812 55.048 43.6329 55.647C43.6329 55.647 43.4823 55.1977 43.7081 55.1228C43.8587 55.048 44.0845 55.8716 44.4609 56.3209C44.8373 56.7702 45.7406 56.6953 45.7406 56.6953C45.7406 56.6953 45.1384 56.3958 44.9125 54.5987C44.762 53.4755 44.0845 53.5504 43.6329 53.5504C43.4071 53.4755 43.2565 53.1011 43.1059 52.8765C42.9554 52.5769 42.6543 52.2774 42.3532 52.2774C42.0521 52.2774 41.8263 52.3523 41.6005 52.7267C41.3746 53.1011 41.3746 53.3257 41.3746 53.9248C41.3746 54.5238 41.6005 55.048 41.8263 55.4972C42.2027 56.0963 43.0307 57.0697 43.0307 57.0697C43.0307 57.0697 44.0092 58.1929 44.2351 58.6422C44.4609 59.0915 44.3856 59.4659 44.2351 59.6156C44.0092 59.7654 43.3318 59.6905 43.1812 59.6156C43.0307 59.4659 42.5038 58.7919 42.5038 58.7919C42.5038 58.7919 41.1488 57.2944 40.9983 56.92C40.8477 56.5456 40.8477 55.4972 40.9983 54.7485C41.2241 53.176 40.923 52.1277 40.923 52.1277C41.2241 52.2025 41.2994 52.7267 41.2994 52.7267C41.6005 52.2025 41.2994 51.7533 41.2994 51.7533C41.751 52.1277 42.0521 51.903 42.0521 51.903C41.3746 51.2291 41.6005 49.5069 41.6005 49.5069C41.6005 49.5069 41.9016 49.8813 42.0521 50.8547C42.7296 48.0093 41.2994 47.6349 41.2994 47.6349C41.9016 47.7098 42.5038 48.3837 42.5038 48.3837C41.9768 45.9875 40.7724 45.8378 39.6433 46.0624C40.0197 45.6132 41.2241 45.6132 41.2241 45.6132C41.2241 45.6132 39.7939 45.1639 38.9658 45.3885C39.1164 45.0141 39.7186 44.7146 39.7186 44.7146C38.74 44.8644 38.3637 45.0141 37.8367 45.5383C37.912 45.089 38.0626 44.9392 38.0626 44.9392C38.0626 44.9392 37.2345 45.1639 36.9334 45.688C36.6323 46.2122 36.8582 46.5866 37.2345 46.7363C37.2345 46.7363 37.0087 46.6615 36.9334 46.6615C36.6323 46.6615 36.1807 46.8861 36.0301 47.0359C35.8796 47.1856 35.2021 47.4851 34.9763 47.56C34.8257 47.7098 34.901 48.0842 34.9763 48.1591C35.0516 48.2339 35.0516 48.2339 35.0516 48.3837C35.0516 48.4586 35.1268 49.0576 35.4279 49.1325L35.729 49.2822C35.729 49.2822 35.5785 48.9827 36.1054 48.9079C36.6323 48.833 37.3098 49.2074 36.5571 49.6566C36.3312 49.8064 35.9549 49.9562 35.729 49.7315C35.6538 49.6566 35.6538 49.5818 35.6538 49.5818C35.6538 49.5818 35.5032 49.5818 35.4279 49.8064C35.3527 50.031 35.3527 50.4803 35.6538 50.5552C35.9549 50.6301 36.7076 50.4054 37.0087 50.2557C37.3851 50.1059 37.7615 49.8064 37.7615 49.3571C37.7615 49.3571 38.1378 49.7315 37.3851 50.3306C36.4065 50.8547 34.7505 50.8547 34.7505 52.2774C34.7505 52.2774 34.9763 51.6784 35.6538 51.4538C35.6538 51.4538 34.6752 52.0528 34.8257 53.0262C34.9763 52.5769 35.5785 52.0528 36.1054 51.9779C36.1054 51.9779 34.8257 52.8016 34.9763 55.1977V55.2726C34.6752 54.5987 34.8257 53.6253 34.8257 53.6253C34.4494 53.6253 34.2236 53.176 34.073 52.8765C33.8472 51.903 33.7719 51.8282 33.3955 51.6035C33.0192 51.4538 32.7933 51.3789 32.5675 51.3789C32.3417 51.3789 32.1911 51.6035 32.1911 51.6784C32.1911 51.7533 32.4922 51.6035 32.7181 51.8282C32.7181 51.8282 32.3417 51.7533 32.1159 51.903C32.0406 51.9779 32.1159 52.3523 32.1159 52.3523C32.1911 52.4272 32.4922 52.2774 32.6428 52.3523C32.6428 52.3523 32.1911 52.4272 32.1159 52.5021C32.0406 52.6518 32.1159 52.8765 32.1159 52.9513C32.2664 53.1011 32.8686 52.8765 32.9439 53.8499C32.9439 53.9248 33.0192 54.0745 33.0192 54.1494C33.245 54.4489 33.5461 54.3741 33.5461 54.3741C33.6214 54.5238 34.073 55.1228 34.2988 55.4972C33.9977 55.5721 33.3955 55.7219 33.1697 55.7219C32.9439 55.7219 32.5675 55.4224 32.5675 55.4224L31.7395 54.9731C31.7395 54.9731 31.7395 55.3475 31.5137 55.2726C31.3631 55.2726 31.3631 54.8233 31.3631 54.8233C31.3631 54.8233 30.9115 54.9731 30.9115 55.2726C30.6857 55.2726 30.6104 55.7968 30.7609 56.0214C30.234 56.6953 31.4384 56.92 31.4384 56.92C31.4384 56.92 32.2664 57.2195 32.4922 57.2944C32.7181 57.3692 33.1697 57.5939 33.4708 57.5939C33.7719 57.5939 34.2988 57.4441 34.2988 57.4441C34.2988 57.4441 34.8257 57.3692 35.1268 57.2944C35.1268 57.2944 35.8043 57.2944 36.6323 55.647C36.6323 55.647 36.4818 57.0697 35.4279 57.519C35.4279 57.519 35.729 57.8934 36.0301 58.118C36.256 58.4175 36.7829 58.8668 37.0087 59.0166C37.3851 59.3161 38.3637 59.6905 38.5895 59.99C38.8153 60.2895 38.8906 60.8137 38.8906 60.8137C38.8906 60.8137 38.8906 60.6639 39.0411 60.6639C39.1917 60.6639 39.3422 61.1881 39.3422 61.1881C39.3422 61.1881 39.4928 60.6639 39.568 60.8137C39.7186 60.9635 39.8691 61.263 39.8691 61.5625C39.8691 61.862 39.7186 62.0866 39.7186 62.0866L38.8153 63.135C38.2131 63.734 38.0626 63.8089 37.912 64.1084C37.7615 64.333 37.6109 64.4828 37.5356 64.7074C37.4604 65.0069 37.4604 65.3065 37.6862 65.9804C37.8367 66.5045 37.6109 67.478 37.2345 67.478C36.256 67.478 36.256 67.2533 35.9549 67.5529C35.6538 67.8524 35.3527 68.3765 35.3527 68.4514C35.4279 68.676 35.6538 68.7509 35.729 68.7509C35.8043 68.7509 35.729 68.2268 36.0301 68.077C36.0301 68.077 35.8043 68.4514 35.8796 68.7509C35.9549 69.0504 36.256 68.9756 36.256 68.9756C36.256 68.9007 36.256 68.5263 36.4065 68.4514C36.4065 68.4514 36.4065 68.9007 36.4065 68.9756C36.4818 69.0504 36.6323 69.2002 36.8582 69.0504C37.084 68.9007 37.2345 68.4514 38.0626 68.6012C38.5142 68.676 38.5895 68.6012 38.5895 68.3765C38.5895 68.077 38.8153 67.6277 38.9658 67.1785C39.0411 67.0287 39.1917 66.9538 39.2669 66.9538C39.3422 67.0287 39.3422 67.1036 39.3422 67.1036C39.3422 67.1036 39.4175 66.8789 39.3422 66.7292C39.3422 66.7292 39.4175 66.7292 39.4928 66.8041C39.4928 66.8041 39.4928 66.5794 39.3422 66.5045C39.2669 66.3548 39.1164 65.9804 39.1917 65.7557C39.3422 65.3813 40.095 64.7074 41.2994 64.7074C40.7724 64.1833 40.6972 63.8838 40.6219 63.2847C40.5466 62.6857 40.6972 62.0118 40.6972 62.0118C40.6972 62.0118 40.7724 63.2098 40.9983 63.5842C41.9016 65.606 44.6114 66.1301 44.6114 66.1301C44.6114 66.1301 44.6867 66.5794 44.6114 66.9538C44.3856 67.7026 44.3103 68.0021 44.3103 68.0021C44.3103 68.0021 43.4823 67.9272 43.0307 67.7775C42.6543 67.7026 42.2779 68.7509 42.2779 68.8258C42.2779 68.9007 42.5038 69.1253 42.579 69.1253C42.6543 69.1253 42.6543 68.676 42.9554 68.5263C42.9554 68.5263 42.6543 68.9007 42.7296 69.1253C42.8049 69.2751 42.9554 69.2751 43.0307 69.2751C43.1059 69.2751 43.0307 68.9007 43.1812 68.7509C43.1812 68.7509 43.106 69.2002 43.2565 69.2751C43.4823 69.4248 43.4823 69.35 43.6329 69.2751C43.7834 69.2002 44.4609 69.1253 44.762 69.1253C45.0631 69.1253 45.1384 68.4514 45.5147 67.8524C45.8911 67.2533 45.9664 66.8041 46.1169 66.8041C46.2675 66.8041 46.3428 67.1785 46.1169 67.3282C46.418 67.1036 46.7944 66.8041 46.6439 66.5045ZM36.9334 47.7098C36.7829 47.8595 36.1054 47.7847 36.1807 47.4851C36.256 47.1856 36.7076 47.1107 36.9334 47.2605C37.1593 47.56 36.9334 47.7098 36.9334 47.7098Z" fill="#D21B33"/>
<g id="Group_14">
<path id="Vector_64" d="M32.5675 53.0261L32.1159 54.973L32.1911 55.0479L32.6428 53.0261H32.5675Z" fill="black"/>
<path id="Vector_65" d="M33.4708 54.2242C33.3955 54.2242 33.3203 54.1493 33.245 54.0745L33.3203 55.5721H33.3955C33.4708 55.5721 33.4708 55.5721 33.5461 55.5721L33.4708 54.2242Z" fill="black"/>
<path id="Vector_66" d="M31.589 54.5986C31.589 54.6735 31.589 54.6735 31.589 54.7484C31.589 54.8232 31.6642 55.1976 31.7395 55.1976C31.9653 55.2725 31.9653 54.973 31.9653 54.8981C31.9653 54.7484 31.9653 54.5986 31.9653 54.4488C31.7395 50.5551 33.0192 47.485 33.0192 47.485L33.1697 50.63L33.0192 51.4537H33.0944L33.1697 51.0793V51.4537C33.245 51.4537 33.3203 51.5285 33.3955 51.5285L33.245 50.3305L34.1483 46.1372L34.5247 45.7628L34.3741 44.8643L33.8472 45.6131L34.073 46.0623L33.245 49.8063L33.0944 46.886C33.0944 46.886 32.9439 46.5865 32.9439 46.5116C32.8686 46.4367 32.6428 46.3618 32.5675 46.4367C32.4922 46.5116 32.5675 46.7362 32.6428 46.8111C32.7181 46.9609 33.0192 47.1106 33.0192 47.1106C33.0192 47.1106 31.2879 49.9561 31.589 54.5986Z" fill="black"/>
<path id="Vector_67" d="M33.3956 57.3691L33.5461 60.9633C33.5461 60.9633 32.7934 59.4658 32.2664 56.9947C32.1159 56.9198 31.9653 56.9199 31.8901 56.845C32.417 59.8402 33.5461 61.188 33.5461 61.188C33.5461 61.188 33.3956 61.4126 33.245 61.6373C33.0945 61.8619 33.0945 61.9368 33.1697 62.0117C33.245 62.0865 33.3956 62.0117 33.5461 61.787C33.6967 61.5624 33.6966 61.3377 33.6966 61.3377L33.5461 57.444C33.4708 57.444 33.4708 57.444 33.3956 57.3691Z" fill="black"/>
</g>
</g>
<g id="Group_15">
<path id="Vector_68" d="M48.6763 67.1036C48.4505 66.9538 48.5258 66.5794 48.6763 66.5794C48.8269 66.5794 48.9021 67.0287 49.2785 67.6278C49.6549 68.2268 49.7302 68.9007 50.0312 68.9007C50.3323 68.9007 51.0098 68.9756 51.1604 69.0505C51.3109 69.1254 51.3109 69.2002 51.5367 69.0505C51.7626 68.9007 51.612 68.5263 51.612 68.5263C51.7626 68.6761 51.6873 69.0505 51.7626 69.0505C51.8378 69.0505 51.9884 69.0505 52.0637 68.9007C52.1389 68.6761 51.8378 68.3017 51.8378 68.3017C52.1389 68.4514 52.1389 68.9007 52.2142 68.9007C52.2895 68.9007 52.5153 68.751 52.5153 68.6012C52.5153 68.5263 52.1389 67.478 51.7626 67.5529C51.3109 67.7026 50.4829 67.7775 50.4829 67.7775C50.4829 67.7775 50.3323 67.478 50.1818 66.7292C50.1065 66.3548 50.1818 65.9055 50.1818 65.9055C50.1818 65.9055 52.8917 65.3814 53.795 63.3596C53.9455 62.9852 54.0961 61.7872 54.0961 61.7872C54.0961 61.7872 54.2466 62.536 54.1714 63.0601C54.0961 63.6591 54.0208 63.9587 53.4939 64.4828C54.6983 64.4828 55.451 65.2316 55.6016 65.5311C55.6768 65.6809 55.6016 66.1302 55.451 66.2799C55.3005 66.3548 55.3005 66.5794 55.3005 66.5794C55.3757 66.5046 55.451 66.5046 55.451 66.5046C55.3757 66.6543 55.451 66.879 55.451 66.879C55.451 66.879 55.451 66.7292 55.5263 66.7292C55.6016 66.6543 55.6768 66.7292 55.8274 66.9538C56.0532 67.478 56.2038 67.8524 56.2038 68.1519C56.2038 68.3766 56.3543 68.4514 56.7307 68.3766C57.5587 68.3017 57.7093 68.6761 57.9351 68.8258C58.1609 68.9756 58.3115 68.9007 58.3867 68.751C58.462 68.6012 58.3867 68.2268 58.3867 68.2268C58.5373 68.3017 58.462 68.751 58.5373 68.751C58.5373 68.8258 58.8384 68.8258 58.9137 68.5263C58.9889 68.2268 58.7631 67.8524 58.7631 67.8524C59.0642 68.0022 58.9889 68.5263 59.0642 68.5263C59.1395 68.5263 59.3653 68.4514 59.4406 68.2268C59.4406 68.077 59.1395 67.6278 58.8384 67.3282C58.5373 67.0287 58.5373 67.2534 57.5587 67.2534C57.1823 67.2534 56.9565 66.3548 57.1071 65.7558C57.2576 65.0819 57.3329 64.7823 57.2576 64.4828C57.1823 64.1833 57.0318 64.0335 56.8812 63.8838C56.7307 63.6591 56.5801 63.5843 55.9779 62.9103L55.0746 61.862C55.0746 61.862 54.9241 61.6374 54.9241 61.3379C54.9241 61.0384 55.0746 60.7388 55.2252 60.5891C55.3757 60.4393 55.451 60.9635 55.451 60.9635C55.451 60.9635 55.6016 60.4393 55.7521 60.4393C55.9027 60.4393 55.9027 60.5891 55.9027 60.5891C55.9027 60.5891 56.0532 60.1398 56.2038 59.7654C56.3543 59.4659 57.4082 59.0915 57.7845 58.792C58.0104 58.6422 58.5373 58.1181 58.7631 57.8934C58.9889 57.5939 59.3653 57.2944 59.3653 57.2944C58.2362 56.8451 58.1609 55.4224 58.1609 55.4224C58.9889 57.0697 59.6664 57.0698 59.6664 57.0698C60.0428 57.0698 60.4944 57.2195 60.4944 57.2195C60.4944 57.2195 61.0213 57.3693 61.3224 57.3693C61.6235 57.3693 62.0752 57.1446 62.301 57.0698C62.5268 56.9949 63.3549 56.6954 63.3549 56.6954C63.3549 56.6954 64.5593 56.4707 64.0323 55.7968C64.1829 55.5722 64.1076 55.048 63.8818 55.048C63.8818 54.7485 63.4301 54.5987 63.4301 54.5987C63.4301 54.5987 63.4301 55.048 63.2796 55.048C63.0538 55.1229 63.0538 54.7485 63.0538 54.7485L62.2257 55.1978C62.2257 55.1978 61.8494 55.4973 61.6235 55.4973C61.3977 55.4973 60.7955 55.3475 60.4944 55.2726C60.7202 54.8982 61.2472 54.2243 61.2472 54.1494C61.2472 54.0746 61.5483 54.1494 61.7741 53.9248C61.8494 53.8499 61.8494 53.775 61.8494 53.6253C61.9246 52.7267 62.5268 52.9514 62.6774 52.7267C62.7527 52.6519 62.7527 52.4272 62.6774 52.2775C62.6021 52.2026 62.1505 52.1277 62.1505 52.1277C62.3763 52.0528 62.6774 52.1277 62.6774 52.1277C62.6774 52.1277 62.7527 51.8282 62.6774 51.6784C62.3763 51.6035 62.0752 51.6035 62.0752 51.6035C62.301 51.3789 62.6021 51.5287 62.6774 51.4538C62.6774 51.3789 62.5268 51.1543 62.301 51.1543C62.0752 51.1543 61.8494 51.1543 61.473 51.3789C61.0966 51.5287 61.0966 51.6784 60.7955 52.6519C60.645 53.0263 60.4191 53.4007 60.0428 53.4007C60.0428 53.4007 60.1933 54.3741 59.8922 55.048V54.9731C60.118 52.6519 58.7631 51.7533 58.7631 51.7533C59.3653 51.8282 59.8922 52.2775 60.0428 52.8016C60.118 51.7533 59.2148 51.2291 59.2148 51.2291C59.9675 51.4538 60.118 52.0528 60.118 52.0528C60.118 50.6301 58.462 50.6301 57.7093 50.106C56.9565 49.5818 57.3329 49.1325 57.3329 49.1325C57.3329 49.5818 57.7845 49.8064 58.0856 50.0311C58.3867 50.1808 59.1395 50.4055 59.4406 50.3306C59.7417 50.2557 59.7417 49.8064 59.6664 49.5818C59.5911 49.3572 59.4406 49.3572 59.4406 49.3572C59.4406 49.3572 59.4406 49.432 59.3653 49.5069C59.1395 49.8064 58.7631 49.5818 58.5373 49.432C57.8598 48.9828 58.5373 48.6084 58.9889 48.6832C59.5158 48.7581 59.3653 49.0576 59.3653 49.0576L59.6664 48.9079C59.9675 48.7581 60.0428 48.234 60.0428 48.1591C60.0428 48.0842 60.0428 48.0842 60.118 47.9344C60.1933 47.8596 60.2686 47.4852 60.118 47.3354C59.9675 47.1857 59.29 46.961 59.0642 46.8113C58.9137 46.6615 58.462 46.4369 58.1609 46.4369C58.0856 46.4369 57.8598 46.5117 57.8598 46.5117C58.1609 46.362 58.3867 45.9876 58.1609 45.4634C57.8598 44.9393 57.0318 44.7146 57.0318 44.7146C57.0318 44.7146 57.1823 44.9393 57.2576 45.3137C56.7307 44.8644 56.3543 44.6397 55.3757 44.49C55.3757 44.49 55.9779 44.7895 56.1285 45.1639C55.2252 44.9393 53.8703 45.3885 53.8703 45.3885C53.8703 45.3885 55.0746 45.3137 55.451 45.8378C54.3972 45.5383 53.1175 45.6881 52.5906 48.1591C52.5906 48.1591 53.1928 47.4852 53.795 47.4103C53.795 47.4103 52.2895 47.7847 53.0422 50.6301C53.1928 49.5818 53.4939 49.2823 53.4939 49.2823C53.4939 49.2823 53.7197 51.0045 53.0422 51.6784C53.0422 51.6784 53.3433 51.9031 53.795 51.5287C53.795 51.5287 53.4939 51.9779 53.795 52.5021C53.795 52.5021 53.8703 51.9779 54.1714 51.9031C54.1714 51.9031 53.8703 52.9514 54.0961 54.5238C54.2466 55.2726 54.2466 56.2461 54.0961 56.6954C53.9455 57.0698 52.5906 58.5673 52.5906 58.5673C52.5906 58.5673 52.1389 59.2413 51.9131 59.391C51.7626 59.5408 51.0098 59.6157 50.8593 59.391C50.6334 59.2413 50.5582 58.8669 50.8593 58.4176C51.0851 57.9683 52.0637 56.8451 52.0637 56.8451C52.0637 56.8451 52.8917 55.8717 53.2681 55.2726C53.4939 54.8982 53.7197 54.2992 53.7197 53.7002C53.7197 53.1011 53.7197 52.8765 53.4939 52.5021C53.2681 52.1277 53.0422 52.0528 52.7411 52.0528C52.44 52.0528 52.1389 52.3523 51.9884 52.6519C51.8378 52.9514 51.6873 53.3258 51.4615 53.3258C51.0098 53.3258 50.3323 53.2509 50.1818 54.3741C49.956 56.1712 49.3538 56.4707 49.3538 56.4707C49.3538 56.4707 50.2571 56.5456 50.6334 56.0963C51.0098 55.647 51.2356 54.8234 51.3862 54.8982C51.612 54.9731 51.4615 55.4224 51.4615 55.4224C51.9131 54.8234 51.8378 54.5238 51.8378 54.5238C52.0637 54.5987 52.0637 54.8234 52.0637 54.8234C52.0637 54.8234 52.44 54.2243 52.2142 53.8499C52.0637 53.4755 52.1389 53.4007 52.1389 53.2509C52.2142 52.9514 52.44 52.8016 52.6659 52.7267C52.967 52.7267 53.1175 52.9514 53.1928 53.4007C53.2681 53.7002 53.1175 54.0746 52.8917 54.449C52.6659 54.8982 51.6873 56.1712 51.6873 56.1712C51.6873 56.1712 50.5582 57.4441 50.3323 57.7437C49.7301 58.6422 49.8807 59.5408 50.1065 59.7654C50.3323 59.9901 50.6334 60.4393 50.7087 60.664C50.7087 60.8886 50.5582 61.0384 50.5582 61.4876C50.5582 61.9369 50.8593 62.3113 50.8593 62.6108C50.8593 62.9103 50.5582 63.135 50.1065 63.4345C49.6549 63.734 48.9021 64.1833 48.9021 64.1833C48.6763 64.3331 48.3752 64.7823 48.5258 65.0819C48.601 65.2316 48.5258 65.6809 48.5258 65.6809C48.5258 65.9804 48.601 65.9804 48.4505 66.2799C48.2999 66.8041 48.6763 67.1036 48.6763 67.1036ZM58.1609 47.3354C58.3867 47.1857 58.8384 47.1857 58.9137 47.56C58.9889 47.8596 58.3115 47.9344 58.1609 47.7847C58.1609 47.7098 57.9351 47.5601 58.1609 47.3354Z" fill="#D21B33"/>
<g id="Group_16">
<path id="Vector_69" d="M62.5268 53.0264L62.9784 54.9732L62.9032 55.0481L62.4515 53.0264H62.5268Z" fill="black"/>
<path id="Vector_70" d="M61.6235 54.2245C61.6988 54.2245 61.7741 54.1496 61.8493 54.0747L61.7741 55.5723H61.6988C61.6235 55.5723 61.6235 55.5723 61.5482 55.5723L61.6235 54.2245Z" fill="black"/>
<path id="Vector_71" d="M63.5053 54.5988C63.5053 54.6736 63.5053 54.6736 63.5053 54.7485C63.5053 54.8234 63.4301 55.1978 63.3548 55.1978C63.129 55.2727 63.129 54.9732 63.129 54.8983C63.129 54.7485 63.129 54.5988 63.129 54.449C63.3548 50.5553 62.0751 47.4852 62.0751 47.4852L61.9246 50.6301L62.0751 51.4538H61.9999L61.9246 51.0794V51.4538C61.8493 51.4538 61.774 51.5287 61.6988 51.5287L61.774 50.2557L60.8707 46.0625L60.4944 45.6881L60.6449 44.7896L61.1718 45.5383L60.946 45.9876L61.774 49.8065L61.9246 46.8862C61.9246 46.8862 62.0751 46.5867 62.0751 46.5118C62.1504 46.4369 62.3762 46.362 62.4515 46.4369C62.5268 46.5118 62.4515 46.7364 62.3762 46.8113C62.301 46.9611 61.9999 47.1108 61.9999 47.1108C61.9999 47.1108 63.8064 49.9562 63.5053 54.5988Z" fill="black"/>
<path id="Vector_72" d="M61.6988 57.3694L61.5482 60.9636C61.5482 60.9636 62.301 59.466 62.8279 56.995C62.9784 56.9201 63.129 56.9201 63.2043 56.8452C62.6773 59.8404 61.5482 61.1882 61.5482 61.1882C61.5482 61.1882 61.6988 61.4129 61.8493 61.6375C61.9999 61.8621 61.9999 61.937 61.9246 62.0119C61.8493 62.0868 61.6988 62.0119 61.5482 61.7873C61.3977 61.5626 61.3977 61.338 61.3977 61.338L61.5482 57.4443C61.6235 57.4443 61.6235 57.4442 61.6988 57.3694Z" fill="black"/>
</g>
</g>
</g>
</g>
</g>
</g>
</g>
</svg>
