<svg width="798" height="422" viewBox="0 0 798 422" fill="none" xmlns="http://www.w3.org/2000/svg">
<rect width="798" height="420" fill="white"/>
<path d="M427.978 243.824H367.909V247.843H427.978V243.824Z" fill="#156C52"/>
<path d="M289.046 221.111C289.046 219.888 289.046 218.84 289.046 218.49C289.046 217.966 288.871 217.617 288.519 217.617H287.817C287.817 217.617 287.641 217.617 287.641 217.442V217.093C287.641 217.093 287.641 216.918 287.817 216.918C287.992 216.918 288.519 216.918 290.276 216.918C291.154 216.918 292.559 216.918 293.262 216.918C294.491 216.918 295.369 217.442 296.072 217.966C296.599 218.49 296.95 219.189 296.95 219.714C296.95 221.81 295.369 222.684 293.964 222.684V222.858C294.491 223.033 294.667 223.382 295.018 223.732C295.194 223.907 296.072 225.479 296.248 225.654C296.423 225.829 297.126 227.052 297.477 227.401C297.653 227.576 298.355 227.75 298.706 227.75C298.882 227.75 298.882 227.75 298.882 227.925V228.275C298.882 228.45 298.882 228.45 298.706 228.45C298.531 228.45 298.18 228.45 296.95 228.45C296.423 228.45 295.896 228.45 295.369 228.45C294.842 228.1 293.964 226.178 293.613 225.654C293.086 224.606 292.383 223.382 291.681 223.382H291.154V224.256C291.154 225.13 291.154 227.052 291.154 227.226C291.154 227.576 291.33 227.925 291.505 227.925H292.208C292.383 227.925 292.383 227.925 292.383 228.1V228.45C292.383 228.624 292.383 228.624 292.208 228.624C292.208 228.624 291.856 228.624 290.1 228.624C288.344 228.624 287.992 228.624 287.817 228.624C287.641 228.624 287.641 228.624 287.641 228.45V228.1V227.925H288.168C288.519 227.925 288.871 227.75 288.871 227.401C288.871 225.829 288.871 224.256 288.871 222.858V221.111H289.046ZM291.154 222.858C291.505 222.858 291.681 222.858 291.856 222.858C293.964 222.858 294.491 220.936 294.491 220.063C294.491 219.364 294.315 218.665 293.964 218.316C293.437 217.792 292.735 217.617 292.208 217.617C291.856 217.617 291.681 217.617 291.681 217.792C291.505 217.792 291.505 217.966 291.505 218.141L291.154 222.858Z" fill="black"/>
<path d="M303.449 222.333C304.151 222.333 304.854 222.333 305.03 222.159C305.381 222.159 305.557 221.984 305.732 221.635C305.908 221.46 306.083 220.936 306.083 220.586C306.083 220.412 306.083 220.412 306.259 220.412H306.61C306.61 220.412 306.786 220.412 306.786 220.586C306.786 220.936 306.786 221.635 306.786 222.159C306.786 222.858 306.786 223.556 306.962 223.906C306.962 224.081 306.962 224.081 306.786 224.081H306.435C306.435 224.081 306.259 224.081 306.259 223.906C306.259 223.731 306.083 223.207 305.908 223.032C305.732 222.683 305.381 222.508 305.03 222.508C304.678 222.508 304.151 222.333 303.449 222.333V223.207C303.449 224.081 303.449 225.653 303.449 225.828C303.449 226.701 303.624 226.876 303.8 227.051C303.976 227.226 304.327 227.226 305.205 227.226C305.557 227.226 306.083 227.226 306.435 227.226C306.786 227.226 307.313 227.051 307.664 226.701C308.015 226.352 308.894 225.304 309.245 224.954H309.421L309.772 225.129C309.772 225.129 309.772 225.129 309.772 225.304L309.069 227.75C309.069 227.924 308.894 227.924 308.718 227.924C308.718 227.924 308.367 227.924 307.313 227.924C306.259 227.924 304.503 227.924 301.868 227.924C301.341 227.924 300.814 227.924 300.463 227.924C300.112 227.924 299.936 227.924 299.76 227.924C299.585 227.924 299.585 227.924 299.585 227.75V227.4C299.585 227.226 299.585 227.226 299.76 227.226H300.287C300.99 227.226 301.165 227.051 301.165 226.527V221.285C301.165 219.887 301.165 217.966 301.165 217.791C301.165 217.267 300.99 217.092 300.463 217.092H299.76C299.76 217.092 299.76 217.092 299.76 216.917V216.568C299.76 216.568 299.76 216.393 299.936 216.393C300.287 216.393 300.814 216.393 302.219 216.393H307.84C308.015 216.393 308.367 216.393 308.542 216.393H308.718C308.718 216.568 309.245 218.839 309.421 219.014V219.188L309.245 219.363H309.069C309.069 219.188 307.489 217.791 307.137 217.616C306.786 217.441 306.435 217.267 305.908 217.267H303.8L303.449 222.333ZM304.151 215.869L306.259 213.598C306.435 213.423 306.61 213.248 306.962 213.248C307.489 213.248 307.664 213.598 307.664 214.122C307.664 214.471 307.313 214.646 307.137 214.82L304.503 216.044C304.503 216.044 304.503 216.044 304.327 216.044L304.151 215.869Z" fill="black"/>
<path d="M314.514 224.255C314.514 224.954 314.514 227.225 314.514 227.4C314.514 227.75 314.69 227.924 315.041 227.924H315.919C316.095 227.924 316.095 227.924 316.095 228.099V228.449C316.095 228.449 316.095 228.623 315.919 228.623C315.744 228.623 315.217 228.623 313.285 228.623C311.88 228.623 311.177 228.623 311.001 228.623C310.826 228.623 310.826 228.623 310.826 228.449V228.099C310.826 228.099 310.826 227.924 311.001 227.924H311.353C311.88 227.924 312.055 227.924 312.055 227.4C312.055 227.225 312.055 224.779 312.055 222.857V221.11C312.055 220.062 312.055 218.315 312.055 218.14C312.055 217.791 311.88 217.791 311.528 217.791H310.826C310.826 217.791 310.65 217.791 310.65 217.616V217.267C310.65 217.267 310.65 217.092 310.826 217.092C311.001 217.092 311.528 217.092 313.285 217.092C313.636 217.092 314.514 217.092 315.041 217.092C316.973 217.092 318.027 217.267 318.905 217.965C319.608 218.49 320.135 219.363 320.135 220.411C320.135 222.333 318.554 223.557 315.919 223.557C315.392 223.557 315.041 223.557 314.69 223.557V224.255H314.514ZM314.514 223.032C314.866 223.032 315.217 223.207 315.568 223.207C316.095 223.207 316.798 222.683 317.149 222.159C317.5 221.635 317.5 221.11 317.5 220.411C317.5 218.14 315.919 217.791 315.217 217.791C314.866 217.791 314.69 217.791 314.514 217.791V223.032Z" fill="black"/>
<path d="M322.242 218.49C322.242 217.966 322.067 217.617 321.715 217.617H321.013C320.837 217.617 320.837 217.617 320.837 217.442V217.093C320.837 216.918 320.837 216.918 321.013 216.918C321.189 216.918 321.891 216.918 323.647 216.918C325.053 216.918 325.755 216.918 325.931 216.918C326.106 216.918 326.106 216.918 326.106 217.093V217.442C326.106 217.442 326.106 217.617 325.931 217.617H325.404C324.877 217.617 324.526 217.966 324.526 218.316C324.526 218.49 324.526 219.539 324.526 220.412V221.461C324.526 222.334 324.526 224.256 324.526 224.78C324.526 225.479 324.701 226.178 325.053 226.702C325.579 227.401 326.282 227.576 326.985 227.576C327.511 227.576 328.39 227.226 328.917 226.877C329.619 226.353 329.971 225.479 329.971 224.256V221.81C329.971 220.412 329.795 218.665 329.795 218.316C329.795 217.966 329.444 217.617 329.268 217.617H328.741C328.565 217.617 328.565 217.617 328.565 217.442V217.093C328.565 217.093 328.565 216.918 328.741 216.918C328.917 216.918 329.619 216.918 330.673 216.918C331.551 216.918 332.078 216.918 332.254 216.918C332.429 216.918 332.429 216.918 332.429 217.093V217.442C332.429 217.617 332.429 217.617 332.254 217.617H331.727C331.2 217.617 331.024 218.141 331.024 218.141C331.024 218.316 331.024 220.587 331.024 220.762C331.024 220.936 331.024 223.732 331.024 224.431C330.849 225.654 330.497 226.702 329.619 227.401C328.917 228.1 327.863 228.45 326.809 228.45C326.106 228.45 325.053 228.275 324.35 228.1C323.647 227.75 322.945 227.052 322.418 226.003C322.067 225.304 322.067 224.256 322.067 222.16V218.49H322.242Z" fill="black"/>
<path d="M334.888 221.46C334.888 220.936 334.888 219.014 334.888 218.664C334.888 217.791 334.537 217.791 334.01 217.791H333.483C333.308 217.791 333.308 217.791 333.308 217.616V217.267C333.308 217.092 333.308 217.092 333.483 217.092C333.659 217.092 334.537 217.092 335.942 217.092C336.469 217.092 337.348 217.092 338.577 217.092C339.806 217.092 340.685 217.267 341.387 217.441C342.265 217.965 342.617 218.664 342.617 219.538C342.617 220.586 341.914 221.635 340.333 222.159C342.265 222.683 343.319 223.557 343.319 225.303C343.319 226.177 342.792 227.4 342.09 227.75C341.387 228.099 340.333 228.274 338.401 228.274C338.226 228.274 337.874 228.274 337.348 228.274C336.82 228.274 336.469 228.274 336.118 228.274C335.24 228.274 334.713 228.274 334.362 228.274C334.01 228.274 333.835 228.274 333.659 228.274C333.483 228.274 333.483 228.274 333.483 228.099V227.75C333.483 227.575 333.483 227.575 333.659 227.575H334.186C334.713 227.575 334.713 227.4 334.888 226.876C334.888 226.527 334.888 224.43 334.888 223.032V221.46ZM337.348 222.159C338.05 222.159 339.104 222.159 339.455 221.635C339.982 221.11 340.158 220.411 340.158 219.713C340.158 219.189 339.982 218.489 339.455 218.14C338.928 217.791 338.05 217.616 337.874 217.616C337.523 217.616 337.172 217.616 337.172 217.965C337.172 218.315 337.172 219.713 337.172 220.936V222.159H337.348ZM337.348 225.828C337.348 227.4 337.699 227.924 338.577 227.924C339.631 227.924 340.86 227.4 340.86 225.303C340.86 224.081 340.333 223.207 339.455 222.857C338.577 222.508 337.874 222.508 337.523 222.508V225.828H337.348Z" fill="black"/>
<path d="M348.764 223.382C348.764 223.731 348.764 227.051 348.764 227.75H349.642C350.345 227.75 351.047 227.75 351.926 227.75C352.804 227.75 353.858 225.828 354.033 225.129C354.033 224.954 354.209 224.954 354.209 224.954L354.56 225.129C354.56 225.129 354.56 225.129 354.56 225.304C354.56 225.478 353.858 228.099 353.858 228.449C353.506 228.449 348.764 228.449 347.359 228.449C345.778 228.449 345.251 228.449 345.076 228.449C344.9 228.449 344.9 228.449 344.9 228.274V227.924C344.9 227.924 344.9 227.75 345.076 227.75H345.602C346.13 227.75 346.305 227.575 346.305 227.4C346.305 227.051 346.305 223.207 346.305 222.159V221.285C346.305 220.237 346.305 218.664 346.305 218.315C346.305 217.965 346.13 217.791 345.778 217.791H345.251C345.076 217.791 345.076 217.791 345.076 217.616V217.267C345.076 217.267 345.076 217.092 345.251 217.092C345.427 217.092 345.954 217.092 347.535 217.092C349.467 217.092 349.994 217.092 350.169 217.092C350.345 217.092 350.345 217.092 350.345 217.267V217.616C350.345 217.616 350.345 217.791 350.169 217.791H349.467C348.94 217.791 348.94 217.965 348.94 218.315C348.94 218.49 348.94 220.936 348.94 221.984V223.382H348.764Z" fill="black"/>
<path d="M357.019 221.634C357.019 221.285 357.019 218.315 357.019 218.14C357.019 217.79 356.843 217.616 356.492 217.616H355.79C355.79 217.616 355.614 217.616 355.614 217.441V216.917C355.614 216.917 355.614 216.742 355.79 216.742C355.965 216.742 356.843 216.742 358.424 216.742C360.005 216.742 360.532 216.742 360.708 216.742C360.708 216.742 360.883 216.742 360.883 216.917V217.266C360.883 217.266 360.883 217.441 360.708 217.441H360.181C359.829 217.441 359.478 217.616 359.478 217.79C359.478 217.965 359.478 221.459 359.478 221.634V222.857C359.478 223.032 359.478 226.701 359.478 226.876C359.478 227.4 359.654 227.4 360.005 227.4H360.708C360.708 227.4 360.883 227.4 360.883 227.575V228.099C360.883 228.099 360.883 228.274 360.708 228.274C360.532 228.274 359.829 228.274 358.424 228.274C356.668 228.274 356.141 228.274 355.965 228.274C355.965 228.274 355.79 228.274 355.79 228.099V227.749C355.79 227.749 355.79 227.575 355.965 227.575H356.492C356.843 227.575 357.195 227.575 357.195 227.225C357.195 227.051 357.195 223.556 357.195 222.683V221.634H357.019Z" fill="black"/>
<path d="M373.529 218.665C374.583 219.714 375.11 221.286 375.11 222.684C375.11 224.431 374.408 226.003 373.529 226.877C372.651 227.75 371.773 228.275 370.719 228.624C372.124 229.148 373.354 229.498 374.408 229.847C377.745 230.721 378.623 230.546 379.15 230.546C379.677 230.546 380.028 230.371 380.379 230.022H380.555L380.731 230.197V230.371C380.379 230.896 379.15 232.293 378.272 232.293C377.394 232.293 376.515 232.293 374.232 231.42C372.476 230.721 370.719 230.022 368.085 228.799C367.733 228.624 365.977 228.45 364.396 226.877C363.518 226.003 362.815 224.606 362.815 222.858C362.815 221.111 363.518 219.539 364.747 218.49C365.977 217.442 367.733 216.918 368.963 216.918C371.071 216.918 372.476 217.617 373.529 218.665ZM372.476 223.033C372.476 221.111 371.773 219.714 371.071 218.84C370.368 217.966 369.49 217.617 368.611 217.617C367.733 217.617 367.031 218.141 366.679 218.49C365.626 219.539 365.274 220.936 365.274 222.16C365.274 224.431 366.153 226.003 366.855 226.702C367.382 227.401 368.436 227.75 368.963 227.75C371.773 227.925 372.476 224.431 372.476 223.033Z" fill="black"/>
<path d="M377.745 218.49C377.745 217.966 377.569 217.617 377.218 217.617H376.515C376.34 217.617 376.34 217.617 376.34 217.442V217.093C376.34 216.918 376.34 216.918 376.515 216.918C376.691 216.918 377.393 216.918 379.15 216.918C380.555 216.918 381.257 216.918 381.433 216.918C381.609 216.918 381.609 216.918 381.609 217.093V217.442C381.609 217.442 381.609 217.617 381.433 217.617H380.906C380.379 217.617 380.028 217.966 380.028 218.316C380.028 218.49 380.028 219.539 380.028 220.412V221.461C380.028 222.334 380.028 224.256 380.028 224.78C380.028 225.479 380.204 226.178 380.555 226.702C381.082 227.401 381.784 227.576 382.487 227.576C383.014 227.576 383.892 227.226 384.419 226.877C385.122 226.353 385.473 225.479 385.473 224.256V221.81C385.473 220.412 385.297 218.665 385.297 218.316C385.297 217.966 384.946 217.617 384.77 217.617H384.243C384.068 217.617 384.068 217.617 384.068 217.442V217.093C384.068 217.093 384.068 216.918 384.243 216.918C384.419 216.918 385.122 216.918 386.175 216.918C387.054 216.918 387.58 216.918 387.756 216.918C387.932 216.918 387.932 216.918 387.932 217.093V217.442C387.932 217.617 387.932 217.617 387.756 217.617H387.405C386.878 217.617 386.702 218.141 386.702 218.141C386.702 218.316 386.702 220.587 386.702 220.762C386.702 220.936 386.702 223.732 386.702 224.431C386.527 225.654 386.175 226.702 385.297 227.401C384.595 228.1 383.541 228.45 382.487 228.45C381.784 228.45 380.73 228.275 380.028 228.1C379.325 227.75 378.623 227.052 378.096 226.003C377.745 225.304 377.745 224.256 377.745 222.16V218.49Z" fill="black"/>
<path d="M392.85 222.333C393.552 222.333 394.255 222.333 394.431 222.158C394.782 222.158 394.958 221.983 395.133 221.634C395.309 221.459 395.484 220.935 395.484 220.586C395.484 220.411 395.484 220.411 395.66 220.411H396.011C396.011 220.411 396.187 220.411 396.187 220.586C396.187 220.935 396.187 221.634 396.187 222.158C396.187 222.857 396.187 223.556 396.363 223.905C396.363 224.08 396.363 224.08 396.187 224.08H395.836C395.836 224.08 395.66 224.08 395.66 223.905C395.66 223.731 395.484 223.207 395.309 223.032C395.133 222.682 394.782 222.508 394.431 222.508C394.079 222.508 393.552 222.333 392.85 222.333V223.207C392.85 224.08 392.85 225.653 392.85 225.827C392.85 226.701 393.026 226.876 393.201 227.05C393.377 227.225 393.728 227.225 394.606 227.225C394.958 227.225 395.484 227.225 395.836 227.225C396.187 227.225 396.714 227.05 397.065 226.701C397.416 226.351 398.295 225.303 398.646 224.954H398.822L399.173 225.128C399.173 225.128 399.173 225.128 399.173 225.303L398.47 227.749C398.47 227.924 398.295 227.924 398.119 227.924C398.119 227.924 397.768 227.924 396.714 227.924C395.66 227.924 393.904 227.924 391.269 227.924C390.742 227.924 390.215 227.924 389.864 227.924C389.513 227.924 389.337 227.924 389.161 227.924C388.986 227.924 388.986 227.924 388.986 227.749V227.4C388.986 227.225 388.986 227.225 389.161 227.225H389.688C390.391 227.225 390.566 227.05 390.566 226.526V221.285C390.566 219.887 390.566 217.965 390.566 217.79C390.566 217.266 390.391 217.091 389.864 217.091H389.161C389.161 217.091 389.161 217.091 389.161 216.917V216.567C389.161 216.567 389.161 216.393 389.337 216.393C389.688 216.393 390.215 216.393 391.62 216.393H397.241C397.416 216.393 397.768 216.393 397.943 216.393H398.119C398.119 216.567 398.646 218.839 398.822 219.013V219.188L398.646 219.363H398.47C398.47 219.188 396.89 217.79 396.538 217.615C396.187 217.441 395.836 217.266 395.309 217.266H393.201L392.85 222.333Z" fill="black"/>
<path d="M409.184 217.79H408.658C408.131 217.79 407.252 217.79 406.55 217.965C406.199 218.14 405.496 219.188 405.145 219.712L404.969 219.887L404.618 219.712V219.537C404.793 218.839 405.32 216.742 405.32 216.393C405.32 216.218 405.496 216.043 405.496 216.043C405.672 216.043 405.672 216.043 405.847 216.218C406.023 216.392 406.374 216.567 406.901 216.567C407.779 216.567 408.482 216.742 410.063 216.742H410.941C412.697 216.742 413.4 216.742 414.102 216.567C414.454 216.567 415.156 216.392 415.332 216.218C415.508 216.043 415.508 216.043 415.683 216.043C415.859 216.043 415.859 216.043 415.859 216.218C415.859 216.567 416.21 218.489 416.386 219.363V219.537L416.034 219.712C416.034 219.712 415.859 219.712 415.859 219.537C415.508 219.013 414.805 218.14 414.454 217.79C414.102 217.615 412.697 217.441 412.346 217.441H411.819V221.809C411.819 221.983 411.819 226.526 411.819 226.701C411.819 227.05 411.995 227.4 412.346 227.4H413.048C413.224 227.4 413.224 227.4 413.224 227.575V227.924C413.224 227.924 413.224 228.099 413.048 228.099C412.873 228.099 412.346 228.099 410.59 228.099C408.833 228.099 408.306 228.099 407.955 228.099C407.779 228.099 407.779 228.099 407.779 227.924V227.575C407.779 227.4 407.779 227.4 407.955 227.4H408.833C409.184 227.4 409.36 227.225 409.36 226.875C409.36 226.526 409.36 221.634 409.36 221.285V217.79H409.184Z" fill="black"/>
<path d="M419.372 227.575C418.318 226.876 417.088 225.129 417.088 222.857C417.088 221.809 417.264 220.411 418.493 218.839C419.898 217.091 421.655 216.742 423.06 216.742C424.465 216.742 425.695 216.917 426.924 217.965C428.154 218.839 429.032 220.586 429.032 222.683C429.032 223.906 428.681 225.129 427.802 226.177C426.748 227.4 425.343 228.448 422.884 228.448C422.182 228.623 420.777 228.448 419.372 227.575ZM426.749 223.032C426.749 219.538 424.465 217.616 423.06 217.616C422.709 217.616 422.006 217.616 420.952 218.489C420.074 219.363 419.547 221.11 419.547 222.333C419.547 226.352 421.831 227.924 423.236 227.924C426.222 227.924 426.749 224.255 426.749 223.032Z" fill="black"/>
<path d="M442.029 226.877C442.029 227.052 442.029 227.226 442.029 227.401C442.029 227.576 441.854 227.576 441.854 227.576C440.624 228.275 439.219 228.624 437.111 228.624C435.531 228.624 433.599 228.1 432.545 226.877C431.491 225.829 431.14 224.431 431.14 222.509C431.14 221.111 431.842 219.539 433.072 218.49C434.301 217.442 435.706 216.918 437.638 216.918C439.219 216.918 440.448 217.442 440.976 217.617C441.151 217.792 441.327 217.617 441.327 217.617L441.502 217.442C441.502 217.267 441.678 217.267 441.678 217.267C441.854 217.267 441.854 217.442 441.854 217.617L442.029 220.936C442.029 221.111 442.029 221.286 442.029 221.286L441.502 221.461C441.327 221.461 441.327 221.461 441.327 221.286C441.151 220.587 440.624 219.539 439.922 218.84C439.219 218.316 438.516 217.792 437.463 217.792C436.584 217.792 435.882 218.141 435.004 219.015C434.301 219.888 433.774 221.286 433.774 222.684C433.774 224.606 434.301 226.178 435.179 227.052C435.882 227.75 436.584 228.1 437.638 228.1C438.516 228.1 438.868 228.1 439.395 227.75C439.746 227.576 439.746 227.052 439.746 226.178V224.955C439.746 224.431 439.57 224.256 439.219 224.256H438.516C438.341 224.256 438.341 224.256 438.341 224.082V223.732C438.341 223.732 438.341 223.557 438.516 223.557C438.692 223.557 439.395 223.557 440.8 223.557C442.205 223.557 442.908 223.557 442.908 223.557C443.083 223.557 443.083 223.557 443.083 223.732V224.082C443.083 224.256 443.083 224.256 442.908 224.256H442.381C442.029 224.256 441.854 224.431 441.854 224.78V226.877H442.029Z" fill="black"/>
<path d="M447.123 227.575C446.069 226.876 444.839 225.129 444.839 222.857C444.839 221.809 445.015 220.411 446.244 218.839C447.65 217.091 449.406 216.742 450.811 216.742C452.216 216.742 453.446 216.917 454.675 217.965C455.905 218.839 456.783 220.586 456.783 222.683C456.783 223.906 456.432 225.129 455.554 226.177C454.5 227.4 453.094 228.448 450.636 228.448C449.933 228.623 448.528 228.448 447.123 227.575ZM454.5 223.032C454.5 219.538 452.216 217.616 450.811 217.616C450.46 217.616 449.757 217.616 448.704 218.489C447.825 219.363 447.298 221.11 447.298 222.333C447.298 226.352 449.582 227.924 450.987 227.924C453.973 227.924 454.5 224.255 454.5 223.032Z" fill="black"/>
<path d="M462.228 223.382C462.228 223.731 462.228 227.051 462.228 227.75H463.106C463.809 227.75 464.511 227.75 465.389 227.75C466.267 227.75 467.321 225.828 467.497 225.129C467.497 224.954 467.673 224.954 467.673 224.954L468.024 225.129C468.024 225.129 468.024 225.129 468.024 225.304C468.024 225.478 467.321 228.099 467.321 228.449C466.97 228.449 462.228 228.449 460.823 228.449C459.242 228.449 458.715 228.449 458.539 228.449C458.364 228.449 458.364 228.449 458.364 228.274V227.924C458.364 227.924 458.364 227.75 458.539 227.75H459.066C459.593 227.75 459.769 227.575 459.769 227.4C459.769 227.051 459.769 223.207 459.769 222.159V221.285C459.769 220.237 459.769 218.664 459.769 218.315C459.769 217.965 459.593 217.791 459.242 217.791H458.715C458.539 217.791 458.539 217.791 458.539 217.616V217.267C458.539 217.267 458.539 217.092 458.715 217.092C458.891 217.092 459.418 217.092 460.998 217.092C462.93 217.092 463.457 217.092 463.633 217.092C463.809 217.092 463.809 217.092 463.809 217.267V217.616C463.809 217.616 463.809 217.791 463.633 217.791H462.93C462.403 217.791 462.403 217.965 462.403 218.315C462.403 218.49 462.403 220.936 462.403 221.984V223.382H462.228Z" fill="black"/>
<path d="M471.888 224.08C471.713 224.429 471.01 226.526 471.01 227.05C471.01 227.4 471.186 227.749 471.713 227.749H472.239C472.415 227.749 472.415 227.749 472.415 227.924V228.273C472.415 228.448 472.415 228.448 472.239 228.448C472.064 228.448 471.361 228.448 470.132 228.448C468.902 228.448 468.551 228.448 468.375 228.448C468.2 228.448 468.2 228.273 468.2 228.273V227.924C468.2 227.749 468.2 227.749 468.375 227.749H468.727C469.078 227.749 469.429 227.575 469.781 227.05C469.956 226.701 471.186 223.905 471.713 222.508C471.888 222.158 473.118 218.839 473.293 218.314C473.293 218.14 473.469 217.965 473.293 217.79L473.118 217.615C473.118 217.615 473.118 217.441 473.293 217.441C473.82 217.266 474.874 216.917 475.05 216.567L475.225 216.393C475.401 216.393 475.401 216.567 475.401 216.742C475.752 217.79 476.982 221.285 477.333 222.333C477.684 223.556 478.738 226.526 478.914 226.876C479.265 227.4 479.616 227.575 479.792 227.575H480.319C480.495 227.575 480.495 227.574 480.495 227.749V228.099C480.495 228.273 480.495 228.273 480.319 228.273C479.968 228.273 479.616 228.273 477.684 228.273C476.279 228.273 475.752 228.273 475.401 228.273C475.225 228.273 475.225 228.099 475.225 228.099V227.749C475.225 227.749 475.225 227.575 475.401 227.575H475.928C476.279 227.575 476.455 227.4 476.455 227.05C476.279 226.526 475.752 224.43 475.577 223.905H471.888V224.08ZM475.225 223.381C475.05 222.857 474.172 219.537 473.996 219.188C473.996 219.013 473.82 218.839 473.82 218.839C473.645 218.839 473.645 218.839 473.645 219.013C473.645 219.188 472.239 223.032 472.064 223.381H475.225Z" fill="black"/>
<path d="M482.778 221.634C482.778 221.285 482.778 218.315 482.778 218.14C482.778 217.79 482.602 217.616 482.251 217.616H481.549C481.549 217.616 481.373 217.616 481.373 217.441V216.917C481.373 216.917 481.373 216.742 481.549 216.742C481.724 216.742 482.602 216.742 484.183 216.742C485.764 216.742 486.291 216.742 486.466 216.742C486.466 216.742 486.642 216.742 486.642 216.917V217.266C486.642 217.266 486.642 217.441 486.466 217.441H485.94C485.588 217.441 485.237 217.616 485.237 217.79C485.237 217.965 485.237 221.459 485.237 221.634V222.857C485.237 223.032 485.237 226.701 485.237 226.876C485.237 227.4 485.413 227.4 485.764 227.4H486.466C486.466 227.4 486.642 227.4 486.642 227.575V228.099C486.642 228.099 486.642 228.274 486.466 228.274C486.291 228.274 485.588 228.274 484.183 228.274C482.427 228.274 481.9 228.274 481.724 228.274C481.724 228.274 481.549 228.274 481.549 228.099V227.749C481.549 227.749 481.549 227.575 481.724 227.575H482.251C482.602 227.575 482.954 227.575 482.954 227.225C482.954 227.051 482.954 223.556 482.954 222.683V221.634H482.778Z" fill="black"/>
<path d="M489.452 224.954C489.628 225.653 489.804 226.177 490.155 226.876C490.682 227.575 491.384 227.924 492.087 227.924C492.79 227.924 494.019 227.4 494.019 226.177C494.019 224.779 493.843 224.43 491.736 223.731C491.209 223.557 490.155 223.032 489.452 222.333C488.925 221.809 488.574 220.936 488.574 220.062C488.574 219.014 488.75 218.489 489.804 217.791C490.506 217.267 491.209 217.092 492.087 217.092C493.316 217.092 493.843 217.267 494.195 217.441C494.37 217.441 494.546 217.441 494.546 217.441L494.722 217.267L494.897 217.092C495.073 217.092 495.073 217.267 495.073 217.441L495.248 220.237C495.248 220.237 495.248 220.237 495.248 220.411L494.897 220.586C494.897 220.586 494.722 220.586 494.722 220.411C494.546 219.887 494.195 219.363 493.668 218.839C493.316 218.315 492.79 218.14 492.087 218.14C490.857 218.14 490.33 219.189 490.33 219.538C490.33 220.062 490.33 220.586 490.682 220.936C491.033 221.285 492.087 221.809 492.79 221.984C493.492 222.159 494.195 222.683 494.897 223.207C495.6 223.731 495.775 224.43 495.775 225.653C495.775 227.575 494.37 229.147 492.262 229.147C490.857 229.147 490.155 228.973 489.452 228.449C489.277 228.274 489.101 228.274 489.101 228.274C488.925 228.274 488.925 228.449 488.925 228.623C488.75 228.798 488.75 228.798 488.574 228.798C488.398 228.798 488.398 228.798 488.398 228.623L488.574 225.653C488.574 225.478 488.574 225.478 488.75 225.478L489.452 224.954Z" fill="black"/>
<path d="M501.747 222.333C502.45 222.333 503.152 222.333 503.328 222.158C503.679 222.158 503.855 221.983 504.031 221.634C504.206 221.459 504.382 220.935 504.382 220.586C504.382 220.411 504.382 220.411 504.558 220.411H504.909C504.909 220.411 505.084 220.411 505.084 220.586C505.084 220.935 505.084 221.634 505.084 222.158C505.084 222.857 505.084 223.556 505.26 223.905C505.26 224.08 505.26 224.08 505.084 224.08H504.733C504.733 224.08 504.558 224.08 504.558 223.905C504.558 223.731 504.382 223.207 504.206 223.032C504.031 222.682 503.679 222.508 503.328 222.508C502.977 222.508 502.45 222.333 501.747 222.333V223.207C501.747 224.08 501.747 225.653 501.747 225.827C501.747 226.701 501.923 226.876 502.098 227.05C502.274 227.225 502.626 227.225 503.504 227.225C503.855 227.225 504.382 227.225 504.733 227.225C505.084 227.225 505.611 227.05 505.963 226.701C506.314 226.351 507.192 225.303 507.543 224.954H507.719L508.07 225.128C508.07 225.128 508.07 225.128 508.07 225.303L507.368 227.749C507.368 227.924 507.192 227.924 507.016 227.924C507.016 227.924 506.665 227.924 505.611 227.924C504.558 227.924 502.801 227.924 500.166 227.924C499.64 227.924 499.113 227.924 498.761 227.924C498.41 227.924 498.234 227.924 498.059 227.924C497.883 227.924 497.883 227.924 497.883 227.749V227.4C497.883 227.225 497.883 227.225 498.059 227.225H498.586C499.288 227.225 499.464 227.05 499.464 226.526V221.285C499.464 219.887 499.464 217.965 499.464 217.79C499.464 217.266 499.288 217.091 498.761 217.091H498.059C498.059 217.091 498.059 217.091 498.059 216.917V216.567C498.059 216.567 498.059 216.393 498.234 216.393C498.586 216.393 499.113 216.393 500.518 216.393H506.138C506.314 216.393 506.665 216.393 506.841 216.393H507.016C507.016 216.567 507.544 218.839 507.719 219.013V219.188L507.543 219.363H507.368C507.368 219.188 505.787 217.79 505.436 217.615C505.084 217.441 504.733 217.266 504.206 217.266H502.098L501.747 222.333Z" fill="black"/>
<path d="M455.202 113.309C455.202 159.784 429.559 197.524 397.944 197.524C366.328 197.524 340.685 159.784 340.685 113.309C340.685 67.0087 366.328 29.2695 397.944 29.2695C429.559 29.2695 455.202 67.0087 455.202 113.309Z" fill="white"/>
<path d="M438.868 62.2911C436.936 59.8451 435.004 57.9231 432.896 56.0012C426.924 50.4103 420.25 46.2169 413.224 43.7709L413.751 41.1501H413.576C411.644 40.4512 409.536 39.9271 407.604 39.5776C404.442 38.8787 401.105 38.5293 397.944 38.5293C394.782 38.5293 391.445 38.8787 388.283 39.5776C386.351 39.9271 384.244 40.6259 382.311 41.1501H382.136L382.663 43.7709C375.637 46.2169 368.963 50.2355 362.991 56.0012C361.059 57.9231 359.127 60.0196 357.195 62.1164L357.019 62.2911L364.045 70.6776L364.221 70.8524L371.597 69.804C371.773 69.804 371.773 69.6292 371.773 69.4545C371.773 69.4545 371.773 69.4545 371.773 69.2799L369.138 65.2612C374.056 60.7187 379.677 57.3991 385.473 55.4771C387.054 54.9528 388.635 54.6035 390.215 54.254H390.391L389.864 50.5848C392.499 50.0607 395.133 49.7114 397.768 49.7114C400.402 49.7114 403.037 50.0607 405.672 50.5848L405.145 54.254H405.32C406.901 54.6035 408.482 54.9528 410.063 55.4771C415.859 57.3991 421.304 60.7187 426.397 65.2612L423.938 69.2799C423.938 69.2799 423.938 69.2799 423.938 69.4545C423.938 69.6292 423.938 69.804 424.114 69.804L431.491 70.8524C431.667 70.8524 431.667 70.8524 431.667 70.6776L438.868 62.2911ZM427.627 66.1348C427.803 66.3096 427.978 66.4844 428.154 66.6591C428.329 66.8337 428.681 67.1832 428.856 67.358C429.032 67.5327 429.208 67.7073 429.383 67.882C429.735 68.2316 429.91 68.4063 430.086 68.7556C430.261 68.9304 430.261 69.1052 430.437 69.1052C430.788 69.4545 431.14 69.804 431.315 70.1535L424.641 69.2799L426.924 65.6108C427.1 65.7855 427.275 65.9603 427.627 66.1348ZM365.801 68.7556C365.977 68.4063 366.328 68.2316 366.504 67.882C366.68 67.7073 366.855 67.5327 367.031 67.358C367.206 67.1832 367.558 66.8337 367.733 66.6591C367.909 66.4844 368.085 66.3096 368.26 66.1348C368.436 65.9603 368.612 65.7855 368.787 65.6108L371.071 69.2799L364.221 70.1535C364.572 69.804 364.923 69.4545 365.099 69.1052C365.45 69.1052 365.626 68.9304 365.801 68.7556ZM385.473 55.1276C379.677 57.0495 374.056 60.3692 369.138 64.9119L368.963 65.0867C368.612 65.436 368.085 65.9601 367.733 66.3096C367.558 66.4844 367.382 66.6591 367.382 66.6591C367.031 67.0084 366.855 67.1832 366.504 67.5327C366.328 67.7073 366.153 67.882 365.977 68.0568C365.801 68.2316 365.45 68.5809 365.274 68.7556C365.099 68.9304 364.923 69.1052 364.748 69.2799C364.572 69.4545 364.396 69.6292 364.221 69.804L357.722 62.2911C359.478 60.1944 361.41 58.0979 363.342 56.3507C369.314 50.7596 375.813 46.7411 382.839 44.295L384.595 51.9827C384.595 52.1575 384.595 52.1575 384.771 52.1575L389.513 53.9047C387.932 54.254 386.703 54.6035 385.473 55.1276ZM389.513 50.5848L389.864 53.5551L384.946 51.8079C386.527 51.4584 387.932 50.9343 389.513 50.5848ZM389.689 50.0607C388.108 50.4103 386.351 50.7596 384.771 51.2839L382.487 41.3248C384.419 40.6259 386.351 40.1018 388.283 39.7523C391.445 39.0535 394.606 38.704 397.944 38.704C401.105 38.704 404.442 39.0535 407.604 39.7523C409.536 40.1018 411.468 40.6259 413.4 41.3248L411.117 51.2839C409.536 50.7596 407.955 50.4103 406.199 50.0607C403.564 49.5367 400.754 49.1871 397.944 49.1871C395.133 49.1871 392.499 49.5367 389.689 50.0607ZM410.941 51.8079L406.023 53.5551L406.374 50.5848C407.955 50.9343 409.36 51.4584 410.941 51.8079ZM410.414 55.1276C409.184 54.7783 407.78 54.254 406.55 54.0792L411.292 52.332C411.468 52.332 411.468 52.1575 411.468 52.1575L413.224 44.4698C420.25 46.9158 426.749 50.9343 432.72 56.5255C434.653 58.2727 436.585 60.3692 438.341 62.4659L432.018 69.9788C431.842 69.804 431.667 69.6292 431.491 69.4545C431.315 69.2799 431.14 69.1052 430.964 68.9304C430.788 68.7556 430.437 68.4063 430.261 68.2316C430.086 68.0568 429.91 67.882 429.735 67.7073C429.559 67.358 429.208 67.1832 428.856 66.8337C428.681 66.6591 428.505 66.4844 428.505 66.4844C428.154 66.1348 427.627 65.6108 427.275 65.2612L427.1 65.0867C421.831 60.3692 416.386 57.0495 410.414 55.1276Z" fill="black"/>
<path d="M397.944 25.0762C364.22 25.0762 336.645 64.5626 336.645 113.309C336.645 162.056 364.045 201.542 397.944 201.542C431.842 201.542 459.242 162.056 459.242 113.309C459.242 64.5626 431.667 25.0762 397.944 25.0762ZM397.944 197.524C366.328 197.524 340.685 159.785 340.685 113.309C340.685 67.0087 366.328 29.2694 397.944 29.2694C429.559 29.2694 455.202 67.0086 455.202 113.484C455.202 159.785 429.559 197.524 397.944 197.524Z" fill="#156C52"/>
<path d="M390.918 101.778L384.946 68.4068L384.068 67.1837L384.77 65.2617L386 67.0089L385.473 68.4068L390.918 101.778Z" fill="#FFCE15"/>
<path d="M411.819 67.1837L410.765 68.4068L404.793 102.127L410.238 68.4068L409.887 67.0089L411.117 65.2617L411.819 67.1837Z" fill="#FFCE15"/>
<path d="M412.697 128.336C412.521 128.336 410.941 127.637 409.009 129.21C406.901 130.782 408.131 134.102 408.131 134.102C408.131 134.102 406.374 132.529 404.091 133.228C401.807 133.752 401.632 137.421 401.632 137.421C401.632 137.421 399.875 134.801 397.943 134.801C396.011 134.801 394.255 137.421 394.255 137.421C394.255 137.421 394.079 133.927 391.796 133.228C389.513 132.529 387.756 134.102 387.756 134.102C387.756 134.102 388.986 130.782 386.878 129.21C384.77 127.637 383.365 128.336 383.19 128.336C383.365 128.161 384.946 126.065 384.419 123.793C383.892 121.347 380.73 120.998 380.73 120.998C380.73 120.998 383.892 119.949 383.892 117.329C383.892 114.883 381.609 113.31 381.433 113.135C381.609 113.135 384.419 113.834 385.473 111.214C386.527 108.767 385.122 106.496 384.946 106.321C385.122 106.496 387.405 108.069 389.337 106.321C390.742 104.924 391.093 103.002 390.918 102.128C391.445 102.652 392.674 103.875 394.079 103.701C396.89 103.875 397.943 100.73 397.943 100.73C397.943 100.73 398.822 103.701 401.632 103.875C403.037 103.875 404.266 102.652 404.793 102.128C404.793 103.002 405.145 105.098 406.55 106.321C408.482 108.243 410.765 106.496 410.941 106.321C410.765 106.496 409.36 108.767 410.414 111.214C411.468 113.66 414.453 113.135 414.453 113.135C414.278 113.31 411.995 114.883 411.995 117.329C411.995 119.775 415.156 120.998 415.156 120.998C415.156 120.998 412.17 121.347 411.468 123.793C410.941 126.065 412.521 128.161 412.697 128.336Z" fill="#FFCE15"/>
<path d="M398.119 116.805C398.119 114.359 396.538 112.961 393.904 112.961H388.283V125.017H390.918V120.823H393.025L395.133 125.017H398.119L395.836 120.299C397.416 119.6 398.119 118.552 398.119 116.805ZM390.918 115.407H393.904C394.957 115.407 395.484 115.931 395.484 116.805C395.484 117.678 394.957 118.203 393.904 118.203H390.918V115.407Z" fill="black"/>
<path d="M398.997 112.785V115.406H402.51V125.016H405.144V115.406H408.482V112.785H398.997Z" fill="black"/>
<path d="M363.167 60.718L366.68 64.2124L366.153 64.7367L362.64 61.2423L361.937 61.9411L361.41 61.417L363.518 59.3203L364.045 59.8444L363.167 60.718Z" fill="black"/>
<path d="M369.49 61.4184L367.206 60.1953L366.679 60.5448L368.26 62.292L367.733 62.8161L364.045 58.7976L365.274 57.7492C365.977 57.2252 366.679 57.0504 367.558 57.924C368.085 58.4481 368.085 59.1471 367.909 59.6712L370.368 61.0689L369.49 61.4184ZM365.626 58.4481L365.099 58.7976L366.153 60.0207L366.679 59.4964C367.031 59.1471 367.206 58.7976 366.679 58.2735C366.504 57.924 365.977 58.0988 365.626 58.4481Z" fill="black"/>
<path d="M372.476 59.1464L371.246 58.098L370.192 58.7968L370.895 60.1947L370.192 60.7188L367.909 55.4772L368.611 54.9531L373.178 58.6223L372.476 59.1464ZM369.841 57.0496C369.49 56.8751 369.138 56.3508 368.963 56.176C369.138 56.3508 369.314 56.8751 369.49 57.2244L369.841 58.098L370.543 57.5739L369.841 57.0496Z" fill="black"/>
<path d="M374.408 57.7484L373.881 58.0977L369.49 54.254L370.192 53.7297L372.3 55.6517C372.476 55.8264 373.003 56.3505 373.178 56.5253C373.178 56.3505 372.827 55.6517 372.651 55.4769L371.597 52.8561L372.3 52.332L374.408 57.7484Z" fill="black"/>
<path d="M377.569 55.8269L376.516 54.7785L375.462 55.3026L375.988 56.7005L375.286 57.0498L373.53 51.4589L374.232 51.1094L378.272 55.3026L377.569 55.8269ZM375.286 53.3809C375.11 53.0313 374.583 52.6818 374.408 52.5073C374.408 52.6818 374.759 53.3809 374.759 53.7302L375.11 54.6038L375.813 54.0797L375.286 53.3809Z" fill="black"/>
<path d="M378.799 55.1273L376.164 50.0605L376.867 49.7109L379.501 54.7778L378.799 55.1273Z" fill="black"/>
<path d="M380.379 54.2543L378.096 49.1874L378.799 48.8379L380.731 53.2059L382.311 52.5071L382.663 53.2059L380.379 54.2543Z" fill="black"/>
<path d="M416.21 52.1572L415.508 51.8079L414.629 53.9044L413.927 53.5551L416.21 48.4883L417.615 49.1871C418.318 49.5366 418.845 50.2355 418.318 51.2836C417.791 52.332 416.913 52.5067 416.21 52.1572ZM417.264 49.7112L416.737 49.3619L416.034 50.9343L416.562 51.2836C416.913 51.4584 417.44 51.2836 417.615 50.7595C417.791 50.41 417.615 49.8859 417.264 49.7112Z" fill="black"/>
<path d="M418.845 56.0011L419.196 54.6035L418.142 54.0794L417.088 55.3023L416.386 54.953L420.25 50.7598L420.952 51.1091L419.547 56.7002L418.845 56.0011ZM419.723 52.8563C419.899 52.507 420.074 51.8079 420.074 51.6334C419.899 51.8079 419.547 52.3322 419.196 52.6815L418.493 53.3806L419.372 53.7299L419.723 52.8563Z" fill="black"/>
<path d="M423.412 53.0314L420.777 57.2247L420.074 56.8753L422.709 52.6821L421.831 52.1578L422.182 51.459L424.641 53.0314L424.29 53.7305L423.412 53.0314Z" fill="black"/>
<path d="M423.938 59.3213L424.641 56.875L424.114 56.5257L422.709 58.4477L422.006 57.9234L425.343 53.3809L426.573 54.2545C427.275 54.7785 427.627 55.4774 426.924 56.351C426.397 57.0498 425.87 57.2246 425.343 57.0498L424.465 59.6706L423.938 59.3213ZM426.222 54.9533L425.695 54.6038L424.641 56.0014L425.168 56.351C425.519 56.7005 426.046 56.7005 426.397 56.1762C426.749 55.6521 426.573 55.3026 426.222 54.9533Z" fill="black"/>
<path d="M425.168 60.368L428.681 56L429.207 56.5241L425.695 60.8921L425.168 60.368Z" fill="black"/>
<path d="M426.573 61.5917L430.437 57.3984L432.369 59.1456L431.842 59.6699L430.437 58.4468L429.383 59.4952L430.262 60.3688L429.735 60.8928L428.856 60.0192L427.627 61.4169L429.032 62.8148L428.505 63.3389L426.573 61.5917Z" fill="black"/>
<path d="M387.229 48.3136L386 42.8974L386.703 42.7227L387.756 47.44L389.513 47.0906L389.689 47.7895L387.229 48.3136Z" fill="black"/>
<path d="M390.391 47.6153L389.513 42.0244L390.216 41.8496L391.094 47.4407L390.391 47.6153Z" fill="black"/>
<path d="M393.553 47.2648L392.147 47.4394L391.621 41.8485L393.026 41.6737C393.904 41.499 394.606 42.0232 394.782 43.0715C394.782 43.5957 394.606 44.1198 394.255 44.2945C394.782 44.4692 395.133 44.8187 395.133 45.5176C394.958 46.5659 394.431 47.09 393.553 47.2648ZM393.026 42.3726H392.323L392.499 43.9451H393.201C393.553 43.9451 393.904 43.5957 393.904 43.0715C393.728 42.5473 393.377 42.3726 393.026 42.3726ZM393.201 44.644H392.499L392.674 46.3912H393.377C393.904 46.3912 394.079 46.0417 394.079 45.3428C394.079 44.8187 393.728 44.644 393.201 44.644Z" fill="black"/>
<path d="M395.836 47.091L395.66 41.5H398.295V42.1989H396.363V43.7714H397.592V44.4702H396.363V46.3921H398.295V47.091H395.836Z" fill="black"/>
<path d="M401.456 47.091L400.754 44.645H400.051L399.876 47.091H399.173L399.524 41.5L401.105 41.6747C401.983 41.6747 402.686 42.1989 402.51 43.2472C402.51 44.1208 402.159 44.4702 401.456 44.645L402.159 47.2657L401.456 47.091ZM400.929 42.1989H400.227L400.051 43.7714H400.754C401.281 43.7714 401.632 43.5966 401.632 43.0725C401.808 42.5483 401.456 42.1989 400.929 42.1989Z" fill="black"/>
<path d="M405.145 42.7221L404.442 47.4396L403.74 47.2648L404.442 42.5474L403.213 42.3727L403.389 41.6738L406.199 42.0233L406.023 42.7221H405.145Z" fill="black"/>
<path d="M406.023 47.7898L407.252 42.3734L409.887 42.8976L409.711 43.5964L407.955 43.247L407.604 44.6448L408.833 44.9942L408.658 45.6931L407.428 45.3436L407.077 47.0908L409.009 47.4402L408.658 48.3138L406.023 47.7898ZM409.009 42.024L408.482 41.8493L409.184 41.1504L410.238 41.3251L409.009 42.024Z" fill="black"/>
<path d="M376.515 83.782C377.921 83.258 379.326 82.9084 380.555 82.7339H380.731C381.433 82.5591 381.96 82.5591 382.663 82.3844C382.839 82.3844 382.839 82.3844 383.014 82.3844C383.365 82.3844 383.541 82.3844 383.892 82.3844C384.068 82.3844 384.068 82.3844 384.244 82.3844C384.419 82.3844 384.595 82.3844 384.771 82.3844C384.946 82.3844 385.122 82.3844 385.297 82.3844C385.473 82.3844 385.649 82.3844 386 82.3844C386.176 82.3844 386.351 82.3844 386.527 82.3844C386.703 82.3844 386.878 82.3844 386.878 82.3844C387.054 82.3844 387.405 82.3844 387.581 82.5591L385.649 70.853C381.96 70.6783 378.272 71.7266 374.583 73.1243C375.11 76.6187 375.813 80.1131 376.515 83.782Z" fill="#D21B33"/>
<path d="M381.433 78.7158C382.311 79.2399 383.19 79.7642 384.068 80.2883C383.541 79.4147 383.19 78.3663 382.663 77.4927C383.365 76.7939 384.068 76.095 384.595 75.3962C383.717 75.3962 382.663 75.3962 381.785 75.5707C381.258 74.6971 380.731 73.649 380.379 72.7754C380.204 73.8238 380.028 74.8719 380.028 75.9203C379.15 76.095 378.096 76.4443 377.218 76.6191C378.096 76.9686 378.974 77.3179 379.853 77.8422C379.677 78.8906 379.501 79.7642 379.501 80.8123C380.028 80.2883 380.731 79.4147 381.433 78.7158Z" fill="white"/>
<path d="M375.11 76.6194C374.935 75.3963 374.583 74.1734 374.408 73.125C366.504 76.0951 358.776 80.6379 350.872 78.3666C351.048 79.7643 351.399 80.9874 351.574 82.3851C352.628 82.5598 353.682 82.7344 354.912 82.7344C361.586 82.9091 368.26 79.0654 375.11 76.6194Z" fill="#156C52"/>
<path d="M364.22 84.6563C368.085 83.2586 371.949 81.5114 375.813 80.1135C375.637 78.8906 375.286 77.6675 375.11 76.6191C368.436 79.0652 361.586 82.9091 354.912 82.7343C353.858 82.7343 352.804 82.5596 351.574 82.385C351.75 83.7827 352.101 85.0058 352.277 86.4035C356.317 86.9276 360.181 86.054 364.22 84.6563Z" fill="#FFCE15"/>
<path d="M364.045 88.4987C368.26 87.1011 372.3 85.0043 376.515 83.6067C376.34 82.3838 375.988 81.1606 375.813 79.9375C371.948 81.5102 368.084 83.2574 364.22 84.655C360.181 86.0527 356.317 86.9263 352.277 86.2275C352.453 87.4506 352.804 88.8483 352.979 90.0714C356.668 90.5955 360.356 89.8966 364.045 88.4987Z" fill="#156C52"/>
<path d="M357.019 94.0899C356.492 94.0899 356.141 94.0899 355.79 94.0899C355.087 94.0899 354.385 94.0899 353.682 94.0899C353.858 95.3131 354.209 96.7107 354.385 97.9339C365.801 98.6327 377.394 87.2759 388.81 90.421L388.108 86.4023C377.745 84.131 367.382 93.0418 357.019 94.0899Z" fill="#156C52"/>
<path d="M355.79 94.0898C356.141 94.0898 356.492 94.0898 356.843 94.0898H357.019C367.382 93.0417 377.745 84.131 388.108 86.4022L387.405 82.3838C387.229 82.3838 386.878 82.3838 386.702 82.209C386.527 82.209 386.351 82.209 386.351 82.209C386.176 82.209 386 82.209 385.824 82.209C385.648 82.209 385.473 82.209 385.122 82.209C384.946 82.209 384.77 82.209 384.595 82.209C384.419 82.209 384.243 82.209 384.068 82.209C383.892 82.209 383.892 82.209 383.716 82.209C383.365 82.209 383.19 82.209 382.838 82.209C382.663 82.209 382.663 82.209 382.487 82.209C381.784 82.209 381.258 82.3837 380.555 82.5585H380.379C378.974 82.9078 377.569 83.2574 376.34 83.6069C372.124 85.0046 368.084 87.1013 363.869 88.499C360.181 89.7221 356.492 90.5954 352.804 90.0714C352.979 91.469 353.331 92.6922 353.506 93.9153C354.385 94.0898 355.087 94.0898 355.79 94.0898Z" fill="#FFCE15"/>
<path d="M419.547 83.782C418.142 83.258 416.737 82.9084 415.507 82.7339H415.332C414.629 82.5591 414.102 82.5591 413.4 82.3844C413.224 82.3844 413.224 82.3844 413.048 82.3844C412.697 82.3844 412.522 82.3844 412.17 82.3844C411.995 82.3844 411.995 82.3844 411.819 82.3844C411.643 82.3844 411.468 82.3844 411.292 82.3844C411.116 82.3844 410.941 82.3844 410.765 82.3844C410.589 82.3844 410.414 82.3844 410.063 82.3844C409.887 82.3844 409.711 82.3844 409.536 82.3844C409.36 82.3844 409.184 82.3844 409.184 82.3844C409.009 82.3844 408.657 82.3844 408.482 82.5591L410.414 70.853C414.102 70.6783 417.791 71.7266 421.479 73.1243C420.777 76.6187 420.074 80.1131 419.547 83.782Z" fill="#D21B33"/>
<path d="M414.454 78.7158C413.575 79.2399 412.697 79.7642 411.819 80.2883C412.346 79.4147 412.697 78.3663 413.224 77.4927C412.522 76.7939 411.819 76.095 411.292 75.3962C412.17 75.3962 413.224 75.3962 414.102 75.5707C414.629 74.6971 415.156 73.649 415.507 72.7754C415.683 73.8238 415.859 74.8719 415.859 75.9203C416.737 76.095 417.791 76.4443 418.669 76.6191C417.791 76.9686 416.913 77.3179 416.034 77.8422C416.21 78.8906 416.386 79.7642 416.386 80.8123C415.859 80.2883 415.156 79.4147 414.454 78.7158Z" fill="white"/>
<path d="M420.777 76.6194C420.952 75.3963 421.304 74.1734 421.479 73.125C429.383 76.0951 437.111 80.6379 445.015 78.3666C444.84 79.7643 444.488 80.9874 444.312 82.3851C443.259 82.5598 442.205 82.7344 440.975 82.7344C434.301 82.9091 427.627 79.0654 420.777 76.6194Z" fill="#156C52"/>
<path d="M431.666 84.6563C427.802 83.2586 423.938 81.5114 420.074 80.1135C420.25 78.8906 420.601 77.6675 420.777 76.6191C427.451 79.0652 434.301 82.9091 440.975 82.7343C442.029 82.7343 443.083 82.5596 444.313 82.385C444.137 83.7827 443.786 85.0058 443.61 86.4035C439.746 86.9276 435.706 86.054 431.666 84.6563Z" fill="#FFCE15"/>
<path d="M431.842 88.4987C427.627 87.1011 423.587 85.0046 419.372 83.6067C419.547 82.3838 419.898 81.1606 420.074 79.9375C423.938 81.3354 427.802 83.0826 431.666 84.4803C435.706 85.8779 439.57 86.7515 443.61 86.0527C443.434 87.2758 443.083 88.6735 442.907 89.8966C439.219 90.5955 435.53 89.8966 431.842 88.4987Z" fill="#156C52"/>
<path d="M438.868 94.0899C439.395 94.0899 439.746 94.0899 440.097 94.0899C440.8 94.0899 441.502 94.0899 442.205 94.0899C442.029 95.3131 441.678 96.7107 441.502 97.9339C430.086 98.6327 418.493 87.2759 407.077 90.421L407.779 86.4023C418.142 84.131 428.505 93.0418 438.868 94.0899Z" fill="#156C52"/>
<path d="M440.097 94.0898C439.746 94.0898 439.395 94.0898 439.043 94.0898H438.868C428.505 93.0417 418.142 84.131 407.779 86.4022L408.482 82.3838C408.658 82.3838 409.009 82.3838 409.184 82.209C409.36 82.209 409.536 82.209 409.536 82.209C409.712 82.209 409.887 82.209 410.063 82.209C410.238 82.209 410.414 82.209 410.765 82.209C410.941 82.209 411.117 82.209 411.292 82.209C411.468 82.209 411.644 82.209 411.819 82.209C411.995 82.209 411.995 82.209 412.17 82.209C412.522 82.209 412.697 82.209 413.049 82.209C413.224 82.209 413.224 82.209 413.4 82.209C414.102 82.209 414.629 82.3837 415.332 82.5585H415.508C416.913 82.9078 418.318 83.2574 419.547 83.6069C423.763 85.0046 427.802 87.1013 432.018 88.499C435.706 89.7221 439.395 90.5954 443.083 90.0714C442.907 91.469 442.556 92.6922 442.381 93.9153C441.502 94.0898 440.8 94.0898 440.097 94.0898Z" fill="#FFCE15"/>
<path d="M395.836 179.177C395.484 178.478 395.66 178.478 395.66 177.779C395.66 177.779 395.484 176.731 395.66 176.382C396.011 175.683 395.309 174.635 394.782 174.285C394.782 174.285 392.85 173.062 391.972 172.538C390.918 172.014 390.215 171.315 390.215 170.616C390.215 169.917 390.918 169.043 390.918 167.995C390.918 166.947 390.391 166.597 390.567 166.073C390.567 165.549 391.445 164.501 391.972 163.977C392.499 163.453 392.674 161.356 391.445 159.259C390.918 158.56 388.283 155.59 388.283 155.59C388.283 155.59 386 152.62 385.473 151.572C384.946 150.523 384.771 149.824 384.771 149.126C384.946 148.077 385.297 147.378 386 147.553C386.527 147.553 387.054 148.077 387.229 148.776C387.405 149.126 387.581 149.3 387.054 150.174C386.527 151.047 387.405 152.445 387.405 152.445C387.405 152.445 387.405 151.921 387.932 151.746C387.932 151.746 387.756 152.445 388.81 153.843C388.81 153.843 388.459 152.795 388.986 152.62C389.337 152.445 389.864 154.367 390.742 155.415C391.62 156.464 393.728 156.289 393.728 156.289C393.728 156.289 392.323 155.59 391.796 151.397C391.445 148.776 389.864 148.951 388.81 148.951C388.283 148.776 387.932 147.902 387.581 147.378C387.229 146.679 386.527 145.981 385.824 145.981C385.122 145.981 384.595 146.155 384.068 147.029C383.541 147.902 383.541 148.427 383.541 149.824C383.541 151.222 384.068 152.445 384.595 153.493C385.473 154.891 387.405 157.163 387.405 157.163C387.405 157.163 389.688 159.783 390.215 160.832C390.742 161.88 390.567 162.754 390.215 163.103C389.688 163.453 388.108 163.278 387.756 163.103C387.405 162.754 386.176 161.181 386.176 161.181C386.176 161.181 383.014 157.687 382.663 156.813C382.311 155.94 382.311 153.493 382.663 151.746C383.19 148.077 382.487 145.631 382.487 145.631C383.19 145.806 383.365 147.029 383.365 147.029C384.068 145.806 383.365 144.758 383.365 144.758C384.419 145.631 385.122 145.107 385.122 145.107C383.541 143.534 384.068 139.516 384.068 139.516C384.068 139.516 384.771 140.39 385.122 142.661C386.703 136.022 383.365 135.148 383.365 135.148C384.771 135.323 386.176 136.895 386.176 136.895C384.946 131.304 382.136 130.955 379.501 131.479C380.379 130.431 383.19 130.431 383.19 130.431C383.19 130.431 379.853 129.382 377.92 129.906C378.272 129.033 379.677 128.334 379.677 128.334C377.393 128.684 376.515 129.033 375.286 130.256C375.461 129.208 375.813 128.858 375.813 128.858C375.813 128.858 373.881 129.382 373.178 130.605C372.475 131.828 373.003 132.702 373.881 133.051C373.881 133.051 373.354 132.877 373.178 132.877C372.475 132.877 371.422 133.401 371.07 133.75C370.719 134.1 369.138 134.798 368.611 134.973C368.26 135.323 368.436 136.196 368.611 136.371C368.787 136.546 368.787 136.546 368.787 136.895C368.787 137.07 368.963 138.468 369.665 138.642L370.368 138.992C370.368 138.992 370.017 138.293 371.246 138.118C372.475 137.944 374.056 138.817 372.3 139.865C371.773 140.215 370.895 140.564 370.368 140.04C370.192 139.865 370.192 139.691 370.192 139.691C370.192 139.691 369.841 139.691 369.665 140.215C369.49 140.739 369.49 141.787 370.192 141.962C370.895 142.137 372.651 141.613 373.354 141.263C374.232 140.914 375.11 140.215 375.11 139.166C375.11 139.166 375.988 140.04 374.232 141.438C371.949 142.661 368.085 142.661 368.085 145.981C368.085 145.981 368.611 144.583 370.192 144.059C370.192 144.059 367.909 145.456 368.26 147.728C368.611 146.679 370.017 145.456 371.246 145.282C371.246 145.282 368.26 147.204 368.611 152.795V152.969C367.909 151.397 368.26 149.126 368.26 149.126C367.382 149.126 366.855 148.077 366.504 147.378C365.977 145.107 365.801 144.932 364.923 144.408C364.045 144.059 363.518 143.884 362.991 143.884C362.464 143.884 362.113 144.408 362.113 144.583C362.113 144.758 362.815 144.408 363.342 144.932C363.342 144.932 362.464 144.758 361.937 145.107C361.762 145.282 361.937 146.155 361.937 146.155C362.113 146.33 362.815 145.981 363.167 146.155C363.167 146.155 362.113 146.33 361.937 146.505C361.762 146.854 361.937 147.378 361.937 147.553C362.288 147.902 363.694 147.378 363.869 149.65C363.869 149.824 364.045 150.174 364.045 150.349C364.572 151.047 365.274 150.873 365.274 150.873C365.45 151.222 366.504 152.62 367.031 153.493C366.328 153.668 364.923 154.018 364.396 154.018C363.869 154.018 362.991 153.319 362.991 153.319L361.059 152.27C361.059 152.27 361.059 153.144 360.532 152.969C360.181 152.969 360.181 151.921 360.181 151.921C360.181 151.921 359.127 152.27 359.127 152.969C358.6 152.969 358.424 154.192 358.776 154.717C357.546 156.289 360.356 156.813 360.356 156.813C360.356 156.813 362.288 157.512 362.815 157.687C363.342 157.861 364.396 158.386 365.099 158.386C365.801 158.386 367.031 158.036 367.031 158.036C367.031 158.036 368.26 157.861 368.963 157.687C368.963 157.687 370.543 157.687 372.475 153.843C372.475 153.843 372.124 157.163 369.665 158.211C369.665 158.211 370.368 159.085 371.07 159.609C371.597 160.307 372.827 161.356 373.354 161.705C374.232 162.404 376.515 163.278 377.042 163.977C377.569 164.675 377.745 165.899 377.745 165.899C377.745 165.899 377.745 165.549 378.096 165.549C378.447 165.549 378.799 166.772 378.799 166.772C378.799 166.772 379.15 165.549 379.325 165.899C379.677 166.248 380.028 166.947 380.028 167.646C380.028 168.345 379.677 168.869 379.677 168.869L377.569 171.315C376.164 172.713 375.813 172.887 375.461 173.586C375.11 174.11 374.759 174.46 374.583 174.984C374.408 175.683 374.408 176.382 374.935 177.954C375.286 179.177 374.759 181.449 373.881 181.449C371.597 181.449 371.597 180.924 370.895 181.623C370.192 182.322 369.49 183.545 369.49 183.72C369.665 184.244 370.192 184.419 370.368 184.419C370.543 184.419 370.368 183.196 371.07 182.846C371.07 182.846 370.543 183.72 370.719 184.419C370.895 185.118 371.597 184.943 371.597 184.943C371.597 184.768 371.597 183.895 371.949 183.72C371.949 183.72 371.949 184.768 371.949 184.943C372.124 185.118 372.475 185.467 373.003 185.118C373.529 184.768 373.881 183.72 375.813 184.069C376.867 184.244 377.042 184.069 377.042 183.545C377.042 182.846 377.569 181.798 377.92 180.75C378.096 180.4 378.447 180.225 378.623 180.225C378.799 180.4 378.799 180.575 378.799 180.575C378.799 180.575 378.974 180.051 378.799 179.701C378.799 179.701 378.974 179.701 379.15 179.876C379.15 179.876 379.15 179.352 378.799 179.177C378.623 178.828 378.272 177.954 378.447 177.43C378.799 176.556 380.555 174.984 383.365 174.984C382.136 173.761 381.96 173.062 381.785 171.664C381.609 170.267 381.96 168.694 381.96 168.694C381.96 168.694 382.136 171.489 382.663 172.363C384.771 177.081 391.093 178.303 391.093 178.303C391.093 178.303 391.269 179.352 391.093 180.225C390.567 181.973 390.391 182.671 390.391 182.671C390.391 182.671 388.459 182.497 387.405 182.147C386.527 181.973 385.649 184.419 385.649 184.593C385.649 184.768 386.176 185.292 386.351 185.292C386.527 185.292 386.527 184.244 387.229 183.895C387.229 183.895 386.527 184.768 386.703 185.292C386.878 185.642 387.229 185.642 387.405 185.642C387.581 185.642 387.405 184.768 387.756 184.419C387.756 184.419 387.581 185.467 387.932 185.642C388.459 185.991 388.459 185.817 388.81 185.642C389.161 185.467 390.742 185.292 391.445 185.292C392.147 185.292 392.323 183.72 393.201 182.322C394.079 180.924 394.255 179.876 394.606 179.876C394.958 179.876 395.133 180.75 394.606 181.099C395.309 180.575 396.187 179.876 395.836 179.177ZM373.178 135.323C372.827 135.672 371.246 135.498 371.422 134.798C371.597 134.1 372.651 133.925 373.178 134.274C373.705 134.973 373.178 135.323 373.178 135.323Z" fill="#D21B33"/>
<path d="M362.991 147.729L361.937 152.271L362.113 152.446L363.167 147.729H362.991Z" fill="black"/>
<path d="M365.099 150.523C364.923 150.523 364.747 150.348 364.572 150.174L364.747 153.668H364.923C365.099 153.668 365.099 153.668 365.274 153.668L365.099 150.523Z" fill="black"/>
<path d="M360.708 151.397C360.708 151.572 360.708 151.572 360.708 151.746C360.708 151.921 360.883 152.795 361.059 152.795C361.586 152.969 361.586 152.271 361.586 152.096C361.586 151.746 361.586 151.397 361.586 151.047C361.059 141.962 364.045 134.799 364.045 134.799L364.396 142.137L364.045 144.059H364.22L364.396 143.185V144.059C364.572 144.059 364.747 144.233 364.923 144.233L364.572 141.438L366.679 131.654L367.558 130.78L367.206 128.684L365.977 130.431L366.504 131.479L364.572 140.215L364.22 133.401C364.22 133.401 363.869 132.702 363.869 132.527C363.694 132.353 363.167 132.178 362.991 132.353C362.815 132.527 362.991 133.051 363.167 133.226C363.342 133.576 364.045 133.925 364.045 133.925C364.045 133.925 360.005 140.564 360.708 151.397Z" fill="black"/>
<path d="M364.923 157.862L365.274 166.248C365.274 166.248 363.518 162.754 362.288 156.988C361.937 156.813 361.586 156.813 361.41 156.639C362.64 163.627 365.274 166.772 365.274 166.772C365.274 166.772 364.923 167.296 364.572 167.821C364.221 168.345 364.221 168.52 364.396 168.694C364.572 168.869 364.923 168.694 365.274 168.17C365.626 167.646 365.626 167.122 365.626 167.122L365.274 158.036C365.099 158.036 365.099 158.036 364.923 157.862Z" fill="black"/>
<path d="M400.578 180.576C400.051 180.226 400.227 179.352 400.578 179.352C400.93 179.352 401.105 180.401 401.983 181.799C402.862 183.196 403.037 184.769 403.74 184.769C404.442 184.769 406.023 184.944 406.374 185.118C406.726 185.293 406.726 185.468 407.252 185.118C407.779 184.769 407.428 183.895 407.428 183.895C407.779 184.245 407.604 185.118 407.779 185.118C407.955 185.118 408.306 185.118 408.482 184.769C408.658 184.245 407.955 183.371 407.955 183.371C408.658 183.72 408.658 184.769 408.833 184.769C409.009 184.769 409.536 184.42 409.536 184.07C409.536 183.895 408.658 181.449 407.779 181.624C406.726 181.973 404.794 182.148 404.794 182.148C404.794 182.148 404.442 181.449 404.091 179.702C403.915 178.828 404.091 177.78 404.091 177.78C404.091 177.78 410.414 176.557 412.522 171.84C412.873 170.966 413.224 168.171 413.224 168.171C413.224 168.171 413.575 169.918 413.4 171.141C413.224 172.538 413.049 173.238 411.819 174.46C414.629 174.46 416.386 176.208 416.737 176.906C416.913 177.256 416.737 178.304 416.386 178.654C416.035 178.828 416.035 179.352 416.035 179.352C416.21 179.178 416.386 179.178 416.386 179.178C416.21 179.527 416.386 180.052 416.386 180.052C416.386 180.052 416.386 179.702 416.561 179.702C416.737 179.527 416.913 179.702 417.264 180.226C417.791 181.449 418.142 182.323 418.142 183.022C418.142 183.546 418.493 183.72 419.372 183.546C421.304 183.371 421.655 184.245 422.182 184.594C422.709 184.944 423.06 184.769 423.236 184.42C423.411 184.07 423.236 183.196 423.236 183.196C423.587 183.371 423.411 184.42 423.587 184.42C423.587 184.594 424.29 184.594 424.465 183.895C424.641 183.196 424.114 182.323 424.114 182.323C424.817 182.672 424.641 183.895 424.817 183.895C424.992 183.895 425.519 183.72 425.695 183.196C425.695 182.847 424.992 181.799 424.29 181.1C423.587 180.401 423.587 180.925 421.304 180.925C420.425 180.925 419.899 178.828 420.25 177.431C420.601 175.858 420.777 175.159 420.601 174.46C420.425 173.762 420.074 173.412 419.723 173.063C419.372 172.538 419.02 172.364 417.615 170.791L415.507 168.345C415.507 168.345 415.156 167.821 415.156 167.122C415.156 166.423 415.507 165.724 415.859 165.375C416.21 165.026 416.386 166.249 416.386 166.249C416.386 166.249 416.737 165.026 417.088 165.026C417.44 165.026 417.44 165.375 417.44 165.375C417.44 165.375 417.791 164.327 418.142 163.453C418.493 162.754 420.953 161.881 421.831 161.182C422.358 160.832 423.587 159.609 424.114 159.085C424.641 158.386 425.519 157.687 425.519 157.687C422.885 156.639 422.709 153.319 422.709 153.319C424.641 157.163 426.222 157.163 426.222 157.163C427.1 157.163 428.154 157.513 428.154 157.513C428.154 157.513 429.383 157.862 430.086 157.862C430.788 157.862 431.842 157.338 432.369 157.163C432.896 156.989 434.828 156.29 434.828 156.29C434.828 156.29 437.638 155.766 436.409 154.193C436.76 153.669 436.584 152.446 436.058 152.446C436.058 151.747 435.004 151.398 435.004 151.398C435.004 151.398 435.004 152.446 434.652 152.446C434.126 152.621 434.126 151.747 434.126 151.747L432.193 152.795C432.193 152.795 431.315 153.494 430.788 153.494C430.261 153.494 428.856 153.145 428.154 152.97C428.681 152.096 429.91 150.524 429.91 150.349C429.91 150.175 430.613 150.349 431.14 149.825C431.315 149.65 431.315 149.476 431.315 149.126C431.491 147.03 432.896 147.554 433.247 147.03C433.423 146.855 433.423 146.331 433.247 145.981C433.072 145.807 432.018 145.632 432.018 145.632C432.545 145.457 433.247 145.632 433.247 145.632C433.247 145.632 433.423 144.933 433.247 144.583C432.545 144.409 431.842 144.409 431.842 144.409C432.369 143.885 433.072 144.234 433.247 144.059C433.247 143.885 432.896 143.361 432.369 143.361C431.842 143.361 431.315 143.361 430.437 143.885C429.559 144.234 429.559 144.583 428.856 146.855C428.505 147.729 427.978 148.602 427.1 148.602C427.1 148.602 427.451 150.873 426.749 152.446V152.271C427.275 146.855 424.114 144.758 424.114 144.758C425.519 144.933 426.749 145.981 427.1 147.204C427.275 144.758 425.168 143.535 425.168 143.535C426.924 144.059 427.275 145.457 427.275 145.457C427.275 142.137 423.411 142.137 421.655 140.915C419.899 139.691 420.777 138.643 420.777 138.643C420.777 139.691 421.831 140.215 422.533 140.74C423.236 141.089 424.992 141.613 425.695 141.439C426.397 141.264 426.397 140.215 426.222 139.691C426.046 139.167 425.695 139.167 425.695 139.167C425.695 139.167 425.695 139.342 425.519 139.517C424.992 140.215 424.114 139.691 423.587 139.342C422.006 138.294 423.587 137.42 424.641 137.595C425.87 137.769 425.519 138.468 425.519 138.468L426.222 138.119C426.924 137.769 427.1 136.547 427.1 136.372C427.1 136.197 427.1 136.197 427.275 135.847C427.451 135.673 427.627 134.799 427.275 134.45C426.924 134.101 425.343 133.576 424.817 133.227C424.465 132.877 423.411 132.353 422.709 132.353C422.533 132.353 422.006 132.528 422.006 132.528C422.709 132.179 423.236 131.305 422.709 130.082C422.006 128.859 420.074 128.335 420.074 128.335C420.074 128.335 420.425 128.859 420.601 129.733C419.372 128.684 418.493 128.16 416.21 127.811C416.21 127.811 417.615 128.509 417.967 129.383C415.859 128.859 412.697 129.907 412.697 129.907C412.697 129.907 415.507 129.733 416.386 130.955C413.927 130.257 410.941 130.606 409.711 136.372C409.711 136.372 411.117 134.799 412.522 134.625C412.522 134.625 409.009 135.498 410.765 142.137C411.117 139.691 411.819 138.993 411.819 138.993C411.819 138.993 412.346 143.011 410.765 144.583C410.765 144.583 411.468 145.108 412.522 144.234C412.522 144.234 411.819 145.282 412.522 146.505C412.522 146.505 412.697 145.282 413.4 145.108C413.4 145.108 412.697 147.554 413.224 151.223C413.575 152.97 413.575 155.241 413.224 156.29C412.873 157.163 409.711 160.658 409.711 160.658C409.711 160.658 408.658 162.23 408.131 162.58C407.779 162.929 406.023 163.104 405.672 162.58C405.145 162.23 404.969 161.357 405.672 160.308C406.199 159.26 408.482 156.639 408.482 156.639C408.482 156.639 410.414 154.368 411.292 152.97C411.819 152.096 412.346 150.699 412.346 149.301C412.346 147.903 412.346 147.379 411.819 146.505C411.292 145.632 410.765 145.457 410.063 145.457C409.36 145.457 408.658 146.156 408.306 146.855C407.955 147.554 407.604 148.427 407.077 148.427C406.023 148.427 404.442 148.253 404.091 150.873C403.564 155.067 402.159 155.766 402.159 155.766C402.159 155.766 404.267 155.94 405.145 154.892C406.023 153.844 406.55 151.922 406.901 152.096C407.428 152.271 407.077 153.319 407.077 153.319C408.131 151.922 407.955 151.223 407.955 151.223C408.482 151.398 408.482 151.922 408.482 151.922C408.482 151.922 409.36 150.524 408.833 149.65C408.482 148.777 408.658 148.602 408.658 148.253C408.833 147.554 409.36 147.204 409.887 147.03C410.59 147.03 410.941 147.554 411.117 148.602C411.292 149.301 410.941 150.175 410.414 151.048C409.887 152.096 407.604 155.067 407.604 155.067C407.604 155.067 404.969 158.037 404.442 158.736C403.037 160.832 403.388 162.929 403.915 163.453C404.442 163.977 405.145 165.026 405.32 165.55C405.32 166.074 404.969 166.423 404.969 167.472C404.969 168.52 405.672 169.394 405.672 170.092C405.672 170.791 404.969 171.316 403.915 172.014C402.862 172.713 401.105 173.762 401.105 173.762C400.578 174.111 399.876 175.159 400.227 175.858C400.402 176.208 400.227 177.256 400.227 177.256C400.227 177.955 400.402 177.955 400.051 178.654C399.7 179.877 400.578 180.576 400.578 180.576ZM422.709 134.45C423.236 134.101 424.29 134.101 424.465 134.974C424.641 135.673 423.06 135.847 422.709 135.498C422.709 135.323 422.182 134.974 422.709 134.45Z" fill="#D21B33"/>
<path d="M432.896 147.729L433.95 152.271L433.774 152.446L432.72 147.729H432.896Z" fill="black"/>
<path d="M430.788 150.525C430.964 150.525 431.14 150.351 431.315 150.176L431.14 153.67H430.964C430.788 153.67 430.788 153.67 430.613 153.67L430.788 150.525Z" fill="black"/>
<path d="M435.179 151.398C435.179 151.572 435.179 151.572 435.179 151.747C435.179 151.922 435.004 152.796 434.828 152.796C434.301 152.97 434.301 152.271 434.301 152.097C434.301 151.747 434.301 151.398 434.301 151.048C434.828 141.963 431.842 134.799 431.842 134.799L431.491 142.138L431.842 144.06H431.666L431.491 143.186V144.06C431.315 144.06 431.139 144.234 430.964 144.234L431.139 141.264L429.032 131.48L428.154 130.606L428.505 128.51L429.734 130.257L429.207 131.305L431.139 140.216L431.491 133.402C431.491 133.402 431.842 132.703 431.842 132.528C432.018 132.353 432.544 132.179 432.72 132.353C432.896 132.528 432.72 133.052 432.544 133.227C432.369 133.577 431.666 133.926 431.666 133.926C431.666 133.926 435.882 140.565 435.179 151.398Z" fill="black"/>
<path d="M430.964 157.862L430.612 166.248C430.612 166.248 432.369 162.754 433.598 156.988C433.95 156.813 434.301 156.813 434.477 156.639C433.247 163.627 430.612 166.772 430.612 166.772C430.612 166.772 430.964 167.297 431.315 167.821C431.666 168.345 431.666 168.52 431.491 168.694C431.315 168.869 430.964 168.694 430.612 168.17C430.261 167.646 430.261 167.122 430.261 167.122L430.612 158.037C430.788 158.037 430.788 158.036 430.964 157.862Z" fill="black"/>
<rect y="267" width="798" height="155" fill="#006A4F"/>
<path d="M56.84 328.04C61.0533 328.04 64.8933 328.973 68.36 330.84C71.8267 332.707 74.5733 335.373 76.6 338.84C78.6267 342.253 79.64 346.227 79.64 350.76C79.64 355.293 78.6267 359.293 76.6 362.76C74.5733 366.227 71.8 368.92 68.28 370.84C64.8133 372.707 60.9467 373.64 56.68 373.64C52.4667 373.64 48.6267 372.707 45.16 370.84C41.6933 368.92 38.9467 366.227 36.92 362.76C34.9467 359.293 33.96 355.293 33.96 350.76C33.96 346.227 34.9733 342.253 37 338.84C39.0267 335.373 41.7733 332.707 45.24 330.84C48.7067 328.973 52.5733 328.04 56.84 328.04ZM56.76 337.56C53.56 337.56 50.8667 338.707 48.68 341C46.4933 343.293 45.4 346.573 45.4 350.84C45.4 353.72 45.9067 356.173 46.92 358.2C47.9867 360.173 49.3733 361.667 51.08 362.68C52.7867 363.64 54.6533 364.12 56.68 364.12C58.6533 364.12 60.52 363.613 62.28 362.6C64.04 361.587 65.4533 360.093 66.52 358.12C67.64 356.093 68.2 353.667 68.2 350.84C68.2 347.96 67.6667 345.533 66.6 343.56C65.5333 341.533 64.12 340.04 62.36 339.08C60.6533 338.067 58.7867 337.56 56.76 337.56ZM114.083 328.04C117.869 328.04 121.336 329 124.483 330.92C127.629 332.84 130.109 335.533 131.923 339C133.736 342.413 134.643 346.333 134.643 350.76C134.643 355.187 133.736 359.16 131.923 362.68C130.109 366.147 127.629 368.84 124.483 370.76C121.336 372.68 117.869 373.64 114.083 373.64C110.883 373.64 108.083 372.92 105.683 371.48C103.336 370.04 101.389 368.067 99.8425 365.56V394.12H88.5625V328.68H99.8425V335.56C101.283 333.213 103.203 331.373 105.603 330.04C108.056 328.707 110.883 328.04 114.083 328.04ZM111.523 337.8C109.496 337.8 107.576 338.307 105.763 339.32C104.003 340.333 102.563 341.827 101.443 343.8C100.376 345.773 99.8425 348.12 99.8425 350.84C99.8425 353.56 100.376 355.907 101.443 357.88C102.563 359.853 104.003 361.347 105.763 362.36C107.576 363.373 109.496 363.88 111.523 363.88C113.549 363.88 115.443 363.373 117.203 362.36C119.016 361.347 120.456 359.853 121.523 357.88C122.643 355.853 123.203 353.48 123.203 350.76C123.203 348.04 122.643 345.693 121.523 343.72C120.456 341.747 119.016 340.28 117.203 339.32C115.443 338.307 113.549 337.8 111.523 337.8ZM184.524 350.2C184.524 351.747 184.418 353.187 184.204 354.52H151.884C152.151 357.4 153.218 359.72 155.084 361.48C156.951 363.24 159.324 364.12 162.204 364.12C164.444 364.12 166.231 363.693 167.564 362.84C168.898 361.987 169.991 360.813 170.844 359.32H183.004C181.724 363.533 179.244 366.973 175.564 369.64C171.884 372.307 167.431 373.64 162.204 373.64C157.991 373.64 154.231 372.707 150.924 370.84C147.618 368.92 145.031 366.253 143.164 362.84C141.298 359.373 140.364 355.347 140.364 350.76C140.364 346.173 141.298 342.173 143.164 338.76C145.031 335.347 147.618 332.707 150.924 330.84C154.284 328.973 158.098 328.04 162.364 328.04C166.631 328.04 170.418 328.947 173.724 330.76C177.084 332.573 179.724 335.16 181.644 338.52C183.564 341.827 184.524 345.72 184.524 350.2ZM172.844 347.24C172.684 344.307 171.591 341.96 169.564 340.2C167.591 338.44 165.138 337.56 162.204 337.56C159.484 337.56 157.164 338.44 155.244 340.2C153.378 341.96 152.258 344.307 151.884 347.24H172.844ZM218.446 328.04C221.753 328.04 224.686 328.787 227.246 330.28C229.86 331.72 231.913 333.88 233.406 336.76C234.9 339.587 235.646 342.973 235.646 346.92V373H224.446V348.52C224.446 345.053 223.566 342.413 221.806 340.6C220.046 338.733 217.646 337.8 214.606 337.8C211.566 337.8 209.14 338.733 207.326 340.6C205.566 342.413 204.686 345.053 204.686 348.52V373H193.406V328.68H204.686V335.32C206.073 332.973 207.94 331.187 210.286 329.96C212.686 328.68 215.406 328.04 218.446 328.04ZM264.674 328.04C267.821 328.04 270.621 328.707 273.074 330.04C275.528 331.373 277.501 333.213 278.994 335.56V313.8H290.194V373H278.994V365.56C277.448 368.067 275.448 370.04 272.994 371.48C270.594 372.92 267.821 373.64 264.674 373.64C260.888 373.64 257.421 372.68 254.274 370.76C251.181 368.787 248.701 366.067 246.834 362.6C245.021 359.133 244.114 355.187 244.114 350.76C244.114 346.333 245.021 342.413 246.834 339C248.701 335.533 251.181 332.84 254.274 330.92C257.421 329 260.888 328.04 264.674 328.04ZM267.234 337.8C265.261 337.8 263.368 338.307 261.554 339.32C259.794 340.333 258.354 341.827 257.234 343.8C256.114 345.72 255.554 348.04 255.554 350.76C255.554 353.48 256.114 355.853 257.234 357.88C258.354 359.853 259.794 361.347 261.554 362.36C263.368 363.373 265.261 363.88 267.234 363.88C269.261 363.88 271.154 363.373 272.914 362.36C274.728 361.347 276.194 359.853 277.314 357.88C278.434 355.907 278.994 353.56 278.994 350.84C278.994 348.12 278.434 345.773 277.314 343.8C276.194 341.827 274.728 340.333 272.914 339.32C271.154 338.307 269.261 337.8 267.234 337.8ZM319.596 328.04C322.743 328.04 325.543 328.707 327.996 330.04C330.45 331.373 332.423 333.213 333.916 335.56V328.68H345.116V373H333.916V365.56C332.37 368.067 330.37 370.04 327.916 371.48C325.516 372.92 322.743 373.64 319.596 373.64C315.81 373.64 312.343 372.68 309.196 370.76C306.103 368.787 303.623 366.067 301.756 362.6C299.943 359.133 299.036 355.187 299.036 350.76C299.036 346.333 299.943 342.413 301.756 339C303.623 335.533 306.103 332.84 309.196 330.92C312.343 329 315.81 328.04 319.596 328.04ZM322.156 337.8C320.183 337.8 318.29 338.307 316.476 339.32C314.716 340.333 313.276 341.827 312.156 343.8C311.036 345.72 310.476 348.04 310.476 350.76C310.476 353.48 311.036 355.853 312.156 357.88C313.276 359.853 314.716 361.347 316.476 362.36C318.29 363.373 320.183 363.88 322.156 363.88C324.183 363.88 326.076 363.373 327.836 362.36C329.65 361.347 331.116 359.853 332.236 357.88C333.356 355.907 333.916 353.56 333.916 350.84C333.916 348.12 333.356 345.773 332.236 343.8C331.116 341.827 329.65 340.333 327.836 339.32C326.076 338.307 324.183 337.8 322.156 337.8ZM379.638 363.56V373H372.518C367.985 373 364.491 371.96 362.038 369.88C359.585 367.8 358.358 364.36 358.358 359.56V337.88H353.638V328.68H358.358V317.72H369.638V328.68H379.558V337.88H369.638V359.56C369.638 361 369.985 362.04 370.678 362.68C371.371 363.267 372.571 363.56 374.278 363.56H379.638ZM405.846 328.04C408.993 328.04 411.793 328.707 414.246 330.04C416.7 331.373 418.673 333.213 420.166 335.56V328.68H431.366V373H420.166V365.56C418.62 368.067 416.62 370.04 414.166 371.48C411.766 372.92 408.993 373.64 405.846 373.64C402.06 373.64 398.593 372.68 395.446 370.76C392.353 368.787 389.873 366.067 388.006 362.6C386.193 359.133 385.286 355.187 385.286 350.76C385.286 346.333 386.193 342.413 388.006 339C389.873 335.533 392.353 332.84 395.446 330.92C398.593 329 402.06 328.04 405.846 328.04ZM408.406 337.8C406.433 337.8 404.54 338.307 402.726 339.32C400.966 340.333 399.526 341.827 398.406 343.8C397.286 345.72 396.726 348.04 396.726 350.76C396.726 353.48 397.286 355.853 398.406 357.88C399.526 359.853 400.966 361.347 402.726 362.36C404.54 363.373 406.433 363.88 408.406 363.88C410.433 363.88 412.326 363.373 414.086 362.36C415.9 361.347 417.366 359.853 418.486 357.88C419.606 355.907 420.166 353.56 420.166 350.84C420.166 348.12 419.606 345.773 418.486 343.8C417.366 341.827 415.9 340.333 414.086 339.32C412.326 338.307 410.433 337.8 408.406 337.8ZM440.768 366.6C440.768 364.787 441.381 363.267 442.608 362.04C443.835 360.813 445.328 360.2 447.088 360.2C448.901 360.2 450.421 360.813 451.648 362.04C452.928 363.267 453.568 364.787 453.568 366.6C453.568 368.413 452.928 369.933 451.648 371.16C450.421 372.387 448.901 373 447.088 373C445.328 373 443.835 372.387 442.608 371.16C441.381 369.933 440.768 368.413 440.768 366.6ZM480.378 328.04C483.524 328.04 486.324 328.707 488.778 330.04C491.231 331.373 493.204 333.213 494.698 335.56V328.68H505.898V373.32C505.898 377.427 505.071 381.107 503.418 384.36C501.818 387.613 499.364 390.173 496.058 392.04C492.804 393.96 488.778 394.92 483.978 394.92C477.631 394.92 472.458 393.507 468.458 390.68C464.511 387.907 462.271 383.933 461.738 378.76H472.778C473.471 380.733 474.804 382.28 476.778 383.4C478.751 384.573 481.151 385.16 483.978 385.16C487.124 385.16 489.684 384.173 491.658 382.2C493.684 380.227 494.698 377.267 494.698 373.32V365.56C493.151 368.067 491.151 370.04 488.698 371.48C486.298 372.92 483.524 373.64 480.378 373.64C476.591 373.64 473.124 372.68 469.978 370.76C466.884 368.787 464.404 366.067 462.538 362.6C460.724 359.133 459.818 355.187 459.818 350.76C459.818 346.333 460.724 342.413 462.538 339C464.404 335.533 466.884 332.84 469.978 330.92C473.124 329 476.591 328.04 480.378 328.04ZM482.938 337.8C480.964 337.8 479.071 338.307 477.258 339.32C475.498 340.333 474.058 341.827 472.938 343.8C471.818 345.72 471.258 348.04 471.258 350.76C471.258 353.48 471.818 355.853 472.938 357.88C474.058 359.853 475.498 361.347 477.258 362.36C479.071 363.373 480.964 363.88 482.938 363.88C484.964 363.88 486.858 363.373 488.618 362.36C490.431 361.347 491.898 359.853 493.018 357.88C494.138 355.907 494.698 353.56 494.698 350.84C494.698 348.12 494.138 345.773 493.018 343.8C491.898 341.827 490.431 340.333 488.618 339.32C486.858 338.307 484.964 337.8 482.938 337.8ZM537.699 328.04C541.913 328.04 545.753 328.973 549.219 330.84C552.686 332.707 555.433 335.373 557.459 338.84C559.486 342.253 560.499 346.227 560.499 350.76C560.499 355.293 559.486 359.293 557.459 362.76C555.433 366.227 552.659 368.92 549.139 370.84C545.673 372.707 541.806 373.64 537.539 373.64C533.326 373.64 529.486 372.707 526.019 370.84C522.553 368.92 519.806 366.227 517.779 362.76C515.806 359.293 514.819 355.293 514.819 350.76C514.819 346.227 515.833 342.253 517.859 338.84C519.886 335.373 522.633 332.707 526.099 330.84C529.566 328.973 533.433 328.04 537.699 328.04ZM537.619 337.56C534.419 337.56 531.726 338.707 529.539 341C527.353 343.293 526.259 346.573 526.259 350.84C526.259 353.72 526.766 356.173 527.779 358.2C528.846 360.173 530.233 361.667 531.939 362.68C533.646 363.64 535.513 364.12 537.539 364.12C539.513 364.12 541.379 363.613 543.139 362.6C544.899 361.587 546.313 360.093 547.379 358.12C548.499 356.093 549.059 353.667 549.059 350.84C549.059 347.96 548.526 345.533 547.459 343.56C546.393 341.533 544.979 340.04 543.219 339.08C541.513 338.067 539.646 337.56 537.619 337.56ZM611.262 328.68V373H599.982V366.28C598.595 368.627 596.702 370.44 594.302 371.72C591.955 372.947 589.235 373.56 586.142 373.56C582.889 373.56 579.955 372.84 577.342 371.4C574.782 369.907 572.755 367.747 571.262 364.92C569.769 362.04 569.022 358.627 569.022 354.68V328.68H580.222V353.08C580.222 356.547 581.102 359.213 582.862 361.08C584.622 362.947 587.022 363.88 590.062 363.88C593.102 363.88 595.502 362.947 597.262 361.08C599.075 359.213 599.982 356.547 599.982 353.08V328.68H611.262ZM641.25 363.32L652.61 328.68H664.61L648.29 373H634.13L617.81 328.68H629.81L641.25 363.32ZM669.061 367.56C669.061 366.013 669.567 364.707 670.581 363.64C671.647 362.573 672.954 362.04 674.501 362.04C676.047 362.04 677.354 362.573 678.421 363.64C679.487 364.707 680.021 366.013 680.021 367.56C680.021 369.107 679.487 370.413 678.421 371.48C677.354 372.493 676.047 373 674.501 373C673.007 373 671.727 372.467 670.661 371.4C669.594 370.333 669.061 369.053 669.061 367.56Z" fill="white"/>
<path d="M696.849 359.24C696.689 360.253 696.609 361.16 696.609 361.96C696.609 363.667 697.062 364.867 697.969 365.56C698.929 366.253 700.475 366.6 702.609 366.6H707.089L705.889 373H700.449C696.715 373 693.889 372.253 691.969 370.76C690.102 369.267 689.169 366.813 689.169 363.4C689.169 361.853 689.302 360.413 689.569 359.08L693.809 335.4H687.249L688.289 329.08H694.929L696.849 318.12H704.129L702.209 329.08H713.569L712.449 335.4H701.089L696.849 359.24ZM733.973 373.64C728.853 373.64 724.773 372.093 721.733 369C718.693 365.853 717.173 361.56 717.173 356.12C717.173 354.733 717.359 352.867 717.733 350.52C718.533 346.04 720.079 342.147 722.373 338.84C724.666 335.48 727.466 332.92 730.773 331.16C734.133 329.4 737.759 328.52 741.653 328.52C745.973 328.52 749.439 329.587 752.053 331.72C754.719 333.853 756.319 336.707 756.853 340.28L758.853 329.08H766.053L758.133 373.72C757.439 377.773 755.973 381.373 753.733 384.52C751.493 387.667 748.693 390.12 745.333 391.88C741.973 393.64 738.293 394.52 734.293 394.52C728.426 394.52 723.839 393.08 720.533 390.2C717.279 387.373 715.466 383.533 715.093 378.68H722.293C722.719 381.613 723.973 383.907 726.053 385.56C728.133 387.267 731.013 388.12 734.693 388.12C738.693 388.12 742.213 386.867 745.253 384.36C748.293 381.853 750.186 378.307 750.933 373.72L753.093 361.8C751.333 365.373 748.746 368.253 745.333 370.44C741.973 372.573 738.186 373.64 733.973 373.64ZM742.853 334.92C738.319 334.92 734.453 336.36 731.253 339.24C728.053 342.12 726.026 346.067 725.173 351.08C724.906 352.573 724.773 353.88 724.773 355C724.773 358.787 725.866 361.747 728.053 363.88C730.293 366.013 733.333 367.08 737.173 367.08C739.999 367.08 742.666 366.44 745.173 365.16C747.679 363.827 749.786 361.96 751.493 359.56C753.253 357.107 754.426 354.28 755.013 351.08C755.226 350.013 755.333 348.84 755.333 347.56C755.333 343.72 754.186 340.653 751.893 338.36C749.653 336.067 746.639 334.92 742.853 334.92Z" fill="#FFCF11"/>
</svg>
